<svg width="24" height="24" viewBox="0 0 24 24" fill="none" xmlns="http://www.w3.org/2000/svg">
<path fill-rule="evenodd" clip-rule="evenodd" d="M12.4044 21H11.6503V20.4013C10.0219 20.3138 9.00546 19.5907 9 18.5037H10.3333C10.3825 19.0288 10.8798 19.4018 11.6503 19.4755V17.4629L11.1257 17.3523C9.86339 17.0944 9.17486 16.468 9.17486 15.5469C9.17486 14.46 10.1038 13.7507 11.6503 13.6356V13H12.4044V13.6356C13.8798 13.7461 14.8306 14.4876 14.8579 15.5239H13.5519C13.5355 15.0357 13.071 14.6488 12.4044 14.5751V16.4865L12.9454 16.5832C14.3224 16.8595 15 17.4491 15 18.4208C15 19.5676 14.0546 20.2815 12.4044 20.3921V21ZM13.6721 18.5406C13.6721 18.034 13.2732 17.73 12.4044 17.5826V19.4848C13.2076 19.4433 13.6721 19.0933 13.6721 18.5406ZM10.5191 15.4548C10.5191 15.9153 10.9126 16.2239 11.6503 16.3529V14.5705C10.9945 14.6027 10.5191 14.9666 10.5191 15.4548Z" fill="#170D67"/>
<path fill-rule="evenodd" clip-rule="evenodd" d="M20.0526 9H3.94737C3.33106 9 3 8.55387 3 8C3 7.44613 3.33106 7 3.94737 7H20.0526C20.6688 7 21 7.44613 21 8C21 8.55387 20.6652 9 20.0526 9Z" fill="#170D67"/>
<path fill-rule="evenodd" clip-rule="evenodd" d="M16.8923 6H7.10769C6.4426 6 6 5.55381 6 5C6 4.44613 6.4426 4 7.10769 4H16.8923C17.5574 4 18 4.44613 18 5C18.0049 5.55381 17.5574 6 16.8923 6Z" fill="#170D67"/>
<path fill-rule="evenodd" clip-rule="evenodd" d="M13.9714 3H10.0286C9.41099 3 9 2.55381 9 2C9 1.44613 9.41099 1 10.0286 1H13.9714C14.589 1 15 1.44613 15 2C15.0046 2.55381 14.589 3 13.9714 3Z" fill="#170D67"/>
<rect x="1" y="11" width="22" height="12" rx="1.5" stroke="#170D67" stroke-width="2"/>
</svg>
