<svg width="32" height="32" viewBox="0 0 32 32" fill="none" xmlns="http://www.w3.org/2000/svg">
<path d="M5.98058 18.1603C5.87227 17.6187 5.34544 17.2675 4.80388 17.3758C4.26232 17.4841 3.91111 18.011 4.01942 18.5525L5.98058 18.1603ZM14.4316 28.0942C14.9796 28.1634 15.4799 27.7754 15.5492 27.2275C15.6185 26.6796 15.2304 26.1792 14.6825 26.1099L14.4316 28.0942ZM26.0255 14.1626C26.1493 14.7008 26.6861 15.0367 27.2243 14.9128C27.7625 14.7889 28.0984 14.2522 27.9745 13.714L26.0255 14.1626ZM17.1 5.10205L17.1885 4.10598C17.1516 4.10269 17.1145 4.10147 17.0774 4.10231L17.1 5.10205ZM16 4.10205C15.4477 4.10205 15 4.54977 15 5.10205C15 5.65434 15.4477 6.10205 16 6.10205V4.10205ZM4.01942 18.5525C5.02247 23.5677 9.24061 27.4378 14.4316 28.0942L14.6825 26.1099C10.3199 25.5583 6.81019 22.3083 5.98058 18.1603L4.01942 18.5525ZM27.9745 13.714C26.781 8.528 22.3774 4.56717 17.1885 4.10598L17.0115 6.09812C21.2977 6.47909 25.017 9.78059 26.0255 14.1626L27.9745 13.714ZM17.0774 4.10231C16.5776 4.11359 16.3371 4.10205 16 4.10205V6.10205C16.2547 6.10205 16.6007 6.11358 17.1226 6.1018L17.0774 4.10231Z" fill="#170D67"/>
<path fill-rule="evenodd" clip-rule="evenodd" d="M19.1378 8.99519L13.0018 5.20703L18.8586 1.00007L19.1378 8.99519Z" fill="#170D67"/>
<path fill-rule="evenodd" clip-rule="evenodd" d="M11.8622 23.1073L17.9982 26.8955L12.1414 31.1025L11.8622 23.1073Z" fill="#170D67"/>
<path fill-rule="evenodd" clip-rule="evenodd" d="M28 24.752V20.1667L23.5 16L19 20.1667V24.752C19 25.4413 19.5587 26 20.248 26H22.2727V22.7273C22.2727 22.0495 22.8222 21.5 23.5 21.5C24.1778 21.5 24.7273 22.0495 24.7273 22.7273V26H26.752C27.4413 26 28 25.4412 28 24.752Z" fill="#170D67"/>
<path fill-rule="evenodd" clip-rule="evenodd" d="M13 13.752V9.16667L8.5 5L4 9.16667V13.752C4 14.4413 4.55875 15 5.248 15H7.27273V11.7273C7.27273 11.0495 7.8222 10.5 8.5 10.5C9.1778 10.5 9.72727 11.0495 9.72727 11.7273V15H11.752C12.4413 15 13 14.4412 13 13.752Z" fill="#170D67"/>
<path d="M18 21L23.5 16L29 21" stroke="#170D67" stroke-width="1.2" stroke-linecap="round" stroke-linejoin="round"/>
<path d="M3 10L8.5 5L14 10" stroke="#170D67" stroke-width="1.2" stroke-linecap="round" stroke-linejoin="round"/>
</svg>
