<svg width="128" height="128" viewBox="0 0 128 128" fill="none" xmlns="http://www.w3.org/2000/svg">
<path d="M76.2421 97.6389C75.1789 97.6393 60.4106 97.642 58.284 97.6471V73.7582H40.3205L40.155 97.6389H24.7521C22.1065 97.6389 19.9618 95.9276 19.9618 93.8167V54.6389L46.444 28.2331C48.315 26.3675 51.348 26.3679 53.2185 28.234C53.2413 28.2568 53.264 28.2799 53.2864 28.3032L77.2285 53.1778C78.132 54.1164 79.3802 54.647 80.6848 54.6468L114.27 54.6395C115.315 54.6393 115.86 53.3974 115.154 52.628L86.8635 21.8099C85.9548 20.6666 84.5723 20 83.1095 20H48.3722C47.1018 20 45.8835 20.5033 44.9852 21.3991L12 54.2927" stroke="#170D67" stroke-width="2" stroke-linecap="round" stroke-linejoin="round"/>
<path d="M87.0257 97.6389L107.384 77.3333" stroke="#00E4A5" stroke-width="2" stroke-linecap="round"/>
<ellipse cx="97.2051" cy="87.4861" rx="18.5623" ry="18.5139" stroke="#00E4A5" stroke-width="2"/>
<path d="M111.103 58.2222V69.3822" stroke="#170D67" stroke-width="2" stroke-linecap="round" stroke-linejoin="round"/>
<ellipse cx="49.3023" cy="56.4305" rx="7.78421" ry="7.76389" stroke="#170D67" stroke-width="2" stroke-linecap="round" stroke-linejoin="round"/>
</svg>
