<svg width="48" height="48" viewBox="0 0 48 48" fill="none" xmlns="http://www.w3.org/2000/svg">
<path fill-rule="evenodd" clip-rule="evenodd" d="M41 38.9375H9.0625V34.8125H11.125V32.75H9.0625V28.625H11.125V26.5625H9.0625V22.4375H11.125V20.375H9.0625V16.25H11.125V14.1875H9.0625V9C9.0625 8.44772 8.61478 8 8.0625 8H8C7.44772 8 7 8.44771 7 9V40C7 40.5523 7.44772 41 8 41H41C41.5523 41 42 40.5523 42 40V39.9375C42 39.3852 41.5523 38.9375 41 38.9375ZM16.2812 26.5625C14.5725 26.5625 13.1875 27.9485 13.1875 29.6562C13.1865 31.363 14.5704 32.75 16.2792 32.75C17.988 32.75 19.3729 31.363 19.3729 29.6562C19.3729 29.022 19.178 28.4352 18.8532 27.9423L21.5499 24.3484C21.8438 24.4371 22.1439 24.5 22.4667 24.5C23.0988 24.5 23.6877 24.3061 24.1796 23.9803L27.7745 26.6759C27.6869 26.9709 27.6229 27.273 27.6229 27.5938C27.6229 29.3005 29.01 30.6875 30.7167 30.6875C32.4244 30.6875 33.8104 29.3005 33.8104 27.5938C33.8104 26.7615 33.4794 26.0067 32.9421 25.4508L36.5298 18.2743L36.5662 18.2793L36.6057 18.2849C36.7038 18.2988 36.8005 18.3125 36.9032 18.3125C38.6109 18.3125 39.9969 16.9255 39.9969 15.2188C39.9969 13.511 38.6109 12.125 36.9032 12.125C35.1964 12.125 33.8094 13.511 33.8094 15.2188C33.8094 16.052 34.1435 16.8058 34.6808 17.3617L31.0921 24.5382L31.0682 24.5349L31.0196 24.5281L31.0193 24.528H31.0192H31.0192H31.0192H31.0192C30.9204 24.514 30.8223 24.5 30.7188 24.5C30.0856 24.5 29.4977 24.6949 29.0048 25.0197L25.4088 22.323C25.4986 22.0302 25.5625 21.729 25.5625 21.4062C25.5625 19.6985 24.1765 18.3125 22.4688 18.3125C20.762 18.3125 19.375 19.6985 19.375 21.4062C19.375 22.0384 19.5678 22.6272 19.8948 23.1181L17.1991 26.7141C16.9041 26.6264 16.603 26.5625 16.2812 26.5625ZM35.875 15.2188C35.875 15.789 36.336 16.25 36.9062 16.25C37.4776 16.25 37.9375 15.789 37.9375 15.2188C37.9375 14.6485 37.4776 14.1875 36.9062 14.1875C36.336 14.1875 35.875 14.6485 35.875 15.2188ZM30.7188 28.625C30.1485 28.625 29.6875 28.164 29.6875 27.5938C29.6875 27.0235 30.1485 26.5625 30.7188 26.5625C31.2901 26.5625 31.75 27.0235 31.75 27.5938C31.75 28.164 31.2901 28.625 30.7188 28.625ZM21.4375 21.4062C21.4375 21.9765 21.8985 22.4375 22.4688 22.4375C23.0401 22.4375 23.5 21.9765 23.5 21.4062C23.5 20.836 23.0401 20.375 22.4688 20.375C21.8985 20.375 21.4375 20.836 21.4375 21.4062ZM16.2812 30.6875C15.711 30.6875 15.25 30.2265 15.25 29.6562C15.25 29.086 15.711 28.625 16.2812 28.625C16.8526 28.625 17.3125 29.086 17.3125 29.6562C17.3125 30.2265 16.8526 30.6875 16.2812 30.6875Z" fill="#170D67"/>
</svg>
