<svg width="250" height="100" viewBox="0 0 250 100" fill="none" xmlns="http://www.w3.org/2000/svg">
<g id="Opco=Pepco, Color=Inverse">
<g id="Group 12">
<g id="Group 3">
<mask id="mask0_237_1242" style="mask-type:alpha" maskUnits="userSpaceOnUse" x="70" y="24" width="180" height="65">
<path id="Clip 2" fill-rule="evenodd" clip-rule="evenodd" d="M70.2047 24.1381H250V89H70.2047V24.1381Z" fill="white"/>
</mask>
<g mask="url(#mask0_237_1242)">
<path id="Fill 1" fill-rule="evenodd" clip-rule="evenodd" d="M209.087 24.229V29.5334H208.345V26.4644C208.345 26.1462 208.361 25.8507 208.383 25.5779C207.952 26.563 207.407 27.5708 206.704 28.6696H206.061C205.35 27.5708 204.806 26.5554 204.36 25.5703C204.39 25.836 204.405 26.1386 204.405 26.4644V29.5334H203.671V24.229H204.488C205.002 25.4945 205.608 26.6387 206.387 27.8815C207.158 26.6387 207.748 25.4945 208.262 24.229H209.087ZM199.435 28.6392C199.79 28.7756 200.29 28.9272 200.85 28.9272C201.531 28.9272 201.932 28.6696 201.932 28.1391C201.932 27.5405 201.477 27.3586 200.729 27.1161C199.851 26.8282 199.314 26.4417 199.314 25.5859C199.314 24.6539 199.965 24.1381 201.069 24.1381C201.553 24.1381 202.075 24.2523 202.408 24.3882L202.249 25.0474C201.893 24.9267 201.508 24.8352 201.114 24.8352C200.441 24.8352 200.116 25.0853 200.116 25.5632C200.116 26.078 200.457 26.2523 201.114 26.472C202.022 26.7751 202.733 27.0934 202.733 28.132C202.733 29.1621 201.916 29.6243 200.88 29.6243C200.245 29.6243 199.662 29.4955 199.284 29.3288L199.435 28.6392ZM187.586 52.5489C192.232 52.5489 194.428 48.9177 194.428 43.2905C194.428 37.7138 192.232 34.0826 187.586 34.0826C183.091 34.0826 180.744 37.7138 180.744 43.2905C180.744 48.9177 183.091 52.5489 187.586 52.5489V52.5489ZM187.586 56.8975C180.028 56.8975 175.484 51.4244 175.484 43.2905C175.484 35.2071 180.028 29.734 187.586 29.734C195.245 29.734 199.739 35.2071 199.739 43.2905C199.739 51.4244 195.245 56.8975 187.586 56.8975V56.8975ZM173.549 31.2692L172.528 35.4122C170.587 34.5943 168.392 34.0826 166.4 34.0826C161.396 34.0826 158.69 37.7138 158.69 43.341C158.69 49.3259 161.55 52.5489 166.91 52.5489C168.8 52.5489 170.894 52.0377 172.783 51.1172L173.702 55.3117C171.915 56.2332 169.31 56.8975 166.553 56.8975C158.18 56.8975 153.43 51.8326 153.43 43.4435C153.43 35.2071 158.025 29.734 166.043 29.734C168.954 29.734 171.66 30.3988 173.549 31.2692V31.2692ZM136.999 52.5489C142.31 52.5489 144.812 49.1218 144.812 42.9323C144.812 37.8679 142.615 34.0826 137.254 34.0826C135.416 34.0826 133.884 34.5433 132.556 35.1561V51.4244C133.731 51.9866 135.007 52.5489 136.999 52.5489V52.5489ZM137.713 56.846C135.416 56.846 133.884 56.3862 132.556 55.823V65.7993H127.398V32.0366C130.514 30.5023 134.292 29.734 137.51 29.734C145.68 29.734 150.173 34.9515 150.173 42.7777C150.173 51.0652 145.883 56.846 137.713 56.846V56.846ZM105.156 41.1925H117.668C117.718 40.8863 117.718 40.6812 117.718 40.3746C117.718 36.9464 115.931 33.98 112 33.98C108.016 33.98 105.616 36.7934 105.156 41.1925V41.1925ZM122.059 55.1066C119.659 56.2332 116.595 56.8975 113.276 56.8975C105.156 56.8975 99.7952 51.9361 99.7952 43.2905C99.7952 35.3106 104.544 29.734 112 29.734C118.74 29.734 122.722 34.5943 122.722 41.0914C122.722 42.4205 122.621 43.5461 122.519 44.5176H105.106C105.616 49.9917 108.731 52.4984 113.736 52.4984C116.288 52.4984 118.893 51.8841 121.191 50.9131L122.059 55.1066ZM83.3646 52.5489C88.6745 52.5489 91.1767 49.1218 91.1767 42.9323C91.1767 37.8679 88.9806 34.0826 83.6197 34.0826C81.7812 34.0826 80.2492 34.5433 78.921 35.1561V51.4244C80.0964 51.9866 81.3727 52.5489 83.3646 52.5489V52.5489ZM84.0786 56.846C81.7812 56.846 80.2492 56.3862 78.921 55.823V65.7993H73.7638V32.0366C76.8787 30.5023 80.6577 29.734 83.8749 29.734C92.0451 29.734 96.5376 34.9515 96.5376 42.7777C96.5376 51.0652 92.2488 56.846 84.0786 56.846V56.846ZM244.713 83.7877C242.918 81.3952 241.646 79.3578 240.646 76.9142H241.935C242.781 78.985 243.765 80.6142 245.341 82.7703C246.899 80.6313 247.865 78.985 248.712 76.9142H250C248.966 79.3578 247.729 81.4123 245.934 83.7539V88.7961H244.713V83.7877ZM229.308 88.7961V76.9142H230.494C232.562 80.6142 234.596 83.6356 237.086 87.081C237.052 86.6399 237.035 86.0969 237.035 85.4679V76.9142H238.187V88.7961H237.001C234.409 85.3159 232.274 82.3803 230.41 78.9329C230.443 79.5109 230.461 80.1736 230.461 80.8354V88.7961H229.308ZM219.41 84.2297H224.053C223.223 81.8034 222.376 79.6124 221.732 78.1701C221.088 79.6124 220.241 81.8034 219.41 84.2297V84.2297ZM224.41 85.2992H219.055C218.665 86.453 218.292 87.624 217.954 88.7961H216.7C218.021 84.5192 219.427 80.4949 221.088 76.9142H222.359C224.019 80.4949 225.46 84.4672 226.764 88.7961H225.511C225.171 87.624 224.799 86.453 224.41 85.2992V85.2992ZM210.882 77.9827H209.238V83.4326H210.882C212.966 83.4326 214.355 82.8041 214.355 80.7167C214.355 78.6288 212.966 77.9827 210.882 77.9827V77.9827ZM208.019 76.9142H210.898C213.763 76.9142 215.61 78.0686 215.61 80.7167C215.61 83.3639 213.763 84.501 210.898 84.501H209.238V88.7961H208.019V76.9142ZM204.327 76.9142V88.7961H203.175V80.886C203.175 80.2075 203.208 79.5957 203.225 79.0693C202.141 81.5811 200.785 84.1282 198.972 86.9794H197.921C196.109 84.1282 194.737 81.5472 193.635 79.0521C193.686 79.5785 193.703 80.2075 193.703 80.886V88.7961H192.551V76.9142H193.821C195.042 79.9008 196.584 82.7521 198.464 85.7746C200.327 82.7521 201.853 79.9008 203.057 76.9142H204.327ZM184.427 87.8968C187.053 87.8968 188.154 85.6564 188.154 82.8546C188.154 80.0544 187.053 77.8129 184.427 77.8129C181.783 77.8129 180.716 80.0544 180.716 82.8546C180.716 85.6564 181.817 87.8968 184.427 87.8968V87.8968ZM184.427 89.0001C181.055 89.0001 179.445 86.301 179.445 82.8546C179.445 79.4083 181.021 76.7096 184.427 76.7096C187.815 76.7096 189.425 79.4083 189.425 82.8546C189.425 86.301 187.815 89.0001 184.427 89.0001V89.0001ZM169.44 82.991C169.44 79.4083 171.135 76.7096 174.727 76.7096C175.727 76.7096 176.727 76.9314 177.624 77.3032L177.319 78.356C176.523 78.0686 175.743 77.8129 174.744 77.8129C171.863 77.8129 170.712 80.1216 170.712 82.991C170.712 85.91 172.016 87.8968 174.829 87.8968C175.947 87.8968 176.76 87.5902 177.455 87.2861L177.709 88.3384C177.015 88.6935 175.947 89.0001 174.795 89.0001C171.288 89.0001 169.44 86.6061 169.44 82.991V82.991ZM152.597 88.7961V76.9142H153.782C155.85 80.6142 157.883 83.6356 160.374 87.081C160.34 86.6399 160.323 86.0969 160.323 85.4679V76.9142H161.475V88.7961H160.289C157.697 85.3159 155.562 82.3803 153.698 78.9329C153.732 79.5109 153.749 80.1736 153.749 80.8354V88.7961H152.597ZM144.473 87.8968C147.099 87.8968 148.2 85.6564 148.2 82.8546C148.2 80.0544 147.099 77.8129 144.473 77.8129C141.83 77.8129 140.762 80.0544 140.762 82.8546C140.762 85.6564 141.863 87.8968 144.473 87.8968V87.8968ZM144.473 89.0001C141.1 89.0001 139.491 86.301 139.491 82.8546C139.491 79.4083 141.067 76.7096 144.473 76.7096C147.862 76.7096 149.471 79.4083 149.471 82.8546C149.471 86.301 147.862 89.0001 144.473 89.0001V89.0001ZM130.995 76.9142H132.214V87.7266H137.84V88.7961H130.995V76.9142ZM128.207 88.7961H121.294V76.9142H128.207V77.9827H122.514V82.1585H127.393V83.228H122.514V87.7266H128.207V88.7961ZM113.861 83.4326C112.777 84.9082 111.522 86.844 110.625 88.7961H109.337C110.285 86.6399 111.743 84.5192 113.285 82.5662L109.574 76.9142H110.98L114.217 81.8372C115.505 80.2413 116.606 78.4752 117.233 76.9142H118.504C117.707 78.8824 116.386 80.8183 114.776 82.6844L118.775 88.7961H117.386L113.861 83.4326ZM107.181 88.7961H100.268V76.9142H107.181V77.9827H101.488V82.1585H106.367V83.228H101.488V87.7266H107.181V88.7961ZM82.8139 88.7961V76.9142H83.9995C86.067 80.6142 88.1007 83.6356 90.5913 87.081C90.5575 86.6399 90.5398 86.0969 90.5398 85.4679V76.9142H91.6926V88.7961H90.506C87.9141 85.3159 85.779 82.3803 83.9152 78.9329C83.949 79.5109 83.9657 80.1736 83.9657 80.8354V88.7961H82.8139ZM72.9156 84.2297H77.5584C76.7279 81.8034 75.8812 79.6124 75.2373 78.1701C74.5928 79.6124 73.7456 81.8034 72.9156 84.2297V84.2297ZM77.9149 85.2992H72.5601C72.1698 86.453 71.7976 87.624 71.4588 88.7961H70.2047C71.5263 84.5192 72.9327 80.4949 74.5928 76.9142H75.8641C77.5246 80.4949 78.9643 84.4672 80.2694 88.7961H79.0163C78.6764 87.624 78.3042 86.453 77.9149 85.2992V85.2992Z" fill="white"/>
</g>
</g>
<path id="Fill 4" fill-rule="evenodd" clip-rule="evenodd" d="M8.29147 50.389C11.7039 51.4776 13.9736 54.241 15.2307 58.8366C16.1999 62.3794 18.2639 64.7401 21.0424 65.4832C24.4392 66.391 28.4078 64.8073 32.2155 61.022C36.6919 56.5718 39.8633 56.3476 43.2212 56.1101C45.0275 55.9823 46.8953 55.8505 49.0647 55.0189C51.635 54.0338 53.1876 52.687 53.8114 50.9022C54.9727 47.5781 52.7413 43.3397 50.1484 38.9244C48.5746 36.2449 48.1242 33.6326 48.6416 30.1898C49.3148 25.7064 48.1762 21.6387 45.5958 19.3088C43.2031 17.1481 39.7619 16.5702 35.6451 17.6371C30.7809 18.8981 26.4255 16.5783 22.9254 14.7142C20.6249 13.4891 18.6386 12.4313 17.4258 12.9809C16.7561 13.2845 16.2746 14.0958 15.9533 15.4608C13.7915 24.65 11.8698 27.3997 9.28035 29.0441C3.2876 32.8506 0.311909 37.467 0.900896 42.0424C1.38247 45.7777 4.35212 49.1321 8.29147 50.389M22.9728 66.5603C22.2416 66.5603 21.5255 66.4683 20.8291 66.2819C17.7556 65.46 15.4849 62.8937 14.4345 59.0548C13.257 54.7512 11.1658 52.1743 8.04136 51.177C3.80196 49.8247 0.603882 46.196 0.0824667 42.148C-0.771262 35.52 5.20181 30.6556 8.83861 28.3459C11.187 26.8541 13.0619 24.1469 15.1495 15.2709C15.5333 13.6396 16.1667 12.6444 17.0849 12.2272C18.6668 11.5093 20.7172 12.6015 23.3127 13.9837C26.6862 15.7806 30.8848 18.017 35.4383 16.8364C40.9954 15.3967 44.3296 17.0521 46.1485 18.6945C48.9356 21.2108 50.1726 25.5543 49.4575 30.3131C48.9709 33.5528 49.3905 36.0029 50.8599 38.5051C53.5552 43.0947 55.8688 47.517 54.5905 51.1755C53.8916 53.176 52.1317 54.729 49.3597 55.7913C47.0759 56.6668 45.146 56.8032 43.2792 56.9351C40.0786 57.1614 37.0555 57.3756 32.797 61.609C29.5313 64.8553 26.1169 66.5603 22.9728 66.5603" fill="url(#paint0_linear_237_1242)"/>
<path id="Fill 6" fill-rule="evenodd" clip-rule="evenodd" d="M18.5387 16.1432C17.0289 16.1432 15.9185 16.8247 15.2004 18.8803C12.7128 25.9993 11.1713 29.0965 9.09169 31.1562C5.04644 35.1612 3.21089 39.5992 3.92191 43.6518C4.52855 47.1097 6.89105 50.0221 10.4028 51.6422C13.2176 52.941 15.3552 55.1956 16.9371 58.5339C18.1933 61.1845 20.2824 62.9507 22.8199 63.5058C25.9056 64.1823 29.4012 63.0466 32.6633 60.3096C36.1967 57.3452 38.9666 56.743 41.6448 56.161C43.4279 55.7736 45.1117 55.4073 47.0476 54.3899C52.945 51.2896 53.6182 45.7169 49.165 36.8526C47.9472 34.412 46.7672 31.6967 46.3784 28.3721C45.9321 24.559 44.3003 21.4633 41.783 19.6562C39.4159 17.9563 36.4392 17.4744 32.9356 18.2241C29.2857 19.0051 25.9373 17.9992 22.9828 17.1116C21.2385 16.5878 19.758 16.1432 18.5387 16.1432M24.6055 64.5238C23.9399 64.5238 23.2844 64.4546 22.6439 64.3141C19.8513 63.7024 17.5594 61.7756 16.1913 58.8885C14.6961 55.7326 12.6897 53.6079 10.0574 52.3934C6.35098 50.6834 3.75349 47.4694 3.10903 43.7947C2.3496 39.4674 4.26784 34.7697 8.51127 30.5681C10.4895 28.609 11.9812 25.5901 14.4213 18.607C15.98 14.1452 19.3349 15.1526 23.2203 16.3195C26.0795 17.1783 29.3205 18.1518 32.7631 17.4153C36.4518 16.6262 39.7362 17.1687 42.2641 18.9838C44.9725 20.9283 46.7248 24.2286 47.1983 28.2761C47.572 31.4739 48.7192 34.1099 49.9027 36.4818C51.9183 40.4939 52.8961 43.7927 52.891 46.5657C52.8845 50.3424 51.0474 53.2209 47.4308 55.1224C45.3961 56.1919 43.5782 56.5869 41.8198 56.9693C39.1204 57.5558 36.5709 58.11 33.1933 60.9436C30.3951 63.2911 27.4108 64.5238 24.6055 64.5238" fill="url(#paint1_linear_237_1242)"/>
<path id="Fill 8" fill-rule="evenodd" clip-rule="evenodd" d="M21.4821 18.9076C18.4287 18.9076 15.9991 19.4102 14.4334 22.318C13.1692 24.6646 12.2121 26.6621 11.3674 28.4246C10.4895 30.2569 9.73107 31.8392 8.89802 33.2405C6.67369 36.9824 5.90266 40.8824 6.66915 44.5187C7.38874 47.9322 9.46583 50.9107 12.5192 52.9062C14.7072 54.3368 16.7545 56.1181 18.6042 58.2015C22.2128 62.2656 27.915 62.8097 33.1337 59.5857C35.3641 58.2075 37.2975 57.4553 39.1668 56.7273C41.1703 55.9473 43.0628 55.2108 45.0224 53.7731C52.7564 48.0989 49.8099 38.601 48.1842 34.7808C47.396 32.9172 46.4944 31.1647 45.5403 29.3102C45.0829 28.4216 44.6104 27.5027 44.1561 26.5797C41.2933 20.7575 36.2158 17.926 30.2175 18.8116C28.0219 19.1359 25.9333 19.0536 23.9121 18.9732C23.065 18.9394 22.2536 18.9076 21.4821 18.9076M26.3084 62.4662C23.1401 62.4662 20.169 61.2083 17.9875 58.7511C16.1867 56.7228 14.1949 54.989 12.0679 53.5988C5.18357 49.1001 3.58856 40.554 8.18902 32.8172C9.00291 31.4476 9.75377 29.8811 10.6231 28.0665C11.4718 26.2963 12.4335 24.2892 13.7067 21.925C15.9124 17.829 19.6339 17.976 23.9449 18.1468C25.9277 18.2256 27.9781 18.3064 30.097 17.9932C36.47 17.052 41.8652 20.0488 44.8968 26.214C45.3476 27.1304 45.8186 28.0458 46.274 28.9313C47.1933 30.7182 48.1443 32.5656 48.9436 34.4575C50.6465 38.458 53.7215 48.4161 45.51 54.4404C43.4632 55.9423 41.5212 56.698 39.4658 57.4982C37.6308 58.2126 35.7332 58.9511 33.5669 60.2899C31.2054 61.7488 28.7007 62.4662 26.3084 62.4662" fill="url(#paint2_linear_237_1242)"/>
<path id="Fill 10" fill-rule="evenodd" clip-rule="evenodd" d="M28.318 19.3906C22.94 19.3906 17.577 21.5371 13.6311 25.7811C9.97871 29.7094 8.07257 34.8274 8.26268 40.1919C8.45279 45.5569 10.7175 50.5264 14.6382 54.1849C18.5594 57.8434 23.6626 59.7535 29.0235 59.563C34.3783 59.3726 39.3388 57.1038 42.9907 53.1755C50.5301 45.0664 50.0782 32.3247 41.9837 24.7718C38.1255 21.1724 33.2155 19.3906 28.318 19.3906M28.2923 60.4031C22.9954 60.4031 17.9724 58.4259 14.0759 54.7901C9.99333 50.9805 7.63587 45.807 7.43769 40.2212C7.23951 34.6359 9.22432 29.3073 13.0265 25.2174C20.877 16.7748 34.1191 16.3035 42.5465 24.1666C50.9738 32.0302 51.4443 45.2967 43.5953 53.7393C39.7926 57.8292 34.6279 60.191 29.0527 60.3895C28.7986 60.3986 28.5449 60.4031 28.2923 60.4031" fill="url(#paint3_linear_237_1242)"/>
</g>
</g>
<defs>
<linearGradient id="paint0_linear_237_1242" x1="16.3143" y1="63.8527" x2="43.4509" y2="16.8664" gradientUnits="userSpaceOnUse">
<stop offset="0.17" stop-color="#6E06C1"/>
<stop offset="0.25" stop-color="#5F24BD"/>
<stop offset="0.46" stop-color="#3E68B5"/>
<stop offset="0.64" stop-color="#239DAE"/>
<stop offset="0.8" stop-color="#10C4A9"/>
<stop offset="0.92" stop-color="#04DBA6"/>
<stop offset="1" stop-color="#00E4A5"/>
</linearGradient>
<linearGradient id="paint1_linear_237_1242" x1="17.7741" y1="62.0823" x2="42.1479" y2="19.5463" gradientUnits="userSpaceOnUse">
<stop offset="0.17" stop-color="#6E06C1"/>
<stop offset="0.25" stop-color="#5F24BD"/>
<stop offset="0.46" stop-color="#3E68B5"/>
<stop offset="0.64" stop-color="#239DAE"/>
<stop offset="0.8" stop-color="#10C4A9"/>
<stop offset="0.92" stop-color="#04DBA6"/>
<stop offset="1" stop-color="#00E4A5"/>
</linearGradient>
<linearGradient id="paint2_linear_237_1242" x1="19.0473" y1="60.2508" x2="41.1518" y2="21.634" gradientUnits="userSpaceOnUse">
<stop offset="0.17" stop-color="#6E06C1"/>
<stop offset="0.25" stop-color="#5F24BD"/>
<stop offset="0.46" stop-color="#3E68B5"/>
<stop offset="0.64" stop-color="#239DAE"/>
<stop offset="0.8" stop-color="#10C4A9"/>
<stop offset="0.92" stop-color="#04DBA6"/>
<stop offset="1" stop-color="#00E4A5"/>
</linearGradient>
<linearGradient id="paint3_linear_237_1242" x1="19.823" y1="58.3269" x2="40.7253" y2="22.4581" gradientUnits="userSpaceOnUse">
<stop offset="0.17" stop-color="#6E06C1"/>
<stop offset="0.25" stop-color="#5F24BD"/>
<stop offset="0.46" stop-color="#3E68B5"/>
<stop offset="0.64" stop-color="#239DAE"/>
<stop offset="0.8" stop-color="#10C4A9"/>
<stop offset="0.92" stop-color="#04DBA6"/>
<stop offset="1" stop-color="#00E4A5"/>
</linearGradient>
</defs>
</svg>
