<?xml version="1.0" encoding="utf-8"?>
<!-- Generator: Adobe Illustrator 27.1.1, SVG Export Plug-In . SVG Version: 6.00 Build 0)  -->
<svg version="1.1" id="Layer_1" xmlns="http://www.w3.org/2000/svg" xmlns:xlink="http://www.w3.org/1999/xlink" x="0px" y="0px"
	 viewBox="0 0 30 30" style="enable-background:new 0 0 30 30;" xml:space="preserve">
<style type="text/css">
	.st0{fill:#170D67;}
</style>
<g>
	<path class="st0" d="M7.1,21h15.3L14.8,6.5L7.1,21z M15.3,11.1c0.4,0.2,0.5,0.7,0.3,1.1l-1.3,2.2h2.6c0.7,0,1,0.7,0.7,1.3l-2.6,3.6
		c-0.3,0.4-0.8,0.4-1.1,0.2c-0.4-0.3-0.4-0.8-0.2-1.1l1.7-2.3h-2.4c-0.6,0-1-0.7-0.7-1.2l2.1-3.4C14.4,11,14.9,10.9,15.3,11.1z"/>
	<path class="st0" d="M15,0C6.7,0,0,6.7,0,15c0,8.3,6.7,15,15,15c8.3,0,15-6.7,15-15C30,6.7,23.3,0,15,0z M23.8,22.6h-18
		c-0.6,0-1-0.6-0.7-1.2l9-17c0.3-0.6,1.1-0.6,1.4,0l9,17C24.8,22,24.4,22.6,23.8,22.6z"/>
</g>
</svg>
