<svg width="40" height="40" viewBox="0 0 40 40" fill="none" xmlns="http://www.w3.org/2000/svg">
<path fill-rule="evenodd" clip-rule="evenodd" d="M16.0549 11.3204H10.4713C7.66788 11.3204 5.39526 13.4 5.39526 15.9652V20.1454C5.39526 22.7107 7.66788 24.7902 10.4713 24.7902H16.0549C18.8583 24.7902 21.131 22.7107 21.131 20.1454V15.9652C21.131 13.4 18.8583 11.3204 16.0549 11.3204ZM7.42568 15.9652C7.42568 14.426 8.78925 13.1783 10.4713 13.1783H16.0549C17.737 13.1783 19.1005 14.426 19.1005 15.9652V20.1454C19.1005 21.6846 17.737 22.9323 16.0549 22.9323H10.4713C8.78925 22.9323 7.42568 21.6846 7.42568 20.1454V15.9652Z" fill="#170D67"/>
<path fill-rule="evenodd" clip-rule="evenodd" d="M16.6019 15.6757C16.5145 15.8244 16.4705 15.9854 16.4705 16.1565C16.4705 16.4247 16.5673 16.6552 16.7584 16.8402C16.9491 17.0249 17.1852 17.1185 17.4589 17.1185C17.6349 17.1185 17.7999 17.0765 17.9518 16.993C18.1045 16.9089 18.226 16.791 18.3145 16.6411C18.4028 16.4916 18.4473 16.3293 18.4473 16.1565C18.4473 15.9854 18.4029 15.8236 18.3147 15.6734C18.2263 15.5228 18.1046 15.4037 17.9513 15.3181C17.7986 15.2327 17.6337 15.1897 17.4589 15.1897C17.2804 15.1897 17.1137 15.2337 16.9613 15.3213C16.8096 15.4085 16.6892 15.5272 16.6019 15.6757ZM17.2856 16.3235C17.2383 16.2767 17.2161 16.2236 17.2161 16.1565C17.2161 16.0879 17.2391 16.0331 17.288 15.9847C17.3367 15.9366 17.3911 15.9143 17.4589 15.9143C17.5279 15.9143 17.5826 15.937 17.6312 15.9861C17.681 16.0365 17.7041 16.091 17.7041 16.1565C17.7041 16.2202 17.6816 16.2729 17.6329 16.3216C17.5854 16.3691 17.5301 16.3915 17.4589 16.3915C17.3872 16.3915 17.3322 16.3696 17.2856 16.3235Z" fill="#170D67"/>
<path fill-rule="evenodd" clip-rule="evenodd" d="M16.4108 19.4975L16.2727 19.3623H14.3425L14.8339 18.9578C15.2653 18.5717 15.5684 18.2724 15.7435 18.0586C15.9212 17.8417 16.0534 17.6283 16.1396 17.4181C16.2271 17.2048 16.2708 16.9767 16.2708 16.7348C16.2708 16.451 16.1974 16.1961 16.0507 15.9734C15.9044 15.7514 15.699 15.5788 15.4372 15.4569C15.1788 15.3365 14.883 15.2767 14.5513 15.2767C14.3039 15.2767 14.079 15.3007 13.8765 15.3491C13.6741 15.3974 13.4867 15.4665 13.3146 15.5566C13.1428 15.6466 12.9317 15.7966 12.6789 16.0072L12.6629 16.1972L13.2367 16.862L13.4304 16.879C13.6204 16.7251 13.8015 16.6074 13.9732 16.5255C14.1367 16.4475 14.3039 16.4089 14.4762 16.4089C14.6286 16.4089 14.7434 16.4461 14.8268 16.5185C14.9048 16.5861 14.946 16.695 14.946 16.855C14.946 16.9692 14.9243 17.0791 14.8807 17.1857C14.8358 17.2954 14.7604 17.4179 14.6539 17.5523C14.5443 17.6906 14.3043 17.9457 13.9367 18.314L12.6839 19.5528L12.644 20.3661L12.7822 20.5012H16.2727L16.4108 20.3661V19.4975ZM8.69736 16.4924H10.9447L9.15917 20.3098L9.28481 20.5012H10.3914L10.518 20.4201L12.4067 16.1909L12.4182 15.4887L12.2801 15.3536H8.69736L8.5592 15.4887V16.3573L8.69736 16.4924Z" fill="#170D67"/>
<path d="M17.5 30C8.47991 30 4.73529 28 4.73529 28C4.73529 28 2 23.5673 2 18C2 11.6696 4.73529 8 4.73529 8C4.73529 8 9.6594 6 17.5 6C25.3406 6 30.2647 8 30.2647 8C30.2647 8 33 13.1398 33 18" stroke="#170D67" stroke-width="2" stroke-linecap="round" stroke-linejoin="round"/>
<path d="M35.8957 34.3373C38.2742 31.8368 38.697 28.3396 38.697 26.4627C38.697 24.6539 37.1979 23.1876 35.3487 23.1876H29.4891V16.6375C29.4891 15.7331 28.7396 15 27.815 15C26.8904 15 26.1408 15.7331 26.1408 16.6375V24.0064V25.6405C25.7106 25.304 25.3245 25.036 24.9824 24.8364C23.9519 24.2351 22.7743 24.0107 21.4495 24.1632C20.6844 24.2513 20.0945 24.864 20.0505 25.6163C20.01 26.3091 20.4644 26.9373 21.1458 27.1305C21.8347 27.3258 22.3612 27.4796 22.7254 27.5919C23.1121 27.7111 24.2506 28.6251 26.1408 30.3338V31.6315C26.1408 33.2499 27.9489 34.3373 27.9489 34.3373" stroke="#170D67" stroke-width="2" stroke-linecap="round"/>
<path d="M26.1516 25.3212V29.9883" stroke="#170D67" stroke-width="2" stroke-linecap="square"/>
</svg>
