<svg width="104" height="104" viewBox="0 0 104 104" fill="none" xmlns="http://www.w3.org/2000/svg">
<mask id="path-1-inside-1_149_724" fill="white">
<path fill-rule="evenodd" clip-rule="evenodd" d="M24.583 41.2371C29.9977 40.6373 36.7304 39.4661 41.5339 37.1034C56.1202 29.9288 68.8221 19.718 75.3729 14.0056C75.6705 13.7461 76.0789 13.686 76.4768 13.8487C76.8694 14.0092 77.0883 14.3159 77.1075 14.6809L80.775 84.6611C80.8126 85.3791 80.0284 85.8365 79.4252 85.4602C73.8779 82.0006 64.8923 76.4236 61.3894 74.4058C53.6853 69.9682 47.6334 66.9165 43.2862 65.3178C38.3881 63.5164 31.1935 63.0661 25.5262 63.0179C21.0898 62.9801 17.3771 59.6122 17.1549 55.3727L16.8643 49.8264C16.6392 45.531 20.0793 41.736 24.583 41.2371ZM14.867 49.931C14.5805 44.4646 18.9221 39.8519 24.3628 39.2493C29.7489 38.6527 36.1819 37.5071 40.6512 35.3088C55.0102 28.2459 67.5604 18.1645 74.0584 12.4982C75.9274 10.8685 78.9749 12.0999 79.1047 14.5763L80.4484 40.2159C84.9683 40.4772 88.6632 44.1038 88.9056 48.73C89.1481 53.3562 85.8525 57.3493 81.3847 58.0815L82.7722 84.5564C82.8943 86.8856 80.3458 88.3915 78.3668 87.1572C72.8043 83.6881 63.8559 78.1346 60.3911 76.1389C52.7091 71.714 46.7773 68.7326 42.5959 67.1949C38.0566 65.5255 31.1775 65.066 25.5092 65.0178C20.1125 64.9719 15.4401 60.8669 15.1577 55.4774L14.867 49.931ZM81.2792 56.0683C84.6415 55.4062 87.0929 52.3563 86.9084 48.8347C86.7238 45.3131 83.967 42.5361 80.554 42.2291L81.2792 56.0683Z"/>
</mask>
<path d="M41.5339 37.1034L40.6512 35.3088L40.6512 35.3088L41.5339 37.1034ZM24.583 41.2371L24.3628 39.2493L24.3628 39.2493L24.583 41.2371ZM75.3729 14.0056L76.6873 15.513L76.6873 15.513L75.3729 14.0056ZM76.4768 13.8487L75.7199 15.6999L75.7199 15.6999L76.4768 13.8487ZM77.1075 14.6809L75.1102 14.7856L77.1075 14.6809ZM80.775 84.6611L82.7722 84.5564L80.775 84.6611ZM79.4252 85.4602L78.3668 87.1572L78.3668 87.1573L79.4252 85.4602ZM61.3894 74.4058L62.3876 72.6728L61.3894 74.4058ZM43.2862 65.3178L43.9765 63.4407L43.2862 65.3178ZM25.5262 63.0179L25.5432 61.0179L25.5262 63.0179ZM24.3628 39.2493L24.1426 37.2614L24.3628 39.2493ZM40.6512 35.3088L41.5339 37.1034L40.6512 35.3088ZM74.0584 12.4982L75.3729 14.0056L75.3729 14.0056L74.0584 12.4982ZM80.4484 40.2159L78.4512 40.3206L78.5449 42.1092L80.333 42.2126L80.4484 40.2159ZM81.3847 58.0815L81.0613 56.1079L79.2937 56.3976L79.3875 58.1862L81.3847 58.0815ZM78.3668 87.1572L77.3084 88.8543L78.3668 87.1572ZM60.3911 76.1389L61.3894 74.4058L61.3894 74.4058L60.3911 76.1389ZM42.5959 67.1949L41.9056 69.0719L41.9056 69.0719L42.5959 67.1949ZM25.5092 65.0178L25.5262 63.0179L25.5092 65.0178ZM81.2792 56.0683L79.282 56.173L79.4027 58.4763L81.6657 58.0306L81.2792 56.0683ZM80.554 42.2291L80.7331 40.2371L78.436 40.0305L78.5567 42.3338L80.554 42.2291ZM40.6512 35.3088C36.1817 37.5072 29.7484 38.6527 24.3628 39.2493L24.8032 43.225C30.2471 42.622 37.2792 41.4251 42.4166 38.8981L40.6512 35.3088ZM74.0584 12.4982C67.5605 18.1645 55.0102 28.2459 40.6512 35.3088L42.4166 38.8981C57.2301 31.6117 70.0837 21.2714 76.6873 15.513L74.0584 12.4982ZM77.2338 11.9975C76.2007 11.5751 74.9769 11.6973 74.0584 12.4982L76.6873 15.513C76.5454 15.6367 76.3641 15.7209 76.1713 15.7485C75.9818 15.7757 75.8248 15.7428 75.7199 15.6999L77.2338 11.9975ZM79.1047 14.5763C79.0413 13.3656 78.2734 12.4226 77.2338 11.9975L75.7199 15.6999C75.6206 15.6593 75.465 15.5662 75.3291 15.3839C75.1904 15.198 75.1206 14.9831 75.1102 14.7856L79.1047 14.5763ZM82.7722 84.5564L79.1047 14.5763L75.1102 14.7856L78.7777 84.7658L82.7722 84.5564ZM78.3668 87.1573C80.3394 88.3875 82.8947 86.8931 82.7722 84.5564L78.7777 84.7658C78.7305 83.8651 79.7174 83.2854 80.4835 83.7632L78.3668 87.1573ZM60.3911 76.1389C63.8559 78.1346 72.8044 83.6881 78.3668 87.1572L80.4835 83.7632C74.9514 80.313 65.9288 74.7125 62.3876 72.6728L60.3911 76.1389ZM42.5959 67.1949C46.7774 68.7326 52.7092 71.714 60.3911 76.1389L62.3876 72.6728C54.6614 68.2224 48.4894 65.1003 43.9765 63.4407L42.5959 67.1949ZM25.5092 65.0178C31.1768 65.066 38.0564 65.5254 42.5959 67.1949L43.9765 63.4407C38.7198 61.5075 31.2103 61.0661 25.5432 61.0179L25.5092 65.0178ZM15.1577 55.4774C15.4398 60.8608 20.106 64.9718 25.5092 65.0178L25.5432 61.0179C22.0736 60.9884 19.3144 58.3636 19.1522 55.268L15.1577 55.4774ZM14.867 49.931L15.1577 55.4774L19.1522 55.268L18.8615 49.7217L14.867 49.931ZM24.3628 39.2493C18.9145 39.8528 14.5809 44.4718 14.867 49.931L18.8615 49.7217C18.6974 46.5901 21.244 43.6192 24.8032 43.225L24.3628 39.2493ZM24.1426 37.2614C17.765 37.9679 12.5219 43.3983 12.8698 50.0357L16.8643 49.8264C16.6392 45.531 20.0793 41.736 24.583 41.2371L24.1426 37.2614ZM39.7684 33.5141C35.6334 35.5481 29.5001 36.668 24.1426 37.2614L24.583 41.2371C29.9977 40.6373 36.7304 39.4661 41.5339 37.1034L39.7684 33.5141ZM72.744 10.9908C66.2988 16.6111 53.9002 26.5631 39.7684 33.5141L41.5339 37.1034C56.1202 29.9288 68.8221 19.718 75.3729 14.0056L72.744 10.9908ZM81.102 14.4716C80.8809 10.254 75.8123 8.31522 72.744 10.9908L75.3729 14.0056C75.6705 13.7461 76.0789 13.686 76.4768 13.8487C76.8694 14.0092 77.0883 14.3159 77.1075 14.6809L81.102 14.4716ZM82.4457 40.1112L81.102 14.4716L77.1075 14.6809L78.4512 40.3206L82.4457 40.1112ZM90.9029 48.6254C90.6065 42.9698 86.0902 38.5387 80.5639 38.2192L80.333 42.2126C83.8463 42.4156 86.7199 45.2379 86.9084 48.8347L90.9029 48.6254ZM81.7082 60.0552C87.1709 59.1599 91.1993 54.2809 90.9029 48.6254L86.9084 48.8347C87.0969 52.4315 84.5341 55.5387 81.0613 56.1079L81.7082 60.0552ZM84.7695 84.4518L83.382 57.9769L79.3875 58.1862L80.775 84.6611L84.7695 84.4518ZM77.3084 88.8543C80.6632 90.9465 84.976 88.3921 84.7695 84.4518L80.775 84.6611C80.8126 85.3791 80.0284 85.8365 79.4252 85.4602L77.3084 88.8543ZM59.3929 77.8719C62.8194 79.8457 71.7308 85.3756 77.3084 88.8543L79.4252 85.4602C73.8779 82.0006 64.8923 76.4236 61.3894 74.4058L59.3929 77.8719ZM41.9056 69.0719C45.9213 70.5488 51.7329 73.4597 59.3929 77.8719L61.3894 74.4058C53.6853 69.9682 47.6334 66.9165 43.2862 65.3178L41.9056 69.0719ZM25.4922 67.0177C31.1615 67.066 37.7252 67.5346 41.9056 69.0719L43.2862 65.3178C38.3881 63.5164 31.1935 63.0661 25.5262 63.0179L25.4922 67.0177ZM13.1604 55.5821C13.5032 62.1216 19.1351 66.9636 25.4922 67.0177L25.5262 63.0179C21.0898 62.9801 17.3771 59.6122 17.1549 55.3727L13.1604 55.5821ZM12.8698 50.0357L13.1604 55.5821L17.1549 55.3727L16.8643 49.8264L12.8698 50.0357ZM84.9111 48.9394C85.0429 51.4531 83.2926 53.6335 80.8928 54.106L81.6657 58.0306C85.9904 57.179 89.143 53.2596 88.9056 48.73L84.9111 48.9394ZM80.3748 44.2211C82.8108 44.4402 84.7794 46.4256 84.9111 48.9394L88.9056 48.73C88.6682 44.2005 85.1232 40.6321 80.7331 40.2371L80.3748 44.2211ZM83.2765 55.9637L82.5512 42.1244L78.5567 42.3338L79.282 56.173L83.2765 55.9637Z" fill="#170D67" mask="url(#path-1-inside-1_149_724)"/>
<rect x="42.4915" y="35.4596" width="2" height="32" transform="rotate(-3 42.4915 35.4596)" fill="#170D67"/>
<rect x="78.0986" y="33.5935" width="2" height="32" transform="rotate(-3 78.0986 33.5935)" fill="#170D67"/>
<path d="M41.4038 69.4232C41.6239 71.9391 41.9541 75.7129 42.3943 80.7446C42.6694 83.8885 40.2163 86.6712 36.9152 86.96C33.6141 87.2488 30.715 84.9343 30.44 81.7904L29.1949 67.5591" stroke="#170D67" stroke-width="2" stroke-linecap="round"/>
</svg>
