<svg width="30" height="30" viewBox="0 0 30 30" fill="none" xmlns="http://www.w3.org/2000/svg">
<circle cx="15" cy="15" r="15" fill="#170D67"/>
<path fill-rule="evenodd" clip-rule="evenodd" d="M24.5081 21.4257L15.5081 4.42569C15.2076 3.8581 14.3946 3.8581 14.0941 4.42569L5.09407 21.4257C4.812 21.9585 5.19824 22.6 5.8011 22.6H23.8011C24.404 22.6 24.7902 21.9585 24.5081 21.4257ZM7.12982 21L14.8011 6.50981L22.4724 21H7.12982Z" fill="white"/>
<path d="M15.2462 15.9917H12.8013C12.1748 15.9917 11.7914 15.3043 12.1206 14.7714L14.2153 11.3796C14.4475 11.0037 14.9404 10.8872 15.3163 11.1193C15.6923 11.3515 15.8088 11.8444 15.5766 12.2204L14.2356 14.3917H16.8013C17.4521 14.3917 17.8305 15.1274 17.4521 15.6569L14.8735 19.2651C14.6166 19.6246 14.1169 19.7078 13.7574 19.4509C13.398 19.194 13.3148 18.6943 13.5717 18.3348L15.2462 15.9917Z" fill="white"/>
</svg>
