<svg width="80" height="72" viewBox="0 0 80 72" fill="none" xmlns="http://www.w3.org/2000/svg">
<rect x="12" y="54" width="56" height="4" rx="2" fill="#170D67"/>
<path fill-rule="evenodd" clip-rule="evenodd" d="M41.836 38.4667C44.3767 38.9131 45.6471 39.9919 45.6471 41.7031C45.6471 42.7128 45.2253 43.5219 44.3817 44.1303C43.5381 44.7388 42.022 45.1609 41.4118 45.2025V47.6154H38.5882V45.2104C38.0391 45.1843 36.5876 44.8026 35.6977 44.21C34.8078 43.6175 34.3596 42.8323 34.3529 41.8545H37.1914C37.2244 42.269 37.4395 42.6171 37.8364 42.8988C38.2334 43.1804 38.7462 43.3478 39.3747 43.401C39.3747 43.401 41.2865 43.716 42.2926 42.9785C42.6523 42.7147 42.8384 42.3833 42.8384 41.9582C42.8384 41.5702 42.682 41.2857 42.3323 41.0175C41.7827 40.5962 39.3747 40.2921 39.3747 40.2921L38.3227 40.0929C37.1252 39.8697 36.2138 39.4857 35.5885 38.941C34.9633 38.3963 34.6507 37.7094 34.6507 36.8804C34.6507 35.9026 35.0789 35.1234 35.8962 34.5169C36.7135 33.9104 38.2073 33.5012 38.5882 33.4767V31H41.4118V33.4847C41.9574 33.5243 43.3608 33.8782 44.1038 34.5409C44.8468 35.2035 45.3592 35.9053 45.3791 36.8246H42.6201C42.6068 36.4473 42.4282 36.1178 42.0841 35.8362C41.7562 35.5677 41.3451 35.3891 40.848 35.335C39.2964 35.166 38.4089 35.4593 38.0399 35.7365C37.6709 36.0138 37.5189 36.3038 37.5189 36.6811C37.5189 37.6517 39.5293 38.069 40.7741 38.2961L41.836 38.4667Z" fill="#170D67"/>
<path fill-rule="evenodd" clip-rule="evenodd" d="M15 29.5C15 28.6716 15.6716 28 16.5 28H20.5C21.3284 28 22 28.6716 22 29.5C22 30.1531 21.5826 30.7087 21 30.9146V49.0854C21.5826 49.2913 22 49.8469 22 50.5C22 51.3284 21.3284 52 20.5 52H16.5C15.6716 52 15 51.3284 15 50.5C15 49.8469 15.4174 49.2913 16 49.0854V30.9146C15.4174 30.7087 15 30.1531 15 29.5Z" fill="#170D67"/>
<path fill-rule="evenodd" clip-rule="evenodd" d="M49 29.5C49 28.6716 49.6716 28 50.5 28H54.5C55.3284 28 56 28.6716 56 29.5C56 30.1531 55.5826 30.7087 55 30.9146V49.0854C55.5826 49.2913 56 49.8469 56 50.5C56 51.3284 55.3284 52 54.5 52H50.5C49.6716 52 49 51.3284 49 50.5C49 49.8469 49.4174 49.2913 50 49.0854V30.9146C49.4174 30.7087 49 30.1531 49 29.5Z" fill="#170D67"/>
<path fill-rule="evenodd" clip-rule="evenodd" d="M24 29.5C24 28.6716 24.6716 28 25.5 28H29.5C30.3284 28 31 28.6716 31 29.5C31 30.1531 30.5826 30.7087 30 30.9146V49.0854C30.5826 49.2913 31 49.8469 31 50.5C31 51.3284 30.3284 52 29.5 52H25.5C24.6716 52 24 51.3284 24 50.5C24 49.8469 24.4174 49.2913 25 49.0854V30.9146C24.4174 30.7087 24 30.1531 24 29.5Z" fill="#170D67"/>
<path fill-rule="evenodd" clip-rule="evenodd" d="M58 29.5C58 28.6716 58.6716 28 59.5 28H63.5C64.3284 28 65 28.6716 65 29.5C65 30.1531 64.5826 30.7087 64 30.9146V49.0854C64.5826 49.2913 65 49.8469 65 50.5C65 51.3284 64.3284 52 63.5 52H59.5C58.6716 52 58 51.3284 58 50.5C58 49.8469 58.4174 49.2913 59 49.0854V30.9146C58.4174 30.7087 58 30.1531 58 29.5Z" fill="#170D67"/>
<rect x="12" y="24" width="56" height="2" rx="1" fill="#170D67"/>
<path d="M13 22V19.1429L40 12L67 19.1429V22H13Z" fill="#170D67"/>
</svg>
