<svg width="128" height="128" viewBox="0 0 128 128" fill="none" xmlns="http://www.w3.org/2000/svg">
<path d="M34.4348 70.6144C34.7672 71.0555 35.3942 71.1436 35.8352 70.8112C36.2763 70.4789 36.3644 69.8519 36.0321 69.4108L34.4348 70.6144ZM27.517 59.7725L28.3156 59.1707C28.0738 58.8498 27.6633 58.7048 27.2735 58.8027L27.517 59.7725ZM8.74899 53.1446L7.95036 53.7464L8.74899 53.1446ZM8.49297 31.8194L9.29161 31.2176C9.10019 30.9635 8.79934 30.8157 8.4813 30.8195C8.16325 30.8232 7.86594 30.978 7.6805 31.2364L8.49297 31.8194ZM17.4974 43.7687L18.2961 43.1669L17.4974 43.7687ZM25.9301 37.4143L26.7287 36.8124L25.9301 37.4143ZM16.892 25.4203L16.5455 24.4822C16.2489 24.5918 16.0216 24.8352 15.9325 25.1386C15.8434 25.4419 15.9031 25.7696 16.0934 26.0221L16.892 25.4203ZM37.4999 31.4793L38.2985 30.8774L37.4999 31.4793ZM38.6979 51.3471L37.8327 50.8457C37.6312 51.1934 37.6574 51.628 37.8993 51.9489L38.6979 51.3471ZM41.7072 57.0023C42.0396 57.4433 42.6666 57.5315 43.1077 57.1991C43.5487 56.8667 43.6369 56.2397 43.3045 55.7986L41.7072 57.0023ZM70.38 91.7291C70.0476 91.288 69.4206 91.1999 68.9796 91.5322C68.5385 91.8646 68.4504 92.4916 68.7827 92.9327L70.38 91.7291ZM71.2987 94.6098L72.0973 94.008L71.2987 94.6098ZM60.1178 103.035L59.3192 103.637L60.1178 103.035ZM52.952 91.7291C52.6196 91.288 51.9926 91.1999 51.5516 91.5322C51.1105 91.8646 51.0224 92.4916 51.3547 92.9327L52.952 91.7291ZM36.0321 69.4108C34.4274 67.2813 31.8552 63.8679 28.3156 59.1707L26.7184 60.3744C30.258 65.0716 32.8301 68.4849 34.4348 70.6144L36.0321 69.4108ZM27.2735 58.8027C20.8436 60.4172 13.7858 58.1671 9.54763 52.5428L7.95036 53.7464C12.6892 60.0351 20.5787 62.5458 27.7605 60.7424L27.2735 58.8027ZM9.54763 52.5428C4.96139 46.4566 5.08373 38.2857 9.30544 32.4024L7.6805 31.2364C2.96326 37.8103 2.82264 46.9417 7.95036 53.7464L9.54763 52.5428ZM7.69434 32.4212L16.6988 44.3705L18.2961 43.1669L9.29161 31.2176L7.69434 32.4212ZM16.6988 44.3705C17.137 44.9521 17.7974 45.0885 18.3222 45.0751C18.8451 45.0617 19.4027 44.9036 19.9297 44.694C20.9965 44.2699 22.2096 43.5241 23.3027 42.6933C24.3964 41.8621 25.4385 40.8939 26.1361 39.986C26.4806 39.5376 26.7841 39.0491 26.9431 38.5583C27.1001 38.0737 27.1692 37.397 26.7287 36.8124L25.1315 38.0161C25.0125 37.8582 25.1009 37.7554 25.0405 37.9418C24.9821 38.122 24.8314 38.4013 24.5502 38.7674C23.9962 39.4883 23.1006 40.3349 22.0926 41.101C21.0841 41.8674 20.0315 42.5013 19.1908 42.8355C18.7641 43.0052 18.4575 43.0709 18.2711 43.0757C18.0864 43.0804 18.1923 43.0292 18.2961 43.1669L16.6988 44.3705ZM26.7287 36.8124L17.6906 24.8185L16.0934 26.0221L25.1315 38.0161L26.7287 36.8124ZM17.2385 26.3583C24.0958 23.8252 32.077 25.9444 36.7012 32.0811L38.2985 30.8774C33.1283 24.0163 24.208 21.6517 16.5455 24.4822L17.2385 26.3583ZM36.7012 32.0811C40.9395 37.7054 41.157 45.11 37.8327 50.8457L39.5631 51.8486C43.2762 45.442 43.0373 37.1661 38.2985 30.8774L36.7012 32.0811ZM37.8993 51.9489C39.6122 54.2221 40.8815 55.9065 41.7072 57.0023L43.3045 55.7986C42.4788 54.7029 41.2095 53.0185 39.4965 50.7453L37.8993 51.9489ZM68.7827 92.9327C68.9735 93.1859 69.2121 93.5024 69.4983 93.8823C69.7845 94.2621 70.1184 94.7052 70.5001 95.2117L72.0973 94.008C71.7157 93.5016 71.3818 93.0585 71.0956 92.6786C70.8093 92.2988 70.5708 91.9823 70.38 91.7291L68.7827 92.9327ZM70.5001 95.2117C72.4943 97.8581 71.9656 101.62 69.3191 103.614L70.5228 105.212C74.0514 102.553 74.7563 97.5366 72.0973 94.008L70.5001 95.2117ZM69.3191 103.614C66.6727 105.609 62.9107 105.08 60.9164 102.433L59.3192 103.637C61.9781 107.166 66.9942 107.871 70.5228 105.212L69.3191 103.614ZM60.9164 102.433C59.3469 100.351 57.7511 98.1991 56.3498 96.3057C54.9506 94.4152 53.7416 92.7768 52.952 91.7291L51.3547 92.9327C52.1375 93.9714 53.3384 95.5987 54.7422 97.4955C56.1439 99.3895 57.7441 101.547 59.3192 103.637L60.9164 102.433Z" fill="#170D67"/>
<path d="M49.0911 73.7536C48.8952 74.27 49.155 74.8474 49.6713 75.0433C50.1877 75.2392 50.7651 74.9794 50.961 74.463L49.0911 73.7536ZM66.6182 54.5369C67.1025 54.2715 67.2799 53.6637 67.0144 53.1794C66.749 52.6951 66.1412 52.5176 65.6569 52.7831L66.6182 54.5369ZM71.3731 50.436C70.842 50.5874 70.5342 51.1407 70.6856 51.6719C70.8371 52.203 71.3904 52.5107 71.9215 52.3593L71.3731 50.436ZM75.9703 51.5394C76.5184 51.4712 76.9074 50.9716 76.8392 50.4235C76.7709 49.8755 76.2714 49.4865 75.7233 49.5547L75.9703 51.5394ZM50.961 74.463C54.3033 65.6533 59.4802 58.4494 66.6182 54.5369L65.6569 52.7831C57.9616 57.001 52.5355 64.6746 49.0911 73.7536L50.961 74.463ZM71.9215 52.3593C73.2158 51.9902 74.5649 51.7143 75.9703 51.5394L75.7233 49.5547C74.2174 49.7421 72.7674 50.0383 71.3731 50.436L71.9215 52.3593Z" fill="#170D67"/>
<path d="M118.561 88.1555C119.22 88.1555 119.742 88.1555 120.115 88.1555C126.128 88.1555 126.128 79.1429 120.115 79.1429C120.115 69.835 111.036 41.8871 79.9849 41.8871C59.284 41.8871 46.0334 54.3809 38.2029 79.1429C25.401 80.3075 19 83.3117 19 88.1555C19 88.1555 52.2625 88.1555 78.2441 88.1555" stroke="#170D67" stroke-width="2" stroke-linecap="round" stroke-linejoin="round"/>
<circle cx="98.5" cy="85.5" r="15.5" stroke="#00E4A5" stroke-width="2"/>
<path d="M98.4001 77.726V87.2571L105.382 83.9242" stroke="#00E4A5" stroke-width="2" stroke-linecap="round" stroke-linejoin="round"/>
</svg>
