<svg width="80" height="48" viewBox="0 0 80 48" fill="none" xmlns="http://www.w3.org/2000/svg">
<rect x="2" y="2" width="76" height="44" rx="10" fill="#F7F7F8"/>
<path d="M21 13V11L40 6L59 11V13H21Z" fill="#170D67"/>
<path fill-rule="evenodd" clip-rule="evenodd" d="M41.3005 26.3926C43.1002 26.715 44 27.4941 44 28.73C44 29.4592 43.7012 30.0436 43.1037 30.483C42.5061 30.9225 41.4322 31.2273 41 31.2573V33H39V31.2631C38.611 31.2442 37.5829 30.9685 36.9525 30.5406C36.3222 30.1126 36.0047 29.5456 36 28.8394H38.0105C38.034 29.1387 38.1863 29.3901 38.4675 29.5936C38.7487 29.797 39.1119 29.9179 39.5571 29.9562C39.5571 29.9562 40.9112 30.1838 41.6239 29.6511C41.8787 29.4607 42.0105 29.2213 42.0105 28.9142C42.0105 28.634 41.8998 28.4286 41.652 28.2349C41.2628 27.9306 39.5571 27.711 39.5571 27.711L38.812 27.5671C37.9637 27.4059 37.3181 27.1286 36.8752 26.7352C36.4323 26.3418 36.2109 25.8457 36.2109 25.247C36.2109 24.5408 36.5142 23.978 37.0931 23.54C37.6721 23.102 38.7302 22.8064 39 22.7887V21H41V22.7945C41.3865 22.8231 42.3805 23.0787 42.9069 23.5573C43.4332 24.0359 43.7961 24.5427 43.8102 25.2067H41.8559C41.8465 24.9342 41.72 24.6962 41.4763 24.4928C41.244 24.2989 40.9528 24.1699 40.6007 24.1308C39.5016 24.0087 38.873 24.2206 38.6116 24.4208C38.3502 24.6211 38.2425 24.8305 38.2425 25.1031C38.2425 25.804 39.6666 26.1054 40.5483 26.2694L41.3005 26.3926Z" fill="#170D67"/>
<rect x="23" y="21" width="3" height="13" fill="#170D67"/>
<rect x="48" y="21" width="3" height="13" fill="#170D67"/>
<rect x="29" y="21" width="3" height="13" fill="#170D67"/>
<rect x="54" y="21" width="3" height="13" fill="#170D67"/>
<rect x="20" y="37" width="40" height="4" rx="2" fill="#170D67"/>
<rect x="20" y="15" width="40" height="2" rx="1" fill="#170D67"/>
<rect x="22" y="19" width="5" height="2" rx="1" fill="#170D67"/>
<rect x="22" y="33" width="5" height="2" rx="1" fill="#170D67"/>
<rect x="47" y="19" width="5" height="2" rx="1" fill="#170D67"/>
<rect x="47" y="33" width="5" height="2" rx="1" fill="#170D67"/>
<rect x="28" y="19" width="5" height="2" rx="1" fill="#170D67"/>
<rect x="28" y="33" width="5" height="2" rx="1" fill="#170D67"/>
<rect x="53" y="19" width="5" height="2" rx="1" fill="#170D67"/>
<rect x="53" y="33" width="5" height="2" rx="1" fill="#170D67"/>
</svg>
