<svg width="176" height="70" viewBox="0 0 176 70" fill="none" xmlns="http://www.w3.org/2000/svg">
<circle cx="109" cy="24" r="10" stroke="#00E4A5" stroke-width="2" stroke-linecap="round" stroke-linejoin="round"/>
<rect x="108" y="37" width="2" height="10" rx="1" fill="#00E4A5"/>
<rect x="108" y="1" width="2" height="10" rx="1" fill="#00E4A5"/>
<rect x="132" y="23" width="2" height="10" rx="1" transform="rotate(90 132 23)" fill="#00E4A5"/>
<rect x="124.121" y="8.46447" width="2" height="8" rx="1" transform="rotate(45 124.121 8.46447)" fill="#00E4A5"/>
<rect x="100.536" y="14.1213" width="2" height="8" rx="1" transform="rotate(135 100.536 14.1213)" fill="#00E4A5"/>
<rect x="98.1213" y="33.4645" width="2" height="8" rx="1" transform="rotate(45 98.1213 33.4645)" fill="#00E4A5"/>
<rect x="96" y="23" width="2" height="10" rx="1" transform="rotate(90 96 23)" fill="#00E4A5"/>
<rect x="38" y="16" width="12" height="53" rx="6" stroke="#170D67" stroke-width="2"/>
<path fill-rule="evenodd" clip-rule="evenodd" d="M57 7C57 3.68629 59.6863 1 63 1V1C66.3137 1 69 3.68629 69 7V63C69 66.3137 66.3137 69 63 69V69C59.6863 69 57 66.3137 57 63V7Z" stroke="#170D67" stroke-width="2"/>
<path fill-rule="evenodd" clip-rule="evenodd" d="M77 42C77 38.6863 79.6863 36 83 36V36C86.3137 36 89 38.6863 89 42V63C89 66.3137 86.3137 69 83 69V69C79.6863 69 77 66.3137 77 63V42Z" stroke="#170D67" stroke-width="2"/>
<path fill-rule="evenodd" clip-rule="evenodd" d="M85.5176 10.2632C82.7717 15.7021 80.4776 23.4681 78.987 32.6601C78.8986 33.2052 78.385 33.5755 77.8398 33.4871C77.2947 33.3987 76.9244 32.8851 77.0128 32.3399C78.5222 23.0319 80.8615 15.0479 83.7322 9.36181C85.1668 6.52033 86.757 4.20651 88.4818 2.59055C90.2096 0.971771 92.1338 0 94.1999 0C98.0567 0 101.059 2.12825 103.437 5.19849C103.775 5.63513 103.696 6.26325 103.259 6.60143C102.822 6.9396 102.194 6.85979 101.856 6.42315C99.6932 3.63073 97.2127 2 94.1999 2C92.7993 2 91.3402 2.65323 89.8492 4.05007C88.3553 5.44974 86.8913 7.54217 85.5176 10.2632ZM122.455 40.2742C121.867 40.9784 121.037 41.7692 119.9 41.7692C118.871 41.7692 117.99 41.3017 117.254 40.6144C116.528 39.9368 115.893 39.0005 115.317 37.9255C115.056 37.4387 115.239 36.8326 115.726 36.5717C116.213 36.3108 116.819 36.4939 117.08 36.9807C117.608 37.9657 118.121 38.6875 118.619 39.1529C119.107 39.6087 119.524 39.7692 119.9 39.7692C120.063 39.7692 120.37 39.6514 120.92 38.9927C121.264 38.5794 121.591 38.1013 121.967 37.5524C122.179 37.2422 122.406 36.9093 122.661 36.5528C123.97 34.724 125.859 32.5 129 32.5C130.881 32.5 132.314 34.0147 133.408 35.8694C134.544 37.7946 135.54 40.4638 136.434 43.5169C138.227 49.6359 139.686 57.5662 140.984 64.824C141.036 65.1154 140.957 65.4149 140.767 65.6419C140.577 65.8689 140.296 66 140 66H139.976H139.953H139.929H139.905H139.881H139.857H139.832H139.808H139.783H139.758H139.733H139.708H139.683H139.658H139.632H139.607H139.581H139.555H139.529H139.502H139.476H139.449H139.423H139.396H139.369H139.342H139.314H139.287H139.259H139.231H139.203H139.175H139.147H139.118H139.09H139.061H139.032H139.003H138.974H138.944H138.915H138.885H138.855H138.825H138.794H138.764H138.733H138.703H138.672H138.64H138.609H138.578H138.546H138.514H138.482H138.45H138.417H138.385H138.352H138.319H138.286H138.253H138.219H138.186H138.152H138.118H138.084H138.049H138.015H137.98H137.945H137.91H137.875H137.839H137.803H137.767H137.731H137.695H137.659H137.622H137.585H137.548H137.511H137.473H137.436H137.398H137.36H137.321H137.283H137.244H137.205H137.166H137.127H137.088H137.048H137.008H136.968H136.928H136.887H136.846H136.805H136.764H136.723H136.681H136.64H136.598H136.555H136.513H136.47H136.428H136.384H136.341H136.298H136.254H136.21H136.166H136.122H136.077H136.032H135.987H135.942H135.896H135.851H135.805H135.758H135.712H135.665H135.619H135.571H135.524H135.477H135.429H135.381H135.333H135.284H135.235H135.186H135.137H135.088H135.038H134.988H134.938H134.888H134.837H134.786H134.735H134.684H134.632H134.58H134.528H134.476H134.423H134.371H134.318H134.264H134.211H134.157H134.103H134.049H133.994H133.939H133.884H133.829H133.773H133.717H133.661H133.605H133.548H133.491H133.434H133.377H133.319H133.261H133.203H133.145H133.086H133.027H132.968H132.908H132.849H132.789H132.728H132.668H132.607H132.546H132.485H132.423H132.361H132.299H132.236H132.174H132.111H132.047H131.984H131.92H131.856H131.792H131.727H131.662H131.597H131.531H131.466H131.399H131.333H131.266H131.2H131.132H131.065H130.997H130.929H130.861H130.792H130.723H130.654H130.584H130.515H130.444H130.374H130.303H130.232H130.161H130.09H130.018H129.946H129.873H129.8H129.727H129.654H129.58H129.506H129.432H129.357H129.283H129.207H129.132H129.056H128.98H128.904H128.827H128.75H128.672H128.595H128.517H128.439H128.36H128.281H128.202H128.122H128.043H127.962H127.882H127.801H127.72H127.639H127.557H127.475H127.392H127.31H127.227H127.143H127.06H126.976H126.891H126.807H126.722H126.636H126.551H126.465H126.378H126.292H126.205H126.118H126.03H125.942H125.854H125.765H125.676H125.587H125.497H125.407H125.317H125.226H125.135H125.044H124.952H124.86H124.768H124.675H124.582H124.489H124.395H124.301H124.207H124.112H124.017H123.921H123.825H123.729H123.633H123.536H123.439H123.341H123.243H123.145H123.046H122.947H122.848H122.748H122.648H122.547H122.447H122.346H122.244H122.142H122.04H121.937H121.834H121.731H121.627H121.523H121.419H121.314H121.209H121.103H120.997H120.891H120.784H120.677H120.57H120.462H120.354H120.246H120.137H120.027H119.918H119.808H119.697H119.587H119.475H119.364H119.252H119.14H119.027H118.914H118.801H118.687H118.572H118.458H118.343H118.227H118.112H117.996H117.879H117.762H117.645H117.527H117.409H117.29H117.171H117.052H116.932H116.812H116.692H116.571H116.45H116.328H116.206H116.083H115.961H115.837H115.714H115.589H115.465H115.34H115.215H115.089H114.963H114.836H114.709H114.582H114.454H114.326H114.198H114.069H113.939H113.809H113.679H113.548H113.417H113.286H113.154H113.022H112.889H112.756H112.622H112.488H112.354H112.219H112.084H111.948H111.812H111.675H111.538H111.401H111.263H111.125H110.986H110.847H110.708H110.568H110.427H110.287H110.145H110.004H109.862H109.719H109.576H109.433H109.289H109.144H109H108.854H108.709H108.563H108.416H108.269H108.122H107.974H107.826H107.677H107.528H107.378H107.228H107.078H106.927H106.775H106.624H106.471H106.318H106.165H106.012H105.858H105.703H105.548H105.392H105.236H105.08H104.923H104.766H104.608H104.45H104.291H104.132H103.972H103.812H103.652H103.491H103.329H103.167H103.005H102.842H102.679H102.515H102.351H102.186H102.021H101.855H101.689H101.522H101.355H101.188H101.02H100.851H100.682H100.513H100.343H100.172H100.001H99.8299H99.658H99.4857H99.3128H99.1395H98.9657H98.7914H98.6166H98.4413H98.2656H98.0894H97.9126H97.7354H97.5577H97.3795H97.2008H97.0217H96.842H96.6618H96.4812H96.3H96.1184H95.9363H95.7536H95.5705H95.3869H95.2027H95.0181H94.833H94.6473H94.4612H94.2746H94.0874H93.8998C93.3475 66 92.8998 65.5523 92.8998 65C92.8998 64.4477 93.3475 64 93.8998 64H94.0874H94.2746H94.4612H94.6473H94.833H95.0181H95.2027H95.3869H95.5705H95.7536H95.9363H96.1184H96.3H96.4812H96.6618H96.842H97.0217H97.2008H97.3795H97.5577H97.7354H97.9126H98.0894H98.2656H98.4413H98.6166H98.7914H98.9657H99.1395H99.3128H99.4857H99.658H99.8299H100.001H100.172H100.343H100.513H100.682H100.851H101.02H101.188H101.355H101.522H101.689H101.855H102.021H102.186H102.351H102.515H102.679H102.842H103.005H103.167H103.329H103.491H103.652H103.812H103.972H104.132H104.291H104.45H104.608H104.766H104.923H105.08H105.236H105.392H105.548H105.703H105.858H106.012H106.165H106.318H106.471H106.624H106.775H106.927H107.078H107.228H107.378H107.528H107.677H107.826H107.974H108.122H108.269H108.416H108.563H108.709H108.854H109H109.144H109.289H109.433H109.576H109.719H109.862H110.004H110.145H110.287H110.427H110.568H110.708H110.847H110.986H111.125H111.263H111.401H111.538H111.675H111.812H111.948H112.084H112.219H112.354H112.488H112.622H112.756H112.889H113.022H113.154H113.286H113.417H113.548H113.679H113.809H113.939H114.069H114.198H114.326H114.454H114.582H114.709H114.836H114.963H115.089H115.215H115.34H115.465H115.589H115.714H115.837H115.961H116.083H116.206H116.328H116.45H116.571H116.692H116.812H116.932H117.052H117.171H117.29H117.409H117.527H117.645H117.762H117.879H117.996H118.112H118.227H118.343H118.458H118.572H118.687H118.801H118.914H119.027H119.14H119.252H119.364H119.475H119.587H119.697H119.808H119.918H120.027H120.137H120.246H120.354H120.462H120.57H120.677H120.784H120.891H120.997H121.103H121.209H121.314H121.419H121.523H121.627H121.731H121.834H121.937H122.04H122.142H122.244H122.346H122.447H122.547H122.648H122.748H122.848H122.947H123.046H123.145H123.243H123.341H123.439H123.536H123.633H123.729H123.825H123.921H124.017H124.112H124.207H124.301H124.395H124.489H124.582H124.675H124.768H124.86H124.952H125.044H125.135H125.226H125.317H125.407H125.497H125.587H125.676H125.765H125.854H125.942H126.03H126.118H126.205H126.292H126.378H126.465H126.551H126.636H126.722H126.807H126.891H126.976H127.06H127.143H127.227H127.31H127.392H127.475H127.557H127.639H127.72H127.801H127.882H127.962H128.043H128.122H128.202H128.281H128.36H128.439H128.517H128.595H128.672H128.75H128.827H128.904H128.98H129.056H129.132H129.207H129.283H129.357H129.432H129.506H129.58H129.654H129.727H129.8H129.873H129.946H130.018H130.09H130.161H130.232H130.303H130.374H130.444H130.515H130.584H130.654H130.723H130.792H130.861H130.929H130.997H131.065H131.132H131.2H131.266H131.333H131.399H131.466H131.531H131.597H131.662H131.727H131.792H131.856H131.92H131.984H132.047H132.111H132.174H132.236H132.299H132.361H132.423H132.485H132.546H132.607H132.668H132.728H132.789H132.849H132.908H132.968H133.027H133.086H133.145H133.203H133.261H133.319H133.377H133.434H133.491H133.548H133.605H133.661H133.717H133.773H133.829H133.884H133.939H133.994H134.049H134.103H134.157H134.211H134.264H134.318H134.371H134.423H134.476H134.528H134.58H134.632H134.684H134.735H134.786H134.837H134.888H134.938H134.988H135.038H135.088H135.137H135.186H135.235H135.284H135.333H135.381H135.429H135.477H135.524H135.571H135.619H135.665H135.712H135.758H135.805H135.851H135.896H135.942H135.987H136.032H136.077H136.122H136.166H136.21H136.254H136.298H136.341H136.384H136.428H136.47H136.513H136.555H136.598H136.64H136.681H136.723H136.764H136.805H136.846H136.887H136.928H136.968H137.008H137.048H137.088H137.127H137.166H137.205H137.244H137.283H137.321H137.36H137.398H137.436H137.473H137.511H137.548H137.585H137.622H137.659H137.695H137.731H137.767H137.803H137.839H137.875H137.91H137.945H137.98H138.015H138.049H138.084H138.118H138.152H138.186H138.219H138.253H138.286H138.319H138.352H138.385H138.417H138.45H138.482H138.514H138.546H138.578H138.609H138.64H138.672H138.703H138.733H138.764H138.794H138.805C137.558 57.0615 136.178 49.7539 134.515 44.0793C133.635 41.0747 132.694 38.5949 131.685 36.8854C130.635 35.1055 129.718 34.5 129 34.5C126.94 34.5 125.58 35.9106 124.288 37.7164C124.095 37.9867 123.896 38.2761 123.696 38.5684C123.281 39.1738 122.858 39.7912 122.455 40.2742Z" fill="#170D67"/>
</svg>
