<svg width="24" height="24" viewBox="0 0 24 24" fill="none" xmlns="http://www.w3.org/2000/svg">
<path fill-rule="evenodd" clip-rule="evenodd" d="M7 9.44752C6.30614 9.54369 5.63891 9.71798 5 9.96842L5 7C5 6.44772 5.44772 6 6 6C6.55228 6 7 6.44772 7 7V9.44752Z" fill="#5A626D"/>
<path fill-rule="evenodd" clip-rule="evenodd" d="M7 13.5193V20C7 20.5523 6.55228 21 6 21C5.44772 21 5 20.5523 5 20V14.5733C5.62317 14.0511 6.28615 13.7041 7 13.5193Z" fill="#5A626D"/>
<path fill-rule="evenodd" clip-rule="evenodd" d="M19 13.0149C18.5152 13.3106 17.9426 13.4475 17.2503 13.4475C17.1679 13.4475 17.0849 13.4419 17 13.4301L17 9C17 8.44772 17.4477 8 18 8C18.5523 8 19 8.44772 19 9V13.0149Z" fill="#5A626D"/>
<path fill-rule="evenodd" clip-rule="evenodd" d="M19 17.2626V20C19 20.5523 18.5523 21 18 21C17.4477 21 17 20.5523 17 20V17.4428C17.0825 17.4459 17.1659 17.4475 17.2503 17.4475C17.8625 17.4475 18.4465 17.3853 19 17.2626V17.2626Z" fill="#5A626D"/>
<path fill-rule="evenodd" clip-rule="evenodd" d="M13 10.9593C12.2838 10.4792 11.64 10.1166 11 9.85902L11 4C11 3.44772 11.4477 3 12 3C12.5523 3 13 3.44772 13 4V10.9593Z" fill="#5A626D"/>
<path fill-rule="evenodd" clip-rule="evenodd" d="M13 15.8941V20C13 20.5523 12.5523 21 12 21C11.4477 21 11 20.5523 11 20V14.4378C11.2404 14.6038 11.5003 14.7922 11.7851 15.0051C11.9719 15.1449 12.0854 15.23 12.1633 15.2882C12.3132 15.4001 12.4367 15.4915 12.5569 15.5791C12.7077 15.6891 12.8552 15.794 13 15.8941Z" fill="#5A626D"/>
<path d="M2.73318 15.4543C2.44491 15.8592 1.88296 15.9538 1.47804 15.6655C1.07311 15.3773 0.978547 14.8153 1.26682 14.4104C3.12447 11.801 5.4908 10.4592 8.3012 10.4592C10.1319 10.4592 11.3945 11.092 13.5217 12.6825C13.7117 12.8248 13.8226 12.9079 13.8982 12.9644C14.04 13.0702 14.1552 13.1555 14.2653 13.2357C15.5392 14.1644 16.3569 14.5475 17.2503 14.5475C19.0521 14.5475 20.3314 13.767 21.2057 12.1262C21.4395 11.6875 21.9846 11.5214 22.4233 11.7552C22.8619 11.9889 23.028 12.534 22.7943 12.9727C21.6095 15.196 19.7222 16.3475 17.2503 16.3475C15.8764 16.3475 14.7621 15.8255 13.2049 14.6902C13.0886 14.6054 12.9682 14.5163 12.8214 14.4067C12.7443 14.3492 12.6318 14.2649 12.4438 14.1241C10.6105 12.7533 9.6246 12.2592 8.3012 12.2592C6.10175 12.2592 4.26729 13.2994 2.73318 15.4543Z" fill="#5A626D"/>
</svg>
