<svg width="30" height="30" viewBox="0 0 30 30" fill="none" xmlns="http://www.w3.org/2000/svg">
<circle cx="15" cy="15" r="15" fill="#170D67"/>
<path d="M14.0854 6.79722V5.9C14.0854 5.40294 14.4884 5 14.9854 5C15.4825 5 15.8854 5.40294 15.8854 5.9V6.75945C16.6379 6.84567 17.3459 7.06407 17.9992 7.37752C18.5172 7.62606 18.8978 7.88008 19.1228 8.06679C19.5054 8.38416 19.5582 8.95156 19.2408 9.3341C18.9234 9.71664 18.356 9.76946 17.9735 9.45208C17.8547 9.35354 17.5943 9.17971 17.2205 9.00039C16.5917 8.69867 15.8994 8.51847 15.1673 8.51847C12.854 8.51847 11.4221 9.81442 11.5377 11.0207C11.6597 12.2953 12.309 12.9405 14.0854 13.5611V10.9C14.0854 10.4029 14.4884 10 14.9854 10C15.4825 10 15.8854 10.4029 15.8854 10.9V14.0998C19.2728 15.0446 20.5879 15.8892 20.7806 18.2518C20.98 20.6974 18.8017 22.2848 15.7892 22.4947C15.8508 22.6165 15.8854 22.7542 15.8854 22.9V23.9C15.8854 24.3971 15.4825 24.8 14.9854 24.8C14.4884 24.8 14.0854 24.3971 14.0854 23.9V22.9C14.0854 22.7439 14.1252 22.597 14.1951 22.4691C12.7376 22.3058 11.5107 21.7459 10.5147 20.9073C9.79112 20.298 9.33323 19.6807 9.1013 19.2337C8.8724 18.7925 9.04451 18.2492 9.48572 18.0203C9.92693 17.7914 10.4702 17.9635 10.6991 18.4047C10.7233 18.4515 10.7925 18.564 10.9085 18.7204C11.1119 18.9947 11.3666 19.2715 11.6741 19.5304C12.5568 20.2737 13.68 20.7185 15.0967 20.7185C17.55 20.7185 19.0944 19.7206 18.9865 18.3981C18.8871 17.1792 18.1745 16.6472 15.8854 15.9721V18.9C15.8854 19.3971 15.4825 19.8 14.9854 19.8C14.4884 19.8 14.0854 19.3971 14.0854 18.9V15.4552C11.2165 14.5595 9.97127 13.5456 9.74586 11.1923C9.54605 9.10627 11.3672 7.20155 14.0854 6.79722Z" fill="white"/>
</svg>
