<svg width="40" height="40" viewBox="0 0 40 40" fill="none" xmlns="http://www.w3.org/2000/svg">
<circle cx="20" cy="20" r="16" stroke="#170D67" stroke-width="2"/>
<path fill-rule="evenodd" clip-rule="evenodd" d="M18.9 13.2373C18.9 12.9612 19.1239 12.7373 19.4 12.7373H20.6C20.8761 12.7373 21.1 12.9612 21.1 13.2373C21.1 13.5134 20.8761 13.7373 20.6 13.7373H19.4C19.1239 13.7373 18.9 13.5134 18.9 13.2373ZM14.2857 13.7373C13.1761 13.7373 12.5 14.425 12.5 15.2174V25.0363C12.5 25.8237 13.1703 26.5 14.2857 26.5H25.7143C26.8297 26.5 27.5 25.8237 27.5 25.0363V15.2174C27.5 14.425 26.8239 13.7373 25.7143 13.7373C25.4381 13.7373 25.2143 13.5134 25.2143 13.2373C25.2143 12.9612 25.4381 12.7373 25.7143 12.7373C27.24 12.7373 28.5 13.7457 28.5 15.2174V25.0363C28.5 26.513 27.2342 27.5 25.7143 27.5H14.2857C12.7658 27.5 11.5 26.513 11.5 25.0363V15.2174C11.5 13.7457 12.76 12.7373 14.2857 12.7373C14.5619 12.7373 14.7857 12.9612 14.7857 13.2373C14.7857 13.5134 14.5619 13.7373 14.2857 13.7373Z" fill="white"/>
<path d="M19.4 12.2373C18.8477 12.2373 18.4 12.685 18.4 13.2373H19.4V12.2373ZM20.6 12.2373H19.4V13.2373H20.6V12.2373ZM21.6 13.2373C21.6 12.685 21.1523 12.2373 20.6 12.2373V13.2373H21.6ZM20.6 14.2373C21.1523 14.2373 21.6 13.7896 21.6 13.2373H20.6V14.2373ZM19.4 14.2373H20.6V13.2373H19.4V14.2373ZM18.4 13.2373C18.4 13.7896 18.8477 14.2373 19.4 14.2373V13.2373H18.4ZM13 15.2174C13 14.759 13.3906 14.2373 14.2857 14.2373V13.2373C12.9616 13.2373 12 14.091 12 15.2174H13ZM13 25.0363V15.2174H12V25.0363H13ZM14.2857 26C13.3795 26 13 25.4851 13 25.0363H12C12 26.1622 12.961 27 14.2857 27V26ZM25.7143 26H14.2857V27H25.7143V26ZM27 25.0363C27 25.4851 26.6205 26 25.7143 26V27C27.039 27 28 26.1622 28 25.0363H27ZM27 15.2174V25.0363H28V15.2174H27ZM25.7143 14.2373C26.6094 14.2373 27 14.759 27 15.2174H28C28 14.091 27.0384 13.2373 25.7143 13.2373V14.2373ZM24.7143 13.2373C24.7143 13.7896 25.162 14.2373 25.7143 14.2373V13.2373H24.7143ZM25.7143 12.2373C25.162 12.2373 24.7143 12.685 24.7143 13.2373H25.7143V12.2373ZM29 15.2174C29 13.4026 27.444 12.2373 25.7143 12.2373V13.2373C27.036 13.2373 28 14.0888 28 15.2174H29ZM29 25.0363V15.2174H28V25.0363H29ZM25.7143 28C27.4321 28 29 26.8614 29 25.0363H28C28 26.1646 27.0363 27 25.7143 27V28ZM14.2857 28H25.7143V27H14.2857V28ZM11 25.0363C11 26.8614 12.5679 28 14.2857 28V27C12.9637 27 12 26.1646 12 25.0363H11ZM11 15.2174V25.0363H12V15.2174H11ZM14.2857 12.2373C12.556 12.2373 11 13.4026 11 15.2174H12C12 14.0888 12.964 13.2373 14.2857 13.2373V12.2373ZM15.2857 13.2373C15.2857 12.685 14.838 12.2373 14.2857 12.2373V13.2373H15.2857ZM14.2857 14.2373C14.838 14.2373 15.2857 13.7896 15.2857 13.2373H14.2857V14.2373Z" fill="#170D67"/>
<circle cx="16" cy="22" r="1" fill="#170D67"/>
<circle cx="20" cy="22" r="1" fill="#170D67"/>
<circle cx="24" cy="22" r="1" fill="#170D67"/>
<rect x="16" y="11" width="2" height="4" rx="1" fill="#170D67"/>
<rect x="22" y="11" width="2" height="4" rx="1" fill="#170D67"/>
<path fill-rule="evenodd" clip-rule="evenodd" d="M12 17H28V19H12V17Z" fill="#170D67"/>
</svg>
