<svg width="250" height="100" viewBox="0 0 250 100" fill="none" xmlns="http://www.w3.org/2000/svg">
<g id="Opco=Delmarva, Color=Inverse">
<g id="Group 12">
<g id="Group 3">
<mask id="mask0_237_1129" style="mask-type:alpha" maskUnits="userSpaceOnUse" x="58" y="5" width="166" height="95">
<path id="Clip 2" fill-rule="evenodd" clip-rule="evenodd" d="M58.0474 5.9736H224V100H58.0474V5.9736Z" fill="white"/>
</mask>
<g mask="url(#mask0_237_1129)">
<path id="Fill 1" fill-rule="evenodd" clip-rule="evenodd" d="M182.11 46.6177V50.989H181.497V48.4601C181.497 48.1978 181.51 47.9542 181.529 47.7294C181.172 48.5408 180.722 49.3715 180.14 50.277H179.609C179.021 49.3715 178.571 48.5346 178.202 47.7227C178.227 47.9417 178.239 48.1911 178.239 48.4601V50.989H177.633V46.6177H178.308C178.733 47.6607 179.234 48.6037 179.878 49.6275C180.516 48.6037 181.004 47.6607 181.428 46.6177H182.11ZM174.13 50.252C174.424 50.3644 174.837 50.4893 175.3 50.4893C175.863 50.4893 176.194 50.277 176.194 49.8398C176.194 49.3469 175.819 49.1966 175.2 48.9972C174.474 48.7598 174.03 48.4413 174.03 47.7356C174.03 46.9675 174.568 46.5424 175.481 46.5424C175.881 46.5424 176.313 46.6365 176.588 46.7485L176.456 47.2918C176.162 47.1923 175.844 47.1169 175.518 47.1169C174.962 47.1169 174.693 47.323 174.693 47.7169C174.693 48.1412 174.975 48.2852 175.518 48.4659C176.269 48.7157 176.857 48.9784 176.857 49.834C176.857 50.6834 176.181 51.0643 175.325 51.0643C174.8 51.0643 174.318 50.9577 174.005 50.8208L174.13 50.252ZM168.624 51.1538C169.807 51.1538 170.862 51.2812 171.622 51.449L171.03 55.0334C170.397 54.8223 169.595 54.7377 168.919 54.7377C166.809 54.7377 165.204 55.2011 164.022 55.8344V73.0349H159.758V53.1781C161.953 51.9553 165.373 51.1538 168.624 51.1538ZM141.309 60.5978H151.652C151.695 60.3451 151.695 60.1761 151.695 59.9238C151.695 57.0993 150.217 54.6536 146.966 54.6536C143.672 54.6536 141.688 56.9719 141.309 60.5978ZM155.283 72.0657C153.299 72.9933 150.765 73.5412 148.021 73.5412C141.309 73.5412 136.875 69.4518 136.875 62.3265C136.875 55.7499 140.802 51.1538 146.966 51.1538C152.539 51.1538 155.832 55.1595 155.832 60.5141C155.832 61.61 155.747 62.5376 155.663 63.3386H141.266C141.688 67.8493 144.264 69.9152 148.402 69.9152C150.512 69.9152 152.666 69.4094 154.565 68.6087L155.283 72.0657ZM125.992 69.5784C128.651 64.1817 130.425 58.87 130.931 51.6601H135.154C134.267 59.8817 132.283 65.6573 128.314 73.0349H124.007C122.15 69.3673 120.629 66.0786 119.49 62.7062C118.561 66.037 117.125 69.62 115.31 73.0349H111.13C106.866 65.6573 105.134 59.8817 104.29 51.6601H108.513C109.188 58.87 110.877 64.1817 113.452 69.5784C115.521 65.4891 117.21 60.2189 117.843 56.1716C117.59 54.7377 117.378 53.2626 117.21 51.6601H121.221C121.897 58.87 123.585 64.1817 125.992 69.5784ZM92.5199 69.9581C96.362 69.9581 98.1774 66.9646 98.1774 62.3265C98.1774 57.7313 96.362 54.7377 92.5199 54.7377C88.8045 54.7377 86.8623 57.7313 86.8623 62.3265C86.8623 66.9646 88.8045 69.9581 92.5199 69.9581ZM92.5199 73.5412C86.2711 73.5412 82.5136 69.0305 82.5136 62.3265C82.5136 55.6654 86.2711 51.1538 92.5199 51.1538C98.8528 51.1538 102.569 55.6654 102.569 62.3265C102.569 69.0305 98.8528 73.5412 92.5199 73.5412ZM68.9275 69.9581C73.3188 69.9581 75.3876 67.1328 75.3876 62.0313C75.3876 57.8578 73.5718 54.7377 69.1389 54.7377C67.6191 54.7377 66.3525 55.1179 65.2542 55.6229V69.0305C66.2257 69.4939 67.2814 69.9581 68.9275 69.9581ZM69.5187 73.4991C67.6191 73.4991 66.3525 73.1194 65.2542 72.656V80.8772H60.9902V53.0515C63.5656 51.7871 66.6902 51.1538 69.3499 51.1538C76.1052 51.1538 79.8206 55.4547 79.8206 61.9052C79.8206 68.7353 76.2741 73.4991 69.5187 73.4991ZM219.82 32.9141V27.3913C218.639 27.0961 217.329 26.8854 215.852 26.8854C213.234 26.8854 211.292 27.813 211.292 30.4269C211.292 32.661 212.896 33.7993 215.725 33.7993C217.667 33.7993 219.018 33.3775 219.82 32.9141ZM215.345 37.0035C209.814 37.0035 207.028 34.3051 207.028 30.5947C207.028 26.2105 210.532 24.0601 215.345 24.0601C216.781 24.0601 218.511 24.2291 219.82 24.5243V22.7536C219.82 19.8017 218.215 18.2 214.88 18.2C212.896 18.2 210.87 18.5797 209.223 19.2542L208.379 15.8389C210.109 15.1224 212.811 14.6161 215.302 14.6161C221.087 14.6161 224 17.6096 224 22.9643V35.0637C222.227 36.0759 219.314 37.0035 215.345 37.0035ZM195.629 32.9562C198.542 27.5595 200.484 22.3318 201.16 15.1224H205.424C204.41 23.344 202.215 29.1195 197.993 36.4972H193.264C188.958 29.1195 186.678 23.344 185.833 15.1224H190.14C190.9 22.3318 192.8 27.5595 195.629 32.9562ZM179.83 14.6161C181.011 14.6161 182.067 14.7435 182.827 14.9113L182.236 18.4956C181.603 18.2845 180.8 18.2 180.125 18.2C178.014 18.2 176.409 18.6634 175.228 19.2967V36.4972H170.962V16.6404C173.159 15.4176 176.578 14.6161 179.83 14.6161ZM162.651 32.9141V27.3913C161.469 27.0961 160.16 26.8854 158.682 26.8854C156.065 26.8854 154.122 27.813 154.122 30.4269C154.122 32.661 155.726 33.7993 158.556 33.7993C160.498 33.7993 161.849 33.3775 162.651 32.9141ZM158.176 37.0035C152.645 37.0035 149.858 34.3051 149.858 30.5947C149.858 26.2105 153.363 24.0601 158.176 24.0601C159.611 24.0601 161.343 24.2291 162.651 24.5243V22.7536C162.651 19.8017 161.047 18.2 157.711 18.2C155.726 18.2 153.7 18.5797 152.054 19.2542L151.209 15.8389C152.94 15.1224 155.643 14.6161 158.134 14.6161C163.917 14.6161 166.83 17.6096 166.83 22.9643V35.0637C165.057 36.0759 162.144 37.0035 158.176 37.0035ZM142.344 36.4972V23.0488C142.344 20.0973 141.035 18.2 137.742 18.2C135.842 18.2 133.9 18.8745 132.676 19.6756C133.056 20.7722 133.224 22.0787 133.224 23.5122V36.4972H129.045V23.0488C129.045 20.0973 127.778 18.2 124.484 18.2C122.88 18.2 121.276 18.5797 119.883 19.2967V36.4972H115.619V16.5983C118.236 15.3755 121.445 14.6161 124.654 14.6161C127.23 14.6161 129.256 15.291 130.691 16.5559C132.591 15.5021 135.082 14.6161 137.91 14.6161C143.695 14.6161 146.608 17.7358 146.608 22.7536V36.4972H142.344ZM105.957 36.4964V6.22716L110.221 5.9736V36.4964H105.957ZM86.8452 24.0601H97.1892C97.2313 23.8074 97.2313 23.6383 97.2313 23.386C97.2313 20.5615 95.7532 18.1155 92.5028 18.1155C89.2093 18.1155 87.2251 20.4341 86.8452 24.0601ZM100.82 35.5279C98.8353 36.4556 96.3024 37.0035 93.558 37.0035C86.8452 37.0035 82.4115 32.9141 82.4115 25.7888C82.4115 19.2122 86.3382 14.6161 92.5028 14.6161C98.0756 14.6161 101.369 18.6218 101.369 23.9764C101.369 25.0722 101.284 25.9999 101.2 26.8009H86.8027C87.2251 31.3116 89.8005 33.3775 93.9379 33.3775C96.0493 33.3775 98.2024 32.8717 100.102 32.071L100.82 35.5279ZM70.6587 33.4204C72.1367 33.4204 73.4876 33.0823 74.2894 32.6189V18.8745C73.3188 18.4527 72.2205 18.2 71.1652 18.2C66.5634 18.2 64.0726 20.9829 64.0726 25.9999C64.0726 30.7637 66.6902 33.4204 70.6587 33.4204ZM70.7008 37.0035C63.9454 37.0035 59.7235 32.9141 59.7235 26.1685C59.7235 19.1697 63.9454 14.6161 70.9543 14.6161C72.1367 14.6161 73.3188 14.8268 74.2894 15.1224V6.22716L78.5539 6.01649V35.2328C76.6543 36.2865 73.7828 37.0035 70.7008 37.0035ZM202.336 95.7054C200.851 93.7327 199.8 92.0545 198.973 90.0397H200.038C200.738 91.7459 201.551 93.0891 202.854 94.8656C204.143 93.1028 204.942 91.7459 205.642 90.0397H206.707C205.852 92.0545 204.83 93.7465 203.345 95.6775V99.8318H202.336V95.7054ZM189.599 99.8318V90.0397H190.58C192.289 93.0891 193.969 95.5792 196.029 98.4191C196.002 98.0553 195.988 97.6077 195.988 97.0902V90.0397H196.94V99.8318H195.96C193.816 96.964 192.051 94.5442 190.509 91.7043C190.537 92.1798 190.551 92.726 190.551 93.271V99.8318H189.599ZM181.415 96.0684H185.253C184.567 94.0687 183.866 92.2635 183.334 91.0744C182.801 92.2635 182.101 94.0687 181.415 96.0684ZM185.548 96.9499H181.121C180.799 97.902 180.49 98.8671 180.21 99.8318H179.173C180.266 96.307 181.428 92.9916 182.801 90.0397H183.853C185.225 92.9916 186.416 96.2645 187.495 99.8318H186.459C186.179 98.8671 185.87 97.902 185.548 96.9499ZM174.363 90.9203H173.004V95.4119H174.363C176.086 95.4119 177.235 94.8935 177.235 93.1736C177.235 91.4524 176.086 90.9203 174.363 90.9203ZM171.996 90.0397H174.377C176.745 90.0397 178.272 90.9907 178.272 93.1736C178.272 95.3552 176.745 96.2924 174.377 96.2924H173.004V99.8318H171.996V90.0397ZM168.943 90.0397V99.8318H167.99V93.3126C167.99 92.7535 168.018 92.2493 168.033 91.8155C167.136 93.8868 166.015 95.9848 164.516 98.3359H163.648C162.148 95.9848 161.014 93.8589 160.103 91.8017C160.145 92.2356 160.159 92.7535 160.159 93.3126V99.8318H159.206V90.0397H160.257C161.266 92.502 162.54 94.8519 164.096 97.342C165.636 94.8519 166.898 92.502 167.892 90.0397H168.943ZM152.488 99.0907C154.66 99.0907 155.571 97.2442 155.571 94.9356C155.571 92.6273 154.66 90.7808 152.488 90.7808C150.304 90.7808 149.421 92.6273 149.421 94.9356C149.421 97.2442 150.332 99.0907 152.488 99.0907ZM152.488 100C149.701 100 148.37 97.7755 148.37 94.9356C148.37 92.0961 149.673 89.8715 152.488 89.8715C155.291 89.8715 156.622 92.0961 156.622 94.9356C156.622 97.7755 155.291 100 152.488 100ZM140.098 95.048C140.098 92.0961 141.499 89.8715 144.469 89.8715C145.295 89.8715 146.123 90.0539 146.865 90.3612L146.612 91.2288C145.954 90.9907 145.31 90.7808 144.484 90.7808C142.102 90.7808 141.149 92.6831 141.149 95.048C141.149 97.4545 142.228 99.0907 144.553 99.0907C145.478 99.0907 146.15 98.8392 146.725 98.5873L146.935 99.455C146.361 99.7485 145.478 100 144.525 100C141.625 100 140.098 98.0274 140.098 95.048ZM126.171 99.8318V90.0397H127.152C128.861 93.0891 130.542 95.5792 132.602 98.4191C132.574 98.0553 132.559 97.6077 132.559 97.0902V90.0397H133.513V99.8318H132.531C130.388 96.964 128.623 94.5442 127.082 91.7043C127.11 92.1798 127.124 92.726 127.124 93.271V99.8318H126.171ZM119.454 99.0907C121.625 99.0907 122.537 97.2442 122.537 94.9356C122.537 92.6273 121.625 90.7808 119.454 90.7808C117.269 90.7808 116.386 92.6273 116.386 94.9356C116.386 97.2442 117.297 99.0907 119.454 99.0907ZM119.454 100C116.666 100 115.335 97.7755 115.335 94.9356C115.335 92.0961 116.638 89.8715 119.454 89.8715C122.256 89.8715 123.587 92.0961 123.587 94.9356C123.587 97.7755 122.256 100 119.454 100ZM108.31 90.0397H109.319V98.9504H113.97V99.8318H108.31V90.0397ZM106.005 99.8318H100.289V90.0397H106.005V90.9203H101.298V94.3623H105.333V95.2437H101.298V98.9504H106.005V99.8318ZM94.1438 95.4119C93.247 96.6284 92.2101 98.2234 91.4679 99.8318H90.403C91.1873 98.0552 92.3923 96.307 93.6673 94.6978L90.599 90.0397H91.7618L94.4378 94.0966C95.5027 92.7814 96.4133 91.3263 96.9315 90.0397H97.9822C97.3239 91.6623 96.2311 93.2573 94.9002 94.7961L98.2065 99.8318H97.0579L94.1438 95.4119ZM88.6202 99.8318H82.9039V90.0397H88.6202V90.9203H83.9129V94.3623H87.9476V95.2437H83.9129V98.9504H88.6202V99.8318ZM68.4726 99.8318V90.0397H69.4537C71.1627 93.0891 72.8439 95.5792 74.9036 98.4191C74.8752 98.0553 74.8615 97.6077 74.8615 97.0902V90.0397H75.8142V99.8318H74.8335C72.69 96.964 70.9247 94.5442 69.3832 91.7043C69.4112 92.1798 69.4253 92.726 69.4253 93.271V99.8318H68.4726ZM60.2889 96.0684H64.1277C63.4409 94.0687 62.7405 92.2635 62.208 91.0744C61.6756 92.2635 60.9751 94.0687 60.2889 96.0684ZM64.422 96.9499H59.9949C59.6722 97.902 59.3645 98.8671 59.0843 99.8318H58.0474C59.1402 96.307 60.303 92.9916 61.6756 90.0397H62.7267C64.0997 92.9916 65.2905 96.2645 66.3691 99.8318H65.3326C65.052 98.8671 64.7443 97.902 64.422 96.9499Z" fill="white"/>
</g>
</g>
<path id="Fill 4" fill-rule="evenodd" clip-rule="evenodd" d="M15.0335 0.68517C14.8046 0.68517 14.5949 0.723474 14.4081 0.807992C13.8544 1.05863 13.4562 1.72728 13.1907 2.85184C11.4032 10.4252 9.81383 12.6918 7.67324 14.047C2.71828 17.1841 0.257895 20.9883 0.745302 24.7591C1.14307 27.838 3.59845 30.6021 6.85561 31.6384C9.67707 32.5357 11.5537 34.8131 12.5932 38.6006C13.3945 41.5204 15.1011 43.4656 17.398 44.078C20.2078 44.8275 23.4883 43.5214 26.6367 40.4017C30.3379 36.7341 32.96 36.5492 35.7365 36.3536C37.2304 36.2482 38.7747 36.1391 40.568 35.4543C42.6932 34.642 43.9769 33.5324 44.4927 32.0614C45.4533 29.3219 43.6084 25.8287 41.464 22.1899C40.1627 19.982 39.7904 17.8291 40.2182 14.9912C40.7752 11.2962 39.8334 7.94375 37.6999 6.02315C35.7215 4.24285 32.8762 3.76655 29.4727 4.64587C25.4513 5.68424 21.8489 3.77279 18.9553 2.23648C17.408 1.41544 16.0321 0.68517 15.0335 0.68517ZM18.9945 44.9661C18.3904 44.9661 17.7979 44.8903 17.2221 44.7367C14.6808 44.0593 12.8029 41.9438 11.9348 38.7804C10.9613 35.2332 9.23219 33.1094 6.64881 32.2879C3.14356 31.173 0.499305 28.1828 0.0681857 24.8466C-0.6377 19.3841 4.301 15.3751 7.308 13.4716C9.24929 12.2421 10.7995 10.0105 12.526 2.69571C12.8433 1.35132 13.367 0.530706 14.1263 0.18722C15.4351 -0.404408 17.1295 0.495732 19.2755 1.63486C22.0649 3.11538 25.5359 4.95896 29.3018 3.98596C33.8957 2.79938 36.6529 4.16333 38.1568 5.51687C40.4613 7.59069 41.484 11.1704 40.8932 15.0924C40.4905 17.7629 40.8374 19.7821 42.0523 21.8439C44.2809 25.6264 46.1938 29.2715 45.1369 32.2867C44.559 33.935 43.1039 35.2149 40.8119 36.0908C38.924 36.8124 37.3279 36.9248 35.7848 37.0335C33.1385 37.22 30.6389 37.3961 27.1174 40.8855C24.4173 43.5609 21.5942 44.9661 18.9945 44.9661Z" fill="url(#paint0_linear_237_1129)"/>
<path id="Fill 6" fill-rule="evenodd" clip-rule="evenodd" d="M12.5679 5.67018C10.5115 11.5369 9.23695 14.09 7.51706 15.7874C4.17317 19.0886 2.65508 22.7458 3.24297 26.0857C3.74455 28.9356 5.69751 31.3358 8.60111 32.6711C10.9285 33.7415 12.6959 35.5992 14.0043 38.3509C15.0425 40.5354 16.7699 41.9906 18.8683 42.449C21.4205 43.0056 24.3099 42.0701 27.0071 39.8143C29.9286 37.3712 32.2185 36.8749 34.4333 36.3953C35.9072 36.076 37.2993 35.7741 38.9 34.9356C43.7766 32.3805 44.3328 27.7877 40.6512 20.4821C39.6438 18.4712 38.6682 16.2333 38.3467 13.4929C37.9781 10.3503 36.6289 7.79938 34.5475 6.30969C32.5904 4.90868 30.1287 4.51191 27.2322 5.12935C24.2152 5.7726 21.4459 4.94407 19.003 4.21297C15.7742 3.24621 13.6415 2.60754 12.5679 5.67018ZM20.3447 43.2875C19.7944 43.2875 19.2524 43.2304 18.7224 43.1147C16.4134 42.6105 14.5184 41.0226 13.3872 38.6431C12.151 36.0418 10.4919 34.2911 8.3155 33.2902C5.25138 31.8813 3.10371 29.2321 2.57044 26.2035C1.94252 22.6367 3.52899 18.7655 7.03715 15.3028C8.67324 13.6878 9.90614 11.2005 11.9237 5.44494C13.2129 1.76777 15.9873 2.59838 19.1994 3.55972C21.5635 4.26751 24.2432 5.06981 27.0896 4.46278C30.1392 3.81244 32.8551 4.2596 34.9453 5.75553C37.1843 7.35847 38.6331 10.078 39.0247 13.4138C39.3336 16.0497 40.2822 18.2218 41.2611 20.1765C42.9277 23.4831 43.7361 26.2019 43.7319 28.4876C43.7261 31.5998 42.2072 33.9726 39.2173 35.5393C37.5345 36.4207 36.0314 36.7463 34.5775 37.0614C32.3456 37.5448 30.2376 38.0016 27.4453 40.3368C25.1313 42.272 22.6642 43.2875 20.3447 43.2875Z" fill="url(#paint1_linear_237_1129)"/>
<path id="Fill 8" fill-rule="evenodd" clip-rule="evenodd" d="M11.6332 8.34149L11.9339 8.50345C10.8886 10.4374 10.0972 12.0836 9.39885 13.5362C8.67295 15.0463 8.04586 16.3503 7.35707 17.5053C5.51752 20.5892 4.88043 23.8029 5.51418 26.8002C6.10874 29.6135 7.82655 32.0682 10.3507 33.7128C12.1603 34.8915 13.8531 36.3595 15.3824 38.0769C18.3665 41.4273 23.0817 41.8749 27.3958 39.2177C29.2395 38.0824 30.8381 37.462 32.3837 36.8625C34.0402 36.2196 35.605 35.6122 37.2257 34.4273C43.6203 29.7509 41.1841 21.9231 39.8395 18.7747C39.1882 17.2392 38.4431 15.7958 37.6547 14.2678C37.2765 13.535 36.885 12.7768 36.5094 12.0153C34.142 7.21736 29.9408 4.88415 24.9846 5.61359C23.1697 5.88089 21.4418 5.81261 19.7712 5.74682C16.2993 5.60943 13.5554 5.5016 11.9339 8.50345L11.6332 8.34149ZM21.7525 41.5917C19.1324 41.5917 16.6762 40.5555 14.8721 38.5299C13.3832 36.8579 11.7362 35.4294 9.97798 34.284C4.28628 30.5756 2.96707 23.5327 6.77043 17.1564C7.4438 16.0277 8.06463 14.7366 8.78344 13.2411C9.48515 11.7822 10.2803 10.128 11.3326 8.17954C13.1568 4.8038 16.2338 4.92496 19.7983 5.06568C21.4377 5.13063 23.133 5.19725 24.885 4.93911C30.1556 4.16304 34.6148 6.63322 37.1218 11.7143C37.4946 12.47 37.8844 13.2252 38.2614 13.9555C39.0214 15.4277 39.807 16.9499 40.4678 18.5083C41.8758 21.8053 44.4179 30.0123 37.6288 34.9772C35.9361 36.215 34.3308 36.8383 32.6309 37.4978C31.1137 38.0861 29.5451 38.6948 27.754 39.7981C25.8014 41.0009 23.7305 41.5917 21.7525 41.5917Z" fill="url(#paint2_linear_237_1129)"/>
<path id="Fill 10" fill-rule="evenodd" clip-rule="evenodd" d="M23.4139 6.09072C18.9672 6.09072 14.533 7.85978 11.2705 11.3575C5.03716 18.0407 5.41032 28.5422 12.1031 34.7666C15.2931 37.7335 19.3529 39.2015 23.4027 39.2019C27.8494 39.2023 32.2836 37.4329 35.5462 33.9351C41.7795 27.2519 41.4059 16.7504 34.7131 10.5261C31.5231 7.55918 27.4633 6.09072 23.4139 6.09072ZM23.4027 39.8831C19.1857 39.8831 14.9596 38.3546 11.6382 35.2654C4.66983 28.7845 4.28082 17.8513 10.771 10.8929C13.9151 7.52212 18.1851 5.5757 22.7952 5.4125C27.4041 5.24846 31.8029 6.88761 35.1784 10.0273C42.1464 16.5081 42.5358 27.4414 36.0457 34.3994C32.6493 38.0407 28.0316 39.8831 23.4027 39.8831Z" fill="url(#paint3_linear_237_1129)"/>
</g>
</g>
<defs>
<linearGradient id="paint0_linear_237_1129" x1="13.4891" y1="42.7347" x2="35.8177" y2="3.94808" gradientUnits="userSpaceOnUse">
<stop offset="0.17" stop-color="#6E06C1"/>
<stop offset="0.25" stop-color="#5F24BD"/>
<stop offset="0.46" stop-color="#3E68B5"/>
<stop offset="0.64" stop-color="#239DAE"/>
<stop offset="0.8" stop-color="#10C4A9"/>
<stop offset="0.92" stop-color="#04DBA6"/>
<stop offset="1" stop-color="#00E4A5"/>
</linearGradient>
<linearGradient id="paint1_linear_237_1129" x1="14.696" y1="41.2753" x2="34.7507" y2="6.16302" gradientUnits="userSpaceOnUse">
<stop offset="0.17" stop-color="#6E06C1"/>
<stop offset="0.25" stop-color="#5F24BD"/>
<stop offset="0.46" stop-color="#3E68B5"/>
<stop offset="0.64" stop-color="#239DAE"/>
<stop offset="0.8" stop-color="#10C4A9"/>
<stop offset="0.92" stop-color="#04DBA6"/>
<stop offset="1" stop-color="#00E4A5"/>
</linearGradient>
<linearGradient id="paint2_linear_237_1129" x1="15.7487" y1="39.7659" x2="33.9365" y2="7.88893" gradientUnits="userSpaceOnUse">
<stop offset="0.17" stop-color="#6E06C1"/>
<stop offset="0.25" stop-color="#5F24BD"/>
<stop offset="0.46" stop-color="#3E68B5"/>
<stop offset="0.64" stop-color="#239DAE"/>
<stop offset="0.8" stop-color="#10C4A9"/>
<stop offset="0.92" stop-color="#04DBA6"/>
<stop offset="1" stop-color="#00E4A5"/>
</linearGradient>
<linearGradient id="paint3_linear_237_1129" x1="16.3959" y1="38.1719" x2="33.5971" y2="8.56563" gradientUnits="userSpaceOnUse">
<stop offset="0.17" stop-color="#6E06C1"/>
<stop offset="0.25" stop-color="#5F24BD"/>
<stop offset="0.46" stop-color="#3E68B5"/>
<stop offset="0.64" stop-color="#239DAE"/>
<stop offset="0.8" stop-color="#10C4A9"/>
<stop offset="0.92" stop-color="#04DBA6"/>
<stop offset="1" stop-color="#00E4A5"/>
</linearGradient>
</defs>
</svg>
