<svg width="24" height="24" viewBox="0 0 24 24" fill="none" xmlns="http://www.w3.org/2000/svg">
<path d="M16 1C16 1 12.15 1 9.4 1C6.65 1 5 2.63636 5 4.81818C5 7 5 22 5 22" stroke="#170D67" stroke-width="2" stroke-linecap="round" stroke-linejoin="round"/>
<path d="M9 1H18C19.1046 1 20 1.89543 20 3V3C20 5.20914 18.2091 7 16 7H12C10.3431 7 9 5.65685 9 4V1Z" stroke="#170D67" stroke-width="2" stroke-linejoin="round"/>
<rect x="13.501" y="10.5185" width="2" height="3" rx="1" fill="#170D67"/>
<path fill-rule="evenodd" clip-rule="evenodd" d="M17.2699 10.866C16.9938 10.3877 17.1577 9.77614 17.636 9.5C18.1143 9.22386 18.7259 9.38773 19.002 9.86603L19.502 10.7321C19.7781 11.2103 19.6143 11.8219 19.136 12.0981C18.6577 12.3742 18.0461 12.2103 17.7699 11.7321L17.2699 10.866Z" fill="#170D67"/>
<path fill-rule="evenodd" clip-rule="evenodd" d="M11.7321 10.9387C12.0082 10.4604 11.8443 9.84884 11.366 9.57269C10.8877 9.29655 10.2761 9.46043 10 9.93872L9.5 10.8047C9.22386 11.283 9.38773 11.8946 9.86603 12.1708C10.3443 12.4469 10.9559 12.283 11.2321 11.8047L11.7321 10.9387Z" fill="#170D67"/>
</svg>
