<svg width="48" height="40" viewBox="0 0 48 40" fill="none" xmlns="http://www.w3.org/2000/svg">
<path fill-rule="evenodd" clip-rule="evenodd" d="M2 9.2C2 5.22355 5.22355 2 9.2 2H38.8C42.7764 2 46 5.22355 46 9.2V30.8C46 34.7764 42.7765 38 38.8 38H9.2C5.22355 38 2 34.7765 2 30.8V9.2Z" fill="#F7F7F8"/>
<g opacity="0.01">
<rect x="7" y="8" width="34" height="23.0767" fill="white"/>
</g>
<rect x="19.5168" y="12.0204" width="8.96902" height="15.0331" fill="#FF5F00"/>
<path fill-rule="evenodd" clip-rule="evenodd" d="M20.4405 19.5384C20.4383 16.6053 21.7503 13.8341 23.9987 12.0231C20.1791 8.94272 14.6941 9.39141 11.3984 13.0539C8.10264 16.7164 8.10264 22.363 11.3984 26.0255C14.6941 29.688 20.1791 30.1366 23.9987 27.0562C21.7496 25.2447 20.4375 22.4723 20.4405 19.5384Z" fill="#EB001B"/>
<path fill-rule="evenodd" clip-rule="evenodd" d="M38.2412 25.2422V25.9722H38.1654V25.2422H38.0034V25.0911H38.4135V25.2422H38.2412ZM39.0379 25.0911V25.9722H38.9518V25.3051L38.8174 25.8778H38.7243L38.5899 25.3051V25.9722H38.5003V25.0911H38.6244L38.7691 25.7205L38.9139 25.0911H39.0379Z" fill="#F79E1B"/>
<path fill-rule="evenodd" clip-rule="evenodd" d="M39.0722 19.5384C39.0721 23.1986 37.0355 26.5375 33.8273 28.137C30.6192 29.7365 26.8027 29.3158 23.9987 27.0536C26.246 25.2411 27.5582 22.4703 27.5582 19.5371C27.5582 16.6038 26.246 13.833 23.9987 12.0205C26.8027 9.75829 30.6192 9.33758 33.8273 10.9371C37.0355 12.5366 39.0721 15.8755 39.0722 19.5357V19.5384Z" fill="#F79E1B"/>
</svg>
