<svg width="25" height="25" viewBox="0 0 25 25" fill="none" xmlns="http://www.w3.org/2000/svg">
<path d="M11.5 1C5.70101 1 1 5.70101 1 11.5C1 17.299 5.70101 22 11.5 22V22C17.299 22 22 17.299 22 11.5C22 8.63767 20.8547 6.04283 18.9973 4.14879" stroke="#20804F" stroke-width="2" stroke-linecap="round"/>
<path d="M23.2631 4.46381L18.7458 4.0699L17.8011 8.54259" stroke="#20804F" stroke-width="2" stroke-linecap="round"/>
<path fill-rule="evenodd" clip-rule="evenodd" d="M12.0403 15.1578C12.398 15.0939 12.6889 14.9425 12.9135 14.6954C13.138 14.4484 13.2459 14.1615 13.2459 13.8268C13.2459 13.5318 13.1546 13.277 12.963 13.0618C12.7718 12.8465 12.4645 12.6792 12.0322 12.5675L12.0322 15.1578H12.0403ZM11.0011 8.09642C10.7185 8.18399 10.4941 8.33532 10.3277 8.55052C10.1616 8.76571 10.0784 8.99694 10.0784 9.25178C10.0784 9.48301 10.1531 9.70637 10.3111 9.90562C10.4608 10.1049 10.6934 10.2722 11.0096 10.3917V8.09642H11.0011ZM11.0011 15.062V12.2807C10.0618 12.0335 9.38026 11.6588 8.93933 11.1567C8.49892 10.6547 8.28256 10.0488 8.28256 9.33158C8.28256 8.60621 8.53217 8.00068 9.02257 7.50644C9.51296 7.0122 10.1783 6.73314 10.993 6.65374V6H12.0322V6.65374C12.7884 6.74131 13.3953 6.98032 13.8443 7.37095C14.2932 7.76945 14.5762 8.29567 14.7008 8.95679L12.8883 9.17208C12.7803 8.65403 12.4893 8.29567 12.0322 8.11236V10.7104C13.1793 10.9972 13.9608 11.372 14.3765 11.8261C14.7922 12.2807 15 12.8703 15 13.5875C15 14.3845 14.7422 15.062 14.2185 15.6119C13.6949 16.1618 12.9715 16.4965 12.0403 16.6163V17.8597H11.0011V16.6561C10.1783 16.5603 9.50485 16.2817 8.98931 15.8034C8.47377 15.3251 8.14133 14.6558 8 13.779L9.87055 13.5957C9.94526 13.9462 10.0865 14.2573 10.3029 14.5121C10.5107 14.7593 10.7434 14.9504 11.0011 15.062Z" fill="#20804F"/>
</svg>
