<svg width="24" height="24" viewBox="0 0 24 24" fill="none" xmlns="http://www.w3.org/2000/svg">
<path fill-rule="evenodd" clip-rule="evenodd" d="M5.78297 9.4859C5.81401 6.51754 8.23048 4.12903 11.199 4.12903H12.7999C15.7688 4.12903 18.1856 6.51819 18.2154 9.48701C18.2344 11.38 18.2507 13.2051 18.2507 13.8712C18.2507 15.4572 21 19.129 21 19.129H3C3 19.129 5.7447 15.2583 5.7447 13.8954C5.7447 13.3119 5.76255 11.4382 5.78297 9.4859Z" stroke="white" stroke-width="2" stroke-linecap="round" stroke-linejoin="round"/>
<path d="M15.2609 21.6774C15.2609 22.2297 13.9177 23.6774 12.2609 23.6774C10.604 23.6774 9.26087 22.2297 9.26087 21.6774C10 21.6774 12.2609 21.6774 12.2609 21.6774C12.2609 21.6774 14.2 21.6774 15.2609 21.6774Z" fill="white"/>
<rect x="11" width="2" height="4" rx="1" fill="white"/>
</svg>
