<svg width="32" height="32" viewBox="0 0 32 32" fill="none" xmlns="http://www.w3.org/2000/svg">
<path d="M5.98058 18.1605C5.87227 17.6189 5.34544 17.2677 4.80388 17.376C4.26232 17.4843 3.91111 18.0112 4.01942 18.5527L5.98058 18.1605ZM14.4316 28.0944C14.9796 28.1636 15.4799 27.7756 15.5492 27.2277C15.6185 26.6798 15.2304 26.1794 14.6825 26.1102L14.4316 28.0944ZM26.0255 14.1628C26.1493 14.701 26.6861 15.0369 27.2243 14.913C27.7625 14.7892 28.0984 14.2524 27.9745 13.7142L26.0255 14.1628ZM17.1 5.10226L17.1885 4.10619C17.1516 4.10291 17.1145 4.10168 17.0774 4.10252L17.1 5.10226ZM16 4.10226C15.4477 4.10226 15 4.54998 15 5.10226C15 5.65455 15.4477 6.10226 16 6.10226V4.10226ZM4.01942 18.5527C5.02247 23.5679 9.24061 27.438 14.4316 28.0944L14.6825 26.1102C10.3199 25.5585 6.81019 22.3085 5.98058 18.1605L4.01942 18.5527ZM27.9745 13.7142C26.781 8.52821 22.3774 4.56738 17.1885 4.10619L17.0115 6.09834C21.2977 6.4793 25.017 9.7808 26.0255 14.1628L27.9745 13.7142ZM17.0774 4.10252C16.5776 4.1138 16.3371 4.10226 16 4.10226V6.10226C16.2547 6.10226 16.6007 6.11379 17.1226 6.10201L17.0774 4.10252Z" fill="white"/>
<path fill-rule="evenodd" clip-rule="evenodd" d="M19.1378 8.99513L13.0018 5.20696L18.8586 1L19.1378 8.99513Z" fill="white"/>
<path fill-rule="evenodd" clip-rule="evenodd" d="M11.8622 23.1071L17.9982 26.8953L12.1414 31.1023L11.8622 23.1071Z" fill="white"/>
<path fill-rule="evenodd" clip-rule="evenodd" d="M28 24.752V20.1667L23.5 16L19 20.1667V24.752C19 25.4413 19.5587 26 20.248 26H22.2727V22.7273C22.2727 22.0495 22.8222 21.5 23.5 21.5C24.1778 21.5 24.7273 22.0495 24.7273 22.7273V26H26.752C27.4413 26 28 25.4412 28 24.752Z" fill="white"/>
<path fill-rule="evenodd" clip-rule="evenodd" d="M13 13.752V9.16667L8.5 5L4 9.16667V13.752C4 14.4413 4.55875 15 5.248 15H7.27273V11.7273C7.27273 11.0495 7.8222 10.5 8.5 10.5C9.1778 10.5 9.72727 11.0495 9.72727 11.7273V15H11.752C12.4413 15 13 14.4412 13 13.752Z" fill="white"/>
<path d="M18 21L23.5 16L29 21" stroke="white" stroke-width="1.2" stroke-linecap="round" stroke-linejoin="round"/>
<path d="M3 10L8.5 5L14 10" stroke="white" stroke-width="1.2" stroke-linecap="round" stroke-linejoin="round"/>
</svg>
