<svg width="48" height="48" viewBox="0 0 48 48" fill="none" xmlns="http://www.w3.org/2000/svg">
<path d="M18.0057 31.8626L17.9286 31.7961L17.8397 31.7466C14.3185 29.7822 12 26.2103 12 22.1647C12 16.0596 17.3085 11 23.9994 11C30.6915 11 36 16.0596 36 22.1647C36 26.2195 33.6702 29.7998 30.1354 31.7612L30.0657 31.7999L30.0029 31.8491C28.9803 32.6523 28.1785 34.0781 28.1937 35.3903C28.1937 35.3904 28.1937 35.3905 28.1937 35.3906C28.1937 35.3908 28.1937 35.3909 28.1937 35.391L28.2227 37.9996L19.6835 37.9959L19.6519 35.1393L19.6519 35.1388C19.6378 33.9259 18.9193 32.6506 18.0057 31.8626Z" stroke="#FFAD28" stroke-width="2"/>
<rect x="19" y="40" width="10" height="2" rx="1" fill="#FFAD28"/>
<rect x="19" y="43" width="10" height="2" rx="1" fill="#FFAD28"/>
<path d="M23.7966 5.23686V1.84087" stroke="#FFAD28" stroke-width="2" stroke-linecap="round"/>
<path d="M9.41523 10.776L6.82678 8.37468" stroke="#FFAD28" stroke-width="2" stroke-linecap="round"/>
<path d="M38.3896 10.776L40.9781 8.37468" stroke="#FFAD28" stroke-width="2" stroke-linecap="round"/>
</svg>
