<svg width="72" height="56" viewBox="0 0 72 56" fill="none" xmlns="http://www.w3.org/2000/svg">
<path fill-rule="evenodd" clip-rule="evenodd" d="M12.7416 7.8169L16.8665 13.29C17.0872 13.5829 17.0527 13.9222 16.9739 14.1655C16.894 14.4119 16.7416 14.6573 16.5684 14.8827C16.2176 15.3391 15.6936 15.8259 15.1436 16.2439C14.5938 16.6617 13.9838 17.0366 13.4474 17.2498C13.1825 17.3552 12.9024 17.4346 12.6398 17.4413C12.3764 17.448 12.0453 17.3796 11.8257 17.0881L7.72261 11.644C5.97849 14.5451 6.06138 18.3338 8.22321 21.2023C10.3561 24.0322 13.9079 25.1645 17.1438 24.3521C17.3386 24.3031 17.5439 24.3756 17.6648 24.5361L21.5467 29.6867C21.7129 29.9073 21.6689 30.2208 21.4483 30.387C21.2278 30.5532 20.9143 30.5091 20.7481 30.2886L17.0619 25.3976C13.5393 26.1514 9.73646 24.8716 7.42462 21.8041C4.84583 18.3825 4.91654 13.7908 7.28891 10.4852C7.38163 10.356 7.53027 10.2786 7.68928 10.2768C7.84829 10.2749 7.99871 10.3488 8.09442 10.4758L12.5906 16.4416C12.5972 16.4418 12.605 16.4418 12.6143 16.4416C12.7086 16.4392 12.8632 16.406 13.078 16.3206C13.5013 16.1523 14.0311 15.8333 14.5385 15.4477C15.0458 15.0623 15.4966 14.6363 15.7754 14.2734C15.917 14.0891 15.9931 13.9483 16.0226 13.8572C16.0248 13.8504 16.0266 13.8444 16.0281 13.8391L11.5211 7.85899C11.426 7.73272 11.3961 7.5689 11.4407 7.41719C11.4852 7.26549 11.5989 7.1438 11.7472 7.08902C15.6006 5.66575 20.0867 6.85474 22.6869 10.3047C24.9987 13.3722 25.181 17.3799 23.4853 20.5579L25.2052 22.8399C25.3714 23.0604 25.3274 23.3739 25.1069 23.5402C24.8863 23.7064 24.5728 23.6623 24.4066 23.4418L22.491 20.9C22.37 20.7395 22.3569 20.5222 22.4577 20.3483C24.1306 17.4623 24.0211 13.7366 21.8883 10.9066C19.7054 8.0103 16.0362 6.8925 12.7416 7.8169ZM16.0348 13.8061C16.0348 13.806 16.0348 13.8071 16.0346 13.8096C16.0345 13.8073 16.0347 13.8061 16.0348 13.8061ZM12.5626 16.4387C12.5627 16.4387 12.5637 16.4388 12.5654 16.4394C12.5634 16.439 12.5626 16.4387 12.5626 16.4387ZM29.3584 40.8143C29.5789 40.6481 29.8924 40.6922 30.0586 40.9127C30.3877 41.3493 30.8616 41.9899 31.4149 42.7377C31.5293 42.8924 31.6472 43.0517 31.7679 43.2147C32.4728 44.1671 33.2757 45.2493 34.0652 46.2969C35.0695 47.6294 36.964 47.8956 38.2967 46.8915C39.6294 45.8874 39.8956 43.9933 38.8914 42.6609L38.3874 41.9922L38.0275 41.5146C37.8613 41.294 37.9053 40.9805 38.1258 40.8143C38.3464 40.6481 38.6599 40.6922 38.8261 40.9127L39.186 41.3903L39.69 42.059C41.0267 43.8326 40.6723 46.3537 38.8985 47.6902C37.1247 49.0266 34.6033 48.6723 33.2666 46.8988C32.4743 45.8475 31.6693 44.7623 30.9641 43.8097C30.8429 43.6458 30.7246 43.486 30.6099 43.331C30.0566 42.5832 29.5861 41.9473 29.26 41.5146C29.0938 41.294 29.1378 40.9805 29.3584 40.8143Z" fill="#170D67"/>
<path d="M16.8665 13.29L16.4672 13.5909V13.5909L16.8665 13.29ZM12.7416 7.8169L12.6065 7.33549C12.4475 7.38011 12.3207 7.50041 12.2679 7.65691C12.215 7.81341 12.2429 7.98592 12.3423 8.11783L12.7416 7.8169ZM16.9739 14.1655L17.4495 14.3196L17.4495 14.3196L16.9739 14.1655ZM16.5684 14.8827L16.9648 15.1874L16.5684 14.8827ZM15.1436 16.2439L15.4461 16.642L15.4461 16.642L15.1436 16.2439ZM13.4474 17.2498L13.2627 16.7852H13.2627L13.4474 17.2498ZM12.6398 17.4413L12.6526 17.9411H12.6526L12.6398 17.4413ZM11.8257 17.0881L11.4264 17.3891L11.8257 17.0881ZM7.72261 11.644L8.12191 11.343C8.02188 11.2103 7.86245 11.136 7.69648 11.1447C7.53052 11.1533 7.37972 11.2439 7.29409 11.3863L7.72261 11.644ZM8.22321 21.2023L8.62251 20.9013L8.22321 21.2023ZM17.1438 24.3521L17.022 23.8671L17.1438 24.3521ZM17.6648 24.5361L17.2655 24.837H17.2655L17.6648 24.5361ZM21.5467 29.6867L21.1474 29.9877L21.1474 29.9877L21.5467 29.6867ZM21.4483 30.387L21.7493 30.7863H21.7493L21.4483 30.387ZM20.7481 30.2886L21.1474 29.9877H21.1474L20.7481 30.2886ZM17.0619 25.3976L17.4612 25.0966C17.3441 24.9413 17.1475 24.8679 16.9573 24.9087L17.0619 25.3976ZM7.42462 21.8041L7.82392 21.5032L7.42462 21.8041ZM7.28891 10.4852L6.88269 10.1937H6.88269L7.28891 10.4852ZM7.68928 10.2768L7.69512 10.7768L7.68928 10.2768ZM8.09442 10.4758L8.49371 10.1749L8.09442 10.4758ZM12.5906 16.4416L12.1913 16.7425C12.2826 16.8636 12.4238 16.9367 12.5753 16.9414L12.5906 16.4416ZM12.6143 16.4416L12.627 16.9414H12.627L12.6143 16.4416ZM13.078 16.3206L12.8933 15.8559L13.078 16.3206ZM14.5385 15.4477L14.236 15.0496H14.236L14.5385 15.4477ZM15.7754 14.2734L16.1719 14.578L15.7754 14.2734ZM16.0226 13.8572L15.547 13.703L15.547 13.703L16.0226 13.8572ZM16.0281 13.8391L16.5096 13.9738C16.5516 13.8237 16.5212 13.6626 16.4274 13.5381L16.0281 13.8391ZM11.5211 7.85899L11.1218 8.15992L11.1218 8.15992L11.5211 7.85899ZM11.4407 7.41719L11.9204 7.55805L11.4407 7.41719ZM11.7472 7.08902L11.9204 7.55805L11.9204 7.55805L11.7472 7.08902ZM22.6869 10.3047L22.2876 10.6057L22.6869 10.3047ZM23.4853 20.5579L23.0442 20.3225C22.9526 20.4942 22.9689 20.7034 23.086 20.8588L23.4853 20.5579ZM25.2052 22.8399L24.8059 23.1409L25.2052 22.8399ZM25.1069 23.5402L24.8059 23.1409H24.8059L25.1069 23.5402ZM24.4066 23.4418L24.8059 23.1409L24.4066 23.4418ZM22.491 20.9L22.0917 21.2009L22.0917 21.2009L22.491 20.9ZM22.4577 20.3483L22.8903 20.5991V20.5991L22.4577 20.3483ZM21.8883 10.9066L22.2876 10.6057L21.8883 10.9066ZM16.0348 13.8061L15.7413 13.4013L15.7405 13.4018L16.0348 13.8061ZM16.0346 13.8096L15.5346 13.8132C15.5365 14.0773 15.7434 14.2943 16.0071 14.3088C16.2708 14.3233 16.5003 14.1303 16.5311 13.868L16.0346 13.8096ZM12.5654 16.4394L12.4735 16.9309C12.7334 16.9795 12.9863 16.8173 13.0505 16.5608C13.1147 16.3043 12.968 16.0421 12.7158 15.9625L12.5654 16.4394ZM30.0586 40.9127L29.6593 41.2136L30.0586 40.9127ZM29.3584 40.8143L29.6593 41.2136L29.3584 40.8143ZM31.4149 42.7377L31.0129 43.035L31.4149 42.7377ZM31.7679 43.2147L32.1698 42.9172L31.7679 43.2147ZM34.0652 46.2969L34.4645 45.996L34.0652 46.2969ZM38.2967 46.8915L38.5976 47.2908L38.2967 46.8915ZM38.8914 42.6609L39.2907 42.3599L38.8914 42.6609ZM38.3874 41.9922L37.9881 42.2931L38.3874 41.9922ZM38.0275 41.5146L38.4268 41.2136L38.0275 41.5146ZM38.1258 40.8143L37.8249 40.415H37.8249L38.1258 40.8143ZM38.8261 40.9127L38.4268 41.2136L38.8261 40.9127ZM39.186 41.3903L39.5853 41.0894L39.186 41.3903ZM39.69 42.059L39.2907 42.3599L39.69 42.059ZM38.8985 47.6902L38.5976 47.2908L38.8985 47.6902ZM33.2666 46.8988L33.6659 46.5978L33.2666 46.8988ZM30.9641 43.8097L30.5622 44.1071L30.9641 43.8097ZM30.6099 43.331L30.208 43.6284L30.6099 43.331ZM29.26 41.5146L29.6593 41.2136L29.26 41.5146ZM17.2658 12.9891L13.1409 7.51596L12.3423 8.11783L16.4672 13.5909L17.2658 12.9891ZM17.4495 14.3196C17.5515 14.0049 17.6277 13.4693 17.2658 12.9891L16.4672 13.5909C16.5468 13.6965 16.5539 13.8395 16.4982 14.0113L17.4495 14.3196ZM16.9648 15.1874C17.1539 14.9413 17.3445 14.6436 17.4495 14.3196L16.4982 14.0113C16.4435 14.1802 16.3292 14.3733 16.1719 14.578L16.9648 15.1874ZM15.4461 16.642C16.0176 16.2077 16.5782 15.6905 16.9648 15.1874L16.1719 14.578C15.8571 14.9877 15.3697 15.4441 14.8411 15.8458L15.4461 16.642ZM13.6321 17.7145C14.225 17.4788 14.8751 17.0759 15.4461 16.642L14.8411 15.8458C14.3124 16.2475 13.7425 16.5945 13.2627 16.7852L13.6321 17.7145ZM12.6526 17.9411C12.9992 17.9323 13.342 17.8298 13.6321 17.7145L13.2627 16.7852C13.023 16.8805 12.8055 16.9369 12.627 16.9414L12.6526 17.9411ZM11.4264 17.3891C11.7828 17.8619 12.3071 17.9499 12.6526 17.9411L12.627 16.9414C12.4456 16.9461 12.3079 16.8972 12.225 16.7872L11.4264 17.3891ZM7.32331 11.9449L11.4264 17.3891L12.225 16.7872L8.12191 11.343L7.32331 11.9449ZM8.62251 20.9013C6.58751 18.2012 6.50848 14.6339 8.15113 11.9016L7.29409 11.3863C5.44851 14.4562 5.53524 18.4665 7.82392 21.5032L8.62251 20.9013ZM17.022 23.8671C13.9742 24.6323 10.6302 23.5653 8.62251 20.9013L7.82392 21.5032C10.0819 24.4992 13.8416 25.6966 17.2655 24.837L17.022 23.8671ZM18.0641 24.2351C17.8222 23.9142 17.4118 23.7692 17.022 23.8671L17.2655 24.837H17.2655L18.0641 24.2351ZM21.946 29.3858L18.0641 24.2351L17.2655 24.837L21.1474 29.9877L21.946 29.3858ZM21.7493 30.7863C22.1903 30.4539 22.2784 29.8268 21.946 29.3858L21.1474 29.9877L21.1474 29.9877L21.7493 30.7863ZM20.3488 30.5895C20.6812 31.0306 21.3082 31.1187 21.7493 30.7863L21.1474 29.9877L20.3488 30.5895ZM16.6626 25.6985L20.3488 30.5895L21.1474 29.9877L17.4612 25.0966L16.6626 25.6985ZM7.02532 22.1051C9.45861 25.3337 13.4608 26.6795 17.1665 25.8865L16.9573 24.9087C13.6177 25.6233 10.0143 24.4095 7.82392 21.5032L7.02532 22.1051ZM6.88269 10.1937C4.38645 13.6719 4.3111 18.5037 7.02532 22.1051L7.82392 21.5032C5.38056 18.2612 5.44663 13.9097 7.69512 10.7768L6.88269 10.1937ZM7.68345 9.77682C7.36542 9.78053 7.06813 9.9353 6.88269 10.1937L7.69512 10.7768H7.69512L7.68345 9.77682ZM8.49371 10.1749C8.30229 9.92089 8.00147 9.77311 7.68345 9.77682L7.69512 10.7768L8.49371 10.1749ZM12.9899 16.1407L8.49371 10.1749L7.69512 10.7768L12.1913 16.7425L12.9899 16.1407ZM12.6015 15.9418C12.6009 15.9418 12.6024 15.9417 12.6059 15.9418L12.5753 16.9414C12.5919 16.9419 12.6091 16.9419 12.627 16.9414L12.6015 15.9418ZM12.8933 15.8559C12.8029 15.8919 12.732 15.9141 12.6799 15.9271C12.6256 15.9406 12.6012 15.9418 12.6015 15.9418L12.627 16.9414C12.8056 16.9369 13.023 16.8805 13.2627 16.7852L12.8933 15.8559ZM14.236 15.0496C13.7497 15.4191 13.26 15.7102 12.8933 15.8559L13.2627 16.7852C13.7425 16.5945 14.3124 16.2475 14.8411 15.8458L14.236 15.0496ZM15.379 13.9687C15.136 14.2848 14.7218 14.6804 14.236 15.0496L14.8411 15.8458C15.3697 15.4441 15.8571 14.9877 16.1719 14.578L15.379 13.9687ZM15.547 13.703C15.5471 13.7026 15.545 13.7091 15.5384 13.7232C15.532 13.7369 15.5224 13.7556 15.5086 13.7794C15.4808 13.8272 15.439 13.8906 15.379 13.9687L16.1719 14.578C16.3292 14.3734 16.4435 14.1802 16.4982 14.0113L15.547 13.703ZM15.5466 13.7043C15.547 13.7028 15.5472 13.7024 15.547 13.703L16.4982 14.0114C16.5024 13.9984 16.5062 13.9859 16.5096 13.9738L15.5466 13.7043ZM11.1218 8.15992L15.6288 14.14L16.4274 13.5381L11.9204 7.55805L11.1218 8.15992ZM10.9609 7.27634C10.8718 7.57974 10.9315 7.9074 11.1218 8.15992L11.9204 7.55805V7.55805L10.9609 7.27634ZM11.5739 6.61999C11.2773 6.72954 11.05 6.97294 10.9609 7.27634L11.9204 7.55805L11.9204 7.55805L11.5739 6.61999ZM23.0862 10.0038C20.3495 6.37265 15.6286 5.1224 11.5739 6.61999L11.9204 7.55805C15.5727 6.2091 19.824 7.33683 22.2876 10.6057L23.0862 10.0038ZM23.9264 20.7932C25.7103 17.4501 25.5195 13.2324 23.0862 10.0038L22.2876 10.6057C24.4779 13.5119 24.6517 17.3098 23.0442 20.3225L23.9264 20.7932ZM25.6045 22.539L23.8846 20.2569L23.086 20.8588L24.8059 23.1409L25.6045 22.539ZM25.4078 23.9394C25.8488 23.607 25.9369 22.98 25.6045 22.539L24.8059 23.1409L25.4078 23.9394ZM24.0073 23.7427C24.3397 24.1838 24.9667 24.2719 25.4078 23.9394L24.8059 23.1409H24.8059L24.0073 23.7427ZM22.0917 21.2009L24.0073 23.7427L24.8059 23.1409L22.8903 20.5991L22.0917 21.2009ZM22.0251 20.0976C21.8235 20.4453 21.8498 20.88 22.0917 21.2009L22.8903 20.5991H22.8903L22.0251 20.0976ZM21.489 11.2075C23.4967 13.8715 23.6008 17.3793 22.0251 20.0976L22.8903 20.5991C24.6604 17.5453 24.5456 13.6017 22.2876 10.6057L21.489 11.2075ZM12.8767 8.29831C15.9796 7.42768 19.4342 8.48114 21.489 11.2075L22.2876 10.6057C19.9767 7.53945 16.0928 6.35732 12.6065 7.33549L12.8767 8.29831ZM16.3282 14.2109C16.2439 14.272 16.094 14.3365 15.9129 14.291C15.7532 14.2509 15.6651 14.1477 15.6309 14.1008C15.5671 14.0134 15.5496 13.9273 15.5478 13.9194C15.5373 13.8743 15.5358 13.8376 15.5355 13.8323C15.5343 13.8094 15.535 13.7916 15.5352 13.7859C15.5359 13.7702 15.5372 13.758 15.538 13.7511L16.5311 13.868C16.5322 13.8587 16.5336 13.8447 16.5344 13.8278C16.5346 13.8216 16.5353 13.8034 16.5341 13.7802C16.5338 13.7748 16.5323 13.738 16.5218 13.6928C16.5199 13.6849 16.5024 13.5987 16.4387 13.5113C16.4045 13.4645 16.3163 13.3613 16.1567 13.3212C15.9755 13.2756 15.8256 13.3401 15.7413 13.4013L16.3282 14.2109ZM16.5345 13.8059C16.5346 13.8153 16.5344 13.8281 16.5333 13.8435C16.5328 13.8502 16.5317 13.8639 16.529 13.8813C16.5279 13.8885 16.525 13.9075 16.5188 13.9314C16.516 13.9422 16.5092 13.9674 16.4964 13.998C16.4901 14.0134 16.4782 14.0399 16.4591 14.0706C16.4432 14.096 16.4029 14.1566 16.329 14.2103L15.7405 13.4018C15.6666 13.4556 15.6263 13.5162 15.6104 13.5416C15.5913 13.5723 15.5794 13.5988 15.5731 13.6142C15.5603 13.6448 15.5535 13.6701 15.5507 13.6809C15.5445 13.7048 15.5415 13.724 15.5403 13.7313C15.5377 13.749 15.5365 13.7633 15.536 13.7705C15.5347 13.7871 15.5345 13.8016 15.5346 13.8132L16.5345 13.8059ZM12.8798 16.8252C12.8017 16.8893 12.7245 16.9128 12.6946 16.921C12.6576 16.9311 12.627 16.9348 12.6101 16.9364C12.576 16.9397 12.5491 16.9386 12.5382 16.9381C12.5135 16.9369 12.4944 16.9341 12.4874 16.933C12.4702 16.9304 12.4569 16.9274 12.4506 16.9259C12.4359 16.9225 12.4238 16.919 12.4151 16.9162L12.7158 15.9625C12.7053 15.9592 12.6918 15.9553 12.6762 15.9517C12.6694 15.9501 12.6557 15.9471 12.6383 15.9444C12.6312 15.9434 12.612 15.9405 12.5872 15.9393C12.5762 15.9388 12.5493 15.9377 12.5152 15.9409C12.4983 15.9426 12.4677 15.9463 12.4307 15.9564C12.4007 15.9646 12.3236 15.9881 12.2455 16.0522L12.8798 16.8252ZM12.6574 15.9479C12.6642 15.9492 12.676 15.9516 12.6907 15.9554C12.6961 15.9569 12.7125 15.9612 12.733 15.9686C12.738 15.9705 12.77 15.9818 12.8075 16.0028C12.8149 16.0069 12.8843 16.0438 12.9467 16.1185C12.9777 16.1558 13.0546 16.2583 13.0621 16.4148C13.0712 16.6053 12.9744 16.7476 12.8798 16.8252L12.2455 16.0522C12.1508 16.1298 12.0541 16.2721 12.0632 16.4626C12.0707 16.6191 12.1475 16.7216 12.1786 16.7589C12.2409 16.8337 12.3104 16.8705 12.3178 16.8747C12.3553 16.8957 12.3874 16.907 12.3925 16.9089C12.4133 16.9164 12.43 16.9209 12.4358 16.9224C12.4515 16.9265 12.4647 16.9292 12.4735 16.9309L12.6574 15.9479ZM30.4579 40.6117C30.1255 40.1707 29.4985 40.0826 29.0574 40.415L29.6593 41.2136L30.4579 40.6117ZM31.8168 42.4403C31.2642 41.6934 30.7886 41.0506 30.4579 40.6117L29.6593 41.2136C29.9867 41.6481 30.4591 42.2865 31.0129 43.035L31.8168 42.4403ZM32.1698 42.9172C32.0491 42.7542 31.9313 42.595 31.8168 42.4403L31.0129 43.035C31.1274 43.1898 31.2453 43.3491 31.366 43.5122L32.1698 42.9172ZM34.4645 45.996C33.6763 44.9502 32.8746 43.8694 32.1698 42.9172L31.366 43.5122C32.0711 44.4647 32.875 45.5484 33.6659 46.5978L34.4645 45.996ZM37.9958 46.4922C36.8836 47.3301 35.3026 47.1079 34.4645 45.996L33.6659 46.5978C34.8364 48.1508 37.0444 48.4611 38.5976 47.2908L37.9958 46.4922ZM38.4921 42.9618C39.3301 44.0737 39.108 45.6542 37.9958 46.4922L38.5976 47.2908C40.1508 46.1206 40.4611 43.9129 39.2907 42.3599L38.4921 42.9618ZM37.9881 42.2931L38.4921 42.9618L39.2907 42.3599L38.7867 41.6912L37.9881 42.2931ZM37.6282 41.8155L37.9881 42.2931L38.7867 41.6912L38.4268 41.2136L37.6282 41.8155ZM37.8249 40.415C37.3838 40.7474 37.2958 41.3744 37.6282 41.8155L38.4268 41.2136L37.8249 40.415ZM39.2254 40.6117C38.893 40.1707 38.2659 40.0826 37.8249 40.415L38.4268 41.2136L39.2254 40.6117ZM39.5853 41.0894L39.2254 40.6117L38.4268 41.2136L38.7867 41.6912L39.5853 41.0894ZM40.0893 41.758L39.5853 41.0894L38.7867 41.6912L39.2907 42.3599L40.0893 41.758ZM39.1994 48.0895C41.1937 46.5869 41.5922 43.7522 40.0893 41.758L39.2907 42.3599C40.4611 43.9129 40.1508 46.1206 38.5976 47.2908L39.1994 48.0895ZM32.8673 47.1997C34.3702 49.1938 37.2051 49.5921 39.1994 48.0895L38.5976 47.2908C37.0444 48.4611 34.8364 48.1508 33.6659 46.5978L32.8673 47.1997ZM30.5622 44.1071C31.2675 45.0599 32.0736 46.1466 32.8673 47.1997L33.6659 46.5978C32.875 45.5484 32.0711 44.4647 31.366 43.5122L30.5622 44.1071ZM30.208 43.6284C30.3227 43.7834 30.4409 43.9433 30.5622 44.1071L31.366 43.5122C31.2448 43.3484 31.1266 43.1886 31.0119 43.0336L30.208 43.6284ZM28.8607 41.8155C29.1852 42.246 29.6541 42.8798 30.208 43.6284L31.0119 43.0336C30.4592 42.2867 29.9871 41.6486 29.6593 41.2136L28.8607 41.8155ZM29.0574 40.415C28.6164 40.7474 28.5283 41.3744 28.8607 41.8155L29.6593 41.2136L29.0574 40.415Z" fill="#170D67"/>
<path d="M28.0637 31.6488C27.8697 32.166 28.1317 32.7424 28.6488 32.9363C29.166 33.1303 29.7424 32.8683 29.9363 32.3511L28.0637 31.6488ZM37.5966 22.46C38.0796 22.1922 38.254 21.5836 37.9862 21.1005C37.7184 20.6175 37.1097 20.4431 36.6267 20.7109L37.5966 22.46ZM39.6085 19.4724C39.0779 19.6255 38.7718 20.1797 38.9249 20.7104C39.0779 21.241 39.6322 21.5471 40.1629 21.394L39.6085 19.4724ZM42.1249 20.9922C42.6729 20.9232 43.0612 20.423 42.9922 19.8751C42.9232 19.3271 42.423 18.9388 41.8751 19.0078L42.1249 20.9922ZM29.9363 32.3511C31.595 27.9283 34.1414 24.3759 37.5966 22.46L36.6267 20.7109C32.6139 22.936 29.8218 26.9608 28.0637 31.6488L29.9363 32.3511ZM40.1629 21.394C40.7892 21.2134 41.4429 21.078 42.1249 20.9922L41.8751 19.0078C41.0914 19.1065 40.3358 19.2626 39.6085 19.4724L40.1629 21.394Z" fill="#170D67"/>
<path d="M62.9572 38C63.2878 38 63.5499 38 63.737 38C66.7543 38 66.7543 33.5198 63.737 33.5198C63.737 28.8929 59.1815 15 43.6007 15C33.2135 15 26.5647 21.2107 22.6355 33.5198C16.2118 34.0988 13 35.5922 13 38C13 38 29.6903 38 42.7272 38" stroke="#170D67" stroke-width="2" stroke-linecap="round" stroke-linejoin="round"/>
<circle cx="53.5" cy="37.5" r="7.5" stroke="#170D67" stroke-width="2"/>
<path d="M53 33V38L56 36.2516" stroke="#170D67" stroke-width="2" stroke-linecap="round" stroke-linejoin="round"/>
</svg>
