<svg width="24" height="24" viewBox="0 0 24 24" fill="none" xmlns="http://www.w3.org/2000/svg">
<path fill-rule="evenodd" clip-rule="evenodd" d="M18 19.3169V13.3169L12 8.31689L6 13.3169V19.3169C6 19.8692 6.44772 20.3169 7 20.3169H10.3636V15.9169C10.3636 15.3646 10.8114 14.9169 11.3636 14.9169H12.6364C13.1886 14.9169 13.6364 15.3646 13.6364 15.9169V20.3169H17C17.5523 20.3169 18 19.8692 18 19.3169Z" fill="#170D67"/>
<path d="M18.3492 12.0763C18.7686 12.4358 19.3999 12.3872 19.7593 11.9679C20.1187 11.5485 20.0701 10.9172 19.6508 10.5578L12 4L4.34923 10.5578C3.9299 10.9172 3.88134 11.5485 4.24076 11.9679C4.60018 12.3872 5.23148 12.4358 5.65081 12.0763L12 6.63416L18.3492 12.0763Z" fill="#170D67"/>
</svg>
