<svg width="324" height="324" viewBox="0 0 324 324" fill="none" xmlns="http://www.w3.org/2000/svg">
<path d="M76 20C76 15.0294 80.0294 11 85 11H239C243.971 11 248 15.0294 248 20V302C248 306.971 243.971 311 239 311H85C80.0294 311 76 306.971 76 302V20Z" stroke="#E5E6E8" stroke-width="2"/>
<path fill-rule="evenodd" clip-rule="evenodd" d="M140 109V103L134 98L128 103V109C128 109.552 128.448 110 129 110H132.364V105.6C132.364 105.048 132.811 104.6 133.364 104.6H134.636C135.189 104.6 135.636 105.048 135.636 105.6V110H139C139.552 110 140 109.552 140 109Z" fill="#170D67"/>
<path d="M140.349 101.759C140.769 102.119 141.4 102.07 141.759 101.651C142.119 101.231 142.07 100.6 141.651 100.241L134 93.6829L126.349 100.241C125.93 100.6 125.881 101.231 126.241 101.651C126.6 102.07 127.231 102.119 127.651 101.759L134 96.317L140.349 101.759Z" fill="#170D67"/>
<path fill-rule="evenodd" clip-rule="evenodd" d="M154 104C154 102.895 154.895 102 156 102H223C224.105 102 225 102.895 225 104C225 105.105 224.105 106 223 106H156C154.895 106 154 105.105 154 104Z" fill="#E5E6E8"/>
<path fill-rule="evenodd" clip-rule="evenodd" d="M95 59C95 56.7909 96.7909 55 99 55H225C227.209 55 229 56.7909 229 59C229 61.2091 227.209 63 225 63H99C96.7909 63 95 61.2091 95 59Z" fill="#E5E6E8"/>
<path fill-rule="evenodd" clip-rule="evenodd" d="M154 148C154 146.895 154.895 146 156 146H223C224.105 146 225 146.895 225 148C225 149.105 224.105 150 223 150H156C154.895 150 154 149.105 154 148Z" fill="#E5E6E8"/>
<path fill-rule="evenodd" clip-rule="evenodd" d="M154 192C154 190.895 154.895 190 156 190H223C224.105 190 225 190.895 225 192C225 193.105 224.105 194 223 194H156C154.895 194 154 193.105 154 192Z" fill="#E5E6E8"/>
<path fill-rule="evenodd" clip-rule="evenodd" d="M154 236C154 234.895 154.895 234 156 234H223C224.105 234 225 234.895 225 236C225 237.105 224.105 238 223 238H156C154.895 238 154 237.105 154 236Z" fill="#E5E6E8"/>
<path fill-rule="evenodd" clip-rule="evenodd" d="M154 280C154 278.895 154.895 278 156 278H223C224.105 278 225 278.895 225 280C225 281.105 224.105 282 223 282H156C154.895 282 154 281.105 154 280Z" fill="#E5E6E8"/>
<path fill-rule="evenodd" clip-rule="evenodd" d="M140 153V147L134 142L128 147V153C128 153.552 128.448 154 129 154H132.364V149.6C132.364 149.048 132.811 148.6 133.364 148.6H134.636C135.189 148.6 135.636 149.048 135.636 149.6V154H139C139.552 154 140 153.552 140 153Z" fill="#170D67"/>
<path d="M140.349 145.759C140.769 146.119 141.4 146.07 141.759 145.651C142.119 145.231 142.07 144.6 141.651 144.241L134 137.683L126.349 144.241C125.93 144.6 125.881 145.231 126.241 145.651C126.6 146.07 127.231 146.119 127.651 145.759L134 140.317L140.349 145.759Z" fill="#170D67"/>
<path fill-rule="evenodd" clip-rule="evenodd" d="M140 197V191L134 186L128 191V197C128 197.552 128.448 198 129 198H132.364V193.6C132.364 193.048 132.811 192.6 133.364 192.6H134.636C135.189 192.6 135.636 193.048 135.636 193.6V198H139C139.552 198 140 197.552 140 197Z" fill="#170D67"/>
<path d="M140.349 189.759C140.769 190.119 141.4 190.07 141.759 189.651C142.119 189.231 142.07 188.6 141.651 188.241L134 181.683L126.349 188.241C125.93 188.6 125.881 189.231 126.241 189.651C126.6 190.07 127.231 190.119 127.651 189.759L134 184.317L140.349 189.759Z" fill="#170D67"/>
<path fill-rule="evenodd" clip-rule="evenodd" d="M140 234C140.552 234 141 234.448 141 235V241C141 241.552 140.552 242 140 242H138C137.448 242 137 241.552 137 241V235C137 234.448 137.448 234 138 234H140Z" fill="#170D67"/>
<path fill-rule="evenodd" clip-rule="evenodd" d="M135 227C135.552 227 136 227.448 136 228V241C136 241.552 135.552 242 135 242H127C126.448 242 126 241.552 126 241V228C126 227.448 126.448 227 127 227H135ZM128 231C128 230.448 128.448 230 129 230C129.552 230 130 230.448 130 231V232C130 232.552 129.552 233 129 233C128.448 233 128 232.552 128 232V231ZM133 230C132.448 230 132 230.448 132 231V232C132 232.552 132.448 233 133 233C133.552 233 134 232.552 134 232V231C134 230.448 133.552 230 133 230ZM132 236C132 235.448 132.448 235 133 235C133.552 235 134 235.448 134 236V237C134 237.552 133.552 238 133 238C132.448 238 132 237.552 132 237V236ZM129 235C128.448 235 128 235.448 128 236V237C128 237.552 128.448 238 129 238C129.552 238 130 237.552 130 237V236C130 235.448 129.552 235 129 235Z" fill="#170D67"/>
<path fill-rule="evenodd" clip-rule="evenodd" d="M140 278C140.552 278 141 278.448 141 279V285C141 285.552 140.552 286 140 286H138C137.448 286 137 285.552 137 285V279C137 278.448 137.448 278 138 278H140Z" fill="#170D67"/>
<path fill-rule="evenodd" clip-rule="evenodd" d="M135 271C135.552 271 136 271.448 136 272V285C136 285.552 135.552 286 135 286H127C126.448 286 126 285.552 126 285V272C126 271.448 126.448 271 127 271H135ZM128 275C128 274.448 128.448 274 129 274C129.552 274 130 274.448 130 275V276C130 276.552 129.552 277 129 277C128.448 277 128 276.552 128 276V275ZM133 274C132.448 274 132 274.448 132 275V276C132 276.552 132.448 277 133 277C133.552 277 134 276.552 134 276V275C134 274.448 133.552 274 133 274ZM132 280C132 279.448 132.448 279 133 279C133.552 279 134 279.448 134 280V281C134 281.552 133.552 282 133 282C132.448 282 132 281.552 132 281V280ZM129 279C128.448 279 128 279.448 128 280V281C128 281.552 128.448 282 129 282C129.552 282 130 281.552 130 281V280C130 279.448 129.552 279 129 279Z" fill="#170D67"/>
<circle cx="107" cy="103" r="6" fill="#170D67"/>
<circle cx="107" cy="103" r="8.5" stroke="#170D67"/>
<circle cx="107" cy="145" r="8.5" stroke="#170D67"/>
<circle cx="107" cy="190" r="8.5" stroke="#170D67"/>
<circle cx="107" cy="235" r="8.5" stroke="#170D67"/>
<circle cx="107" cy="277" r="8.5" stroke="#170D67"/>
<rect x="80" y="73" width="164" height="2" rx="0.5" fill="#170D67"/>
</svg>
