<?xml version="1.0" encoding="utf-8"?>
<!-- Generator: Adobe Illustrator 27.1.1, SVG Export Plug-In . SVG Version: 6.00 Build 0)  -->
<svg version="1.1" id="Layer_1" xmlns="http://www.w3.org/2000/svg" xmlns:xlink="http://www.w3.org/1999/xlink" x="0px" y="0px"
	 viewBox="0 0 30 30" style="enable-background:new 0 0 30 30;" xml:space="preserve">
<style type="text/css">
	.st0{fill:#170D67;}
</style>
<path class="st0" d="M15,0C6.7,0,0,6.7,0,15c0,8.3,6.7,15,15,15c8.3,0,15-6.7,15-15C30,6.7,23.3,0,15,0z M20,11c0-0.6,0.4-1,1-1
	s1,0.4,1,1v4c-0.5,0.3-1.1,0.4-1.7,0.4c-0.1,0-0.2,0-0.3,0V11z M14,6c0-0.6,0.4-1,1-1s1,0.4,1,1v7c-0.7-0.5-1.4-0.8-2-1.1V6z M8,9
	c0-0.6,0.4-1,1-1s1,0.4,1,1v2.4c-0.7,0.1-1.4,0.3-2,0.5V9z M10,22c0,0.6-0.4,1-1,1s-1-0.4-1-1v-5.4c0.6-0.5,1.3-0.9,2-1.1V22z
	 M16,22c0,0.6-0.4,1-1,1s-1-0.4-1-1v-5.6c0.2,0.2,0.5,0.4,0.8,0.6c0.2,0.1,0.3,0.2,0.4,0.3c0.1,0.1,0.3,0.2,0.4,0.3
	c0.2,0.1,0.3,0.2,0.4,0.3V22z M22,22c0,0.6-0.4,1-1,1s-1-0.4-1-1v-2.6c0.1,0,0.2,0,0.3,0c0.6,0,1.2-0.1,1.7-0.2V22z M20.3,18.3
	c-1.4,0-2.5-0.5-4-1.7c-0.1-0.1-0.2-0.2-0.4-0.3c-0.1-0.1-0.2-0.1-0.4-0.3c-1.8-1.4-2.8-1.9-4.1-1.9c-2.2,0-4,1-5.6,3.2
	c-0.3,0.4-0.9,0.5-1.3,0.2c-0.4-0.3-0.5-0.9-0.2-1.3c1.9-2.6,4.2-4,7-4c1.8,0,3.1,0.6,5.2,2.2c0.2,0.1,0.3,0.2,0.4,0.3
	c0.1,0.1,0.3,0.2,0.4,0.3c1.3,0.9,2.1,1.3,3,1.3c1.8,0,3.1-0.8,4-2.4c0.2-0.4,0.8-0.6,1.2-0.4c0.4,0.2,0.6,0.8,0.4,1.2
	C24.6,17.2,22.7,18.3,20.3,18.3z"/>
</svg>
