<svg width="324" height="204" viewBox="0 0 324 204" fill="none" xmlns="http://www.w3.org/2000/svg">
<path fill-rule="evenodd" clip-rule="evenodd" d="M23.8071 42.9673C23.6146 40.7666 25.2425 38.8265 27.4433 38.6339L265.534 17.8037C267.735 17.6112 269.675 19.2391 269.867 21.4399L279.193 128.033C279.385 130.233 277.757 132.174 275.557 132.366L37.4662 153.196C35.2655 153.389 33.3253 151.761 33.1328 149.56L23.8071 42.9673Z" fill="white" stroke="#E5E6E8" stroke-width="2"/>
<path fill-rule="evenodd" clip-rule="evenodd" d="M44 53C44 50.7909 45.7909 49 48 49H287C289.209 49 291 50.7909 291 53V157C291 159.209 289.209 161 287 161H48C45.7909 161 44 159.209 44 157V53Z" fill="white" stroke="#E5E6E8" stroke-width="2"/>
<rect x="60" y="131" width="103" height="14" rx="7" stroke="#170D67" stroke-width="2"/>
<rect x="171" y="130" width="105" height="16" rx="8" fill="#170D67"/>
<path fill-rule="evenodd" clip-rule="evenodd" d="M74.2025 135.687L72.6743 137.697V137.729L75.1032 137.407V138.5L72.6743 138.211V138.243L74.218 140.172L73.2054 140.751L72.2407 138.5H72.2084L71.1629 140.767L70.2466 140.188L71.7742 138.227V138.195L69.3943 138.5V137.407L71.758 137.713V137.681L70.2466 135.719L71.2269 135.157L72.2239 137.391H72.2562L73.2377 135.141L74.2025 135.687Z" fill="#5A626D"/>
<path fill-rule="evenodd" clip-rule="evenodd" d="M84.0899 135.687L82.5618 137.697V137.729L84.9907 137.407V138.5L82.5618 138.211V138.243L84.1055 140.172L83.0929 140.751L82.1281 138.5H82.0958L81.0503 140.767L80.134 140.188L81.6616 138.227V138.195L79.2817 138.5V137.407L81.6455 137.713V137.681L80.134 135.719L81.1143 135.157L82.1114 137.391H82.1437L83.1252 135.141L84.0899 135.687Z" fill="#5A626D"/>
<path fill-rule="evenodd" clip-rule="evenodd" d="M93.9775 135.687L92.4493 137.697V137.729L94.8783 137.407V138.5L92.4493 138.211V138.243L93.9931 140.172L92.9805 140.751L92.0157 138.5H91.9834L90.9379 140.767L90.0216 140.188L91.5492 138.227V138.195L89.1693 138.5V137.407L91.533 137.713V137.681L90.0216 135.719L91.0019 135.157L91.999 137.391H92.0313L93.0128 135.141L93.9775 135.687Z" fill="#5A626D"/>
<path fill-rule="evenodd" clip-rule="evenodd" d="M103.864 135.687L102.336 137.697V137.729L104.765 137.407V138.5L102.336 138.211V138.243L103.88 140.172L102.867 140.751L101.903 138.5H101.87L100.825 140.767L99.9086 140.188L101.436 138.227V138.195L99.0563 138.5V137.407L101.42 137.713V137.681L99.9086 135.719L100.889 135.157L101.886 137.391H101.919L102.9 135.141L103.864 135.687Z" fill="#5A626D"/>
<path fill-rule="evenodd" clip-rule="evenodd" d="M113.752 135.687L112.224 137.697V137.729L114.653 137.407V138.5L112.224 138.211V138.243L113.767 140.172L112.755 140.751L111.79 138.5H111.758L110.712 140.767L109.796 140.188L111.324 138.227V138.195L108.944 138.5V137.407L111.307 137.713V137.681L109.796 135.719L110.777 135.157L111.773 137.391H111.806L112.787 135.141L113.752 135.687Z" fill="#5A626D"/>
<path fill-rule="evenodd" clip-rule="evenodd" d="M123.639 135.687L122.111 137.697V137.729L124.54 137.407V138.5L122.111 138.211V138.243L123.655 140.172L122.642 140.751L121.678 138.5H121.645L120.6 140.767L119.683 140.188L121.211 138.227V138.195L118.831 138.5V137.407L121.195 137.713V137.681L119.683 135.719L120.664 135.157L121.661 137.391H121.694L122.675 135.141L123.639 135.687Z" fill="#5A626D"/>
<path fill-rule="evenodd" clip-rule="evenodd" d="M133.527 135.687L131.999 137.697V137.729L134.428 137.407V138.5L131.999 138.211V138.243L133.542 140.172L132.53 140.751L131.565 138.5H131.533L130.487 140.767L129.571 140.188L131.099 138.227V138.195L128.719 138.5V137.407L131.082 137.713V137.681L129.571 135.719L130.552 135.157L131.548 137.391H131.581L132.562 135.141L133.527 135.687Z" fill="#5A626D"/>
<path fill-rule="evenodd" clip-rule="evenodd" d="M143.414 135.687L141.886 137.697V137.729L144.315 137.407V138.5L141.886 138.211V138.243L143.429 140.172L142.417 140.751L141.452 138.5H141.42L140.374 140.767L139.458 140.188L140.985 138.227V138.195L138.606 138.5V137.407L140.969 137.713V137.681L139.458 135.719L140.438 135.157L141.435 137.391H141.468L142.449 135.141L143.414 135.687Z" fill="#5A626D"/>
<path fill-rule="evenodd" clip-rule="evenodd" d="M153.301 135.687L151.773 137.697V137.729L154.202 137.407V138.5L151.773 138.211V138.243L153.317 140.172L152.304 140.751L151.339 138.5H151.307L150.262 140.767L149.345 140.188L150.873 138.227V138.195L148.493 138.5V137.407L150.857 137.713V137.681L149.345 135.719L150.326 135.157L151.323 137.391H151.355L152.336 135.141L153.301 135.687Z" fill="#5A626D"/>
<path fill-rule="evenodd" clip-rule="evenodd" d="M185.842 135.687L184.314 137.697V137.729L186.743 137.407V138.5L184.314 138.211V138.243L185.857 140.172L184.845 140.751L183.88 138.5H183.848L182.802 140.767L181.886 140.188L183.414 138.227V138.195L181.034 138.5V137.407L183.397 137.713V137.681L181.886 135.719L182.867 135.157L183.863 137.391H183.896L184.877 135.141L185.842 135.687Z" fill="white"/>
<path fill-rule="evenodd" clip-rule="evenodd" d="M195.729 135.687L194.201 137.697V137.729L196.63 137.407V138.5L194.201 138.211V138.243L195.745 140.172L194.732 140.751L193.768 138.5H193.735L192.69 140.767L191.773 140.188L193.301 138.227V138.195L190.921 138.5V137.407L193.285 137.713V137.681L191.773 135.719L192.754 135.157L193.751 137.391H193.784L194.765 135.141L195.729 135.687Z" fill="white"/>
<path fill-rule="evenodd" clip-rule="evenodd" d="M205.617 135.687L204.089 137.697V137.729L206.518 137.407V138.5L204.089 138.211V138.243L205.632 140.172L204.62 140.751L203.655 138.5H203.623L202.577 140.767L201.661 140.188L203.189 138.227V138.195L200.809 138.5V137.407L203.172 137.713V137.681L201.661 135.719L202.642 135.157L203.638 137.391H203.671L204.652 135.141L205.617 135.687Z" fill="white"/>
<path fill-rule="evenodd" clip-rule="evenodd" d="M215.504 135.687L213.976 137.697V137.729L216.405 137.407V138.5L213.976 138.211V138.243L215.519 140.172L214.507 140.751L213.542 138.5H213.51L212.464 140.767L211.548 140.188L213.075 138.227V138.195L210.696 138.5V137.407L213.059 137.713V137.681L211.548 135.719L212.528 135.157L213.525 137.391H213.558L214.539 135.141L215.504 135.687Z" fill="white"/>
<path fill-rule="evenodd" clip-rule="evenodd" d="M225.391 135.687L223.863 137.697V137.729L226.292 137.407V138.5L223.863 138.211V138.243L225.407 140.172L224.394 140.751L223.429 138.5H223.397L222.352 140.767L221.435 140.188L222.963 138.227V138.195L220.583 138.5V137.407L222.947 137.713V137.681L221.435 135.719L222.416 135.157L223.413 137.391H223.445L224.426 135.141L225.391 135.687Z" fill="white"/>
<path fill-rule="evenodd" clip-rule="evenodd" d="M235.279 135.687L233.75 137.697V137.729L236.179 137.407V138.5L233.75 138.211V138.243L235.294 140.172L234.282 140.751L233.317 138.5H233.285L232.239 140.767L231.323 140.188L232.85 138.227V138.195L230.47 138.5V137.407L232.834 137.713V137.681L231.323 135.719L232.303 135.157L233.3 137.391H233.332L234.314 135.141L235.279 135.687Z" fill="white"/>
<path fill-rule="evenodd" clip-rule="evenodd" d="M245.166 135.687L243.638 137.697V137.729L246.067 137.407V138.5L243.638 138.211V138.243L245.182 140.172L244.169 140.751L243.204 138.5H243.172L242.127 140.767L241.21 140.188L242.738 138.227V138.195L240.358 138.5V137.407L242.722 137.713V137.681L241.21 135.719L242.191 135.157L243.188 137.391H243.22L244.201 135.141L245.166 135.687Z" fill="white"/>
<path fill-rule="evenodd" clip-rule="evenodd" d="M255.053 135.687L253.525 137.697V137.729L255.954 137.407V138.5L253.525 138.211V138.243L255.069 140.172L254.056 140.751L253.091 138.5H253.059L252.013 140.767L251.097 140.188L252.625 138.227V138.195L250.245 138.5V137.407L252.609 137.713V137.681L251.097 135.719L252.078 135.157L253.075 137.391H253.107L254.088 135.141L255.053 135.687Z" fill="white"/>
<path fill-rule="evenodd" clip-rule="evenodd" d="M264.941 135.687L263.412 137.697V137.729L265.841 137.407V138.5L263.412 138.211V138.243L264.956 140.172L263.943 140.751L262.979 138.5H262.946L261.901 140.767L260.985 140.188L262.512 138.227V138.195L260.132 138.5V137.407L262.496 137.713V137.681L260.985 135.719L261.966 135.157L262.962 137.391H262.995L263.976 135.141L264.941 135.687Z" fill="white"/>
<path d="M206 81C206 78.2386 208.239 76 211 76H258C260.761 76 263 78.2386 263 81V89C263 91.7614 260.761 94 258 94H211C208.239 94 206 91.7614 206 89V81Z" stroke="#E5E6E8" stroke-width="2"/>
<path fill-rule="evenodd" clip-rule="evenodd" d="M66 79C66 78.4477 66.4477 78 67 78H156C156.552 78 157 78.4477 157 79C157 79.5523 156.552 80 156 80H67C66.4477 80 66 79.5523 66 79Z" fill="#E5E6E8"/>
<path fill-rule="evenodd" clip-rule="evenodd" d="M66 95C66 94.4477 66.4477 94 67 94H172C172.552 94 173 94.4477 173 95C173 95.5523 172.552 96 172 96H67C66.4477 96 66 95.5523 66 95Z" fill="#E5E6E8"/>
<rect x="111" y="149" width="1" height="20" rx="0.5" fill="#5A626D"/>
<rect x="223" y="149" width="1" height="20" rx="0.5" fill="#5A626D"/>
<path fill-rule="evenodd" clip-rule="evenodd" d="M65.9609 178.418H66.9336C67.5859 178.418 68.0586 178.297 68.3516 178.055C68.6445 177.812 68.791 177.453 68.791 176.977C68.791 176.492 68.6328 176.145 68.3164 175.934C68 175.723 67.5234 175.617 66.8867 175.617H65.9609V178.418ZM65.9609 179.578V183H64.5605V174.434H66.9805C68.0859 174.434 68.9043 174.641 69.4355 175.055C69.9668 175.469 70.2324 176.094 70.2324 176.93C70.2324 177.996 69.6777 178.756 68.5684 179.209L70.9883 183H69.3945L67.3438 179.578H65.9609ZM77.832 179.748C77.832 180.807 77.5605 181.633 77.0176 182.227C76.4746 182.82 75.7188 183.117 74.75 183.117C74.1445 183.117 73.6094 182.98 73.1445 182.707C72.6797 182.434 72.3223 182.041 72.0723 181.529C71.8223 181.018 71.6973 180.424 71.6973 179.748C71.6973 178.697 71.9668 177.877 72.5059 177.287C73.0449 176.697 73.8047 176.402 74.7852 176.402C75.7227 176.402 76.4648 176.704 77.0117 177.308C77.5586 177.911 77.832 178.725 77.832 179.748ZM73.1152 179.748C73.1152 181.244 73.668 181.992 74.7734 181.992C75.8672 181.992 76.4141 181.244 76.4141 179.748C76.4141 178.268 75.8633 177.527 74.7617 177.527C74.1836 177.527 73.7646 177.719 73.5049 178.102C73.2451 178.484 73.1152 179.033 73.1152 179.748ZM83.9844 183L83.791 182.15H83.7207C83.5293 182.451 83.2568 182.687 82.9033 182.859C82.5498 183.031 82.1465 183.117 81.6934 183.117C80.9082 183.117 80.3223 182.922 79.9355 182.531C79.5488 182.141 79.3555 181.549 79.3555 180.756V176.52H80.7441V180.516C80.7441 181.012 80.8457 181.384 81.0488 181.632C81.252 181.88 81.5703 182.004 82.0039 182.004C82.582 182.004 83.0068 181.831 83.2783 181.485C83.5498 181.14 83.6855 180.561 83.6855 179.748V176.52H85.0684V183H83.9844ZM89.4453 182.004C89.7813 182.004 90.1172 181.951 90.4531 181.846V182.883C90.3008 182.949 90.1045 183.005 89.8643 183.05C89.624 183.095 89.375 183.117 89.1172 183.117C87.8125 183.117 87.1602 182.43 87.1602 181.055V177.562H86.2754V176.953L87.2246 176.449L87.6934 175.078H88.543V176.52H90.3887V177.562H88.543V181.031C88.543 181.363 88.626 181.608 88.792 181.767C88.958 181.925 89.1758 182.004 89.4453 182.004ZM93.125 183H91.748V176.52H93.125V183ZM91.666 174.803C91.666 174.557 91.7334 174.367 91.8682 174.234C92.0029 174.102 92.1953 174.035 92.4453 174.035C92.6875 174.035 92.876 174.102 93.0107 174.234C93.1455 174.367 93.2129 174.557 93.2129 174.803C93.2129 175.037 93.1455 175.222 93.0107 175.356C92.876 175.491 92.6875 175.559 92.4453 175.559C92.1953 175.559 92.0029 175.491 91.8682 175.356C91.7334 175.222 91.666 175.037 91.666 174.803ZM100.795 183H99.4121V179.016C99.4121 178.516 99.3115 178.143 99.1104 177.896C98.9092 177.65 98.5898 177.527 98.1523 177.527C97.5703 177.527 97.1445 177.699 96.875 178.043C96.6055 178.387 96.4707 178.963 96.4707 179.771V183H95.0938V176.52H96.1719L96.3652 177.369H96.4355C96.6309 177.061 96.9082 176.822 97.2676 176.654C97.627 176.486 98.0254 176.402 98.4629 176.402C100.018 176.402 100.795 177.193 100.795 178.775V183ZM108.184 176.52V177.275L107.076 177.48C107.178 177.617 107.262 177.785 107.328 177.984C107.395 178.184 107.428 178.395 107.428 178.617C107.428 179.285 107.197 179.811 106.736 180.193C106.275 180.576 105.641 180.768 104.832 180.768C104.625 180.768 104.438 180.752 104.27 180.721C103.973 180.904 103.824 181.119 103.824 181.365C103.824 181.514 103.894 181.625 104.032 181.699C104.171 181.773 104.426 181.811 104.797 181.811H105.928C106.643 181.811 107.186 181.963 107.557 182.268C107.928 182.572 108.113 183.012 108.113 183.586C108.113 184.32 107.811 184.887 107.205 185.285C106.6 185.684 105.725 185.883 104.58 185.883C103.697 185.883 103.023 185.727 102.559 185.414C102.094 185.102 101.861 184.656 101.861 184.078C101.861 183.68 101.987 183.345 102.239 183.073C102.491 182.802 102.844 182.613 103.297 182.508C103.113 182.43 102.962 182.304 102.843 182.13C102.724 181.956 102.664 181.773 102.664 181.582C102.664 181.34 102.732 181.135 102.869 180.967C103.006 180.799 103.209 180.633 103.479 180.469C103.143 180.324 102.87 180.089 102.661 179.763C102.452 179.437 102.348 179.055 102.348 178.617C102.348 177.914 102.569 177.369 103.013 176.982C103.456 176.596 104.088 176.402 104.908 176.402C105.092 176.402 105.284 176.415 105.485 176.44C105.687 176.466 105.838 176.492 105.939 176.52H108.184ZM103.092 184.008C103.092 184.305 103.226 184.533 103.493 184.693C103.761 184.854 104.137 184.934 104.621 184.934C105.371 184.934 105.93 184.826 106.297 184.611C106.664 184.396 106.848 184.111 106.848 183.756C106.848 183.475 106.747 183.274 106.546 183.155C106.345 183.036 105.971 182.977 105.424 182.977H104.381C103.986 182.977 103.673 183.069 103.44 183.255C103.208 183.44 103.092 183.691 103.092 184.008ZM103.684 178.617C103.684 179.023 103.788 179.336 103.997 179.555C104.206 179.773 104.506 179.883 104.896 179.883C105.693 179.883 106.092 179.457 106.092 178.605C106.092 178.184 105.993 177.858 105.796 177.63C105.599 177.401 105.299 177.287 104.896 177.287C104.498 177.287 104.196 177.4 103.991 177.627C103.786 177.854 103.684 178.184 103.684 178.617ZM119.785 183H118.068L113.855 176.174H113.809L113.838 176.555C113.893 177.281 113.92 177.945 113.92 178.547V183H112.648V174.434H114.348L118.549 181.225H118.584C118.576 181.135 118.561 180.808 118.537 180.243C118.514 179.679 118.502 179.238 118.502 178.922V174.434H119.785V183ZM126.471 183L126.277 182.15H126.207C126.016 182.451 125.743 182.687 125.39 182.859C125.036 183.031 124.633 183.117 124.18 183.117C123.395 183.117 122.809 182.922 122.422 182.531C122.035 182.141 121.842 181.549 121.842 180.756V176.52H123.23V180.516C123.23 181.012 123.332 181.384 123.535 181.632C123.738 181.88 124.057 182.004 124.49 182.004C125.068 182.004 125.493 181.831 125.765 181.485C126.036 181.14 126.172 180.561 126.172 179.748V176.52H127.555V183H126.471ZM134.979 183H133.596V179.004C133.596 178.508 133.502 178.138 133.314 177.894C133.127 177.649 132.834 177.527 132.436 177.527C131.904 177.527 131.515 177.7 131.267 178.046C131.019 178.392 130.895 178.967 130.895 179.771V183H129.518V176.52H130.596L130.789 177.369H130.859C131.039 177.061 131.3 176.822 131.642 176.654C131.983 176.486 132.359 176.402 132.77 176.402C133.766 176.402 134.426 176.742 134.75 177.422H134.844C135.035 177.102 135.305 176.852 135.652 176.672C136 176.492 136.398 176.402 136.848 176.402C137.621 176.402 138.185 176.598 138.538 176.988C138.892 177.379 139.068 177.975 139.068 178.775V183H137.691V179.004C137.691 178.508 137.597 178.138 137.407 177.894C137.218 177.649 136.924 177.527 136.525 177.527C135.99 177.527 135.599 177.694 135.351 178.028C135.103 178.362 134.979 178.875 134.979 179.566V183ZM144.301 176.402C145.109 176.402 145.739 176.695 146.19 177.281C146.642 177.867 146.867 178.689 146.867 179.748C146.867 180.811 146.639 181.638 146.182 182.229C145.725 182.821 145.09 183.117 144.277 183.117C143.457 183.117 142.82 182.822 142.367 182.232H142.273L142.021 183H140.99V173.883H142.367V176.051C142.367 176.211 142.359 176.449 142.344 176.766C142.328 177.082 142.316 177.283 142.309 177.369H142.367C142.805 176.725 143.449 176.402 144.301 176.402ZM143.943 177.527C143.389 177.527 142.989 177.69 142.745 178.017C142.501 178.343 142.375 178.889 142.367 179.654V179.748C142.367 180.537 142.492 181.108 142.742 181.462C142.992 181.815 143.4 181.992 143.967 181.992C144.455 181.992 144.825 181.799 145.077 181.412C145.329 181.025 145.455 180.467 145.455 179.736C145.455 178.264 144.951 177.527 143.943 177.527ZM151.297 183.117C150.289 183.117 149.501 182.823 148.933 182.235C148.364 181.647 148.08 180.838 148.08 179.807C148.08 178.748 148.344 177.916 148.871 177.311C149.398 176.705 150.123 176.402 151.045 176.402C151.9 176.402 152.576 176.662 153.072 177.182C153.568 177.701 153.816 178.416 153.816 179.326V180.07H149.498C149.518 180.699 149.688 181.183 150.008 181.521C150.328 181.858 150.779 182.027 151.361 182.027C151.744 182.027 152.101 181.991 152.431 181.919C152.761 181.847 153.115 181.727 153.494 181.559V182.678C153.158 182.838 152.818 182.951 152.475 183.018C152.131 183.084 151.738 183.117 151.297 183.117ZM151.045 177.445C150.607 177.445 150.257 177.584 149.993 177.861C149.729 178.139 149.572 178.543 149.521 179.074H152.463C152.455 178.539 152.326 178.134 152.076 177.858C151.826 177.583 151.482 177.445 151.045 177.445ZM158.668 176.402C158.945 176.402 159.174 176.422 159.354 176.461L159.219 177.744C159.023 177.697 158.82 177.674 158.609 177.674C158.059 177.674 157.612 177.854 157.271 178.213C156.929 178.572 156.758 179.039 156.758 179.613V183H155.381V176.52H156.459L156.641 177.662H156.711C156.926 177.275 157.206 176.969 157.552 176.742C157.897 176.516 158.27 176.402 158.668 176.402Z" fill="#5A626D"/>
<path fill-rule="evenodd" clip-rule="evenodd" d="M182.812 183L181.956 180.621H178.681L177.843 183H176.366L179.571 174.398H181.095L184.3 183H182.812ZM181.587 179.414L180.784 177.082C180.726 176.926 180.645 176.68 180.541 176.344C180.437 176.008 180.366 175.762 180.327 175.605C180.222 176.086 180.067 176.611 179.864 177.182L179.091 179.414H181.587ZM187.897 183.117C186.917 183.117 186.172 182.831 185.662 182.259C185.152 181.687 184.897 180.865 184.897 179.795C184.897 178.705 185.164 177.867 185.697 177.281C186.23 176.695 187.001 176.402 188.009 176.402C188.692 176.402 189.308 176.529 189.854 176.783L189.438 177.891C188.856 177.664 188.376 177.551 187.997 177.551C186.876 177.551 186.315 178.295 186.315 179.783C186.315 180.51 186.455 181.056 186.734 181.421C187.014 181.786 187.423 181.969 187.962 181.969C188.575 181.969 189.155 181.816 189.702 181.512V182.713C189.456 182.857 189.193 182.961 188.914 183.023C188.635 183.086 188.296 183.117 187.897 183.117ZM193.839 183.117C192.858 183.117 192.113 182.831 191.604 182.259C191.094 181.687 190.839 180.865 190.839 179.795C190.839 178.705 191.105 177.867 191.639 177.281C192.172 176.695 192.942 176.402 193.95 176.402C194.634 176.402 195.249 176.529 195.796 176.783L195.38 177.891C194.798 177.664 194.317 177.551 193.938 177.551C192.817 177.551 192.257 178.295 192.257 179.783C192.257 180.51 192.396 181.056 192.676 181.421C192.955 181.786 193.364 181.969 193.903 181.969C194.517 181.969 195.097 181.816 195.644 181.512V182.713C195.397 182.857 195.135 182.961 194.855 183.023C194.576 183.086 194.237 183.117 193.839 183.117ZM202.915 179.748C202.915 180.807 202.644 181.633 202.101 182.227C201.558 182.82 200.802 183.117 199.833 183.117C199.228 183.117 198.692 182.98 198.228 182.707C197.763 182.434 197.405 182.041 197.155 181.529C196.905 181.018 196.78 180.424 196.78 179.748C196.78 178.697 197.05 177.877 197.589 177.287C198.128 176.697 198.888 176.402 199.868 176.402C200.806 176.402 201.548 176.704 202.095 177.308C202.642 177.911 202.915 178.725 202.915 179.748ZM198.198 179.748C198.198 181.244 198.751 181.992 199.856 181.992C200.95 181.992 201.497 181.244 201.497 179.748C201.497 178.268 200.946 177.527 199.845 177.527C199.267 177.527 198.848 177.719 198.588 178.102C198.328 178.484 198.198 179.033 198.198 179.748ZM209.067 183L208.874 182.15H208.804C208.612 182.451 208.34 182.687 207.986 182.859C207.633 183.031 207.229 183.117 206.776 183.117C205.991 183.117 205.405 182.922 205.019 182.531C204.632 182.141 204.438 181.549 204.438 180.756V176.52H205.827V180.516C205.827 181.012 205.929 181.384 206.132 181.632C206.335 181.88 206.653 182.004 207.087 182.004C207.665 182.004 208.09 181.831 208.361 181.485C208.633 181.14 208.769 180.561 208.769 179.748V176.52H210.151V183H209.067ZM217.815 183H216.433V179.016C216.433 178.516 216.332 178.143 216.131 177.896C215.93 177.65 215.61 177.527 215.173 177.527C214.591 177.527 214.165 177.699 213.896 178.043C213.626 178.387 213.491 178.963 213.491 179.771V183H212.114V176.52H213.192L213.386 177.369H213.456C213.651 177.061 213.929 176.822 214.288 176.654C214.647 176.486 215.046 176.402 215.483 176.402C217.038 176.402 217.815 177.193 217.815 178.775V183ZM222.146 182.004C222.481 182.004 222.817 181.951 223.153 181.846V182.883C223.001 182.949 222.805 183.005 222.564 183.05C222.324 183.095 222.075 183.117 221.817 183.117C220.513 183.117 219.86 182.43 219.86 181.055V177.562H218.976V176.953L219.925 176.449L220.394 175.078H221.243V176.52H223.089V177.562H221.243V181.031C221.243 181.363 221.326 181.608 221.492 181.767C221.658 181.925 221.876 182.004 222.146 182.004ZM234.849 183H233.132L228.919 176.174H228.872L228.901 176.555C228.956 177.281 228.983 177.945 228.983 178.547V183H227.712V174.434H229.411L233.612 181.225H233.647C233.64 181.135 233.624 180.808 233.601 180.243C233.577 179.679 233.565 179.238 233.565 178.922V174.434H234.849V183ZM241.534 183L241.341 182.15H241.271C241.079 182.451 240.807 182.687 240.453 182.859C240.1 183.031 239.696 183.117 239.243 183.117C238.458 183.117 237.872 182.922 237.485 182.531C237.099 182.141 236.905 181.549 236.905 180.756V176.52H238.294V180.516C238.294 181.012 238.396 181.384 238.599 181.632C238.802 181.88 239.12 182.004 239.554 182.004C240.132 182.004 240.557 181.831 240.828 181.485C241.1 181.14 241.235 180.561 241.235 179.748V176.52H242.618V183H241.534ZM250.042 183H248.659V179.004C248.659 178.508 248.565 178.138 248.378 177.894C248.19 177.649 247.897 177.527 247.499 177.527C246.968 177.527 246.578 177.7 246.33 178.046C246.082 178.392 245.958 178.967 245.958 179.771V183H244.581V176.52H245.659L245.853 177.369H245.923C246.103 177.061 246.363 176.822 246.705 176.654C247.047 176.486 247.423 176.402 247.833 176.402C248.829 176.402 249.489 176.742 249.813 177.422H249.907C250.099 177.102 250.368 176.852 250.716 176.672C251.063 176.492 251.462 176.402 251.911 176.402C252.685 176.402 253.248 176.598 253.602 176.988C253.955 177.379 254.132 177.975 254.132 178.775V183H252.755V179.004C252.755 178.508 252.66 178.138 252.471 177.894C252.281 177.649 251.987 177.527 251.589 177.527C251.054 177.527 250.662 177.694 250.414 178.028C250.166 178.362 250.042 178.875 250.042 179.566V183ZM259.364 176.402C260.173 176.402 260.803 176.695 261.254 177.281C261.705 177.867 261.931 178.689 261.931 179.748C261.931 180.811 261.702 181.638 261.245 182.229C260.788 182.821 260.153 183.117 259.341 183.117C258.521 183.117 257.884 182.822 257.431 182.232H257.337L257.085 183H256.054V173.883H257.431V176.051C257.431 176.211 257.423 176.449 257.407 176.766C257.392 177.082 257.38 177.283 257.372 177.369H257.431C257.868 176.725 258.513 176.402 259.364 176.402ZM259.007 177.527C258.452 177.527 258.053 177.69 257.809 178.017C257.564 178.343 257.438 178.889 257.431 179.654V179.748C257.431 180.537 257.556 181.108 257.806 181.462C258.056 181.815 258.464 181.992 259.03 181.992C259.519 181.992 259.889 181.799 260.141 181.412C260.393 181.025 260.519 180.467 260.519 179.736C260.519 178.264 260.015 177.527 259.007 177.527ZM266.36 183.117C265.353 183.117 264.564 182.823 263.996 182.235C263.428 181.647 263.144 180.838 263.144 179.807C263.144 178.748 263.407 177.916 263.935 177.311C264.462 176.705 265.187 176.402 266.108 176.402C266.964 176.402 267.64 176.662 268.136 177.182C268.632 177.701 268.88 178.416 268.88 179.326V180.07H264.562C264.581 180.699 264.751 181.183 265.071 181.521C265.392 181.858 265.843 182.027 266.425 182.027C266.808 182.027 267.164 181.991 267.494 181.919C267.824 181.847 268.179 181.727 268.558 181.559V182.678C268.222 182.838 267.882 182.951 267.538 183.018C267.194 183.084 266.802 183.117 266.36 183.117ZM266.108 177.445C265.671 177.445 265.32 177.584 265.057 177.861C264.793 178.139 264.636 178.543 264.585 179.074H267.526C267.519 178.539 267.39 178.134 267.14 177.858C266.89 177.583 266.546 177.445 266.108 177.445ZM273.731 176.402C274.009 176.402 274.237 176.422 274.417 176.461L274.282 177.744C274.087 177.697 273.884 177.674 273.673 177.674C273.122 177.674 272.676 177.854 272.334 178.213C271.992 178.572 271.821 179.039 271.821 179.613V183H270.444V176.52H271.522L271.704 177.662H271.774C271.989 177.275 272.27 176.969 272.615 176.742C272.961 176.516 273.333 176.402 273.731 176.402Z" fill="#5A626D"/>
</svg>
