<svg width="48" height="49" viewBox="0 0 48 49" fill="none" xmlns="http://www.w3.org/2000/svg">
<mask id="path-1-inside-1_2003_31959" fill="white">
<path fill-rule="evenodd" clip-rule="evenodd" d="M35.5758 12.462H37.7055H38.5993V12.5113C42.6216 12.9576 45.75 16.3803 45.75 20.5364C45.75 24.6925 42.6216 28.1152 38.5993 28.5615V28.6108H37.7055H11.4863H11.1884V28.606C6.22519 28.4482 2.25 24.3601 2.25 19.3402C2.25 14.2202 6.38523 10.0696 11.4863 10.0696C11.5495 10.0696 11.6126 10.0703 11.6756 10.0715C13.1569 4.97419 17.8472 1.25 23.4041 1.25C29.7986 1.25 35.0456 6.18149 35.5758 12.462Z"/>
</mask>
<path d="M35.5758 12.462L33.5829 12.6303C33.6703 13.6659 34.5364 14.462 35.5758 14.462V12.462ZM38.5993 12.462H40.5993C40.5993 11.3575 39.7039 10.462 38.5993 10.462V12.462ZM38.5993 12.5113H36.5993C36.5993 13.5305 37.3658 14.3867 38.3788 14.4991L38.5993 12.5113ZM38.5993 28.5615L38.3788 26.5737C37.3658 26.6861 36.5993 27.5423 36.5993 28.5615H38.5993ZM38.5993 28.6108V30.6108C39.7039 30.6108 40.5993 29.7153 40.5993 28.6108H38.5993ZM11.1884 28.6108H9.18837C9.18837 29.7153 10.0838 30.6108 11.1884 30.6108V28.6108ZM11.1884 28.606H13.1884C13.1884 27.5262 12.3312 26.6414 11.252 26.607L11.1884 28.606ZM11.6756 10.0715L11.6352 12.0711C12.5396 12.0894 13.3437 11.4983 13.5961 10.6297L11.6756 10.0715ZM37.7055 10.462H35.5758V14.462H37.7055V10.462ZM38.5993 10.462H37.7055V14.462H38.5993V10.462ZM40.5993 12.5113V12.462H36.5993V12.5113H40.5993ZM47.75 20.5364C47.75 15.3556 43.8497 11.0816 38.8199 10.5235L38.3788 14.4991C41.3934 14.8336 43.75 17.4049 43.75 20.5364H47.75ZM38.8199 30.5493C43.8497 29.9912 47.75 25.7171 47.75 20.5364H43.75C43.75 23.6679 41.3934 26.2392 38.3788 26.5737L38.8199 30.5493ZM40.5993 28.6108V28.5615H36.5993V28.6108H40.5993ZM37.7055 30.6108H38.5993V26.6108H37.7055V30.6108ZM11.4863 30.6108H37.7055V26.6108H11.4863V30.6108ZM11.1884 30.6108H11.4863V26.6108H11.1884V30.6108ZM9.18837 28.606V28.6108H13.1884V28.606H9.18837ZM11.252 26.607C7.37124 26.4836 4.25 23.2835 4.25 19.3402H0.25C0.25 25.4367 5.07914 30.4127 11.1248 30.605L11.252 26.607ZM4.25 19.3402C4.25 15.3178 7.49678 12.0696 11.4863 12.0696V8.06962C5.27369 8.06962 0.25 13.1226 0.25 19.3402H4.25ZM11.4863 12.0696C11.536 12.0696 11.5857 12.0701 11.6352 12.0711L11.7159 8.07194C11.6396 8.0704 11.5631 8.06962 11.4863 8.06962V12.0696ZM23.4041 -0.75C16.9295 -0.75 11.4767 3.58909 9.75502 9.5134L13.5961 10.6297C14.8371 6.35928 18.7649 3.25 23.4041 3.25V-0.75ZM37.5687 12.2938C36.9523 4.99254 30.8529 -0.75 23.4041 -0.75V3.25C28.7443 3.25 33.1388 7.37043 33.5829 12.6303L37.5687 12.2938Z" fill="#00E4A5" mask="url(#path-1-inside-1_2003_31959)"/>
<path fill-rule="evenodd" clip-rule="evenodd" d="M20.0857 30.6593H27.9561L24.3683 36.3379L29.4802 36.4874L20.7266 47.215L21.5678 40.9166L16.5104 40.7671L20.0857 30.6593Z" stroke="#00E4A5" stroke-width="2" stroke-linecap="round" stroke-linejoin="round"/>
</svg>
