<svg width="104" height="104" viewBox="0 0 104 104" fill="none" xmlns="http://www.w3.org/2000/svg">
<path fill-rule="evenodd" clip-rule="evenodd" d="M75.5565 51.8991C75.5565 46.9518 75.5565 42.641 75.5565 42.641C75.5565 31.2413 64.6434 22 51.1814 22C37.7193 22 26.8062 31.2413 26.8062 42.641C26.8062 42.641 26.8062 47.8239 26.8062 53.1987C26.8062 63.5375 13.285 74.7888 17.9969 76.0735C37.0413 81.266 66.0587 81.3515 86.5425 76.0735C89.6909 75.2623 75.5565 62.9349 75.5565 51.8991Z" stroke="#170D67" stroke-width="2" stroke-linecap="round" stroke-linejoin="round"/>
<path d="M44 83C44 86.866 47.134 90 51 90V90C54.866 90 58 86.866 58 83" stroke="#170D67" stroke-width="2" stroke-linecap="round" stroke-linejoin="round"/>
<path d="M47 19V14.0938C47 11.5 49.0147 10 51.5 10C53.9853 10 56 11.5 56 14.0938C56 16.6875 56 19 56 19" stroke="#170D67" stroke-width="2" stroke-linecap="round" stroke-linejoin="round"/>
<path d="M32.3839 52.1036C32.3839 52.6558 32.8317 53.1036 33.3839 53.1036C33.9362 53.1036 34.3839 52.6558 34.3839 52.1036H32.3839ZM40.4827 33.0281C40.926 32.6987 41.0184 32.0723 40.689 31.629C40.3596 31.1857 39.7332 31.0933 39.2899 31.4227L40.4827 33.0281ZM43.0113 29.191C42.5144 29.4321 42.307 30.0303 42.548 30.5272C42.7891 31.0241 43.3873 31.2315 43.8842 30.9905L43.0113 29.191ZM46.5406 29.8677C47.059 29.677 47.3246 29.1023 47.1339 28.5839C46.9433 28.0656 46.3685 27.8 45.8502 27.9906L46.5406 29.8677ZM34.3839 52.1036C34.3839 46.0206 33.2513 38.4009 40.4827 33.0281L39.2899 31.4227C31.0737 37.5273 32.3839 46.446 32.3839 52.1036H34.3839ZM43.8842 30.9905C44.6969 30.5962 45.5803 30.2209 46.5406 29.8677L45.8502 27.9906C44.8321 28.3651 43.8875 28.766 43.0113 29.191L43.8842 30.9905Z" fill="#170D67"/>
</svg>
