<svg width="24" height="24" viewBox="0 0 24 24" fill="none" xmlns="http://www.w3.org/2000/svg">
<path fill-rule="evenodd" clip-rule="evenodd" d="M20 6.3V7.03333C20 7.14027 19.9659 7.22813 19.8977 7.29688C19.8295 7.36562 19.7424 7.4 19.6364 7.4H18.5455V18.2625C18.5455 18.8965 18.3674 19.4446 18.0114 19.9068C17.6553 20.3689 17.2273 20.6 16.7273 20.6H7.27273C6.77273 20.6 6.34469 20.3766 5.98864 19.9297C5.63258 19.4828 5.45455 18.9424 5.45455 18.3083V7.4H4.36364C4.25758 7.4 4.17045 7.36562 4.10227 7.29688C4.03409 7.22813 4 7.14027 4 7.03333V6.3C4 6.19306 4.03409 6.10521 4.10227 6.03646C4.17045 5.96771 4.25758 5.93333 4.36364 5.93333H7.875L8.67045 4.01979C8.78409 3.73715 8.98864 3.49652 9.28409 3.29792C9.57955 3.09931 9.87878 3 10.1818 3H13.8182C14.1212 3 14.4205 3.09931 14.7159 3.29792C15.0114 3.49652 15.2159 3.73715 15.3295 4.01979L16.125 5.93333H19.6364C19.7424 5.93333 19.8295 5.96771 19.8977 6.03646C19.9659 6.10521 20 6.19306 20 6.3ZM9.45455 5.93333H14.5455L14 4.59271C13.947 4.52396 13.8826 4.48194 13.8068 4.46667H10.2045C10.1288 4.48194 10.0644 4.52396 10.0114 4.59271L9.45455 5.93333ZM17.0909 18.2625V7.4H6.90909V18.2625C6.90909 18.4306 6.9356 18.5852 6.98864 18.7266C7.04167 18.8679 7.09659 18.971 7.15341 19.0359C7.21023 19.1009 7.25 19.1333 7.27273 19.1333H16.7273C16.75 19.1333 16.7898 19.1009 16.8466 19.0359C16.9034 18.971 16.9583 18.8679 17.0114 18.7266C17.0644 18.5852 17.0909 18.4306 17.0909 18.2625ZM15.6364 9.96667V16.5667C15.6364 16.6736 15.6023 16.7615 15.5341 16.8302C15.4659 16.899 15.3788 16.9333 15.2727 16.9333H14.5455C14.4394 16.9333 14.3523 16.899 14.2841 16.8302C14.2159 16.7615 14.1818 16.6736 14.1818 16.5667V9.96667C14.1818 9.85973 14.2159 9.77187 14.2841 9.70312C14.3523 9.63438 14.4394 9.6 14.5455 9.6H15.2727C15.3788 9.6 15.4659 9.63438 15.5341 9.70312C15.6023 9.77187 15.6364 9.85973 15.6364 9.96667ZM12.7273 9.96667V16.5667C12.7273 16.6736 12.6932 16.7615 12.625 16.8302C12.5568 16.899 12.4697 16.9333 12.3636 16.9333H11.6364C11.5303 16.9333 11.4432 16.899 11.375 16.8302C11.3068 16.7615 11.2727 16.6736 11.2727 16.5667V9.96667C11.2727 9.85973 11.3068 9.77187 11.375 9.70312C11.4432 9.63438 11.5303 9.6 11.6364 9.6H12.3636C12.4697 9.6 12.5568 9.63438 12.625 9.70312C12.6932 9.77187 12.7273 9.85973 12.7273 9.96667ZM9.81818 9.96667V16.5667C9.81818 16.6736 9.78409 16.7615 9.71591 16.8302C9.64773 16.899 9.5606 16.9333 9.45455 16.9333H8.72727C8.62122 16.9333 8.53409 16.899 8.46591 16.8302C8.39773 16.7615 8.36364 16.6736 8.36364 16.5667V9.96667C8.36364 9.85973 8.39773 9.77187 8.46591 9.70312C8.53409 9.63438 8.62122 9.6 8.72727 9.6H9.45455C9.5606 9.6 9.64773 9.63438 9.71591 9.70312C9.78409 9.77187 9.81818 9.85973 9.81818 9.96667Z" fill="#170D67"/>
</svg>
