<svg width="24" height="24" viewBox="0 0 24 24" fill="none" xmlns="http://www.w3.org/2000/svg">
<ellipse cx="11.5" cy="9.78573" rx="3.07895" ry="3.21429" stroke="#170D67" stroke-width="2"/>
<path fill-rule="evenodd" clip-rule="evenodd" d="M11.5 2C15.6421 2 19 5.12641 19 8.98302C19 9.38411 18.9637 9.7773 18.8939 10.1599C18.8544 10.5697 18.7599 11.0531 18.6191 11.5863L18.4873 12.0549C18.4635 12.1349 18.4388 12.2157 18.4132 12.2974L18.2497 12.7964C18.1629 13.0502 18.0687 13.3101 17.9678 13.5741L17.7573 14.1072V14.1072L17.5301 14.6481V14.6481L17.2875 15.1934V15.1934L17.0307 15.7399C16.9867 15.8309 16.9423 15.9219 16.8973 16.0126L16.6213 16.5547C15.1184 19.4295 13.1359 22 11.4962 22C9.9958 22 8.22018 19.8261 6.78168 17.2469L6.48907 16.708C6.44117 16.6175 6.39372 16.5265 6.34675 16.4354L6.07083 15.8857V15.8857L5.80754 15.3331V15.3331L5.5581 14.7812C5.31597 14.2308 5.09641 13.6864 4.90484 13.1639L4.7228 12.6492V12.6492L4.56063 12.1526C4.51001 11.9904 4.46291 11.8318 4.41952 11.6774L4.30069 11.2272C4.21129 10.8634 4.14634 10.5293 4.10899 10.2338L4.08991 10.0613L4.06315 9.89337C4.02149 9.59541 4 9.29155 4 8.98302C4 5.12641 7.35786 2 11.5 2Z" stroke="#170D67" stroke-width="2"/>
</svg>
