<svg width="30" height="30" viewBox="0 0 30 30" fill="none" xmlns="http://www.w3.org/2000/svg">
<path fill-rule="evenodd" clip-rule="evenodd" d="M24.5081 21.4257L15.5081 4.42569C15.2076 3.8581 14.3946 3.8581 14.0941 4.42569L5.09407 21.4257C4.812 21.9585 5.19824 22.6 5.8011 22.6H23.8011C24.404 22.6 24.7902 21.9585 24.5081 21.4257ZM7.12982 21L14.8011 6.50981L22.4724 21H7.12982Z" fill="#5A626D"/>
<path d="M15.2462 15.9918H12.8013C12.1748 15.9918 11.7914 15.3045 12.1206 14.7715L14.2153 11.3797C14.4475 11.0038 14.9404 10.8873 15.3163 11.1195C15.6923 11.3516 15.8088 11.8446 15.5766 12.2205L14.2356 14.3918H16.8013C17.4521 14.3918 17.8305 15.1275 17.4521 15.657L14.8735 19.2653C14.6166 19.6247 14.1169 19.7079 13.7574 19.451C13.398 19.1941 13.3148 18.6944 13.5717 18.335L15.2462 15.9918Z" fill="#5A626D"/>
</svg>
