<svg width="24" height="24" viewBox="0 0 24 24" fill="none" xmlns="http://www.w3.org/2000/svg">
<path fill-rule="evenodd" clip-rule="evenodd" d="M6 12.5C6 13.3284 5.32845 14 4.5 14C3.67155 14 3 13.3284 3 12.5C3 11.6716 3.67155 11 4.5 11C5.32845 11 6 11.6716 6 12.5Z" fill="#5A626D"/>
<path fill-rule="evenodd" clip-rule="evenodd" d="M13 12.5C13 13.3284 12.3284 14 11.5 14C10.6716 14 10 13.3284 10 12.5C10 11.6716 10.6716 11 11.5 11C12.3284 11 13 11.6716 13 12.5Z" fill="#5A626D"/>
<path fill-rule="evenodd" clip-rule="evenodd" d="M20 12.5C20 13.3284 19.3284 14 18.5 14C17.6716 14 17 13.3284 17 12.5C17 11.6716 17.6716 11 18.5 11C19.3284 11 20 11.6716 20 12.5Z" fill="#5A626D"/>
</svg>
