<svg width="16" height="16" viewBox="0 0 16 16" fill="none" xmlns="http://www.w3.org/2000/svg">
<path fill-rule="evenodd" clip-rule="evenodd" d="M8.07107 6.65686L13.0208 1.70711C13.4113 1.31658 14.0445 1.31658 14.435 1.70711C14.8256 2.09763 14.8256 2.7308 14.435 3.12132L9.48528 8.07107L14.435 13.0208C14.8256 13.4113 14.8256 14.0445 14.435 14.435C14.0445 14.8256 13.4113 14.8256 13.0208 14.435L8.07107 9.48528L3.12132 14.435C2.7308 14.8256 2.09763 14.8256 1.70711 14.435C1.31658 14.0445 1.31658 13.4113 1.70711 13.0208L6.65686 8.07107L1.70711 3.12132C1.31658 2.7308 1.31658 2.09763 1.70711 1.70711C2.09763 1.31658 2.7308 1.31658 3.12132 1.70711L8.07107 6.65686Z" fill="#BF002F"/>
</svg>
