<svg width="80" height="72" viewBox="0 0 80 72" fill="none" xmlns="http://www.w3.org/2000/svg">
<path d="M76.0895 61.4914C69.8561 62.5598 60.4763 60.7166 55.2878 53.8958C50.0993 47.075 53.3881 44.7933 44.9255 37.1128L53.5882 27.9357C63.5251 37.1128 60.9748 41.9286 65.508 46.5677C70.0412 51.2068 76.0895 50.198 77.6623 49.4177" stroke="#170D67" stroke-width="2" stroke-linecap="round" stroke-linejoin="round"/>
<path d="M45.9331 35.2626C45.9331 35.2626 39.9166 32.1159 34.4976 35.0301" stroke="#170D67" stroke-width="2" stroke-linecap="round"/>
<path d="M52.4757 28.6493C52.4757 28.6493 50.1337 25.9532 51.5239 22.6136" stroke="#170D67" stroke-width="2" stroke-linecap="round"/>
<path d="M49.094 31.8307C49.094 31.8307 47.2113 28.3617 43.508 26.2867" stroke="#170D67" stroke-width="2" stroke-linecap="round"/>
<path d="M3.42548 60.5289C9.65888 61.5973 19.0387 59.7541 24.2272 52.9333C29.4157 46.1125 26.1269 43.8307 34.5895 36.1503L25.9268 26.9732C15.9899 36.1503 18.5402 40.9661 14.007 45.6052C9.47382 50.2442 3.42548 49.2355 1.85273 48.4552" stroke="#170D67" stroke-width="2" stroke-linecap="round" stroke-linejoin="round"/>
<path d="M27.0393 27.6867C27.0393 27.6867 29.6827 25.9337 28.8214 21.7362" stroke="#170D67" stroke-width="2" stroke-linecap="round"/>
<path d="M30.7762 31.1918C30.7762 31.1918 33.0346 27.609 36.1045 26.2094" stroke="#170D67" stroke-width="2" stroke-linecap="round"/>
<path d="M48.4016 17.8643L50.6013 13.1869L52.9249 16.0067L55.3099 11.1895" stroke="#00E4A5" stroke-width="2" stroke-linecap="round" stroke-linejoin="round"/>
<path d="M40.166 15.409L41.9179 10.5462L38.281 10.8971L40.0009 5.80431" stroke="#00E4A5" stroke-width="2" stroke-linecap="round" stroke-linejoin="round"/>
<path d="M31.9004 17.0931L29.1471 12.7187L27.1845 15.8006L24.2302 11.31" stroke="#00E4A5" stroke-width="2" stroke-linecap="round" stroke-linejoin="round"/>
</svg>
