<svg width="18" height="19" viewBox="0 0 18 19" fill="none" xmlns="http://www.w3.org/2000/svg">
<path d="M12.1465 8.17627C11.8301 8.17627 11.5371 8.12354 11.2676 8.01807C11.0098 7.90088 10.7754 7.73682 10.5645 7.52588C10.3418 7.30322 10.1719 7.06299 10.0547 6.80518C9.94922 6.53564 9.89648 6.24268 9.89648 5.92627C9.89648 5.62158 9.94922 5.33447 10.0547 5.06494C10.1719 4.79541 10.3359 4.55518 10.5469 4.34424C10.7695 4.12158 11.0156 3.95752 11.2852 3.85205C11.5547 3.73486 11.8418 3.67627 12.1465 3.67627C12.4512 3.67627 12.7383 3.73486 13.0078 3.85205C13.2773 3.95752 13.5176 4.12158 13.7285 4.34424C13.9512 4.55518 14.1152 4.79541 14.2207 5.06494C14.3379 5.33447 14.3965 5.62158 14.3965 5.92627C14.3965 6.24268 14.3379 6.53564 14.2207 6.80518C14.1152 7.06299 13.957 7.30322 13.7461 7.52588C13.5234 7.73682 13.2773 7.90088 13.0078 8.01807C12.7383 8.12354 12.4512 8.17627 12.1465 8.17627ZM12.1465 4.57275C11.959 4.57275 11.7832 4.60791 11.6191 4.67822C11.4668 4.73682 11.3262 4.83643 11.1973 4.97705C11.0566 5.10596 10.9512 5.25244 10.8809 5.4165C10.8223 5.56885 10.793 5.73877 10.793 5.92627C10.793 6.11377 10.8223 6.28955 10.8809 6.45361C10.9512 6.60596 11.0508 6.75244 11.1797 6.89307C11.3203 7.02197 11.4668 7.12158 11.6191 7.19189C11.7832 7.25049 11.959 7.27979 12.1465 7.27979C12.334 7.27979 12.5039 7.25049 12.6562 7.19189C12.8203 7.12158 12.9668 7.02197 13.0957 6.89307C13.2363 6.75244 13.3359 6.60596 13.3945 6.45361C13.4648 6.28955 13.5 6.11377 13.5 5.92627C13.5 5.73877 13.4648 5.56885 13.3945 5.4165C13.3359 5.25244 13.2422 5.10596 13.1133 4.97705C12.9727 4.83643 12.8203 4.73682 12.6562 4.67822C12.5039 4.60791 12.334 4.57275 12.1465 4.57275ZM0.457031 18.0728C0.433594 18.0728 0.404297 18.0669 0.369141 18.0552C0.333984 18.0552 0.304688 18.0493 0.28125 18.0376C0.257812 18.0259 0.228516 18.0142 0.193359 18.0024C0.169922 17.9907 0.146484 17.9731 0.123047 17.9497C0.0878906 17.9146 0.0585938 17.8794 0.0351562 17.8442C0.0234375 17.8091 0.0175781 17.7681 0.0175781 17.7212C0.00585937 17.686 0 17.645 0 17.5981C0 17.563 0.0117187 17.522 0.0351562 17.4751C0.199219 17.0063 0.369141 16.561 0.544922 16.1392C0.720703 15.7173 0.896484 15.3247 1.07227 14.9614C1.24805 14.6099 1.42383 14.2876 1.59961 13.9946C1.78711 13.6899 1.96875 13.4146 2.14453 13.1685C2.33203 12.9341 2.51367 12.729 2.68945 12.5532C2.87695 12.3657 3.06445 12.2134 3.25195 12.0962C3.42773 11.979 3.60938 11.8911 3.79688 11.8325C3.98438 11.7622 4.17188 11.7271 4.35938 11.7271C4.47656 11.7271 4.59375 11.7446 4.71094 11.7798C4.83984 11.8032 4.95703 11.8384 5.0625 11.8853C5.17969 11.9438 5.29102 12.0142 5.39648 12.0962C5.51367 12.1665 5.61914 12.2544 5.71289 12.3599C5.87695 12.5239 6.00586 12.688 6.09961 12.8521C6.20508 13.0044 6.26953 13.1567 6.29297 13.3091C6.31641 13.4614 6.32812 13.6079 6.32812 13.7485C6.32812 13.8774 6.31641 13.9946 6.29297 14.1001C6.25781 14.2759 6.19336 14.4458 6.09961 14.6099C6.01758 14.7739 5.90625 14.938 5.76562 15.1021C5.63672 15.2778 5.47852 15.4478 5.29102 15.6118C5.10352 15.7759 4.89258 15.9399 4.6582 16.104C4.41211 16.2681 4.14258 16.4321 3.84961 16.5962C3.56836 16.7603 3.25781 16.9243 2.91797 17.0884C2.58984 17.2524 2.23242 17.4165 1.8457 17.5806C1.45898 17.7446 1.04297 17.9028 0.597656 18.0552C0.585938 18.0552 0.574219 18.0552 0.5625 18.0552C0.550781 18.0552 0.539062 18.061 0.527344 18.0728C0.515625 18.0728 0.503906 18.0728 0.492188 18.0728C0.480469 18.0728 0.46875 18.0728 0.457031 18.0728ZM4.35938 12.6411C4.24219 12.6411 4.125 12.6646 4.00781 12.7114C3.89062 12.7583 3.76758 12.8286 3.63867 12.9224C3.50977 13.0161 3.375 13.1333 3.23438 13.2739C3.10547 13.4146 2.9707 13.5786 2.83008 13.7661C2.70117 13.9536 2.56641 14.1587 2.42578 14.3813C2.29688 14.5923 2.16797 14.8267 2.03906 15.0845C1.91016 15.3423 1.77539 15.6177 1.63477 15.9106C1.49414 16.2036 1.35938 16.5142 1.23047 16.8423C1.52344 16.7251 1.80469 16.6079 2.07422 16.4907C2.34375 16.3735 2.60156 16.2505 2.84766 16.1216C3.09375 16.0044 3.31641 15.8872 3.51562 15.77C3.72656 15.6411 3.92578 15.5122 4.11328 15.3833C4.35938 15.2192 4.56445 15.0669 4.72852 14.9263C4.89258 14.7739 5.01562 14.6392 5.09766 14.522C5.19141 14.3931 5.26172 14.2817 5.30859 14.188C5.36719 14.0825 5.40234 13.9888 5.41406 13.9067C5.42578 13.8247 5.43164 13.7485 5.43164 13.6782C5.43164 13.5962 5.41992 13.52 5.39648 13.4497C5.36133 13.3677 5.32031 13.2915 5.27344 13.2212C5.22656 13.1509 5.16211 13.0747 5.08008 12.9927C5.02148 12.9341 4.96289 12.8872 4.9043 12.8521C4.8457 12.8052 4.78711 12.7642 4.72852 12.729C4.6582 12.7056 4.59375 12.688 4.53516 12.6763C4.47656 12.6528 4.41797 12.6411 4.35938 12.6411ZM18 0.0727539V0.529785C18 0.822754 17.9941 1.11572 17.9824 1.40869C17.9707 1.68994 17.9531 1.96533 17.9297 2.23486C17.9062 2.51611 17.877 2.7915 17.8418 3.06104C17.8066 3.31885 17.7656 3.57666 17.7188 3.83447C17.6602 4.09229 17.6016 4.3501 17.543 4.60791C17.4844 4.854 17.4141 5.09424 17.332 5.32861C17.2617 5.57471 17.1797 5.81494 17.0859 6.04932C17.0039 6.27197 16.916 6.49463 16.8223 6.71729C16.6582 7.08057 16.4824 7.43213 16.2949 7.77197C16.1074 8.11182 15.9023 8.43408 15.6797 8.73877C15.4453 9.05518 15.1992 9.354 14.9414 9.63525C14.6953 9.9165 14.4258 10.1802 14.1328 10.4263C14.0859 10.4731 14.0332 10.52 13.9746 10.5669C13.9277 10.6138 13.875 10.6606 13.8164 10.7075C13.7695 10.7427 13.7168 10.7837 13.6582 10.8306C13.6113 10.8774 13.5586 10.9185 13.5 10.9536C13.4883 11.1528 13.459 11.3521 13.4121 11.5513C13.3652 11.7388 13.3008 11.9321 13.2188 12.1313C13.1367 12.3188 13.043 12.5122 12.9375 12.7114C12.832 12.9106 12.709 13.1099 12.5684 13.3091C12.4512 13.4849 12.3223 13.6548 12.1816 13.8188C12.041 13.9829 11.8945 14.1528 11.7422 14.3286C11.5781 14.4927 11.4023 14.6567 11.2148 14.8208C11.0273 14.9849 10.834 15.1489 10.6348 15.313C10.2832 15.5942 9.94922 15.8462 9.63281 16.0688C9.32812 16.2798 9.03516 16.4673 8.75391 16.6313C8.46094 16.7837 8.23828 16.9067 8.08594 17.0005C7.94531 17.0825 7.86914 17.1235 7.85742 17.1235C7.83398 17.1353 7.81641 17.147 7.80469 17.1587C7.79297 17.1587 7.77539 17.1646 7.75195 17.1763C7.74023 17.1763 7.72266 17.1763 7.69922 17.1763C7.6875 17.1763 7.66992 17.1763 7.64648 17.1763C7.61133 17.1763 7.57617 17.1763 7.54102 17.1763C7.50586 17.1646 7.47656 17.1528 7.45312 17.1411C7.41797 17.1177 7.38281 17.0942 7.34766 17.0708C7.32422 17.0474 7.30078 17.0181 7.27734 16.9829C7.25391 16.9478 7.23047 16.9067 7.20703 16.8599C7.19531 16.8013 7.18945 16.7485 7.18945 16.7017C7.20117 16.6431 7.21289 16.5903 7.22461 16.5435C7.24805 16.4966 7.2832 16.4497 7.33008 16.4028L7.59375 16.104C7.67578 15.9985 7.76367 15.8755 7.85742 15.7349C7.96289 15.5942 8.06836 15.4302 8.17383 15.2427C8.25586 15.0903 8.33789 14.9204 8.41992 14.7329C8.51367 14.5454 8.60156 14.3345 8.68359 14.1001C8.76562 13.8774 8.83008 13.6372 8.87695 13.3794C8.92383 13.1216 8.95898 12.8521 8.98242 12.5708C8.79492 12.5005 8.60742 12.4067 8.41992 12.2896C8.24414 12.1724 8.0625 12.0317 7.875 11.8677C7.67578 11.7036 7.5 11.5571 7.34766 11.4282C7.20703 11.2993 7.08984 11.1821 6.99609 11.0767C6.90234 10.9829 6.78516 10.8657 6.64453 10.7251C6.51562 10.5845 6.36914 10.4146 6.20508 10.2153C6.04102 10.0278 5.90039 9.84033 5.7832 9.65283C5.66602 9.46533 5.57227 9.27783 5.50195 9.09033C5.2207 9.11377 4.95117 9.14893 4.69336 9.1958C4.44727 9.24268 4.20703 9.31299 3.97266 9.40674C3.75 9.48877 3.53906 9.5708 3.33984 9.65283C3.15234 9.73486 2.98242 9.81689 2.83008 9.89893C2.64258 10.0044 2.47852 10.1099 2.33789 10.2153C2.19727 10.3091 2.08008 10.397 1.98633 10.479L1.66992 10.7427C1.64648 10.7661 1.62305 10.7896 1.59961 10.813C1.57617 10.8247 1.55273 10.8364 1.5293 10.8481C1.49414 10.8599 1.46484 10.8716 1.44141 10.8833C1.41797 10.8833 1.38867 10.8833 1.35352 10.8833C1.33008 10.8833 1.30664 10.8833 1.2832 10.8833C1.25977 10.8716 1.23633 10.8657 1.21289 10.8657C1.18945 10.854 1.16602 10.8423 1.14258 10.8306C1.13086 10.8188 1.11328 10.8071 1.08984 10.7954C1.04297 10.7603 1.00195 10.7251 0.966797 10.6899C0.943359 10.6431 0.925781 10.5903 0.914062 10.5317C0.902344 10.4849 0.896484 10.438 0.896484 10.3911C0.908203 10.3325 0.925781 10.2798 0.949219 10.2329C0.960938 10.2212 1.00781 10.1392 1.08984 9.98682C1.17188 9.83447 1.28906 9.61768 1.44141 9.33643C1.60547 9.04346 1.79883 8.74463 2.02148 8.43994C2.24414 8.12354 2.49023 7.78955 2.75977 7.43799C2.92383 7.23877 3.08789 7.04541 3.25195 6.85791C3.42773 6.67041 3.59766 6.50049 3.76172 6.34814C3.92578 6.18408 4.08984 6.03174 4.25391 5.89111C4.42969 5.75049 4.59961 5.62158 4.76367 5.50439C4.96289 5.36377 5.16211 5.24072 5.36133 5.13525C5.56055 5.02979 5.75391 4.93604 5.94141 4.854C6.14062 4.78369 6.33984 4.7251 6.53906 4.67822C6.73828 4.63135 6.9375 4.60205 7.13672 4.59033C7.17188 4.53174 7.20703 4.479 7.24219 4.43213C7.28906 4.37354 7.33008 4.31494 7.36523 4.25635C7.41211 4.20947 7.45898 4.1626 7.50586 4.11572C7.55273 4.05713 7.59961 3.99854 7.64648 3.93994C7.89258 3.65869 8.15625 3.38916 8.4375 3.13135C8.71875 2.87354 9.01758 2.6333 9.33398 2.41064C9.65039 2.18799 9.97266 1.98291 10.3008 1.79541C10.6406 1.59619 10.9922 1.41455 11.3555 1.25049C11.5781 1.15674 11.8066 1.06885 12.041 0.986816C12.2754 0.904785 12.5098 0.822754 12.7441 0.740723C12.9785 0.67041 13.2188 0.605957 13.4648 0.547363C13.7227 0.477051 13.9805 0.418457 14.2383 0.371582C14.4961 0.324707 14.7598 0.283691 15.0293 0.248535C15.2988 0.213379 15.5742 0.178223 15.8555 0.143066C16.1367 0.119629 16.4121 0.102051 16.6816 0.090332C16.9629 0.0786133 17.25 0.0727539 17.543 0.0727539H18ZM2.79492 8.89697C2.9707 8.81494 3.1582 8.73877 3.35742 8.66846C3.55664 8.58643 3.76758 8.51025 3.99023 8.43994C4.21289 8.36963 4.44141 8.31689 4.67578 8.28174C4.92188 8.23486 5.17969 8.20557 5.44922 8.19385C5.47266 8.0415 5.51367 7.87158 5.57227 7.68408C5.63086 7.49658 5.69531 7.2915 5.76562 7.06885C5.84766 6.84619 5.94727 6.61768 6.06445 6.3833C6.18164 6.13721 6.31055 5.88525 6.45117 5.62744C6.07617 5.75635 5.71875 5.93213 5.37891 6.15479C5.03906 6.37744 4.71094 6.65283 4.39453 6.98096C4.07812 7.30908 3.78516 7.63721 3.51562 7.96533C3.25781 8.28174 3.01758 8.59229 2.79492 8.89697ZM9.17578 15.2778C9.49219 15.0669 9.80859 14.8267 10.125 14.5571C10.4414 14.2876 10.7637 14.0005 11.0918 13.6958C11.4199 13.3794 11.6953 13.0513 11.918 12.7114C12.1406 12.3716 12.3164 12.0142 12.4453 11.6392C12.1875 11.7915 11.9355 11.9263 11.6895 12.0435C11.4551 12.1489 11.2266 12.2427 11.0039 12.3247C10.7812 12.395 10.5762 12.4595 10.3887 12.5181C10.2012 12.5649 10.0312 12.6001 9.87891 12.6235C9.86719 12.8931 9.83789 13.1509 9.79102 13.397C9.75586 13.6313 9.70898 13.8599 9.65039 14.0825C9.58008 14.3052 9.50391 14.5161 9.42188 14.7153C9.35156 14.9146 9.26953 15.1021 9.17578 15.2778ZM13.5352 9.7583C13.8164 9.51221 14.0801 9.24854 14.3262 8.96729C14.5723 8.68604 14.8066 8.38721 15.0293 8.0708C15.252 7.76611 15.4512 7.44385 15.627 7.104C15.8145 6.76416 15.9785 6.40674 16.1191 6.03174C16.2715 5.66846 16.4062 5.2876 16.5234 4.88916C16.6406 4.49072 16.7402 4.08057 16.8223 3.65869C16.9043 3.23682 16.9629 2.80322 16.998 2.35791C17.0449 1.9126 17.0742 1.45557 17.0859 0.986816C16.6172 0.998535 16.1602 1.02783 15.7148 1.07471C15.2695 1.12158 14.8359 1.18604 14.4141 1.26807C13.9922 1.3501 13.582 1.44971 13.1836 1.56689C12.7969 1.67236 12.416 1.80127 12.041 1.95361C11.6777 2.09424 11.3203 2.2583 10.9688 2.4458C10.6289 2.6333 10.3066 2.83252 10.002 3.04346C9.68555 3.26611 9.38672 3.50049 9.10547 3.74658C8.83594 3.99268 8.57812 4.25635 8.33203 4.5376C7.91016 5.00635 7.56445 5.46338 7.29492 5.90869C7.02539 6.34229 6.82617 6.77002 6.69727 7.19189C6.55664 7.60205 6.45117 7.93018 6.38086 8.17627C6.32227 8.41064 6.29297 8.56299 6.29297 8.6333C6.29297 8.6333 6.29297 8.64502 6.29297 8.66846C6.30469 8.69189 6.32227 8.73291 6.3457 8.7915C6.35742 8.83838 6.38672 8.90869 6.43359 9.00244C6.49219 9.08447 6.56836 9.18408 6.66211 9.30127C6.7207 9.39502 6.78516 9.48877 6.85547 9.58252C6.92578 9.67627 7.00195 9.77002 7.08398 9.86377C7.17773 9.96924 7.26562 10.0688 7.34766 10.1626C7.44141 10.2563 7.53516 10.3501 7.62891 10.4438C7.72266 10.5493 7.81641 10.6489 7.91016 10.7427C8.01562 10.8247 8.11523 10.9067 8.20898 10.9888C8.31445 11.0708 8.4082 11.1528 8.49023 11.2349C8.58398 11.3052 8.67773 11.3696 8.77148 11.4282C8.88867 11.522 8.98828 11.5923 9.07031 11.6392C9.16406 11.686 9.24023 11.7212 9.29883 11.7446C9.35742 11.7563 9.39844 11.7681 9.42188 11.7798C9.44531 11.7798 9.45703 11.7798 9.45703 11.7798C9.52734 11.7798 9.67969 11.7505 9.91406 11.6919C10.1602 11.6216 10.4883 11.522 10.8984 11.3931C11.3086 11.2524 11.7305 11.0474 12.1641 10.7778C12.6094 10.5083 13.0664 10.1685 13.5352 9.7583Z" fill="#170D67"/>
</svg>
