<svg width="25" height="24" viewBox="0 0 25 24" fill="none" xmlns="http://www.w3.org/2000/svg">
<path fill-rule="evenodd" clip-rule="evenodd" d="M22.5 12C22.5 17.5228 18.0228 22 12.5 22C6.97715 22 2.5 17.5228 2.5 12C2.5 6.47715 6.97715 2 12.5 2C18.0228 2 22.5 6.47715 22.5 12ZM4.5 12C4.5 16.4183 8.08172 20 12.5 20C16.9183 20 20.5 16.4183 20.5 12C20.5 7.58172 16.9183 4 12.5 4C8.08172 4 4.5 7.58172 4.5 12Z" fill="#170D67"/>
<path d="M16.5 9.8C16.5 7.68531 14.6943 6 12.5 6C10.3057 6 8.5 7.68531 8.5 9.8C8.5 10.3523 8.94772 10.8 9.5 10.8C10.0523 10.8 10.5 10.3523 10.5 9.8C10.5 8.82189 11.3806 8 12.5 8C13.6194 8 14.5 8.82189 14.5 9.8C14.5 10.7781 13.6194 11.6 12.5 11.6C11.9477 11.6 11.5 12.0477 11.5 12.6V14C11.5 14.5523 11.9477 15 12.5 15C13.0523 15 13.5 14.5523 13.5 14V13.4801C15.2171 13.0598 16.5 11.5824 16.5 9.8Z" fill="#170D67"/>
<rect x="11.5" y="16" width="2" height="2" rx="1" fill="#170D67"/>
</svg>
