<svg width="108" height="108" viewBox="0 0 108 108" fill="none" xmlns="http://www.w3.org/2000/svg">
<rect x="7" y="17" width="51" height="12" rx="6" stroke="#170D67" stroke-width="2"/>
<rect x="25" y="29" width="51" height="12" rx="6" stroke="#170D67" stroke-width="2"/>
<path d="M38 53H19C15.6863 53 13 50.3137 13 47C13 43.6863 15.6863 41 19 41H58C61.0264 41 63.5295 43.2407 63.9408 46.1536" stroke="#170D67" stroke-width="2"/>
<path d="M32 65H24C20.6863 65 18 62.3137 18 59C18 55.6863 20.6863 53 24 53V53H38" stroke="#170D67" stroke-width="2"/>
<path d="M32 77H19C15.6863 77 13 74.3137 13 71C13 67.6863 15.6863 65 19 65V65H32" stroke="#170D67" stroke-width="2"/>
<path d="M38 89H19C15.6863 89 13 86.3137 13 83C13 79.6863 15.6863 77 19 77V77H32" stroke="#170D67" stroke-width="2"/>
<circle cx="57" cy="71" r="26" stroke="#170D67" stroke-width="2"/>
<path d="M37.7097 64.5782C37.8803 64.053 37.5929 63.4888 37.0676 63.3182C36.5424 63.1475 35.9782 63.435 35.8075 63.9602L37.7097 64.5782ZM76.2904 77.4218C76.1197 77.947 76.4072 78.5112 76.9324 78.6818C77.4577 78.8525 78.0218 78.565 78.1925 78.0398L76.2904 77.4218ZM64.0676 50.3182C63.5424 50.1475 62.9782 50.435 62.8075 50.9602C62.6369 51.4855 62.9243 52.0496 63.4496 52.2203L64.0676 50.3182ZM35.8075 63.9602C32.0529 75.5158 38.3768 87.9272 49.9324 91.6818L50.5504 89.7797C40.0454 86.3664 34.2963 75.0833 37.7097 64.5782L35.8075 63.9602ZM78.1925 78.0398C81.9471 66.4842 75.6232 54.0728 64.0676 50.3182L63.4496 52.2203C73.9547 55.6336 79.7037 66.9167 76.2904 77.4218L78.1925 78.0398Z" fill="#170D67"/>
<rect x="107.542" y="67" width="2" height="16" rx="1" transform="rotate(90 107.542 67)" fill="#00E4A5"/>
<rect x="101.268" y="82.6357" width="2" height="13" rx="1" transform="rotate(109 101.268 82.6357)" fill="#00E4A5"/>
<rect x="96.3741" y="52.804" width="2" height="9" rx="1" transform="rotate(60 96.3741 52.804)" fill="#00E4A5"/>
<circle cx="100" cy="52" r="1" fill="#00E4A5"/>
<circle cx="60" cy="50" r="1" fill="#170D67"/>
<circle cx="54" cy="92" r="1" fill="#170D67"/>
<rect x="56" y="56" width="2" height="30" rx="1" fill="#00E4A5"/>
<path d="M63 65.9C63 62.2 60.4286 60 57 60C53.5714 60 51 62.2 51 64.9C51 72.9 64 69.1 64 77.1C64 79.8 62 82 57 82C52 82 50 78.7 50 76.1" stroke="#00E4A5" stroke-width="2" stroke-linecap="round"/>
</svg>
