<svg width="250" height="100" viewBox="0 0 250 100" fill="none" xmlns="http://www.w3.org/2000/svg">
<g id="Opco=PECO, Color=Inverse">
<g id="Group 13">
<g id="Group 3">
<mask id="mask0_237_1191" style="mask-type:alpha" maskUnits="userSpaceOnUse" x="70" y="24" width="180" height="65">
<path id="Clip 2" fill-rule="evenodd" clip-rule="evenodd" d="M70.2054 24.1384H250V89H70.2054V24.1384Z" fill="white"/>
</mask>
<g mask="url(#mask0_237_1191)">
<path id="Fill 1" fill-rule="evenodd" clip-rule="evenodd" d="M181.636 24.2293V29.5338H180.894V26.4648C180.894 26.1465 180.91 25.851 180.933 25.5782C180.502 26.5633 179.957 27.5712 179.254 28.6699H178.611C177.9 27.5712 177.355 26.5557 176.909 25.5706C176.939 25.8363 176.954 26.1389 176.954 26.4648V29.5338H176.22V24.2293H177.037C177.552 25.4948 178.157 26.6396 178.936 27.8819C179.707 26.6396 180.297 25.4948 180.812 24.2293H181.636ZM171.985 28.6396C172.34 28.776 172.839 28.9276 173.399 28.9276C174.08 28.9276 174.481 28.6699 174.481 28.1395C174.481 27.5408 174.027 27.359 173.279 27.1165C172.401 26.829 171.864 26.4421 171.864 25.5863C171.864 24.6542 172.514 24.1384 173.618 24.1384C174.103 24.1384 174.625 24.2526 174.957 24.3885L174.798 25.0477C174.442 24.9265 174.058 24.8356 173.663 24.8356C172.991 24.8356 172.665 25.0856 172.665 25.5635C172.665 26.0783 173.006 26.2526 173.663 26.4724C174.571 26.7755 175.282 27.0938 175.282 28.1324C175.282 29.1625 174.465 29.6248 173.429 29.6248C172.794 29.6248 172.212 29.4959 171.834 29.3292L171.985 28.6396ZM160.135 52.5503C164.782 52.5503 166.978 48.919 166.978 43.2917C166.978 37.7149 164.782 34.0836 160.135 34.0836C155.642 34.0836 153.293 37.7149 153.293 43.2917C153.293 48.919 155.642 52.5503 160.135 52.5503ZM160.135 56.8994C152.578 56.8994 148.033 51.4262 148.033 43.2917C148.033 35.2081 152.578 29.7349 160.135 29.7349C167.795 29.7349 172.289 35.2081 172.289 43.2917C172.289 51.4262 167.795 56.8994 160.135 56.8994ZM146.099 31.2702L145.078 35.4132C143.137 34.5953 140.941 34.0836 138.95 34.0836C133.946 34.0836 131.24 37.7149 131.24 43.3422C131.24 49.3272 134.099 52.5503 139.46 52.5503C141.35 52.5503 143.444 52.039 145.333 51.1186L146.252 55.3131C144.465 56.2346 141.861 56.8994 139.103 56.8994C130.729 56.8994 125.98 51.8339 125.98 43.4447C125.98 35.2081 130.575 29.7349 138.593 29.7349C141.503 29.7349 144.209 30.3997 146.099 31.2702ZM105.157 41.1941H117.668C117.719 40.8875 117.719 40.6823 117.719 40.3757C117.719 36.9475 115.932 33.981 112 33.981C108.017 33.981 105.618 36.7944 105.157 41.1941ZM122.059 55.108C119.66 56.2346 116.596 56.8994 113.277 56.8994C105.157 56.8994 99.7959 51.9375 99.7959 43.2917C99.7959 35.3117 104.545 29.7349 112 29.7349C118.74 29.7349 122.723 34.5953 122.723 41.0926C122.723 42.4217 122.621 43.5473 122.519 44.5188H105.106C105.618 49.993 108.732 52.4997 113.736 52.4997C116.289 52.4997 118.893 51.8859 121.192 50.9145L122.059 55.108ZM83.3648 52.5503C88.6747 52.5503 91.1769 49.1231 91.1769 42.9335C91.1769 37.8689 88.9818 34.0836 83.6199 34.0836C81.7819 34.0836 80.2494 34.5443 78.9222 35.1576V51.4262C80.0966 51.988 81.3729 52.5503 83.3648 52.5503ZM84.0798 56.8474C81.7819 56.8474 80.2494 56.3877 78.9222 55.8244V65.8009H73.765V32.0375C76.8794 30.5033 80.6584 29.7349 83.8751 29.7349C92.0453 29.7349 96.5388 34.9525 96.5388 42.7789C96.5388 51.0665 92.25 56.8474 84.0798 56.8474ZM244.714 83.7877C242.918 81.3951 241.647 79.3577 240.647 76.914H241.935C242.782 78.9843 243.765 80.6141 245.341 82.7702C246.9 80.6312 247.865 78.9843 248.713 76.914H250C248.967 79.3577 247.73 81.4123 245.934 83.7538V88.7961H244.714V83.7877ZM229.309 88.7961V76.914H230.495C232.562 80.6141 234.596 83.6356 237.086 87.081C237.052 86.64 237.036 86.0969 237.036 85.4679V76.914H238.188V88.7961H237.002C234.41 85.3159 232.274 82.3802 230.41 78.9328C230.444 79.5107 230.462 80.1735 230.462 80.8348V88.7961H229.309ZM219.412 84.2297H224.054C223.224 81.8033 222.376 79.6123 221.732 78.1699C221.089 79.6123 220.242 81.8033 219.412 84.2297ZM224.409 85.2992H219.056C218.666 86.453 218.293 87.6241 217.954 88.7961H216.701C218.022 84.5192 219.428 80.4948 221.089 76.914H222.36C224.021 80.4948 225.46 84.4671 226.765 88.7961H225.511C225.172 87.6241 224.799 86.453 224.409 85.2992ZM210.883 77.9825H209.239V83.4325H210.883C212.967 83.4325 214.356 82.8041 214.356 80.7166C214.356 78.6282 212.967 77.9825 210.883 77.9825ZM208.019 76.914H210.9C213.763 76.914 215.61 78.0684 215.61 80.7166C215.61 83.3638 213.763 84.501 210.9 84.501H209.239V88.7961H208.019V76.914ZM204.327 76.914V88.7961H203.175V80.8858C203.175 80.2074 203.209 79.5956 203.226 79.0692C202.141 81.581 200.786 84.1282 198.973 86.9794H197.922C196.109 84.1282 194.737 81.5471 193.635 79.052C193.686 79.5784 193.703 80.2074 193.703 80.8858V88.7961H192.551V76.914H193.822C195.042 79.9007 196.584 82.752 198.465 85.7746C200.329 82.752 201.853 79.9007 203.057 76.914H204.327ZM184.427 87.8969C187.053 87.8969 188.155 85.6564 188.155 82.8546C188.155 80.0538 187.053 77.8128 184.427 77.8128C181.784 77.8128 180.716 80.0538 180.716 82.8546C180.716 85.6564 181.817 87.8969 184.427 87.8969ZM184.427 89.0002C181.055 89.0002 179.446 86.301 179.446 82.8546C179.446 79.4082 181.022 76.7094 184.427 76.7094C187.816 76.7094 189.426 79.4082 189.426 82.8546C189.426 86.301 187.816 89.0002 184.427 89.0002ZM169.442 82.991C169.442 79.4082 171.135 76.7094 174.727 76.7094C175.728 76.7094 176.727 76.9312 177.625 77.303L177.32 78.3559C176.524 78.0684 175.744 77.8128 174.744 77.8128C171.864 77.8128 170.712 80.1215 170.712 82.991C170.712 85.91 172.016 87.8969 174.829 87.8969C175.948 87.8969 176.761 87.5902 177.455 87.2856L177.71 88.3384C177.015 88.6936 175.948 89.0002 174.795 89.0002C171.288 89.0002 169.442 86.6061 169.442 82.991ZM152.597 88.7961V76.914H153.783C155.85 80.6141 157.884 83.6356 160.375 87.081C160.341 86.64 160.324 86.0969 160.324 85.4679V76.914H161.476V88.7961H160.29C157.697 85.3159 155.562 82.3802 153.699 78.9328C153.733 79.5107 153.749 80.1735 153.749 80.8348V88.7961H152.597ZM144.473 87.8969C147.1 87.8969 148.201 85.6564 148.201 82.8546C148.201 80.0538 147.1 77.8128 144.473 77.8128C141.83 77.8128 140.763 80.0538 140.763 82.8546C140.763 85.6564 141.864 87.8969 144.473 87.8969ZM144.473 89.0002C141.102 89.0002 139.492 86.301 139.492 82.8546C139.492 79.4082 141.067 76.7094 144.473 76.7094C147.863 76.7094 149.472 79.4082 149.472 82.8546C149.472 86.301 147.863 89.0002 144.473 89.0002ZM130.996 76.914H132.215V87.7266H137.841V88.7961H130.996V76.914ZM128.207 88.7961H121.294V76.914H128.207V77.9825H122.514V82.1579H127.394V83.2279H122.514V87.7266H128.207V88.7961ZM113.861 83.4325C112.777 84.9082 111.523 86.8441 110.625 88.7961H109.338C110.286 86.64 111.744 84.5192 113.286 82.5661L109.575 76.914H110.981L114.217 81.8371C115.505 80.2412 116.606 78.4751 117.234 76.914H118.504C117.708 78.8823 116.386 80.8182 114.777 82.6843L118.775 88.7961H117.386L113.861 83.4325ZM107.181 88.7961H100.268V76.914H107.181V77.9825H101.488V82.1579H106.368V83.2279H101.488V87.7266H107.181V88.7961ZM82.8146 88.7961V76.914H84.0006C86.0676 80.6141 88.1009 83.6356 90.5914 87.081C90.5577 86.64 90.541 86.0969 90.541 85.4679V76.914H91.6928V88.7961H90.5072C87.9148 85.3159 85.7797 82.3802 83.9159 78.9328C83.9502 79.5107 83.9669 80.1735 83.9669 80.8348V88.7961H82.8146ZM72.9163 84.2297H77.5596C76.7286 81.8033 75.8819 79.6123 75.2375 78.1699C74.594 79.6123 73.7463 81.8033 72.9163 84.2297ZM77.9151 85.2992H72.5603C72.171 86.453 71.7983 87.6241 71.459 88.7961H70.2054C71.527 84.5192 72.9334 80.4948 74.594 76.914H75.8648C77.5253 80.4948 78.9655 84.4671 80.2706 88.7961H79.0165C78.6776 87.6241 78.3049 86.453 77.9151 85.2992Z" fill="white"/>
</g>
</g>
<g id="Group 6">
<mask id="mask1_237_1191" style="mask-type:alpha" maskUnits="userSpaceOnUse" x="0" y="12" width="55" height="55">
<path id="Clip 5" fill-rule="evenodd" clip-rule="evenodd" d="M0 12H54.9523V66.5612H0V12Z" fill="white"/>
</mask>
<g mask="url(#mask1_237_1191)">
<path id="Fill 4" fill-rule="evenodd" clip-rule="evenodd" d="M18.1822 12.8312C17.9049 12.8312 17.6517 12.8777 17.4253 12.9803C16.7561 13.2844 16.274 14.0957 15.9533 15.4602C13.7915 24.6502 11.8693 27.3999 9.28034 29.0443C3.2876 32.8509 0.311909 37.4668 0.900896 42.0423C1.38247 45.7782 4.35262 49.1321 8.29147 50.3891C11.7039 51.4782 13.9736 54.2411 15.2307 58.8373C16.1999 62.3802 18.2639 64.7405 21.0419 65.4836C24.4402 66.393 28.4078 64.8082 32.2155 61.0228C36.6919 56.5726 39.8633 56.3483 43.2212 56.1108C45.028 55.983 46.8958 55.8507 49.0647 55.0196C51.6349 54.034 53.1876 52.6877 53.8114 50.9028C54.9727 47.5787 52.7413 43.3401 50.1483 38.9248C48.5745 36.2453 48.1242 33.6329 48.6411 30.1896C49.3148 25.7065 48.1761 21.6387 45.5958 19.3083C43.203 17.1481 39.7624 16.5701 35.6451 17.6371C30.7809 18.8976 26.425 16.5777 22.9254 14.7136C21.054 13.7173 19.3899 12.8312 18.1822 12.8312ZM22.9728 66.5612C22.2416 66.5612 21.5255 66.4692 20.8291 66.2828C17.7556 65.4609 15.4844 62.894 14.4345 59.0556C13.257 54.7514 11.1658 52.1744 8.04084 51.1772C3.80196 49.8248 0.603881 46.1965 0.0824667 42.1484C-0.771261 35.5203 5.20181 30.6558 8.8386 28.3461C11.1865 26.8543 13.0613 24.1465 15.1495 15.2708C15.5333 13.6395 16.1666 12.6438 17.0849 12.227C18.6668 11.5092 20.7172 12.6014 23.3126 13.9836C26.6862 15.7805 30.8853 18.017 35.4383 16.8364C40.9948 15.3966 44.3296 17.0516 46.1485 18.694C48.9356 21.2108 50.1725 25.5539 49.458 30.3128C48.9709 33.5531 49.3904 36.0028 50.8599 38.505C53.5552 43.0946 55.8688 47.5176 54.5905 51.1761C53.8915 53.1762 52.1316 54.7291 49.3597 55.7921C47.0763 56.6676 45.146 56.804 43.2797 56.9358C40.0791 57.1621 37.056 57.3758 32.7969 61.6098C29.5313 64.8562 26.1169 66.5612 22.9728 66.5612Z" fill="url(#paint0_linear_237_1191)"/>
</g>
</g>
<path id="Fill 7" fill-rule="evenodd" clip-rule="evenodd" d="M14.8106 18.7434L15.2004 18.8803C12.7128 25.9989 11.1712 29.0967 9.09164 31.1559C5.04689 35.1615 3.21085 39.5991 3.92187 43.6517C4.5285 47.1098 6.8905 50.0222 10.4022 51.6428C13.2176 52.9417 15.3552 55.1958 16.9371 58.5341C18.1932 61.1849 20.2824 62.951 22.8199 63.5067C25.906 64.1827 29.4011 63.047 32.6632 60.3099C36.1966 57.3454 38.9661 56.7432 41.6447 56.1612C43.4273 55.7738 45.1116 55.408 47.0475 54.3901C52.9454 51.2897 53.6181 45.717 49.1649 36.8529C47.9471 34.4123 46.7671 31.6969 46.3778 28.3723C45.932 24.5586 44.3002 21.4633 41.7829 19.6557C39.4159 17.9563 36.4397 17.4743 32.9355 18.2235C29.2861 19.004 25.9378 17.9987 22.9832 17.1116C19.0782 15.9386 16.4988 15.1636 15.2004 18.8803L14.8106 18.7434ZM24.6055 64.5242C23.9398 64.5242 23.2843 64.4549 22.6439 64.3145C19.8507 63.7032 17.5593 61.7759 16.1912 58.8888C14.6956 55.7328 12.6891 53.608 10.0573 52.3935C6.35093 50.684 3.75344 47.4695 3.10899 43.7952C2.34956 39.4673 4.2678 34.7695 8.51122 30.5678C10.4895 28.6087 11.9806 25.5907 14.4208 18.6065C15.98 14.1451 19.3354 15.1525 23.2203 16.3195C26.08 17.1778 29.3209 18.1513 32.763 17.4147C36.4513 16.6261 39.7361 17.1687 42.264 18.9833C44.9724 20.9283 46.7248 24.2282 47.1983 28.2758C47.5719 31.4741 48.7191 34.1102 49.9027 36.4821C51.9182 40.4938 52.896 43.7927 52.891 46.5662C52.8844 50.3425 51.0473 53.2216 47.4307 55.1226C45.396 56.1926 43.5776 56.5876 41.8197 56.9696C39.1204 57.5561 36.5708 58.1103 33.1932 60.9439C30.395 63.292 27.4112 64.5242 24.6055 64.5242Z" fill="url(#paint1_linear_237_1191)"/>
<path id="Fill 9" fill-rule="evenodd" clip-rule="evenodd" d="M14.0698 22.1212L14.4329 22.3177C13.1692 24.6643 12.2121 26.6619 11.3674 28.424C10.4895 30.2563 9.73105 31.839 8.898 33.2404C6.67316 36.9824 5.90264 40.8825 6.66913 44.5188C7.38822 47.9324 9.46581 50.9115 12.5187 52.9065C14.7072 54.3372 16.7545 56.1185 18.6042 58.2019C22.2127 62.2671 27.916 62.8102 33.1337 59.5861C35.3636 58.2084 37.2969 57.4557 39.1663 56.7282C41.1697 55.9482 43.0622 55.2111 45.0218 53.7734C52.7563 48.0991 49.8099 38.6015 48.1836 34.7813C47.3959 32.9176 46.4948 31.1656 45.5407 29.3111C45.0834 28.4219 44.6104 27.503 44.156 26.5795C41.2933 20.7572 36.2133 17.9256 30.2175 18.8112C28.0224 19.1355 25.9332 19.0527 23.9121 18.9729C19.7121 18.8072 16.3945 18.6753 14.4329 22.3177L14.0698 22.1212ZM26.3079 62.4667C23.1396 62.4667 20.1689 61.2093 17.9869 58.7515C16.1862 56.7232 14.1948 54.9894 12.0678 53.5996C5.18406 49.1004 3.58855 40.5541 8.18849 32.8171C9.00289 31.4475 9.75374 29.8804 10.6231 28.0663C11.4718 26.2956 12.4334 24.2885 13.7067 21.9247C15.9124 17.8286 19.6349 17.9766 23.9449 18.1464C25.9277 18.2247 27.978 18.306 30.097 17.9933C36.4699 17.0511 41.8646 20.0479 44.8968 26.2138C45.3476 27.1307 45.8186 28.0466 46.2744 28.9322C47.1937 30.7185 48.1438 32.566 48.9435 34.4574C50.6465 38.4585 53.7215 48.4163 45.51 54.4407C43.4626 55.9427 41.5212 56.6989 39.4653 57.4991C37.6303 58.2135 35.7332 58.9521 33.5669 60.2903C31.2054 61.7498 28.7002 62.4667 26.3079 62.4667Z" fill="url(#paint2_linear_237_1191)"/>
<path id="Fill 11" fill-rule="evenodd" clip-rule="evenodd" d="M28.3177 19.3903C22.9397 19.3903 17.5768 21.5368 13.6309 25.7809C6.09204 33.8902 6.54387 46.6326 14.6384 54.1852C22.7329 61.7383 35.4521 61.2857 42.9909 53.1763C50.5298 45.067 50.0779 32.3246 41.9839 24.7721C38.1258 21.1721 33.2152 19.3903 28.3177 19.3903ZM28.3041 60.3935C23.2044 60.3935 18.0932 58.5389 14.0756 54.7904C5.64778 46.9266 5.1773 33.6604 13.0268 25.2171C20.8762 16.7744 34.1188 16.3031 42.5462 24.1668C50.974 32.0301 51.4445 45.2969 43.5951 53.7401C39.4873 58.1585 33.9025 60.3935 28.3041 60.3935Z" fill="url(#paint3_linear_237_1191)"/>
</g>
</g>
<defs>
<linearGradient id="paint0_linear_237_1191" x1="16.3143" y1="63.8536" x2="43.4517" y2="16.8669" gradientUnits="userSpaceOnUse">
<stop offset="0.17" stop-color="#6E06C1"/>
<stop offset="0.25" stop-color="#5F24BD"/>
<stop offset="0.46" stop-color="#3E68B5"/>
<stop offset="0.64" stop-color="#239DAE"/>
<stop offset="0.8" stop-color="#10C4A9"/>
<stop offset="0.92" stop-color="#04DBA6"/>
<stop offset="1" stop-color="#00E4A5"/>
</linearGradient>
<linearGradient id="paint1_linear_237_1191" x1="17.774" y1="62.0826" x2="42.1482" y2="19.5465" gradientUnits="userSpaceOnUse">
<stop offset="0.17" stop-color="#6E06C1"/>
<stop offset="0.25" stop-color="#5F24BD"/>
<stop offset="0.46" stop-color="#3E68B5"/>
<stop offset="0.64" stop-color="#239DAE"/>
<stop offset="0.8" stop-color="#10C4A9"/>
<stop offset="0.92" stop-color="#04DBA6"/>
<stop offset="1" stop-color="#00E4A5"/>
</linearGradient>
<linearGradient id="paint2_linear_237_1191" x1="19.0473" y1="60.2512" x2="41.1523" y2="21.6341" gradientUnits="userSpaceOnUse">
<stop offset="0.17" stop-color="#6E06C1"/>
<stop offset="0.25" stop-color="#5F24BD"/>
<stop offset="0.46" stop-color="#3E68B5"/>
<stop offset="0.64" stop-color="#239DAE"/>
<stop offset="0.8" stop-color="#10C4A9"/>
<stop offset="0.92" stop-color="#04DBA6"/>
<stop offset="1" stop-color="#00E4A5"/>
</linearGradient>
<linearGradient id="paint3_linear_237_1191" x1="19.8299" y1="58.3177" x2="40.7276" y2="22.4571" gradientUnits="userSpaceOnUse">
<stop offset="0.17" stop-color="#6E06C1"/>
<stop offset="0.25" stop-color="#5F24BD"/>
<stop offset="0.46" stop-color="#3E68B5"/>
<stop offset="0.64" stop-color="#239DAE"/>
<stop offset="0.8" stop-color="#10C4A9"/>
<stop offset="0.92" stop-color="#04DBA6"/>
<stop offset="1" stop-color="#00E4A5"/>
</linearGradient>
</defs>
</svg>
