<svg width="36" height="36" viewBox="0 0 36 36" fill="none" xmlns="http://www.w3.org/2000/svg">
<path fill-rule="evenodd" clip-rule="evenodd" d="M9.01799 14.0368C9.06369 9.58374 12.6887 6 17.142 6H18.8563C23.3103 6 26.9357 9.58441 26.9795 14.0382C27.0062 16.7497 27.0288 19.3327 27.0288 20.2886C27.0288 22.6147 31 28 31 28H5C5 28 8.96456 22.323 8.96456 20.324C8.96456 19.4862 8.98927 16.8347 9.01799 14.0368Z" stroke="#170D67" stroke-width="2" stroke-linecap="round" stroke-linejoin="round"/>
<path d="M22 31.0086C22 31.9998 20.2091 34 18 34C15.7909 34 14 31.9998 14 31.0086C15.43 30.9893 15.7909 31.0086 18 31.0086C20.2091 31.0086 20.3188 31.0086 22 31.0086Z" fill="#170D67"/>
<rect x="17" y="1" width="2" height="6" rx="1" fill="#170D67"/>
</svg>
