<svg width="48" height="48" viewBox="0 0 48 48" fill="none" xmlns="http://www.w3.org/2000/svg">
<rect x="8" y="1" width="32" height="45" rx="4" stroke="#6E06C1" stroke-width="2"/>
<mask id="path-2-inside-1_638_1175" fill="white">
<rect x="12" y="7" width="24" height="8" rx="1"/>
</mask>
<rect x="12" y="7" width="24" height="8" rx="1" stroke="#6E06C1" stroke-width="4" mask="url(#path-2-inside-1_638_1175)"/>
<rect x="13" y="19" width="4" height="4" rx="2" fill="#6E06C1"/>
<rect x="13" y="27" width="4" height="4" rx="2" fill="#6E06C1"/>
<rect x="13" y="35" width="4" height="4" rx="2" fill="#6E06C1"/>
<rect x="22" y="19" width="4" height="4" rx="2" fill="#6E06C1"/>
<rect x="22" y="27" width="4" height="4" rx="2" fill="#6E06C1"/>
<rect x="22" y="35" width="4" height="4" rx="2" fill="#6E06C1"/>
<rect x="31" y="19" width="4" height="4" rx="2" fill="#6E06C1"/>
<rect x="31" y="27" width="4" height="4" rx="2" fill="#6E06C1"/>
<rect x="31" y="35" width="4" height="4" rx="2" fill="#6E06C1"/>
</svg>
