<svg width="30" height="30" viewBox="0 0 30 30" fill="none" xmlns="http://www.w3.org/2000/svg">
<path fill-rule="evenodd" clip-rule="evenodd" d="M10 11.4475C9.30614 11.5437 8.63891 11.718 8 11.9684L8 9C8 8.44772 8.44772 8 9 8C9.55228 8 10 8.44772 10 9V11.4475V11.4475Z" fill="#5A626D"/>
<path fill-rule="evenodd" clip-rule="evenodd" d="M10 15.5193V22C10 22.5523 9.55228 23 9 23C8.44772 23 8 22.5523 8 22V16.5733C8.62317 16.0511 9.28615 15.7041 10 15.5193V15.5193Z" fill="#5A626D"/>
<path fill-rule="evenodd" clip-rule="evenodd" d="M22 15.0149C21.5152 15.3106 20.9426 15.4475 20.2503 15.4475C20.1679 15.4475 20.0849 15.4419 20 15.4301L20 11C20 10.4477 20.4477 10 21 10C21.5523 10 22 10.4477 22 11V15.0149V15.0149Z" fill="#5A626D"/>
<path fill-rule="evenodd" clip-rule="evenodd" d="M22 19.2626V22C22 22.5523 21.5523 23 21 23C20.4477 23 20 22.5523 20 22V19.4428C20.0825 19.4459 20.1659 19.4475 20.2503 19.4475C20.8625 19.4475 21.4465 19.3853 22 19.2626V19.2626Z" fill="#5A626D"/>
<path fill-rule="evenodd" clip-rule="evenodd" d="M16 12.9593C15.2838 12.4792 14.64 12.1166 14 11.859L14 6C14 5.44772 14.4477 5 15 5C15.5523 5 16 5.44772 16 6V12.9593V12.9593Z" fill="#5A626D"/>
<path fill-rule="evenodd" clip-rule="evenodd" d="M16 17.8941V22C16 22.5523 15.5523 23 15 23C14.4477 23 14 22.5523 14 22V16.4378C14.2404 16.6038 14.5003 16.7922 14.7851 17.0051C14.9719 17.1449 15.0854 17.23 15.1633 17.2882C15.3132 17.4001 15.4367 17.4915 15.5569 17.5791C15.7077 17.6891 15.8552 17.794 16 17.8941V17.8941Z" fill="#5A626D"/>
<path d="M5.73317 17.4543C5.4449 17.8592 4.88295 17.9538 4.47802 17.6655C4.0731 17.3773 3.97853 16.8153 4.2668 16.4104C6.12445 13.801 8.49079 12.4592 11.3012 12.4592C13.1319 12.4592 14.3945 13.092 16.5217 14.6825C16.7116 14.8248 16.8226 14.9079 16.8982 14.9644C17.04 15.0702 17.1552 15.1555 17.2653 15.2357C18.5391 16.1644 19.3569 16.5475 20.2503 16.5475C22.0521 16.5475 23.3313 15.767 24.2057 14.1262C24.4395 13.6875 24.9846 13.5214 25.4232 13.7552C25.8619 13.9889 26.028 14.534 25.7942 14.9727C24.6095 17.196 22.7222 18.3475 20.2503 18.3475C18.8764 18.3475 17.7621 17.8255 16.2049 16.6902C16.0886 16.6054 15.9682 16.5163 15.8214 16.4067C15.7443 16.3492 15.6318 16.2649 15.4438 16.1241C13.6105 14.7533 12.6246 14.2592 11.3012 14.2592C9.10174 14.2592 7.26727 15.2994 5.73317 17.4543Z" fill="#5A626D"/>
</svg>
