<svg width="128" height="128" viewBox="0 0 128 128" fill="none" xmlns="http://www.w3.org/2000/svg">
<path d="M123.276 59.6C90.6634 26.9871 37.7875 26.9871 5.17459 59.6C3.63382 61.1408 3.63382 63.6388 5.17459 65.1796C6.71535 66.7204 9.21343 66.7204 10.7542 65.1796C40.2855 35.6483 88.1653 35.6483 117.697 65.1796C119.237 66.7204 121.735 66.7204 123.276 65.1796C124.817 63.6388 124.817 61.1408 123.276 59.6Z" stroke="#170D67" stroke-width="2"/>
<path d="M108.169 74.2657C83.8167 49.9131 44.3333 49.9131 19.9807 74.2657C18.4427 75.8037 18.4427 78.2974 19.9807 79.8355C21.5188 81.3735 24.0125 81.3735 25.5505 79.8355C46.827 58.559 81.323 58.559 102.599 79.8355C104.138 81.3735 106.631 81.3735 108.169 79.8355C109.707 78.2974 109.707 75.8037 108.169 74.2657Z" stroke="#170D67" stroke-width="2"/>
<path d="M93.0669 88.9357C76.9721 72.8409 50.8772 72.8409 34.7824 88.9357C33.2495 90.4686 33.2495 92.9538 34.7824 94.4867C36.3152 96.0195 38.8004 96.0195 40.3333 94.4867C53.3624 81.4575 74.4869 81.4575 87.516 94.4867C89.0489 96.0195 91.5341 96.0195 93.0669 94.4867C94.5998 92.9538 94.5998 90.4686 93.0669 88.9357Z" stroke="#170D67" stroke-width="2"/>
<circle cx="64.6006" cy="109.314" r="10.5793" transform="rotate(45 64.6006 109.314)" stroke="#00E4A5" stroke-width="2"/>
</svg>
