<svg width="24" height="24" viewBox="0 0 24 24" fill="none" xmlns="http://www.w3.org/2000/svg">
<path d="M5.9747 4.01839C6.41527 3.68534 7.04241 3.77249 7.37546 4.21306C7.70851 4.65362 7.62135 5.28076 7.18079 5.61381C5.19146 7.11767 4 9.45898 4 12C4 16.4183 7.58172 20 12 20C16.4183 20 20 16.4183 20 12C20 9.52856 18.8734 7.24454 16.9755 5.73497C16.5432 5.39119 16.4715 4.76209 16.8153 4.32986C17.1591 3.89762 17.7882 3.82591 18.2204 4.1697C20.5905 6.05475 22 8.91242 22 12C22 17.5228 17.5228 22 12 22C6.47715 22 2 17.5228 2 12C2 8.82537 3.49055 5.89632 5.9747 4.01839Z" fill="white"/>
<rect x="11" y="2" width="2" height="12" rx="1" fill="white"/>
</svg>
