<svg width="48" height="40" viewBox="0 0 48 40" fill="none" xmlns="http://www.w3.org/2000/svg">
<path fill-rule="evenodd" clip-rule="evenodd" d="M2 9.2C2 5.22355 5.22355 2 9.2 2H38.8C42.7764 2 46 5.22355 46 9.2V30.8C46 34.7764 42.7765 38 38.8 38H9.2C5.22355 38 2 34.7765 2 30.8V9.2Z" fill="#F7F7F8"/>
<path d="M10 11V9.28571L24 5L38 9.28571V11H10Z" fill="#170D67"/>
<path fill-rule="evenodd" clip-rule="evenodd" d="M25.1079 21.3141C26.5026 21.572 27.2 22.1953 27.2 23.184C27.2 23.7674 26.9685 24.2348 26.5054 24.5864C26.0423 24.938 25.21 25.1819 24.875 25.2059V26.6H23.325V25.2105C23.0235 25.1954 22.2267 24.9748 21.7382 24.6325C21.2497 24.2901 21.0036 23.8365 21 23.2715H22.5582C22.5763 23.511 22.6944 23.7121 22.9123 23.8748C23.1302 24.0376 23.4117 24.1343 23.7568 24.165C23.7568 24.165 24.8062 24.347 25.3585 23.9209C25.556 23.7685 25.6582 23.577 25.6582 23.3314C25.6582 23.1072 25.5723 22.9428 25.3803 22.7879C25.0786 22.5445 23.7568 22.3688 23.7568 22.3688L23.1793 22.2537C22.5218 22.1247 22.0215 21.9029 21.6783 21.5881C21.3351 21.2734 21.1634 20.8766 21.1634 20.3976C21.1634 19.8326 21.3985 19.3824 21.8472 19.032C22.2959 18.6816 23.1159 18.4451 23.325 18.431V17H24.875V18.4356C25.1746 18.4585 25.9449 18.663 26.3528 19.0458C26.7607 19.4287 27.042 19.8342 27.0529 20.3653H25.5383C25.531 20.1473 25.433 19.957 25.2441 19.7942C25.0641 19.6391 24.8384 19.536 24.5655 19.5047C23.7137 19.407 23.2266 19.5765 23.024 19.7367C22.8214 19.8969 22.738 20.0644 22.738 20.2824C22.738 20.8432 23.8416 21.0843 24.525 21.2155L25.1079 21.3141Z" fill="#170D67"/>
<rect x="9" y="30" width="30" height="3" rx="1.5" fill="#170D67"/>
<rect x="9" y="13" width="30" height="2" rx="1" fill="#170D67"/>
<path fill-rule="evenodd" clip-rule="evenodd" d="M34 18C34 17.4477 34.4477 17 35 17H37C37.5523 17 38 17.4477 38 18C38 18.5523 37.5523 19 37 19V26C37.5523 26 38 26.4477 38 27C38 27.5523 37.5523 28 37 28H35C34.4477 28 34 27.5523 34 27C34 26.4477 34.4477 26 35 26V19C34.4477 19 34 18.5523 34 18Z" fill="#170D67"/>
<path fill-rule="evenodd" clip-rule="evenodd" d="M16 18C16 17.4477 16.4477 17 17 17H19C19.5523 17 20 17.4477 20 18C20 18.5523 19.5523 19 19 19V26C19.5523 26 20 26.4477 20 27C20 27.5523 19.5523 28 19 28H17C16.4477 28 16 27.5523 16 27C16 26.4477 16.4477 26 17 26V19C16.4477 19 16 18.5523 16 18Z" fill="#170D67"/>
<path fill-rule="evenodd" clip-rule="evenodd" d="M28 18C28 17.4477 28.4477 17 29 17H31C31.5523 17 32 17.4477 32 18C32 18.5523 31.5523 19 31 19V26C31.5523 26 32 26.4477 32 27C32 27.5523 31.5523 28 31 28H29C28.4477 28 28 27.5523 28 27C28 26.4477 28.4477 26 29 26V19C28.4477 19 28 18.5523 28 18Z" fill="#170D67"/>
<path fill-rule="evenodd" clip-rule="evenodd" d="M10 18C10 17.4477 10.4477 17 11 17H13C13.5523 17 14 17.4477 14 18C14 18.5523 13.5523 19 13 19V26C13.5523 26 14 26.4477 14 27C14 27.5523 13.5523 28 13 28H11C10.4477 28 10 27.5523 10 27C10 26.4477 10.4477 26 11 26V19C10.4477 19 10 18.5523 10 18Z" fill="#170D67"/>
</svg>
