<svg width="37" height="36" viewBox="0 0 37 36" fill="none" xmlns="http://www.w3.org/2000/svg">
<path d="M11.5 23L15.5 27L25.5 16" stroke="#170D67" stroke-width="2" stroke-linecap="round" stroke-linejoin="round"/>
<path d="M14.1667 3.98291C13.6144 3.98291 13.1667 4.43063 13.1667 4.98291C13.1667 5.53519 13.6144 5.98291 14.1667 5.98291V3.98291ZM23.8333 5.98291C24.3856 5.98291 24.8333 5.53519 24.8333 4.98291C24.8333 4.43063 24.3856 3.98291 23.8333 3.98291V5.98291ZM29.3571 3.98291C28.8049 3.98291 28.3571 4.43063 28.3571 4.98291C28.3571 5.53519 28.8049 5.98291 29.3571 5.98291V3.98291ZM8.64286 5.98291C9.19514 5.98291 9.64286 5.53519 9.64286 4.98291C9.64286 4.43063 9.19514 3.98291 8.64286 3.98291V5.98291ZM14.1667 5.98291H23.8333V3.98291H14.1667V5.98291ZM29.3571 5.98291C31.216 5.98291 32.5 7.2841 32.5 9.01389H34.5C34.5 6.13448 32.2749 3.98291 29.3571 3.98291V5.98291ZM32.5 9.01389V29.0022H34.5V9.01389H32.5ZM32.5 29.0022C32.5 30.7212 31.2271 31.9999 29.3571 31.9999V33.9999C32.2638 33.9999 34.5 31.8924 34.5 29.0022H32.5ZM29.3571 31.9999H8.64286V33.9999H29.3571V31.9999ZM8.64286 31.9999C6.77292 31.9999 5.5 30.7212 5.5 29.0022H3.5C3.5 31.8924 5.7362 33.9999 8.64286 33.9999V31.9999ZM5.5 29.0022V9.01389H3.5V29.0022H5.5ZM5.5 9.01389C5.5 7.2841 6.78405 5.98291 8.64286 5.98291V3.98291C5.72507 3.98291 3.5 6.13448 3.5 9.01389H5.5Z" fill="#170D67"/>
<rect x="10.5" y="1" width="2" height="7" rx="1" fill="#170D67"/>
<rect x="25.5" y="1" width="2" height="7" rx="1" fill="#170D67"/>
<path fill-rule="evenodd" clip-rule="evenodd" d="M3.5 11H33.5V13H3.5V11Z" fill="#170D67"/>
</svg>
