<svg width="36" height="36" viewBox="0 0 36 36" fill="none" xmlns="http://www.w3.org/2000/svg">
<path d="M11 23L15 27L25 16" stroke="#170D67" stroke-width="2" stroke-linecap="round" stroke-linejoin="round"/>
<path d="M13.6667 3.98305C13.1144 3.98305 12.6667 4.43076 12.6667 4.98305C12.6667 5.53533 13.1144 5.98305 13.6667 5.98305V3.98305ZM23.3333 5.98305C23.8856 5.98305 24.3333 5.53533 24.3333 4.98305C24.3333 4.43076 23.8856 3.98305 23.3333 3.98305V5.98305ZM28.8571 3.98305C28.3049 3.98305 27.8571 4.43076 27.8571 4.98305C27.8571 5.53533 28.3049 5.98305 28.8571 5.98305V3.98305ZM8.14286 5.98305C8.69514 5.98305 9.14286 5.53533 9.14286 4.98305C9.14286 4.43076 8.69514 3.98305 8.14286 3.98305V5.98305ZM13.6667 5.98305H23.3333V3.98305H13.6667V5.98305ZM28.8571 5.98305C30.716 5.98305 32 7.28424 32 9.01402H34C34 6.13462 31.7749 3.98305 28.8571 3.98305V5.98305ZM32 9.01402V29.0023H34V9.01402H32ZM32 29.0023C32 30.7213 30.7271 32 28.8571 32V34C31.7638 34 34 31.8925 34 29.0023H32ZM28.8571 32H8.14286V34H28.8571V32ZM8.14286 32C6.27292 32 5 30.7213 5 29.0023H3C3 31.8925 5.2362 34 8.14286 34V32ZM5 29.0023V9.01402H3V29.0023H5ZM5 9.01402C5 7.28424 6.28405 5.98305 8.14286 5.98305V3.98305C5.22507 3.98305 3 6.13462 3 9.01402H5Z" fill="#170D67"/>
<rect x="10" y="1" width="2" height="7" rx="1" fill="#170D67"/>
<rect x="25" y="1" width="2" height="7" rx="1" fill="#170D67"/>
<path fill-rule="evenodd" clip-rule="evenodd" d="M3 11H33V13H3V11Z" fill="#170D67"/>
</svg>
