<svg width="128" height="128" viewBox="0 0 128 128" fill="none" xmlns="http://www.w3.org/2000/svg">
<path fill-rule="evenodd" clip-rule="evenodd" d="M19 65C19 59.4772 23.4772 55 29 55H95.093H100C105.523 55 110 59.4772 110 65V110C110 115.523 105.523 120 100 120H29C23.4772 120 19 115.523 19 110V65Z" stroke="white" stroke-width="2"/>
<path d="M69 90.9896L68.5709 90.0863L68 90.3575V90.9896H69ZM60 90.9896H61V90.3575L60.4291 90.0863L60 90.9896ZM68 100.5C68 102.433 66.433 104 64.5 104V106C67.5376 106 70 103.538 70 100.5H68ZM68 90.9896V100.5H70V90.9896H68ZM74 81.5C74 85.2882 71.7828 88.5605 68.5709 90.0863L69.4291 91.8928C73.312 90.0482 76 86.089 76 81.5H74ZM64.5 72C69.7467 72 74 76.2533 74 81.5H76C76 75.1487 70.8513 70 64.5 70V72ZM55 81.5C55 76.2533 59.2533 72 64.5 72V70C58.1487 70 53 75.1487 53 81.5H55ZM60.4291 90.0863C57.2172 88.5605 55 85.2882 55 81.5H53C53 86.089 55.688 90.0482 59.5709 91.8928L60.4291 90.0863ZM61 100.5V90.9896H59V100.5H61ZM64.5 104C62.567 104 61 102.433 61 100.5H59C59 103.538 61.4624 106 64.5 106V104Z" fill="#00E4A5"/>
<path d="M34 56V33.25C34 18.7525 47.6553 7 64.5 7C81.3447 7 95 18.7525 95 33.25V56" stroke="white" stroke-width="2"/>
<path d="M45.1833 36.3167C45.1833 25.6484 53.8317 17 64.5 17V17C75.1683 17 83.8167 25.6484 83.8167 36.3167V55H45.1833V36.3167Z" stroke="white" stroke-width="2"/>
</svg>
