<svg width="120" height="120" viewBox="0 0 120 120" fill="none" xmlns="http://www.w3.org/2000/svg">
<path fill-rule="evenodd" clip-rule="evenodd" d="M12.6285 79.4191L67.0418 54.488L98.4142 70.7037L44.2596 96.9019L12.6285 79.4191Z" stroke="#170D67" stroke-width="2" stroke-linecap="round" stroke-linejoin="round"/>
<path d="M97.8187 76.8371L43.6641 103.035L12.033 85.5525" stroke="#170D67" stroke-width="2" stroke-linecap="round" stroke-linejoin="round"/>
<path d="M97.8648 82.6139L43.7101 108.812L12.079 91.3292" stroke="#170D67" stroke-width="2" stroke-linecap="round" stroke-linejoin="round"/>
<ellipse cx="57.4371" cy="73.4334" rx="11.8225" ry="6.77647" transform="rotate(14 57.4371 73.4334)" stroke="#170D67" stroke-width="1.5"/>
<ellipse cx="44.508" cy="79.4632" rx="2" ry="1.5" transform="rotate(14 44.508 79.4632)" fill="#170D67"/>
<ellipse cx="69.5114" cy="67.1472" rx="2" ry="1.5" transform="rotate(14 69.5114 67.1472)" fill="#170D67"/>
<path fill-rule="evenodd" clip-rule="evenodd" d="M57.9595 52.187V12H69.0143V47.2859L57.9595 52.187Z" stroke="#170D67" stroke-width="2" stroke-linecap="round" stroke-linejoin="round"/>
<path fill-rule="evenodd" clip-rule="evenodd" d="M77.5485 51.8117V19.5294L88.6033 19.5294V57.2837L77.5485 51.8117Z" stroke="#170D67" stroke-width="2" stroke-linecap="round" stroke-linejoin="round"/>
<path fill-rule="evenodd" clip-rule="evenodd" d="M97.1376 62.2446V28.5647L108.192 28.5647V67.7765L97.1376 62.2446Z" stroke="#170D67" stroke-width="2" stroke-linecap="round" stroke-linejoin="round"/>
<path d="M52.603 38.9186C50.5569 38.069 48.3127 37.6 45.9589 37.6C36.3885 37.6 28.6302 45.3534 28.6302 54.9177C28.6302 58.0655 29.4706 61.0173 30.9395 63.561" stroke="#00E4A5" stroke-width="2" stroke-linecap="round" stroke-linejoin="round"/>
<path d="M46.7124 15.0118V31.5765" stroke="#00E4A5" stroke-width="2" stroke-linecap="round" stroke-linejoin="round"/>
<path d="M8.52057 57.1765H22.6028" stroke="#00E4A5" stroke-width="2" stroke-linecap="round" stroke-linejoin="round"/>
<path d="M16.5753 27.0588L27.9018 38.378" stroke="#00E4A5" stroke-width="2" stroke-linecap="round" stroke-linejoin="round"/>
<path fill-rule="evenodd" clip-rule="evenodd" d="M63.4266 72.4518C64.0024 73.2592 64.0433 73.7046 64.0021 74.4224C63.9608 75.1403 63.6931 75.5971 63.0528 76.5934L64.5905 77.8426L63.5955 78.5373L62.1308 77.4878C60.8905 78.053 59.3893 78.3514 58.2222 78.3231L56.6047 77.2619C57.7439 77.1689 58.5204 77.0623 59.2082 76.897C59.896 76.7318 60.5044 76.6292 60.891 76.3201L58.5081 74.4242L57.8288 74.8284C56.9333 75.3454 56.1457 75.6146 55.466 75.6361C54.7864 75.6575 53.6565 75.3074 53.0668 74.8299C52.4359 74.319 52.1162 73.653 52.1075 72.8318C52.0989 72.0106 52.5651 71.0739 53.3161 70.2286L52.1087 69.1551L53.0688 68.5085L54.4513 69.6408C55.2624 69.1773 56.3113 68.8442 57.607 68.8438L58.3763 70.0555C57.4197 70.0446 56.5494 70.252 55.7945 70.6642L58.224 72.6119L58.8452 72.2515C59.8827 71.6526 60.7354 71.4861 61.4553 71.5452C62.1752 71.6042 63.0135 71.8726 63.4266 72.4518ZM61.6993 73.4978C61.4342 73.2831 61.1409 73.199 60.8194 73.2454C60.498 73.2918 60.0813 73.4676 59.5694 73.7726L61.7568 75.5439C62.2853 74.6389 62.2662 73.9568 61.6993 73.4978ZM54.6443 73.2943C54.9914 73.6125 55.3975 73.634 55.7027 73.6123C56.0079 73.5906 56.6287 73.4715 57.0179 73.1638L54.7984 71.4201C54.4495 71.7307 54.2654 72.1398 54.279 72.4689C54.2926 72.798 54.2973 72.9761 54.6443 73.2943Z" fill="#170D67"/>
</svg>
