<?xml version="1.0" encoding="utf-8"?>
<!-- Generator: Adobe Illustrator 27.1.1, SVG Export Plug-In . SVG Version: 6.00 Build 0)  -->
<svg version="1.1" id="Layer_1" xmlns="http://www.w3.org/2000/svg" xmlns:xlink="http://www.w3.org/1999/xlink" x="0px" y="0px"
	 viewBox="0 0 30 30" style="enable-background:new 0 0 30 30;" xml:space="preserve">
<style type="text/css">
	.st0{fill:#170D67;}
</style>
<path class="st0" d="M15,0C6.7,0,0,6.7,0,15c0,8.3,6.7,15,15,15c8.3,0,15-6.7,15-15C30,6.7,23.3,0,15,0z M23,22c0,0.6-0.4,1-1,1
	h-8.4c-0.6,0-1-0.4-1-1s0.4-1,1-1H21v-9.4l-6-4.4l-6,4.4V22c0,0.6-0.4,1-1,1s-1-0.4-1-1V11.1c0-0.3,0.2-0.6,0.4-0.8l7-5.1
	c0.4-0.3,0.8-0.3,1.2,0l7,5.1c0.3,0.2,0.4,0.5,0.4,0.8V22z"/>
</svg>
