<svg width="16" height="16" viewBox="0 0 16 16" fill="none" xmlns="http://www.w3.org/2000/svg">
<circle cx="8.165" cy="8.165" r="6.665" stroke="#170D67" stroke-linecap="round" stroke-linejoin="round"/>
<path fill-rule="evenodd" clip-rule="evenodd" d="M6.6305 6.22408C6.6305 5.5667 7.2511 5.17562 7.92431 5.07832V7.53464C7.1105 7.19711 6.6305 6.87913 6.6305 6.22408M9.84669 9.76564C9.84669 10.4225 9.22609 10.8136 8.55334 10.9114V8.46112C9.36669 8.79866 9.84669 9.11524 9.84669 9.76564M6.6305 9.76563C6.64866 9.55566 6.4764 9.38713 6.29762 9.39691C6.13048 9.40622 5.98336 9.5701 6.00152 9.76563C6.01456 9.92719 6.05506 10.5171 6.54437 10.9659C6.88563 11.2787 7.36656 11.4882 7.92431 11.5478V12.7122C7.9406 12.8779 8.0826 13.0036 8.24555 12.9999C8.40337 12.9967 8.53746 12.8728 8.55329 12.7122V11.5455C9.66878 11.4291 10.4761 10.707 10.4761 9.76331C10.4761 8.60405 9.49652 8.15012 8.55329 7.78512V5.07832C9.22603 5.17236 9.84663 5.5667 9.84663 6.22408C9.85175 6.40565 10.0063 6.54671 10.1781 6.5374C10.3383 6.52902 10.4719 6.39308 10.4761 6.22408C10.4621 6.06159 10.4207 5.47358 9.93276 5.02571C9.5915 4.71192 9.11103 4.50102 8.55329 4.44189V3.27704C8.53234 3.11736 8.39406 2.99771 8.23484 3.00003C8.07841 3.0019 7.94479 3.12061 7.92431 3.27704V4.44375C6.80881 4.56014 6.00152 5.2827 6.00152 6.2264C6.00152 7.39171 6.98293 7.8489 7.92431 8.21809V10.9114C7.2511 10.8169 6.6305 10.4225 6.6305 9.76563" fill="#170D67"/>
<path d="M7.92431 5.07832H8.04931V4.93395L7.90643 4.9546L7.92431 5.07832ZM7.92431 7.53464L7.87642 7.65011L8.04931 7.72181V7.53464H7.92431ZM8.55334 10.9114H8.42834V11.0559L8.57132 11.0351L8.55334 10.9114ZM8.55334 8.46112L8.60126 8.34567L8.42834 8.27391V8.46112H8.55334ZM6.6305 9.76563L6.5055 9.75483V9.76563H6.6305ZM6.29762 9.39691L6.2908 9.27209L6.29067 9.2721L6.29762 9.39691ZM6.00152 9.76563L6.12613 9.75558L6.12599 9.75408L6.00152 9.76563ZM6.54437 10.9659L6.45988 11.058L6.4599 11.058L6.54437 10.9659ZM7.92431 11.5478H8.04931V11.4355L7.93759 11.4235L7.92431 11.5478ZM7.92431 12.7122H7.7987L7.79991 12.7244L7.92431 12.7122ZM8.24555 12.9999L8.24297 12.8749L8.24269 12.875L8.24555 12.9999ZM8.55329 12.7122L8.67829 12.7245V12.7122H8.55329ZM8.55329 11.5455L8.54031 11.4212L8.42829 11.4329V11.5455H8.55329ZM8.55329 7.78512H8.42829V7.87078L8.50818 7.90169L8.55329 7.78512ZM8.55329 5.07832L8.57059 4.95452L8.42829 4.93463V5.07832H8.55329ZM9.84663 6.22408H9.72158L9.72168 6.2276L9.84663 6.22408ZM10.1781 6.5374L10.1716 6.41257L10.1713 6.41258L10.1781 6.5374ZM10.4761 6.22408L10.6018 6.22719L10.6006 6.21337L10.4761 6.22408ZM9.93276 5.02571L9.84815 5.11772L9.84823 5.1178L9.93276 5.02571ZM8.55329 4.44189H8.42829V4.55434L8.54011 4.56619L8.55329 4.44189ZM8.55329 3.27704H8.67829V3.26888L8.67722 3.26078L8.55329 3.27704ZM8.23484 3.00003L8.23633 3.12502L8.23667 3.12502L8.23484 3.00003ZM7.92431 3.27704L7.80037 3.26081L7.79931 3.2689V3.27704H7.92431ZM7.92431 4.44375L7.93728 4.56808L8.04931 4.55639V4.44375H7.92431ZM7.92431 8.21809H8.04931V8.13285L7.96995 8.10172L7.92431 8.21809ZM7.92431 10.9114L7.90693 11.0352L8.04931 11.0552V10.9114H7.92431ZM6.7555 6.22408C6.7555 5.93986 6.88792 5.71147 7.1032 5.53865C7.32098 5.36382 7.62182 5.24834 7.94219 5.20203L7.90643 4.9546C7.55359 5.0056 7.20753 5.13431 6.9467 5.34369C6.68338 5.55508 6.5055 5.85092 6.5055 6.22408H6.7555ZM7.79931 5.07832V7.53464H8.04931V5.07832H7.79931ZM7.9722 7.41918C7.56655 7.25093 7.26105 7.09391 7.05676 6.90635C6.8592 6.72497 6.7555 6.51446 6.7555 6.22408H6.5055C6.5055 6.58875 6.6418 6.86475 6.88769 7.09051C7.12685 7.31009 7.46826 7.48082 7.87642 7.65011L7.9722 7.41918ZM9.72169 9.76564C9.72169 10.0496 9.58929 10.2779 9.37403 10.4507C9.15629 10.6256 8.85553 10.7412 8.53537 10.7877L8.57132 11.0351C8.9239 10.9839 9.26982 10.855 9.53056 10.6457C9.79378 10.4343 9.97169 10.1386 9.97169 9.76564H9.72169ZM8.67834 10.9114V8.46112H8.42834V10.9114H8.67834ZM8.50543 8.57657C8.91092 8.74485 9.21639 8.90156 9.42068 9.08832C9.61823 9.26891 9.72169 9.47789 9.72169 9.76564H9.97169C9.97169 9.40298 9.83514 9.12848 9.58936 8.9038C9.35031 8.68527 9.00912 8.51493 8.60126 8.34567L8.50543 8.57657ZM6.75504 9.7764C6.77941 9.49452 6.54926 9.25796 6.2908 9.27209L6.30445 9.52172C6.40354 9.5163 6.5179 9.61681 6.50597 9.75487L6.75504 9.7764ZM6.29067 9.2721C6.0487 9.28558 5.85273 9.51527 5.87706 9.77719L6.12599 9.75408C6.11399 9.62493 6.21227 9.52686 6.30457 9.52171L6.29067 9.2721ZM5.87693 9.77569C5.89014 9.93944 5.93225 10.574 6.45988 11.058L6.62886 10.8737C6.17788 10.4601 6.13897 9.91493 6.12612 9.75558L5.87693 9.77569ZM6.4599 11.058C6.82361 11.3914 7.33071 11.6101 7.91103 11.6721L7.93759 11.4235C7.40241 11.3663 6.94766 11.166 6.62884 10.8737L6.4599 11.058ZM7.79931 11.5478V12.7122H8.04931V11.5478H7.79931ZM7.79991 12.7244C7.82252 12.9544 8.01925 13.1301 8.2484 13.1249L8.24269 12.875C8.14595 12.8772 8.05869 12.8015 8.04871 12.7L7.79991 12.7244ZM8.24813 13.1249C8.46999 13.1203 8.65572 12.9473 8.67768 12.7245L8.42889 12.6999C8.4192 12.7983 8.33676 12.873 8.24297 12.8749L8.24813 13.1249ZM8.67829 12.7122V11.5455H8.42829V12.7122H8.67829ZM8.56626 11.6698C9.72312 11.5491 10.6011 10.7912 10.6011 9.76331H10.3511C10.3511 10.6228 9.61445 11.3091 8.54031 11.4212L8.56626 11.6698ZM10.6011 9.76331C10.6011 9.14127 10.3354 8.7046 9.94868 8.38056C9.5682 8.06172 9.06933 7.85078 8.5984 7.66854L8.50818 7.90169C8.98048 8.08446 9.44301 8.28298 9.78811 8.57217C10.127 8.85616 10.3511 9.22608 10.3511 9.76331H10.6011ZM8.67829 7.78512V5.07832H8.42829V7.78512H8.67829ZM8.53598 5.20212C8.85567 5.2468 9.15621 5.36219 9.37387 5.53733C9.58911 5.71053 9.72163 5.93976 9.72163 6.22408H9.97163C9.97163 5.85101 9.79384 5.55438 9.5306 5.34256C9.26978 5.13268 8.92365 5.00388 8.57059 4.95452L8.53598 5.20212ZM9.72168 6.2276C9.72873 6.47765 9.94109 6.67543 10.1849 6.66222L10.1713 6.41258C10.0715 6.41799 9.97477 6.33365 9.97158 6.22055L9.72168 6.2276ZM10.1846 6.66223C10.4114 6.65036 10.5953 6.46001 10.601 6.22717L10.3511 6.22098C10.3485 6.32614 10.2651 6.40768 10.1716 6.41257L10.1846 6.66223ZM10.6006 6.21337C10.5865 6.0492 10.5434 5.41654 10.0173 4.93362L9.84823 5.1178C10.298 5.53062 10.3377 6.07399 10.3515 6.23478L10.6006 6.21337ZM10.0174 4.9337C9.65378 4.59937 9.14713 4.37914 8.56646 4.31759L8.54011 4.56619C9.07494 4.62289 9.52922 4.82446 9.84815 5.11772L10.0174 4.9337ZM8.67829 4.44189V3.27704H8.42829V4.44189H8.67829ZM8.67722 3.26078C8.64809 3.03869 8.45618 2.87178 8.23301 2.87505L8.23667 3.12502C8.33194 3.12363 8.41659 3.19602 8.42935 3.29331L8.67722 3.26078ZM8.23335 2.87504C8.01438 2.87765 7.82888 3.04306 7.80037 3.26081L8.04825 3.29328C8.0607 3.19817 8.14243 3.12614 8.23633 3.12502L8.23335 2.87504ZM7.79931 3.27704V4.44375H8.04931V3.27704H7.79931ZM7.91134 4.31943C6.75443 4.44014 5.87652 5.19855 5.87652 6.2264H6.12652C6.12652 5.36686 6.86319 4.68015 7.93728 4.56808L7.91134 4.31943ZM5.87652 6.2264C5.87652 6.85128 6.14252 7.2902 6.52932 7.61635C6.90994 7.9373 7.40876 8.15017 7.87867 8.33446L7.96995 8.10172C7.49848 7.91682 7.03591 7.7165 6.69048 7.42523C6.35123 7.13917 6.12652 6.76683 6.12652 6.2264H5.87652ZM7.79931 8.21809V10.9114H8.04931V8.21809H7.79931ZM7.94169 10.7876C7.62172 10.7427 7.32104 10.6272 7.1033 10.452C6.88798 10.2788 6.7555 10.0497 6.7555 9.76563H6.5055C6.5055 10.1385 6.68332 10.435 6.9466 10.6468C7.20747 10.8567 7.55368 10.9856 7.90693 11.0352L7.94169 10.7876Z" fill="#170D67"/>
</svg>
