<svg width="32" height="32" viewBox="0 0 32 32" fill="none" xmlns="http://www.w3.org/2000/svg">
<path fill-rule="evenodd" clip-rule="evenodd" d="M17.3005 16.3926C19.1002 16.715 20 17.4941 20 18.73C20 19.4592 19.7012 20.0436 19.1037 20.483C18.5061 20.9225 17.4322 21.2273 17 21.2573V23H15V21.2631C14.611 21.2442 13.5829 20.9685 12.9525 20.5406C12.3222 20.1126 12.0047 19.5456 12 18.8394H14.0105C14.034 19.1387 14.1863 19.3901 14.4675 19.5936C14.7487 19.797 15.1119 19.9179 15.5571 19.9562C15.5571 19.9562 16.9112 20.1838 17.6239 19.6511C17.8787 19.4607 18.0105 19.2213 18.0105 18.9142C18.0105 18.634 17.8998 18.4286 17.652 18.2349C17.2628 17.9306 15.5571 17.711 15.5571 17.711L14.812 17.5671C13.9637 17.4059 13.3181 17.1286 12.8752 16.7352C12.4323 16.3418 12.2109 15.8457 12.2109 15.247C12.2109 14.5408 12.5142 13.978 13.0931 13.54C13.6721 13.102 14.7302 12.8064 15 12.7887V11H17V12.7945C17.3865 12.8231 18.3805 13.0787 18.9069 13.5573C19.4332 14.0359 19.7961 14.5427 19.8102 15.2067H17.8559C17.8465 14.9342 17.72 14.6962 17.4763 14.4928C17.244 14.2989 16.9528 14.1699 16.6007 14.1308C15.5016 14.0087 14.873 14.2206 14.6116 14.4208C14.3502 14.6211 14.2425 14.8305 14.2425 15.1031C14.2425 15.804 15.6666 16.1054 16.5483 16.2694L17.3005 16.3926Z" fill="#170D67"/>
<path d="M4.44444 28H27.5556C28.3533 28 29 27.3284 29 26.5C29 25.6716 28.3533 25 27.5556 25H4.44444C3.6467 25 3 25.6716 3 26.5C3 27.3284 3.6467 28 4.44444 28Z" fill="#170D67"/>
<rect x="4" y="11" width="2" height="12" rx="1" fill="#170D67"/>
<rect x="22" y="11" width="2" height="12" rx="1" fill="#170D67"/>
<rect x="8" y="11" width="2" height="12" rx="1" fill="#170D67"/>
<rect x="26" y="11" width="2" height="12" rx="1" fill="#170D67"/>
<path d="M3 9V7L16 2L29 7V9H3Z" fill="#170D67"/>
</svg>
