<svg width="128" height="128" viewBox="0 0 128 128" fill="none" xmlns="http://www.w3.org/2000/svg">
<path d="M80.6879 80.4788C80.6879 87.7795 80.6879 93.7902 80.6879 98.511C80.6879 99.8869 79.5509 102.639 76.2061 102.64C70.2316 102.641 61.871 102.643 60.284 102.647V78.7582H40.3205L40.155 102.639H24.7521C22.1065 102.639 19.9618 100.928 19.9618 98.8167V59.6389L46.444 33.2331C48.315 31.3675 51.348 31.3679 53.2185 33.234C53.2413 33.2568 53.264 33.2799 53.2864 33.3032L80.6879 59.6389C80.6879 63.6013 80.6879 66.4276 80.6879 68.1178" stroke="#170D67" stroke-width="2" stroke-linecap="round" stroke-linejoin="round"/>
<path d="M89.2665 59.2927L55.3222 26.9452C53.8174 25.5495 51.9829 24.8334 49.577 24.8334C47.1711 24.8334 45.4599 25.9258 44.4376 26.9452C33.6252 37.7276 12 59.2927 12 59.2927" stroke="#170D67" stroke-width="2" stroke-linecap="round" stroke-linejoin="round"/>
<path d="M70.8694 31.8002C71.4416 31.2297 72.2997 30.374 73.444 29.2331C75.315 27.3675 78.348 27.3679 80.2185 29.234C80.2413 29.2568 80.264 29.2799 80.2864 29.3032L107.688 55.6389C107.688 72.9154 107.688 84.8727 107.688 93.511C107.688 94.8869 106.551 97.639 103.206 97.6396C97.2316 97.6408 88.871 97.6433 87.284 97.6471" stroke="#170D67" stroke-width="2" stroke-linecap="round" stroke-linejoin="round"/>
<path d="M116.267 56.2927L82.3222 23.9452C80.8174 22.5495 78.9829 21.8334 76.577 21.8334C74.1711 21.8334 72.4599 22.9258 71.4376 23.9452C69.9859 25.3928 68.388 26.9863 66.644 28.7255" stroke="#170D67" stroke-width="2" stroke-linecap="round" stroke-linejoin="round"/>
<path d="M67.4118 74.5H94.5882" stroke="#00E4A5" stroke-width="2" stroke-linecap="round" stroke-linejoin="round"/>
<path d="M89.5551 67.2927L96.7624 74.5L89.5551 81.7073" stroke="#00E4A5" stroke-width="2" stroke-linecap="round" stroke-linejoin="round"/>
</svg>
