<svg width="40" height="40" viewBox="0 0 40 40" fill="none" xmlns="http://www.w3.org/2000/svg">
<circle cx="20" cy="20" r="16" stroke="#170D67" stroke-width="2"/>
<path fill-rule="evenodd" clip-rule="evenodd" d="M15 13C15 15.7614 17.2386 18 20 18C22.7614 18 25 15.7614 25 13C25 10.2386 22.7614 8 20 8C17.2386 8 15 10.2386 15 13ZM23 13C23 14.6569 21.6569 16 20 16C18.3431 16 17 14.6569 17 13C17 11.3431 18.3431 10 20 10C21.6569 10 23 11.3431 23 13ZM29 28C29 28.5523 28.5523 29 28 29H12C11.4477 29 11 28.5523 11 28C11 22.6368 14.8291 19 20 19C25.1709 19 29 22.6368 29 28ZM20 21C23.7574 21 26.5204 23.335 26.9436 27H13.0564C13.4796 23.335 16.2426 21 20 21Z" fill="#170D67"/>
</svg>
