<svg width="40" height="40" viewBox="0 0 40 40" fill="none" xmlns="http://www.w3.org/2000/svg">
<path fill-rule="evenodd" clip-rule="evenodd" d="M20 8C20.5523 8 21 7.55228 21 7V3C21 2.44772 20.5523 2 20 2C19.4477 2 19 2.44772 19 3V7C19 7.55228 19.4477 8 20 8ZM23 32.7071H25C25 32.5304 24.9749 31.9032 24.9762 31.9468C24.9545 31.2131 25.0404 30.8803 25.3139 30.6552C25.5928 30.4257 25.8464 30.2494 26.3308 29.9368C26.6435 29.7349 26.6455 29.7337 26.7602 29.6575C27.2613 29.325 27.6278 29.0412 27.981 28.6881C32.472 24.197 32.472 16.9157 27.981 12.4246C23.4899 7.93359 16.2085 7.93359 11.7175 12.4246C7.22649 16.9157 7.22649 24.197 11.7175 28.6881C12.0662 29.0368 12.4288 29.3262 12.885 29.6369C12.9973 29.7134 13.1137 29.7903 13.2577 29.8836C13.3009 29.9115 13.4101 29.9819 13.4995 30.0395L13.5011 30.0406L13.6243 30.12C13.9938 30.3588 14.2442 30.5296 14.5067 30.7271C14.7753 30.9293 14.9351 31.3201 14.9868 31.8758C15.0003 32.0207 15.0057 32.1683 15.0054 32.3308C15.0053 32.3776 15.0036 32.4788 15.0021 32.5653L15.0021 32.5655V32.5655C15.001 32.6315 15 32.6889 15 32.7071H17L17.001 32.6461L17.001 32.6459C17.0025 32.5616 17.0052 32.4123 17.0054 32.335C17.0059 32.1137 16.9981 31.9049 16.9782 31.6905C16.8794 30.6284 16.5139 29.7346 15.7093 29.1291C15.4017 28.8976 15.1161 28.7028 14.7102 28.4404L14.5802 28.3566C14.4916 28.2995 14.3859 28.2315 14.3454 28.2052C14.2131 28.1195 14.1087 28.0505 14.0109 27.9839C13.6504 27.7384 13.3821 27.5242 13.1317 27.2739C9.42175 23.5639 9.42175 17.5488 13.1317 13.8388C16.8417 10.1289 22.8568 10.1289 26.5668 13.8388C30.2767 17.5488 30.2767 23.5639 26.5668 27.2739C26.3231 27.5175 26.054 27.7259 25.6543 27.9911C25.5502 28.0602 25.5483 28.0614 25.2462 28.2564C24.7012 28.6082 24.3969 28.8196 24.0429 29.111C23.1657 29.8331 22.9388 30.7116 22.9771 32.0059C22.9769 32 23 32.5775 23 32.7071ZM9.70711 11.2929C10.0976 11.6834 10.0976 12.3166 9.70711 12.7071C9.31658 13.0976 8.68342 13.0976 8.29289 12.7071L5.29289 9.70711C4.90237 9.31658 4.90237 8.68342 5.29289 8.29289C5.68342 7.90237 6.31658 7.90237 6.70711 8.29289L9.70711 11.2929ZM34.7071 8.29289C34.3166 7.90237 33.6834 7.90237 33.2929 8.29289L30.2929 11.2929C29.9024 11.6834 29.9024 12.3166 30.2929 12.7071C30.6834 13.0976 31.3166 13.0976 31.7071 12.7071L34.7071 9.70711C35.0976 9.31658 35.0976 8.68342 34.7071 8.29289Z" fill="#170D67"/>
<path d="M16 39C15.4477 39 15 38.5523 15 38C15 37.4477 15.4477 37 16 37H24C24.5523 37 25 37.4477 25 38C25 38.5523 24.5523 39 24 39H16Z" fill="#170D67"/>
<path d="M24.2407 18.3492C24.6002 17.9299 25.2315 17.8813 25.6508 18.2407C26.0701 18.6002 26.1187 19.2315 25.7593 19.6508L19.0565 27.4707L15.2929 23.7071C14.9024 23.3166 14.9024 22.6834 15.2929 22.2929C15.6834 21.9024 16.3166 21.9024 16.7071 22.2929L18.9435 24.5293L24.2407 18.3492Z" fill="#170D67"/>
<path d="M16 36C15.4477 36 15 35.5523 15 35C15 34.4477 15.4477 34 16 34H24C24.5523 34 25 34.4477 25 35C25 35.5523 24.5523 36 24 36H16Z" fill="#170D67"/>
</svg>
