<svg width="250" height="100" viewBox="0 0 250 100" fill="none" xmlns="http://www.w3.org/2000/svg">
<g id="Opco=ACE, Color=Inverse">
<g id="Group 14">
<path id="Fill 1" fill-rule="evenodd" clip-rule="evenodd" d="M58.1542 95.1864H61.8574C61.1946 93.2467 60.5189 91.496 60.0054 90.3422C59.4922 91.496 58.8161 93.2467 58.1542 95.1864ZM62.1409 96.0414H57.8702C57.5598 96.9646 57.2625 97.9007 56.9919 98.8377H55.9921C57.0462 95.4178 58.1674 92.2015 59.4922 89.3386H60.5057C61.83 92.2015 62.9786 95.3774 64.0194 98.8377H63.0192C62.749 97.9007 62.4518 96.9646 62.1409 96.0414Z" fill="white"/>
<g id="Group 5">
<mask id="mask0_237_1293" style="mask-type:alpha" maskUnits="userSpaceOnUse" x="57" y="7" width="193" height="92">
<path id="Clip 4" fill-rule="evenodd" clip-rule="evenodd" d="M57.4053 7.79501H250V99H57.4053V7.79501Z" fill="white"/>
</mask>
<g mask="url(#mask0_237_1293)">
<path id="Fill 3" fill-rule="evenodd" clip-rule="evenodd" d="M179.097 52.8467L178.283 56.1592C176.736 55.5045 174.984 55.0958 173.396 55.0958C169.405 55.0958 167.247 57.9995 167.247 62.4981C167.247 67.2826 169.527 69.8592 173.804 69.8592C175.31 69.8592 176.98 69.4505 178.487 68.7142L179.22 72.0674C177.794 72.8033 175.718 73.3355 173.518 73.3355C166.839 73.3355 163.052 69.2865 163.052 62.5793C163.052 55.9956 166.717 51.6202 173.111 51.6202C175.432 51.6202 177.591 52.1513 179.097 52.8467ZM155.335 72.8441H159.448V52.1101H155.335V72.8441ZM154.806 45.9767C154.806 44.5455 155.742 43.5221 157.371 43.5221C158.96 43.5221 159.896 44.5455 159.896 45.9767C159.896 47.4888 158.96 48.5117 157.371 48.5117C155.742 48.5117 154.806 47.4888 154.806 45.9767ZM149.85 51.6202C150.991 51.6202 152.008 51.7426 152.741 51.9058L152.171 55.3821C151.56 55.1778 150.787 55.0958 150.135 55.0958C148.099 55.0958 146.551 55.5453 145.411 56.1592V72.8441H141.298V53.5826C143.415 52.3972 146.714 51.6202 149.85 51.6202ZM128.71 72.8441V55.4641H125.778V52.1101H128.71V47.3672L132.823 47.1629V52.1101H137.914V55.4641H132.823V72.8441H128.71ZM123.93 52.8467L123.115 56.1592C121.568 55.5045 119.817 55.0958 118.228 55.0958C114.237 55.0958 112.079 57.9995 112.079 62.4981C112.079 67.2826 114.36 69.8592 118.636 69.8592C120.143 69.8592 121.812 69.4505 123.319 68.7142L124.052 72.0674C122.627 72.8033 120.55 73.3355 118.351 73.3355C111.672 73.3355 107.884 69.2865 107.884 62.5793C107.884 55.9956 111.55 51.6202 117.943 51.6202C120.265 51.6202 122.423 52.1513 123.93 52.8467ZM91.2778 60.7797H101.256C101.296 60.5345 101.296 60.371 101.296 60.1258C101.296 57.3861 99.871 55.0146 96.7348 55.0146C93.5585 55.0146 91.6446 57.2637 91.2778 60.7797ZM104.758 71.9035C102.844 72.8033 100.4 73.3355 97.7531 73.3355C91.2778 73.3355 87.0019 69.3685 87.0019 62.4577C87.0019 56.0772 90.7891 51.6202 96.7348 51.6202C102.111 51.6202 105.287 55.5045 105.287 60.6985C105.287 61.7614 105.206 62.662 105.124 63.4383H91.2376C91.6446 67.8136 94.1284 69.8176 98.1195 69.8176C100.156 69.8176 102.233 69.3277 104.066 68.5507L104.758 71.9035ZM79.5223 72.8441V43.4817L83.6353 43.2358V72.8441H79.5223ZM61.8851 60.7797H71.863C71.9032 60.5345 71.9032 60.371 71.9032 60.1258C71.9032 57.3861 70.4783 55.0146 67.3422 55.0146C64.1658 55.0146 62.2519 57.2637 61.8851 60.7797ZM75.3647 71.9035C73.4507 72.8033 71.0071 73.3355 68.3605 73.3355C61.8851 73.3355 57.6088 69.3685 57.6088 62.4577C57.6088 56.0772 61.3961 51.6202 67.3422 51.6202C72.7176 51.6202 75.8943 55.5045 75.8943 60.6985C75.8943 61.7614 75.8127 62.662 75.7311 63.4383H61.8445C62.2519 67.8136 64.7357 69.8176 68.7268 69.8176C70.7634 69.8176 72.8402 69.3277 74.6729 68.5507L75.3647 71.9035ZM232.733 44.9679L232.04 41.4112C234.688 40.8789 237.416 39.2025 239.004 36.5439C234.647 30.3277 232.285 24.5211 231.43 16.6693H235.584C236.235 23.6621 238.353 28.6101 241.163 33.3546C243.729 28.2014 245.276 23.6621 245.887 16.6693H250C249.186 24.0708 246.701 30.4097 243.443 36.2576C240.349 41.6967 236.765 44.1501 232.733 44.9679ZM220.166 37.4033V20.0226H217.234V16.6693H220.166V11.9248L224.279 11.7201V16.6693H229.37V20.0226H224.279V37.4025L220.166 37.4033ZM210.507 37.4033H214.62V16.6693H210.507V37.4033ZM209.977 10.534C209.977 9.1031 210.914 8.08054 212.542 8.08054C214.131 8.08054 215.067 9.1031 215.067 10.534C215.067 12.048 214.131 13.0702 212.542 13.0702C210.914 13.0702 209.977 12.048 209.977 10.534ZM207.383 17.4052L206.569 20.7176C205.021 20.0629 203.27 19.6542 201.682 19.6542C197.691 19.6542 195.533 22.5576 195.533 27.0557C195.533 31.8406 197.813 34.4176 202.089 34.4176C203.596 34.4176 205.266 34.0085 206.773 33.2718L207.506 36.6259C206.08 37.3617 204.003 37.8932 201.804 37.8932C195.125 37.8932 191.338 33.8449 191.338 27.1385C191.338 20.5536 195.003 16.1774 201.397 16.1774C203.718 16.1774 205.877 16.7097 207.383 17.4052ZM179.488 17.4052L178.674 20.7176C177.126 20.0629 175.375 19.6542 173.787 19.6542C169.796 19.6542 167.637 22.5576 167.637 27.0557C167.637 31.8406 169.918 34.4176 174.194 34.4176C175.701 34.4176 177.371 34.0085 178.877 33.2718L179.61 36.6259C178.185 37.3617 176.108 37.8932 173.909 37.8932C167.23 37.8932 163.443 33.8449 163.443 27.1385C163.443 20.5536 167.108 16.1774 173.502 16.1774C175.823 16.1774 177.981 16.7097 179.488 17.4052ZM155.726 37.4033H159.839V16.6693H155.726V37.4033ZM155.196 10.534C155.196 9.1031 156.133 8.08054 157.762 8.08054C159.35 8.08054 160.287 9.1031 160.287 10.534C160.287 12.048 159.35 13.0702 157.762 13.0702C156.133 13.0702 155.196 12.048 155.196 10.534ZM143.139 37.4025V20.0226H140.206V16.6693H143.139V11.9248L147.252 11.7201V16.6693H152.342V20.0226H147.252V37.4033L143.139 37.4025ZM120.395 37.4033V18.1006C122.919 16.9141 126.137 16.1774 129.272 16.1774C134.974 16.1774 137.987 19.082 137.987 24.0708V37.4033H133.874V24.3571C133.874 21.3714 132.367 19.6542 129.272 19.6542C127.562 19.6542 125.892 20.0226 124.508 20.7176V37.4033H120.395ZM111.7 33.9265V28.5698C110.561 28.283 109.298 28.0787 107.873 28.0787C105.348 28.0787 103.474 28.9785 103.474 31.5139C103.474 33.681 105.022 34.7859 107.751 34.7859C109.624 34.7859 110.927 34.3768 111.7 33.9265ZM107.384 37.8932C102.049 37.8932 99.361 35.2758 99.361 31.677C99.361 27.424 102.741 25.3389 107.384 25.3389C108.769 25.3389 110.438 25.5029 111.7 25.7884V24.0708C111.7 21.2079 110.153 19.6542 106.936 19.6542C105.022 19.6542 103.067 20.0226 101.478 20.6772L100.664 17.3636C102.334 16.6693 104.941 16.1774 107.343 16.1774C112.923 16.1774 115.733 19.082 115.733 24.2752V36.0124C114.022 36.9942 111.212 37.8932 107.384 37.8932ZM91.1567 37.4033V8.04015L95.2697 7.79501V37.4017L91.1567 37.4033ZM78.9275 37.4025V20.0226H75.9953V16.6693H78.9275V11.9248L83.0405 11.7201V16.6693H88.1312V20.0226H83.0405V37.4025H78.9275ZM69.7447 33.9265V28.5698C68.6046 28.283 67.3422 28.0787 65.9169 28.0787C63.3916 28.0787 61.5187 28.9785 61.5187 31.5139C61.5187 33.681 63.0663 34.7859 65.7946 34.7859C67.6679 34.7859 68.9714 34.3768 69.7447 33.9265ZM65.4282 37.8932C60.093 37.8932 57.4053 35.2758 57.4053 31.677C57.4053 27.424 60.7852 25.3389 65.4282 25.3389C66.8125 25.3389 68.4823 25.5029 69.7447 25.7884V24.0708C69.7447 21.2079 68.1972 19.6542 64.9802 19.6542C63.0663 19.6542 61.1113 20.0226 59.5232 20.6772L58.7088 17.3636C60.3782 16.6693 62.9846 16.1774 65.3872 16.1774C70.9669 16.1774 73.7769 19.082 73.7769 24.2752V36.0124C72.0665 36.9942 69.2565 37.8932 65.4282 37.8932ZM189.813 47.1851V51.4252H189.222V48.9721C189.222 48.7177 189.234 48.4815 189.252 48.2634C188.908 49.0505 188.474 49.8562 187.913 50.7346H187.4C186.834 49.8562 186.399 49.0448 186.043 48.2569C186.067 48.4693 186.08 48.7113 186.08 48.9721V51.4252H185.494V47.1851H186.146C186.556 48.1967 187.039 49.1115 187.66 50.105C188.275 49.1115 188.746 48.1967 189.156 47.1851H189.813ZM182.116 50.7107C182.399 50.8194 182.798 50.9405 183.244 50.9405C183.787 50.9405 184.107 50.7346 184.107 50.3105C184.107 49.8324 183.745 49.6866 183.148 49.4931C182.448 49.2629 182.02 48.954 182.02 48.2694C182.02 47.5243 182.538 47.112 183.419 47.112C183.805 47.112 184.222 47.2033 184.487 47.3123L184.36 47.8389C184.076 47.7424 183.769 47.6693 183.455 47.6693C182.918 47.6693 182.659 47.8692 182.659 48.2513C182.659 48.6628 182.931 48.8025 183.455 48.9782C184.179 49.2201 184.746 49.4749 184.746 50.3049C184.746 51.1287 184.094 51.4983 183.268 51.4983C182.762 51.4983 182.297 51.3949 181.995 51.262L182.116 50.7107ZM195.169 94.834C193.736 92.9205 192.723 91.2926 191.926 89.3383H192.952C193.628 90.9945 194.411 92.297 195.669 94.0206C196.912 92.3107 197.682 90.9945 198.357 89.3383H199.385C198.561 91.2926 197.574 92.9343 196.141 94.8069V98.8378H195.169V94.834ZM182.883 98.8378V89.3383H183.829C185.477 92.297 187.099 94.7116 189.085 97.4667C189.058 97.1142 189.045 96.68 189.045 96.1776V89.3383H189.963V98.8378H189.018C186.95 96.0548 185.247 93.708 183.761 90.9529C183.788 91.415 183.802 91.944 183.802 92.4726V98.8378H182.883ZM174.989 95.1866H178.692C178.029 93.2468 177.354 91.4961 176.84 90.3423C176.327 91.4961 175.651 93.2468 174.989 95.1866ZM178.975 96.0415H174.705C174.394 96.9647 174.097 97.9009 173.826 98.8378H172.827C173.881 95.418 175.003 92.2017 176.327 89.3383H177.34C178.665 92.2017 179.813 95.3772 180.854 98.8378H179.854C179.583 97.9009 179.286 96.9647 178.975 96.0415ZM168.187 90.1933H166.876V94.5493H168.187C169.849 94.5493 170.957 94.0477 170.957 92.3782C170.957 90.709 169.849 90.1933 168.187 90.1933ZM165.903 89.3383H168.201C170.484 89.3383 171.957 90.2611 171.957 92.3782C171.957 94.4956 170.484 95.4042 168.201 95.4042H166.876V98.8378H165.903V89.3383ZM162.959 89.3383V98.8378H162.04V92.5134C162.04 91.9711 162.067 91.4828 162.08 91.062C161.215 93.07 160.134 95.1054 158.688 97.3856H157.851C156.405 95.1054 155.31 93.0429 154.432 91.0482C154.473 91.4691 154.486 91.9711 154.486 92.5134V98.8378H153.567V89.3383H154.58C155.554 91.7267 156.783 94.0061 158.283 96.4216C159.77 94.0061 160.986 91.7267 161.945 89.3383H162.959ZM147.088 98.1181C149.182 98.1181 150.061 96.327 150.061 94.0881C150.061 91.8495 149.182 90.0576 147.088 90.0576C144.979 90.0576 144.128 91.8495 144.128 94.0881C144.128 96.327 145.006 98.1181 147.088 98.1181ZM147.088 99.0002C144.399 99.0002 143.115 96.8424 143.115 94.0881C143.115 91.333 144.372 89.1756 147.088 89.1756C149.79 89.1756 151.074 91.333 151.074 94.0881C151.074 96.8424 149.79 99.0002 147.088 99.0002ZM135.136 94.1963C135.136 91.333 136.487 89.1756 139.352 89.1756C140.15 89.1756 140.947 89.3521 141.663 89.6501L141.42 90.4917C140.785 90.2611 140.163 90.0576 139.365 90.0576C137.068 90.0576 136.15 91.9032 136.15 94.1963C136.15 96.5306 137.19 98.1181 139.433 98.1181C140.325 98.1181 140.974 97.8738 141.527 97.6299L141.73 98.4711C141.176 98.7558 140.325 99.0002 139.406 99.0002C136.609 99.0002 135.136 97.0875 135.136 94.1963ZM121.702 98.8378V89.3383H122.649C124.297 92.297 125.919 94.7116 127.905 97.4667C127.878 97.1142 127.864 96.68 127.864 96.1776V89.3383H128.783V98.8378H127.838C125.77 96.0548 124.067 93.708 122.581 90.9529C122.608 91.415 122.621 91.944 122.621 92.4726V98.8378H121.702ZM115.223 98.1181C117.318 98.1181 118.196 96.327 118.196 94.0881C118.196 91.8495 117.318 90.0576 115.223 90.0576C113.115 90.0576 112.264 91.8495 112.264 94.0881C112.264 96.327 113.142 98.1181 115.223 98.1181ZM115.223 99.0002C112.535 99.0002 111.25 96.8424 111.25 94.0881C111.25 91.333 112.507 89.1756 115.223 89.1756C117.926 89.1756 119.21 91.333 119.21 94.0881C119.21 96.8424 117.926 99.0002 115.223 99.0002ZM104.474 89.3383H105.447V97.9829H109.934V98.8378H104.474V89.3383ZM102.251 98.8378H96.7373V89.3383H102.251V90.1933H97.7101V93.5316H101.602V94.3865H97.7101V97.9829H102.251V98.8378ZM90.8092 94.5493C89.9442 95.7297 88.9444 97.2765 88.2281 98.8378H87.2014C87.9579 97.1142 89.1201 95.418 90.35 93.8567L87.3904 89.3383H88.5121L91.0932 93.2739C92.1199 91.9981 92.9983 90.587 93.4986 89.3383H94.5116C93.877 90.9126 92.8229 92.4593 91.5392 93.952L94.728 98.8378H93.62L90.8092 94.5493ZM85.4817 98.8378H79.9679V89.3383H85.4817V90.1933H80.9412V93.5316H84.833V94.3865H80.9412V97.9829H85.4817V98.8378ZM66.048 98.8378V89.3383H66.9943C68.6428 92.297 70.2643 94.7116 72.2507 97.4667C72.2237 97.1142 72.2104 96.68 72.2104 96.1776V89.3383H73.129V98.8378H72.1835C70.1159 96.0548 68.4131 93.708 66.9263 90.9529C66.9537 91.415 66.9673 91.944 66.9673 92.4726V98.8378H66.048Z" fill="white"/>
</g>
</g>
<path id="Fill 6" fill-rule="evenodd" clip-rule="evenodd" d="M6.61271 32.6885C9.33421 33.5588 11.1444 35.7679 12.147 39.4418C12.9196 42.274 14.5656 44.1608 16.7816 44.7549C19.4914 45.4814 22.6557 44.215 25.6925 41.1889C29.2626 37.6313 31.7918 37.452 34.4699 37.2622C35.9105 37.16 37.4001 37.0546 39.1299 36.3898C41.1797 35.6023 42.418 34.5256 42.9155 33.0988C43.8421 30.4415 42.0625 27.0531 39.9941 23.5234C38.7393 21.3818 38.3798 19.2934 38.7924 16.5411C39.3297 12.9569 38.4216 9.70508 36.3637 7.8425C34.4554 6.11521 31.7114 5.6532 28.4277 6.50614C27.6591 6.70605 26.9059 6.79328 26.1711 6.79328C23.1978 6.79368 20.5214 5.36444 18.2833 4.16943C16.4482 3.18968 14.8637 2.34441 13.8972 2.7838C13.3632 3.02652 12.9791 3.67511 12.7229 4.76633C10.9988 12.1121 9.46612 14.3107 7.40137 15.6252C2.62197 18.6683 0.248758 22.3583 0.718494 26.016C1.10257 29.0021 3.47095 31.6837 6.61271 32.6885ZM18.3211 45.6163C17.7384 45.6163 17.1673 45.5428 16.6119 45.3938C14.1603 44.7367 12.3493 42.6847 11.512 39.6162C10.5729 36.1758 8.90509 34.1157 6.41283 33.3185C3.03218 32.2374 0.481615 29.3365 0.0657699 26.1008C-0.615106 20.8022 4.14861 16.9131 7.04867 15.0667C8.92158 13.8745 10.4169 11.7098 12.0822 4.61448C12.3883 3.31043 12.893 2.51483 13.6258 2.18165C14.8874 1.60777 16.5222 2.48051 18.5922 3.58545C21.2831 5.02197 24.632 6.80984 28.2628 5.86603C32.6943 4.71504 35.3535 6.03807 36.8045 7.35141C39.0273 9.36301 40.0138 12.835 39.4436 16.6393C39.0555 19.2296 39.3897 21.1883 40.5616 23.1882C42.7116 26.8572 44.5568 30.3926 43.5368 33.3173C42.9794 34.9166 41.5759 36.158 39.3651 37.0073C37.5441 37.7072 36.005 37.8163 34.5162 37.9217C31.9636 38.1026 29.5526 38.2734 26.1562 41.6581C23.5518 44.2533 20.8287 45.6163 18.3211 45.6163Z" fill="url(#paint0_linear_237_1293)"/>
<path id="Fill 8" fill-rule="evenodd" clip-rule="evenodd" d="M12.1225 7.49991C10.1389 13.1902 8.90951 15.6667 7.25055 17.3136C4.02474 20.5154 2.56084 24.0628 3.1279 27.3026C3.61171 30.067 5.49548 32.3952 8.2962 33.6904C10.5415 34.7287 12.2459 36.5307 13.5075 39.1994C14.5093 41.3188 16.1755 42.7303 18.1993 43.1745C20.6601 43.7145 23.448 42.8074 26.0496 40.6193C28.8677 38.2491 31.0764 37.7681 33.2123 37.3028C34.6344 36.9931 35.9772 36.7003 37.5212 35.8869C42.225 33.4085 42.7615 28.9535 39.2099 21.8675C38.2386 19.9169 37.2976 17.7461 36.9875 15.088C36.6316 12.0397 35.3301 9.56482 33.3229 8.11983C31.4351 6.76126 29.0607 6.37638 26.2668 6.9753C23.3563 7.59926 20.6859 6.79558 18.3296 6.08601C15.2152 5.14866 13.158 4.52915 12.1225 7.49991ZM19.6233 43.9883C19.0925 43.9883 18.5697 43.9325 18.0589 43.8203C15.8313 43.3316 14.0038 41.7913 12.9127 39.4829C11.7203 36.96 10.12 35.2618 8.02071 34.2909C5.06516 32.9238 2.99357 30.3545 2.4792 27.4169C1.87353 23.9574 3.40379 20.202 6.78766 16.8431C8.36578 15.277 9.555 12.8643 11.5011 7.28142C12.7446 3.71457 15.4203 4.51986 18.5186 5.45276C20.7993 6.13932 23.3841 6.91755 26.1293 6.32873C29.0703 5.6979 31.6905 6.13165 33.7066 7.5827C35.8662 9.13714 37.2638 11.7755 37.6414 15.0108C37.9398 17.5676 38.8544 19.6749 39.7987 21.571C41.4061 24.7781 42.1856 27.4152 42.1815 29.6324C42.1763 32.6512 40.7112 34.9528 37.8272 36.4725C36.2041 37.3275 34.7542 37.6433 33.3519 37.949C31.199 38.4179 29.1661 38.8609 26.4723 41.1261C24.2407 43.0029 21.861 43.9883 19.6233 43.9883Z" fill="url(#paint1_linear_237_1293)"/>
<path id="Fill 10" fill-rule="evenodd" clip-rule="evenodd" d="M17.1323 7.52167C14.6972 7.52167 12.7595 7.92351 11.5108 10.2481C10.5029 12.124 9.73919 13.7209 9.06596 15.1299C8.36538 16.5943 7.76091 17.8596 7.09652 18.9799C5.32215 21.9708 4.70723 25.0886 5.31853 27.9955C5.89242 30.7244 7.54937 33.1059 9.98411 34.7008C11.7295 35.8441 13.3624 37.2685 14.8371 38.934C17.715 42.1834 22.264 42.6179 26.4249 40.0405C28.2037 38.9392 29.7452 38.3375 31.236 37.7555C32.8339 37.132 34.3432 36.5431 35.9061 35.3938C42.0746 30.8577 39.7243 23.2652 38.4277 20.2112C37.7991 18.7214 37.0804 17.3208 36.3195 15.8387C35.9547 15.1279 35.5779 14.3929 35.2155 13.6546C32.932 9.00059 28.8789 6.73698 24.0991 7.44494C22.3485 7.70422 20.6823 7.63798 19.0704 7.57417C18.3947 7.54712 17.7476 7.52167 17.1323 7.52167ZM20.9815 42.3433C18.4546 42.3433 16.085 41.3377 14.3453 39.3734C12.9091 37.7519 11.3209 36.3659 9.62457 35.2548C4.13413 31.6577 2.86207 24.8265 6.53067 18.6414C7.18018 17.5466 7.77901 16.2938 8.47235 14.8436C9.1488 13.4281 9.91615 11.8239 10.9312 9.9339C12.6907 6.65944 15.6596 6.77737 19.0965 6.91347C20.6778 6.97606 22.3131 7.04108 24.003 6.79069C29.0856 6.03791 33.3881 8.43358 35.8059 13.3626C36.1659 14.0952 36.5415 14.8274 36.905 15.5358C37.6378 16.9638 38.3959 18.4407 39.0337 19.9528C40.3915 23.1509 42.8439 31.1113 36.2954 35.9273C34.6625 37.1279 33.1138 37.7321 31.4745 38.3718C30.0114 38.9429 28.4981 39.5333 26.7703 40.6035C24.887 41.7698 22.889 42.3433 20.9815 42.3433Z" fill="url(#paint2_linear_237_1293)"/>
<path id="Fill 12" fill-rule="evenodd" clip-rule="evenodd" d="M22.584 7.90775C18.2949 7.90775 14.0178 9.62373 10.8712 13.0165C4.85832 19.4992 5.21867 29.6853 11.6743 35.7229C14.8016 38.648 18.8768 40.1754 23.1467 40.0224C27.4173 39.8701 31.3735 38.0568 34.286 34.9164C37.1989 31.776 38.7195 27.6846 38.5675 23.396C38.4159 19.1071 36.6101 15.1347 33.4829 12.2096C30.4058 9.33215 26.4899 7.90775 22.584 7.90775ZM22.5639 40.694C18.3391 40.694 14.3335 39.1133 11.2255 36.2067C7.96992 33.1617 6.08977 29.0254 5.93172 24.5603C5.77366 20.0953 7.35661 15.8354 10.3894 12.5658C16.6492 5.81659 27.2102 5.43979 33.9317 11.7258C37.1877 14.7713 39.0678 18.9072 39.2255 23.3726C39.3835 27.8376 37.8006 32.0975 34.7678 35.3671L34.5269 35.1418L34.7678 35.3671C31.7354 38.6363 27.6164 40.5243 23.17 40.6831C22.9677 40.6903 22.7654 40.694 22.5639 40.694Z" fill="url(#paint3_linear_237_1293)"/>
</g>
</g>
<defs>
<linearGradient id="paint0_linear_237_1293" x1="13.011" y1="43.4519" x2="34.7302" y2="5.93494" gradientUnits="userSpaceOnUse">
<stop offset="0.17" stop-color="#6E06C1"/>
<stop offset="0.25" stop-color="#5F24BD"/>
<stop offset="0.46" stop-color="#3E68B5"/>
<stop offset="0.64" stop-color="#239DAE"/>
<stop offset="0.8" stop-color="#10C4A9"/>
<stop offset="0.92" stop-color="#04DBA6"/>
<stop offset="1" stop-color="#00E4A5"/>
</linearGradient>
<linearGradient id="paint1_linear_237_1293" x1="14.1749" y1="42.0365" x2="33.6833" y2="8.07234" gradientUnits="userSpaceOnUse">
<stop offset="0.17" stop-color="#6E06C1"/>
<stop offset="0.25" stop-color="#5F24BD"/>
<stop offset="0.46" stop-color="#3E68B5"/>
<stop offset="0.64" stop-color="#239DAE"/>
<stop offset="0.8" stop-color="#10C4A9"/>
<stop offset="0.92" stop-color="#04DBA6"/>
<stop offset="1" stop-color="#00E4A5"/>
</linearGradient>
<linearGradient id="paint2_linear_237_1293" x1="15.1906" y1="40.5723" x2="32.8828" y2="9.73749" gradientUnits="userSpaceOnUse">
<stop offset="0.17" stop-color="#6E06C1"/>
<stop offset="0.25" stop-color="#5F24BD"/>
<stop offset="0.46" stop-color="#3E68B5"/>
<stop offset="0.64" stop-color="#239DAE"/>
<stop offset="0.8" stop-color="#10C4A9"/>
<stop offset="0.92" stop-color="#04DBA6"/>
<stop offset="1" stop-color="#00E4A5"/>
</linearGradient>
<linearGradient id="paint3_linear_237_1293" x1="15.8116" y1="39.0342" x2="32.539" y2="10.3911" gradientUnits="userSpaceOnUse">
<stop offset="0.17" stop-color="#6E06C1"/>
<stop offset="0.25" stop-color="#5F24BD"/>
<stop offset="0.46" stop-color="#3E68B5"/>
<stop offset="0.64" stop-color="#239DAE"/>
<stop offset="0.8" stop-color="#10C4A9"/>
<stop offset="0.92" stop-color="#04DBA6"/>
<stop offset="1" stop-color="#00E4A5"/>
</linearGradient>
</defs>
</svg>
