<svg width="24" height="24" viewBox="0 0 24 24" fill="none" xmlns="http://www.w3.org/2000/svg">
<path fill-rule="evenodd" clip-rule="evenodd" d="M0 11.5C0 17.8513 5.14873 23 11.5 23C17.8513 23 23 17.8513 23 11.5C23 5.14873 17.8513 0 11.5 0C5.14873 0 0 5.14873 0 11.5ZM21 11.5C21 16.7467 16.7467 21 11.5 21C6.25329 21 2 16.7467 2 11.5C2 6.25329 6.25329 2 11.5 2C16.7467 2 21 6.25329 21 11.5Z" fill="#BF002F"/>
<path fill-rule="evenodd" clip-rule="evenodd" d="M12.0403 15.1578C12.398 15.0939 12.6889 14.9425 12.9135 14.6954C13.138 14.4484 13.2459 14.1615 13.2459 13.8268C13.2459 13.5318 13.1546 13.277 12.963 13.0618C12.7718 12.8465 12.4645 12.6792 12.0322 12.5675L12.0322 15.1578H12.0403ZM11.0011 8.09642C10.7185 8.18399 10.4941 8.33532 10.3277 8.55052C10.1616 8.76571 10.0784 8.99694 10.0784 9.25178C10.0784 9.48301 10.1531 9.70637 10.3111 9.90562C10.4608 10.1049 10.6934 10.2722 11.0096 10.3917V8.09642H11.0011ZM11.0011 15.062V12.2807C10.0618 12.0335 9.38026 11.6588 8.93933 11.1567C8.49892 10.6547 8.28256 10.0488 8.28256 9.33158C8.28256 8.60621 8.53217 8.00068 9.02257 7.50644C9.51296 7.0122 10.1783 6.73314 10.993 6.65374V6H12.0322V6.65374C12.7884 6.74131 13.3953 6.98032 13.8443 7.37095C14.2932 7.76945 14.5762 8.29567 14.7008 8.95679L12.8883 9.17208C12.7803 8.65403 12.4893 8.29567 12.0322 8.11236V10.7104C13.1793 10.9972 13.9608 11.372 14.3765 11.8261C14.7922 12.2807 15 12.8703 15 13.5875C15 14.3845 14.7422 15.062 14.2185 15.6119C13.6949 16.1618 12.9715 16.4965 12.0403 16.6163V17.8597H11.0011V16.6561C10.1783 16.5603 9.50485 16.2817 8.98931 15.8034C8.47377 15.3251 8.14133 14.6558 8 13.779L9.87055 13.5957C9.94526 13.9462 10.0865 14.2573 10.3029 14.5121C10.5107 14.7593 10.7434 14.9504 11.0011 15.062Z" fill="#BF002F"/>
<circle cx="18.5" cy="18.5" r="5.5" fill="white"/>
<path fill-rule="evenodd" clip-rule="evenodd" d="M18.5 23C20.9853 23 23 20.9853 23 18.5C23 16.0147 20.9853 14 18.5 14C16.0147 14 14 16.0147 14 18.5C14 20.9853 16.0147 23 18.5 23ZM20.2678 16.0251L18.5 17.7929L16.7322 16.0251C16.537 15.8298 16.2204 15.8298 16.0251 16.0251C15.8299 16.2204 15.8299 16.537 16.0251 16.7322L17.7929 18.5L16.0251 20.2677C15.8299 20.463 15.8299 20.7796 16.0251 20.9749C16.2204 21.1701 16.537 21.1701 16.7322 20.9749L18.5 19.2071L20.2678 20.9749C20.463 21.1701 20.7796 21.1701 20.9749 20.9749C21.1701 20.7796 21.1701 20.463 20.9749 20.2677L19.2071 18.5L20.9749 16.7322C21.1701 16.537 21.1701 16.2204 20.9749 16.0251C20.7796 15.8298 20.463 15.8298 20.2678 16.0251Z" fill="#BF002F"/>
</svg>
