<svg width="24" height="24" viewBox="0 0 24 24" fill="none" xmlns="http://www.w3.org/2000/svg">
<path fill-rule="evenodd" clip-rule="evenodd" d="M21.707 19.6257L12.707 2.62569C12.4065 2.0581 11.5935 2.0581 11.293 2.62569L2.29297 19.6257C2.0109 20.1585 2.39714 20.8 3 20.8H21C21.6029 20.8 21.9891 20.1585 21.707 19.6257ZM4.32872 19.2L12 4.70981L19.6713 19.2H4.32872Z" fill="#5A626D"/>
<path d="M12.445 14.1917H10C9.37357 14.1917 8.99018 13.5043 9.31934 12.9714L11.4141 9.57963C11.6462 9.20372 12.1392 9.08718 12.5151 9.31935C12.891 9.55151 13.0075 10.0445 12.7754 10.4204L11.4343 12.5917H14C14.6508 12.5917 15.0293 13.3274 14.6509 13.8569L12.0722 17.4652C11.8153 17.8246 11.3156 17.9078 10.9562 17.6509C10.5967 17.394 10.5136 16.8943 10.7705 16.5349L12.445 14.1917Z" fill="#5A626D"/>
</svg>
