<svg width="24" height="24" viewBox="0 0 24 24" fill="none" xmlns="http://www.w3.org/2000/svg">
<path d="M21.24 8C22.212 8 23 8.79009 23 9.76471V21.2353C23 22.2099 22.212 23 21.24 23H2.76C1.78798 23 1 22.2099 1 21.2353L1 9.76471C1 8.79009 1.78798 8 2.76 8H10.8556" stroke="#170D67" stroke-width="2" stroke-linecap="round"/>
<rect x="4" y="12" width="5" height="1" rx="0.5" fill="#170D67"/>
<rect x="4" y="15" width="16" height="1" rx="0.5" fill="#170D67"/>
<rect x="4" y="18" width="16" height="1" rx="0.5" fill="#170D67"/>
<path d="M11.3536 12.9602C11.4995 13.4384 11.4997 13.4383 11.5 13.4382L11.5006 13.438L11.5019 13.4377L11.5047 13.4368L11.5115 13.4346L11.5293 13.4286C11.5431 13.4238 11.5607 13.4174 11.5822 13.4091C11.6252 13.3924 11.6834 13.3679 11.7568 13.3332C11.9035 13.2638 12.1106 13.1534 12.3767 12.9818C12.9086 12.6388 13.6769 12.051 14.6715 11.0564L14.6829 11.045L14.6944 11.0335L14.7059 11.022L14.7175 11.0104L14.7291 10.9988L14.7408 10.9872L14.7525 10.9755L14.7642 10.9637L14.776 10.952L14.7878 10.9401L14.7997 10.9283L14.8116 10.9163L14.8235 10.9044L14.8355 10.8924L14.8476 10.8804L14.8597 10.8683L14.8718 10.8562L14.8839 10.844L14.8961 10.8318L14.9084 10.8196L14.9207 10.8073L14.933 10.795L14.9453 10.7826L14.9577 10.7702L14.9702 10.7578L14.9827 10.7453L14.9952 10.7328L15.0077 10.7202L15.0203 10.7076L15.0329 10.695L15.0456 10.6823L15.0583 10.6696L15.0711 10.6569L15.0838 10.6441L15.0967 10.6313L15.1095 10.6184L15.1224 10.6055L15.1353 10.5926L15.1483 10.5797L15.1613 10.5667L15.1743 10.5537L15.1873 10.5406L15.2004 10.5275L15.2136 10.5144L15.2267 10.5012L15.2399 10.488L15.2532 10.4748L15.2664 10.4615L15.2797 10.4482L15.293 10.4349L15.3064 10.4215L15.3198 10.4081L15.3332 10.3947L15.3467 10.3813L15.3602 10.3678L15.3737 10.3543L15.3872 10.3407L15.4008 10.3271L15.4144 10.3135L15.4281 10.2999L15.4417 10.2862L15.4554 10.2725L15.4691 10.2588L15.4829 10.245L15.4967 10.2313L15.5105 10.2175L15.5243 10.2036L15.5382 10.1897L15.5521 10.1759L15.566 10.1619L15.5799 10.148L15.5939 10.134L15.6079 10.12L15.6219 10.106L15.636 10.0919L15.6501 10.0779L15.6642 10.0638L15.6783 10.0496L15.6925 10.0355L15.7066 10.0213L15.7208 10.0071L15.7351 9.99287L15.7493 9.97862L15.7636 9.96435L15.7779 9.95006L15.7922 9.93574L15.8065 9.9214L15.8209 9.90704L15.8353 9.89265L15.8497 9.87824L15.8641 9.86381L15.8786 9.84936L15.893 9.83489L15.9075 9.8204L15.922 9.80589L15.9366 9.79136L15.9511 9.77681L15.9657 9.76223L15.9803 9.74764L15.9949 9.73303L16.0095 9.7184L16.0242 9.70375L16.0389 9.68909L16.0535 9.6744L16.0682 9.6597L16.083 9.64498L16.0977 9.63024L16.1125 9.61549L16.1272 9.60071L16.142 9.58593L16.1568 9.57112L16.1716 9.5563L16.1865 9.54147L16.2013 9.52661L16.2162 9.51175L16.2311 9.49686L16.246 9.48197L16.2609 9.46706L16.2758 9.45213L16.2907 9.43719L16.3057 9.42224L16.3207 9.40727L16.3356 9.3923L16.3506 9.3773L16.3656 9.3623L16.3807 9.34728L16.3957 9.33225L16.4107 9.31721L16.4258 9.30216L16.4408 9.2871L16.4559 9.27202L16.471 9.25694L16.4861 9.24184L16.5012 9.22673L16.5163 9.21162L16.5314 9.19649L16.5466 9.18136L16.5617 9.16621L16.5769 9.15106L16.592 9.1359L16.6072 9.12073L16.6224 9.10555L16.6376 9.09037L16.6528 9.07517L16.668 9.05997L16.6832 9.04476L16.6984 9.02955L16.7136 9.01433L16.7288 8.9991L16.7441 8.98387L16.7593 8.96863L16.7746 8.95338L16.7898 8.93813L16.8051 8.92288L16.8203 8.90762L16.8356 8.89236L16.8508 8.87709L16.8661 8.86182L16.8814 8.84654L16.8967 8.83126L16.912 8.81598L16.9272 8.8007L16.9425 8.78541L16.9578 8.77012L16.9731 8.75483L16.9884 8.73954L17.0037 8.72424L17.019 8.70895L17.0343 8.69365L17.0496 8.67835L17.0649 8.66305L17.0802 8.64775L17.0955 8.63246L17.1108 8.61716L17.1261 8.60186L17.1414 8.58657L17.1567 8.57127L17.172 8.55598L17.1873 8.54069L17.2025 8.5254L17.2178 8.51011L17.2331 8.49482L17.2484 8.47954L17.2637 8.46426L17.279 8.44898L17.2942 8.43371L17.3095 8.41844L17.3248 8.40318L17.34 8.38792L17.3553 8.37266L17.3705 8.35741L17.3858 8.34216L17.401 8.32692L17.4162 8.31169L17.4315 8.29646L17.4467 8.28124L17.4619 8.26602L17.4771 8.25081L17.4923 8.23561L17.5075 8.22041L17.5227 8.20522L17.5379 8.19004L17.5531 8.17487L17.5682 8.15971L17.5834 8.14455L17.5985 8.1294L17.6137 8.11427L17.6288 8.09914L17.6439 8.08402L17.659 8.06891L17.6741 8.05381L17.6892 8.03872L17.7043 8.02365L17.7194 8.00858L17.7344 7.99352L17.7495 7.97848L17.7645 7.96345L17.7795 7.94843L17.7945 7.93342L17.8095 7.91842L17.8245 7.90344L17.8395 7.88847L17.8544 7.87351L17.8694 7.85857L17.8843 7.84364L17.8992 7.82873L17.9141 7.81383L17.929 7.79894L17.9439 7.78407L17.9587 7.76921L17.9736 7.75437L17.9884 7.73955L18.0032 7.72474L18.018 7.70994L18.0328 7.69517L18.0475 7.68041L18.0623 7.66567L18.077 7.65094L18.0917 7.63623L18.1064 7.62154L18.1211 7.60687L18.1357 7.59222L18.1504 7.57758L18.165 7.56297L18.1796 7.54837L18.1941 7.53379L18.2087 7.51923L18.2232 7.50469L18.2378 7.49018L18.2523 7.47568L18.2667 7.4612L18.2812 7.44675L18.2956 7.43231L18.31 7.4179L18.3244 7.40351L18.3388 7.38914L18.3531 7.37479L18.3675 7.36047L18.3818 7.34616L18.3961 7.33188L18.4103 7.31763L18.4245 7.3034L18.4387 7.28919L18.4529 7.27501L18.4671 7.26085L18.4812 7.24671L18.4953 7.2326L18.5094 7.21852L18.5235 7.20446L18.5375 7.19042L18.5515 7.17642L18.5655 7.16244L18.5795 7.14848L18.5934 7.13455L18.6073 7.12065L18.6212 7.10678L18.635 7.09293L18.6488 7.07911L18.6626 7.06532L18.6764 7.05156L18.6901 7.03783L18.7038 7.02412L18.7175 7.01045L18.7311 6.9968L18.7448 6.98319L18.7583 6.9696L18.7719 6.95604L18.7854 6.94252L18.7989 6.92902L18.8124 6.91556L18.8258 6.90213L18.8392 6.88873L18.8526 6.87536L18.8659 6.86202L18.8792 6.84872L18.8925 6.83544L18.9057 6.8222L18.9189 6.809L18.9321 6.79582L18.9453 6.78269L18.9584 6.76958L18.9714 6.75651L18.9845 6.74347L18.9975 6.73047L19.0104 6.7175L19.0234 6.70457L19.0363 6.69167L19.0491 6.67881L19.0619 6.66599L19.0747 6.6532L19.0875 6.64045L19.1002 6.62773L19.1129 6.61506L19.1255 6.60242L19.1381 6.58981L19.1507 6.57725L19.1632 6.56472L19.1757 6.55223L19.1882 6.53978L19.2006 6.52737L19.2129 6.515L19.2253 6.50267L19.2376 6.49037L19.2498 6.47812L19.262 6.46591L19.2742 6.45374L19.2863 6.4416L19.2984 6.42951L19.3105 6.41747L19.3225 6.40546L19.3344 6.39349L19.3464 6.38157L19.3582 6.36969L19.3701 6.35785L19.3819 6.34605L19.3936 6.3343L19.4053 6.32259L19.417 6.31093L19.4286 6.29931L19.4402 6.28773L19.4517 6.2762L19.4632 6.26471L19.4747 6.25326L19.4861 6.24187L19.4974 6.23051L19.5087 6.21921L19.52 6.20795L19.5312 6.19673L19.5424 6.18557L19.5535 6.17445L19.5646 6.16337L19.5756 6.15235L19.5866 6.14137L19.5975 6.13044L19.6084 6.11955L19.6192 6.10872L19.63 6.09793L19.6407 6.0872L19.6514 6.07651L19.6621 6.06587L19.6727 6.05528L19.6832 6.04475L19.6937 6.03426L19.7041 6.02382L19.7145 6.01344L19.7248 6.0031L19.7351 5.99282L19.7454 5.98258L19.7555 5.9724L19.7657 5.96228L19.7757 5.9522L19.7858 5.94218L19.7957 5.93221L19.8056 5.92229L19.8155 5.91242L19.8253 5.90261L19.8351 5.89286L19.8448 5.88316L19.8544 5.87351L19.864 5.86392L19.8736 5.85438L19.883 5.8449L19.8925 5.83547L19.9018 5.8261L19.9112 5.81678L19.9204 5.80753L19.9296 5.79832L19.9388 5.78918L19.9478 5.78009L19.9569 5.77106L19.9658 5.76209L19.9748 5.75317L19.9836 5.74432L19.9924 5.73552L20.0012 5.72678L20.0098 5.7181L20.0185 5.70948L20.027 5.70092L20.0355 5.69241L20.044 5.68397L20.0523 5.67559L20.0607 5.66727L20.0689 5.65901L20.0771 5.65081L20.0853 5.64267L20.0933 5.6346L20.1014 5.62658L20.1093 5.61863L20.1172 5.61074L20.125 5.60292L20.1328 5.59515L20.1405 5.58745L20.1481 5.57981L20.1557 5.57224L20.1632 5.56473L20.1707 5.55729L20.178 5.54991L20.1853 5.54259L20.1926 5.53534L20.1998 5.52815L20.2069 5.52104L20.214 5.51398L20.2209 5.50699L20.2279 5.50007L20.2347 5.49322L20.2415 5.48643L20.2482 5.47971L20.2549 5.47306L20.2615 5.46647L20.268 5.45995L20.2744 5.4535L20.2808 5.44712L20.2871 5.44081L20.2934 5.43457L20.2995 5.42839L20.3056 5.42229L20.3117 5.41626L20.3176 5.41029L20.3235 5.4044L20.3294 5.39857L20.3351 5.39282L20.3408 5.38714L20.3464 5.38153L20.3519 5.37599L20.3574 5.37053L20.3628 5.36513L20.3681 5.35981L20.3734 5.35456L20.3786 5.34939L20.3837 5.34428L20.3887 5.33926L20.3936 5.3343L20.3985 5.32942L20.4033 5.32461L20.4081 5.31988L20.4127 5.31522L20.4173 5.31064L20.4218 5.30613L20.4262 5.3017L20.4306 5.29735L20.4349 5.29307L20.4391 5.28886L20.4432 5.28474L20.4472 5.28069L20.4512 5.27672L20.4551 5.27282L20.4589 5.26901L20.4627 5.26527L20.4663 5.26161L20.4699 5.25802L20.4734 5.25452L20.4768 5.2511L20.4802 5.24775L20.4835 5.24449L20.4866 5.2413L20.4897 5.2382L20.4928 5.23517L20.4957 5.23223L20.4986 5.22936L20.5014 5.22658L20.5041 5.22388L20.5067 5.22126L20.5092 5.21873L20.5117 5.21627L20.514 5.2139L20.5163 5.21161L20.5185 5.2094L20.5207 5.20728L20.5227 5.20524L20.5247 5.20328L20.5265 5.20141L20.5283 5.19962L20.53 5.19792L20.5316 5.1963L20.5332 5.19477L20.5346 5.19332L20.536 5.19196L20.5373 5.19069L20.5384 5.1895L20.5395 5.18839L20.5406 5.18738L20.5415 5.18645L20.5423 5.18561L20.5431 5.18485L20.5438 5.18419L20.5443 5.18361L20.5448 5.18312L20.5452 5.18271L20.5455 5.1824L20.5458 5.18218L20.5459 5.18204L20.1924 4.82844L20.5459 5.182C20.7412 4.98674 20.7412 4.67015 20.5459 4.47489L19.8388 3.76778C19.7451 3.67402 19.6179 3.62134 19.4853 3.62134C19.3527 3.62134 19.2255 3.67402 19.1317 3.76778L19.4853 4.12134L19.1317 3.76783L19.1315 3.76796L19.1313 3.76819L19.131 3.7685L19.1306 3.7689L19.1301 3.76939L19.1295 3.76997L19.1289 3.77064L19.1281 3.77139L19.1273 3.77224L19.1263 3.77316L19.1253 3.77418L19.1242 3.77528L19.123 3.77647L19.1218 3.77775L19.1204 3.77911L19.119 3.78056L19.1174 3.78209L19.1158 3.78371L19.1141 3.78541L19.1123 3.7872L19.1104 3.78907L19.1085 3.79103L19.1064 3.79307L19.1043 3.79519L19.1021 3.7974L19.0998 3.79968L19.0975 3.80206L19.095 3.80451L19.0925 3.80705L19.0898 3.80967L19.0871 3.81237L19.033 3.86648L19.029 3.87052L19.0249 3.87465L19.0164 3.88313L19.0076 3.89192L19.0031 3.89643L18.9985 3.90101L18.9938 3.90567L18.9891 3.9104L18.9794 3.92009L18.9694 3.93007L18.9592 3.94035L18.9486 3.95092L18.9377 3.96178L18.9322 3.96732L18.9266 3.97293L18.9151 3.98436L18.9034 3.99608L18.8914 4.00808L18.8853 4.01418L18.8792 4.02035L18.8666 4.03291L18.8602 4.03929L18.8538 4.04574L18.8407 4.05884L18.834 4.0655L18.8273 4.07222L18.8137 4.08586L18.8067 4.09278L18.7997 4.09977L18.7927 4.10682L18.7856 4.11394L18.7711 4.12838L18.7638 4.13569L18.7564 4.14307L18.749 4.15052L18.7415 4.15803L18.7339 4.1656L18.7263 4.17324L18.7186 4.18094L18.7108 4.1887L18.703 4.19653L18.6951 4.20442L18.6629 4.2366L18.6298 4.26976L18.5956 4.30389L18.5869 4.31257L18.5782 4.32131L18.5694 4.3301L18.5605 4.33896L18.5245 4.37497L18.4876 4.41189L16.9246 5.97492L13.2573 9.64221C12.2627 10.6368 11.6749 11.4052 11.3319 11.9371C11.1604 12.2031 11.0499 12.4102 10.9805 12.5569C10.9458 12.6303 10.9214 12.6886 10.9047 12.7315C10.8963 12.753 10.8899 12.7707 10.8851 12.7845L10.8791 12.8023L10.8769 12.809L10.8761 12.8118L10.8757 12.8131L10.8755 12.8137C10.8754 12.814 10.8753 12.8143 11.3536 12.9602ZM11.3536 12.9602L11.4995 13.4384C11.3227 13.4923 11.1307 13.4444 11 13.3137C10.8693 13.1831 10.8214 12.991 10.8753 12.8143L11.3536 12.9602Z" fill="#170D67" stroke="#170D67" stroke-linecap="round" stroke-linejoin="round"/>
<path d="M20.5459 4.47487L20.8995 4.82843L21.253 4.47487L22.3137 3.41421C22.7042 3.02369 22.7042 2.39052 22.3137 2C21.9232 1.60948 21.29 1.60948 20.8995 2L19.8388 3.06066L19.4853 3.41421L19.8388 3.76777L20.5459 4.47487Z" fill="white" stroke="#170D67"/>
</svg>
