<svg width="48" height="48" viewBox="0 0 48 48" fill="none" xmlns="http://www.w3.org/2000/svg">
<path d="M29.7931 23.1843C28.9707 19.6407 25.7938 17 22 17C17.5817 17 14 20.5817 14 25C14 26.8729 14.6436 28.5955 15.7217 29.9587" stroke="#170D67" stroke-width="2"/>
<path d="M20.8564 29.2195L20.5697 30.1775L21.6203 30.492L21.8367 29.4169L20.8564 29.2195ZM36.959 29.8775L35.9646 29.9836L36.0781 31.0465L37.1311 30.8626L36.959 29.8775ZM21.8367 29.4169C22.4492 26.3751 25.3225 24 28.8571 24V22C24.4382 22 20.6896 24.9814 19.8761 29.0222L21.8367 29.4169ZM28.8571 24C32.6108 24 35.6113 26.6735 35.9646 29.9836L37.9534 29.7714C37.4822 25.3571 33.5427 22 28.8571 22V24ZM37.1311 30.8626C37.3661 30.8215 37.6087 30.8 37.8571 30.8V28.8C37.4929 28.8 37.1352 28.8316 36.7869 28.8924L37.1311 30.8626ZM37.8571 30.8C40.1531 30.8 42 32.6435 42 34.9H44C44 31.5232 41.2418 28.8 37.8571 28.8V30.8ZM42 34.9C42 37.1565 40.1531 39 37.8571 39V41C41.2418 41 44 38.2768 44 34.9H42ZM37.8571 39H19V41H37.8571V39ZM19 39C16.1593 39 14 36.898 14 34.475H12C12 38.1547 15.2133 41 19 41V39ZM14 34.475C14 32.052 16.1593 29.95 19 29.95V27.95C15.2133 27.95 12 30.7953 12 34.475H14ZM19 29.95C19.5503 29.95 20.0777 30.0303 20.5697 30.1775L21.1431 28.2615C20.466 28.0588 19.7455 27.95 19 27.95V29.95Z" fill="#170D67"/>
<path d="M22 8V13" stroke="#170D67" stroke-width="2" stroke-linecap="round"/>
<path d="M5.5 25.5H10.5" stroke="#170D67" stroke-width="2" stroke-linecap="round"/>
<path d="M9 13L12.5355 16.5355" stroke="#170D67" stroke-width="2" stroke-linecap="round"/>
<path d="M35.5355 13L32 16.5355" stroke="#170D67" stroke-width="2" stroke-linecap="round"/>
</svg>
