<svg width="128" height="128" viewBox="0 0 128 128" fill="none" xmlns="http://www.w3.org/2000/svg">
<rect x="33" y="21" width="25" height="2" rx="1" fill="#170D67"/>
<rect x="67" y="46" width="27" height="2" rx="1" fill="#170D67"/>
<rect x="67" y="50" width="27" height="2" rx="1" fill="#170D67"/>
<rect x="67" y="42" width="11" height="2" rx="1" fill="#170D67"/>
<rect x="67" y="65" width="11" height="2" rx="1" fill="#170D67"/>
<rect x="67" y="69" width="27" height="2" rx="1" fill="#170D67"/>
<rect x="33" y="25" width="25" height="2" rx="1" fill="#170D67"/>
<circle cx="44.5" cy="45.5" r="9.5" stroke="#00E4A5" stroke-width="3" stroke-linecap="round"/>
<path d="M54 72.5C54 67.2533 49.7467 63 44.5 63C39.2533 63 35 67.2533 35 72.5" stroke="#00E4A5" stroke-width="3" stroke-linecap="round"/>
<path d="M24 72V12.4C24 9.96995 26.0211 8 28.5143 8H98.4857C100.979 8 103 9.96995 103 12.4V102.6C103 105.03 100.979 107 98.4857 107" stroke="#170D67" stroke-width="2" stroke-linecap="round"/>
<path d="M17 86.641V82.4C17 79.9699 18.9699 78 21.4 78H89.6C92.0301 78 94 79.9699 94 82.4V110.6C94 113.03 92.0301 115 89.6 115H59.275" stroke="#170D67" stroke-width="2" stroke-linecap="round"/>
<rect x="73" y="94" width="16" height="5" rx="1.65" fill="#00E4A5"/>
<rect x="68" y="84" width="21" height="2" rx="1" fill="#170D67"/>
<rect x="59" y="97" width="10" height="2" rx="1" fill="#170D67"/>
<rect x="59" y="104" width="30" height="2" rx="1" fill="#170D67"/>
<rect x="11" y="92" width="44" height="30" rx="4.4" stroke="#170D67" stroke-width="2"/>
<rect x="40" y="112" width="11" height="6" rx="1.65" fill="#00E4A5"/>
<rect x="11" y="99" width="45" height="5" fill="#170D67"/>
</svg>
