<?xml version="1.0" encoding="utf-8"?>
<!-- Generator: Adobe Illustrator 27.1.1, SVG Export Plug-In . SVG Version: 6.00 Build 0)  -->
<svg version="1.1" id="Layer_1" xmlns="http://www.w3.org/2000/svg" xmlns:xlink="http://www.w3.org/1999/xlink" x="0px" y="0px"
	 viewBox="0 0 30 30" style="enable-background:new 0 0 30 30;" xml:space="preserve">
<style type="text/css">
	.st0{fill:#170D67;}
</style>
<path class="st0" d="M15,0C6.7,0,0,6.7,0,15c0,8.3,6.7,15,15,15c8.3,0,15-6.7,15-15C30,6.7,23.3,0,15,0z M15.8,22.5
	c0.1,0.1,0.1,0.3,0.1,0.4v1c0,0.5-0.4,0.9-0.9,0.9c-0.5,0-0.9-0.4-0.9-0.9v-1c0-0.2,0-0.3,0.1-0.4c-1.5-0.2-2.7-0.7-3.7-1.6
	c-0.7-0.6-1.2-1.2-1.4-1.7c-0.2-0.4-0.1-1,0.4-1.2c0.4-0.2,1-0.1,1.2,0.4c0,0,0.1,0.2,0.2,0.3c0.2,0.3,0.5,0.6,0.8,0.8
	c0.9,0.7,2,1.2,3.4,1.2c2.5,0,4-1,3.9-2.3c-0.1-1.2-0.8-1.8-3.1-2.4v2.9c0,0.5-0.4,0.9-0.9,0.9c-0.5,0-0.9-0.4-0.9-0.9v-3.4
	c-2.9-0.9-4.1-1.9-4.3-4.3c-0.2-2.1,1.6-4,4.3-4.4V5.9C14.1,5.4,14.5,5,15,5c0.5,0,0.9,0.4,0.9,0.9v0.9c0.8,0.1,1.5,0.3,2.1,0.6
	c0.5,0.2,0.9,0.5,1.1,0.7c0.4,0.3,0.4,0.9,0.1,1.3c-0.3,0.4-0.9,0.4-1.3,0.1c-0.1-0.1-0.4-0.3-0.8-0.5c-0.6-0.3-1.3-0.5-2.1-0.5
	c-2.3,0-3.7,1.3-3.6,2.5c0.1,1.3,0.8,1.9,2.5,2.5v-2.7c0-0.5,0.4-0.9,0.9-0.9c0.5,0,0.9,0.4,0.9,0.9v3.2c3.4,0.9,4.7,1.8,4.9,4.2
	C21,20.7,18.8,22.3,15.8,22.5z"/>
</svg>
