<svg width="330" height="317" viewBox="0 0 330 317" fill="none" xmlns="http://www.w3.org/2000/svg">
<rect x="67" y="29" width="197" height="250" rx="9.6" fill="white" stroke="#E5E6E8" stroke-width="2"/>
<path fill-rule="evenodd" clip-rule="evenodd" d="M79 53.8C79 51.149 81.149 49 83.8 49H247.2C249.851 49 252 51.149 252 53.8V66.2C252 68.851 249.851 71 247.2 71H83.8C81.149 71 79 68.851 79 66.2V53.8Z" fill="#E5E6E8"/>
<path fill-rule="evenodd" clip-rule="evenodd" d="M79 85C79 82.7909 80.7909 81 83 81H147C149.209 81 151 82.7909 151 85C151 87.2091 149.209 89 147 89H83C80.7909 89 79 87.2091 79 85Z" fill="#170D67"/>
<path fill-rule="evenodd" clip-rule="evenodd" d="M85 84H101V86H85V84Z" fill="white"/>
<circle cx="107" cy="85" r="1" fill="white"/>
<circle cx="111" cy="85" r="1" fill="white"/>
<circle cx="115" cy="85" r="1" fill="white"/>
<circle cx="119" cy="85" r="1" fill="white"/>
<circle cx="123" cy="85" r="1" fill="white"/>
<circle cx="128" cy="85" r="1" fill="white"/>
<circle cx="132" cy="85" r="1" fill="white"/>
<circle cx="136" cy="85" r="1" fill="white"/>
<circle cx="140" cy="85" r="1" fill="white"/>
<circle cx="144" cy="85" r="1" fill="white"/>
<path fill-rule="evenodd" clip-rule="evenodd" d="M173 87C173 85.8954 173.895 85 175 85H216C217.105 85 218 85.8954 218 87C218 88.1046 217.105 89 216 89H175C173.895 89 173 88.1046 173 87Z" fill="#E5E6E8"/>
<path fill-rule="evenodd" clip-rule="evenodd" d="M173 94C173 92.8954 173.895 92 175 92H226C227.105 92 228 92.8954 228 94C228 95.1046 227.105 96 226 96H175C173.895 96 173 95.1046 173 94Z" fill="#E5E6E8"/>
<path fill-rule="evenodd" clip-rule="evenodd" d="M173 116.4C173 115.075 174.075 114 175.4 114H175.6C176.925 114 178 115.075 178 116.4V156.6C178 157.925 176.925 159 175.6 159H175.4C174.075 159 173 157.925 173 156.6V116.4Z" fill="#E5E6E8"/>
<path fill-rule="evenodd" clip-rule="evenodd" d="M208 121.4C208 120.075 209.075 119 210.4 119H210.6C211.925 119 213 120.075 213 121.4V156.6C213 157.925 211.925 159 210.6 159H210.4C209.075 159 208 157.925 208 156.6V121.4Z" fill="#E5E6E8"/>
<path fill-rule="evenodd" clip-rule="evenodd" d="M187 126.4C187 125.075 188.075 124 189.4 124H189.6C190.925 124 192 125.075 192 126.4V156.6C192 157.925 190.925 159 189.6 159H189.4C188.075 159 187 157.925 187 156.6V126.4Z" fill="#E5E6E8"/>
<path fill-rule="evenodd" clip-rule="evenodd" d="M229 126.4C229 125.075 230.075 124 231.4 124H231.6C232.925 124 234 125.075 234 126.4V156.6C234 157.925 232.925 159 231.6 159H231.4C230.075 159 229 157.925 229 156.6V126.4Z" fill="#E5E6E8"/>
<path fill-rule="evenodd" clip-rule="evenodd" d="M243 121.4C243 120.075 244.075 119 245.4 119H245.6C246.925 119 248 120.075 248 121.4V156.6C248 157.925 246.925 159 245.6 159H245.4C244.075 159 243 157.925 243 156.6V121.4Z" fill="#E5E6E8"/>
<path fill-rule="evenodd" clip-rule="evenodd" d="M180 136.4C180 135.075 181.075 134 182.4 134H182.6C183.925 134 185 135.075 185 136.4V156.6C185 157.925 183.925 159 182.6 159H182.4C181.075 159 180 157.925 180 156.6V136.4Z" fill="#E5E6E8"/>
<path fill-rule="evenodd" clip-rule="evenodd" d="M236 136.4C236 135.075 237.075 134 238.4 134H238.6C239.925 134 241 135.075 241 136.4V156.6C241 157.925 239.925 159 238.6 159H238.4C237.075 159 236 157.925 236 156.6V136.4Z" fill="#E5E6E8"/>
<path fill-rule="evenodd" clip-rule="evenodd" d="M201 146.4C201 145.075 202.075 144 203.4 144H203.6C204.925 144 206 145.075 206 146.4V156.6C206 157.925 204.925 159 203.6 159H203.4C202.075 159 201 157.925 201 156.6V146.4Z" fill="#E5E6E8"/>
<path fill-rule="evenodd" clip-rule="evenodd" d="M222 146.4C222 145.075 223.075 144 224.4 144H224.6C225.925 144 227 145.075 227 146.4V156.6C227 157.925 225.925 159 224.6 159H224.4C223.075 159 222 157.925 222 156.6V146.4Z" fill="#E5E6E8"/>
<path fill-rule="evenodd" clip-rule="evenodd" d="M194 134.4C194 133.075 195.075 132 196.4 132H196.6C197.925 132 199 133.075 199 134.4V156.6C199 157.925 197.925 159 196.6 159H196.4C195.075 159 194 157.925 194 156.6V134.4Z" fill="#E5E6E8"/>
<path fill-rule="evenodd" clip-rule="evenodd" d="M215 134.4C215 133.075 216.075 132 217.4 132H217.6C218.925 132 220 133.075 220 134.4V156.6C220 157.925 218.925 159 217.6 159H217.4C216.075 159 215 157.925 215 156.6V134.4Z" fill="#E5E6E8"/>
<path fill-rule="evenodd" clip-rule="evenodd" d="M79 109C79 107.895 79.8954 107 81 107H151C152.105 107 153 107.895 153 109C153 110.105 152.105 111 151 111H81C79.8954 111 79 110.105 79 109Z" fill="#E5E6E8"/>
<path fill-rule="evenodd" clip-rule="evenodd" d="M178 224C178 222.895 178.895 222 180 222H208C209.105 222 210 222.895 210 224C210 225.105 209.105 226 208 226H180C178.895 226 178 225.105 178 224Z" fill="#E5E6E8"/>
<path fill-rule="evenodd" clip-rule="evenodd" d="M178 231C178 229.895 178.895 229 180 229H241C242.105 229 243 229.895 243 231C243 232.105 242.105 233 241 233H180C178.895 233 178 232.105 178 231Z" fill="#E5E6E8"/>
<path fill-rule="evenodd" clip-rule="evenodd" d="M79 94C79 92.8954 79.8954 92 81 92H119C120.105 92 121 92.8954 121 94C121 95.1046 120.105 96 119 96H81C79.8954 96 79 95.1046 79 94Z" fill="#E5E6E8"/>
<path fill-rule="evenodd" clip-rule="evenodd" d="M178 247C178 245.895 178.895 245 180 245H208C209.105 245 210 245.895 210 247C210 248.105 209.105 249 208 249H180C178.895 249 178 248.105 178 247Z" fill="#E5E6E8"/>
<path fill-rule="evenodd" clip-rule="evenodd" d="M178 254C178 252.895 178.895 252 180 252H208C209.105 252 210 252.895 210 254C210 255.105 209.105 256 208 256H180C178.895 256 178 255.105 178 254Z" fill="#E5E6E8"/>
<path fill-rule="evenodd" clip-rule="evenodd" d="M79 127C79 125.895 79.8954 125 81 125H151C152.105 125 153 125.895 153 127C153 128.105 152.105 129 151 129H81C79.8954 129 79 128.105 79 127Z" fill="#E5E6E8"/>
<path fill-rule="evenodd" clip-rule="evenodd" d="M79 205C79 204.448 79.4477 204 80 204H249C249.552 204 250 204.448 250 205C250 205.552 249.552 206 249 206H80C79.4477 206 79 205.552 79 205Z" fill="#E5E6E8"/>
<path d="M80 236C80 233.239 82.2386 231 85 231H157C159.761 231 162 233.239 162 236V251C162 253.761 159.761 256 157 256H85C82.2386 256 80 253.761 80 251V236Z" stroke="#E5E6E8" stroke-width="2"/>
</svg>
