<svg width="40" height="40" viewBox="0 0 40 40" fill="none" xmlns="http://www.w3.org/2000/svg">
<circle cx="20" cy="20" r="16" stroke="#170D67" stroke-width="2"/>
<circle cx="20" cy="18" r="3" stroke="#170D67" stroke-width="2"/>
<path d="M27.8865 18.1616L26.905 17.9704L26.8965 18.0142L26.8919 18.0585L27.8865 18.1616ZM12.0974 18.0757L13.0921 17.9732L13.0882 17.9357L13.0816 17.8985L12.0974 18.0757ZM27 16.983C27 17.32 26.9674 17.6497 26.905 17.9704L28.8681 18.3527C28.9549 17.9071 29 17.4494 29 16.983H27ZM20 11C23.998 11 27 13.8021 27 16.983H29C29 12.4508 24.8385 9 20 9V11ZM13 16.983C13 13.8021 16.002 11 20 11V9C15.1615 9 11 12.4508 11 16.983H13ZM13.0816 17.8985C13.0279 17.6006 13 17.2949 13 16.983H11C11 17.4146 11.0387 17.8389 11.1132 18.2529L13.0816 17.8985ZM11.1026 18.1783C11.2006 19.1287 11.5762 20.3816 12.0947 21.6823C12.6204 23.0008 13.3208 24.437 14.1148 25.77C14.9051 27.0969 15.8097 28.3583 16.7537 29.3018C17.6567 30.2043 18.7774 31 19.9959 31V29C19.6164 29 18.9927 28.712 18.1675 27.8872C17.3833 27.1034 16.576 25.994 15.8331 24.7466C15.0939 23.5055 14.4399 22.164 13.9525 20.9416C13.458 19.7014 13.1619 18.6501 13.0921 17.9732L11.1026 18.1783ZM19.9959 31C21.2002 31 22.314 30.2274 23.2165 29.3423C24.1583 28.4185 25.0623 27.1813 25.8533 25.8731C27.416 23.2883 28.6828 20.1794 28.8812 18.2647L26.8919 18.0585C26.738 19.5435 25.6439 22.3538 24.1418 24.8383C23.4003 26.0647 22.5957 27.1497 21.816 27.9144C20.9969 28.7178 20.3762 29 19.9959 29V31Z" fill="#170D67"/>
</svg>
