<svg width="30" height="30" viewBox="0 0 30 30" fill="none" xmlns="http://www.w3.org/2000/svg">
<path fill-rule="evenodd" clip-rule="evenodd" d="M9 14.5C9 15.3284 8.32845 16 7.5 16C6.67155 16 6 15.3284 6 14.5C6 13.6716 6.67155 13 7.5 13C8.32845 13 9 13.6716 9 14.5" fill="#5A626D"/>
<path fill-rule="evenodd" clip-rule="evenodd" d="M16 14.5C16 15.3284 15.3284 16 14.5 16C13.6716 16 13 15.3284 13 14.5C13 13.6716 13.6716 13 14.5 13C15.3284 13 16 13.6716 16 14.5" fill="#5A626D"/>
<path fill-rule="evenodd" clip-rule="evenodd" d="M23 14.5C23 15.3284 22.3284 16 21.5 16C20.6716 16 20 15.3284 20 14.5C20 13.6716 20.6716 13 21.5 13C22.3284 13 23 13.6716 23 14.5" fill="#5A626D"/>
</svg>
