<svg width="88" height="88" viewBox="0 0 88 88" fill="none" xmlns="http://www.w3.org/2000/svg">
<path d="M24.6045 46.785C24.9394 47.2242 25.5669 47.3088 26.006 46.9739C26.4452 46.639 26.5298 46.0115 26.1949 45.5724L24.6045 46.785ZM20.4483 39.685L21.2435 39.0787C21.0017 38.7615 20.5946 38.6184 20.2075 38.7145L20.4483 39.685ZM8.40552 35.4819L9.20073 34.8756L8.40552 35.4819ZM8.24124 21.9586L9.03645 21.3523C8.84479 21.1009 8.54559 20.955 8.22953 20.9587C7.91346 20.9624 7.61776 21.1153 7.43205 21.3711L8.24124 21.9586ZM14.0191 29.5363L14.8143 28.9299L14.0191 29.5363ZM19.4301 25.5066L18.6349 26.1129L19.4301 25.5066ZM13.6306 17.9007L13.2877 16.9613C12.9891 17.0703 12.7601 17.3148 12.6709 17.6198C12.5816 17.9249 12.6427 18.2542 12.8354 18.507L13.6306 17.9007ZM26.854 21.7429L27.6492 21.1366L26.854 21.7429ZM27.6227 34.3421L26.7601 33.8362C26.5548 34.1863 26.5815 34.6257 26.8275 34.9484L27.6227 34.3421ZM29.271 38.153C29.6058 38.5921 30.2333 38.6767 30.6725 38.3418C31.1117 38.0069 31.1962 37.3795 30.8614 36.9403L29.271 38.153ZM48.2348 59.7254C47.9 59.2863 47.2725 59.2017 46.8333 59.5366C46.3941 59.8715 46.3095 60.4989 46.6444 60.9381L48.2348 59.7254ZM48.5416 61.777L49.3368 61.1706L48.5416 61.777ZM41.3672 67.1199L40.5719 67.7263L41.3672 67.1199ZM37.0519 59.7254C36.717 59.2863 36.0895 59.2017 35.6503 59.5366C35.2111 59.8715 35.1266 60.4989 35.4614 60.9381L37.0519 59.7254ZM26.1949 45.5724C25.1652 44.222 23.5148 42.0574 21.2435 39.0787L19.6531 40.2914C21.9244 43.2701 23.5748 45.4346 24.6045 46.785L26.1949 45.5724ZM20.2075 38.7145C16.2103 39.7064 11.8285 38.3219 9.20073 34.8756L7.61031 36.0883C10.7428 40.1965 15.9521 41.8311 20.6892 40.6556L20.2075 38.7145ZM9.20073 34.8756C6.35949 31.1493 6.43464 26.1488 9.05043 22.5462L7.43205 21.3711C4.31201 25.6682 4.21843 31.6398 7.61031 36.0883L9.20073 34.8756ZM7.44603 22.565L13.2239 30.1426L14.8143 28.9299L9.03645 21.3523L7.44603 22.565ZM13.2239 30.1426C13.6036 30.6406 14.1635 30.7403 14.5572 30.7304C14.9511 30.7204 15.3525 30.6043 15.7085 30.4645C16.4328 30.1798 17.2397 29.6873 17.9565 29.149C18.6735 28.6104 19.3688 27.9746 19.8429 27.3649C20.0754 27.0658 20.2989 26.7173 20.4199 26.3482C20.5392 25.9843 20.6128 25.4084 20.2253 24.9003L18.6349 26.1129C18.4536 25.8753 18.5396 25.6635 18.5194 25.725C18.501 25.7814 18.4329 25.9199 18.2639 26.1373C17.9349 26.5605 17.3869 27.0755 16.7554 27.5498C16.1236 28.0243 15.4766 28.4067 14.977 28.603C14.721 28.7036 14.5679 28.7295 14.5067 28.731C14.4451 28.7326 14.6492 28.7133 14.8143 28.9299L13.2239 30.1426ZM20.2253 24.9003L14.4258 17.2943L12.8354 18.507L18.6349 26.1129L20.2253 24.9003ZM13.9736 18.84C18.2355 17.2841 23.1914 18.5887 26.0588 22.3493L27.6492 21.1366C24.2318 16.6547 18.3426 15.1159 13.2877 16.9613L13.9736 18.84ZM26.0588 22.3493C28.6847 25.7931 28.8196 30.3244 26.7601 33.8362L28.4853 34.8479C30.9415 30.6597 30.7836 25.2474 27.6492 21.1366L26.0588 22.3493ZM26.8275 34.9484C27.9267 36.3899 28.7411 37.4581 29.271 38.153L30.8614 36.9403C30.3316 36.2454 29.5171 35.1772 28.4179 33.7357L26.8275 34.9484ZM46.6444 60.9381C46.7668 61.0987 46.9199 61.2994 47.1036 61.5403C47.2872 61.7812 47.5015 62.0622 47.7464 62.3833L49.3368 61.1706C49.0919 60.8495 48.8776 60.5685 48.694 60.3276C48.5103 60.0867 48.3573 59.886 48.2348 59.7254L46.6444 60.9381ZM47.7464 62.3833C48.8998 63.8961 48.5974 66.0468 47.0602 67.1916L48.2548 68.7956C50.68 66.9896 51.1691 63.5738 49.3368 61.1706L47.7464 62.3833ZM47.0602 67.1916C45.5161 68.3416 43.3213 68.0335 42.1624 66.5136L40.5719 67.7263C42.3989 70.1223 45.8367 70.5965 48.2548 68.7956L47.0602 67.1916ZM42.1624 66.5136C41.1563 65.1941 40.1331 63.8308 39.234 62.6303C38.3371 61.4325 37.5597 60.3915 37.0519 59.7254L35.4614 60.9381C35.9624 61.5952 36.7315 62.6251 37.6331 63.8291C38.5327 65.0303 39.5603 66.3995 40.5719 67.7263L42.1624 66.5136Z" fill="#170D67"/>
<path d="M33.958 48.4176C33.7601 48.9332 34.0176 49.5116 34.5332 49.7096C35.0488 49.9075 35.6272 49.65 35.8252 49.1344L33.958 48.4176ZM45.7061 36.6881C46.1917 36.425 46.3721 35.8181 46.1091 35.3325C45.846 34.8469 45.2391 34.6664 44.7535 34.9295L45.7061 36.6881ZM48.494 33.4116C47.9624 33.5614 47.6529 34.1138 47.8028 34.6454C47.9526 35.177 48.5049 35.4864 49.0365 35.3366L48.494 33.4116ZM51.582 34.8272C52.1302 34.7598 52.5199 34.2608 52.4525 33.7126C52.385 33.1645 51.886 32.7748 51.3379 32.8422L51.582 34.8272ZM35.8252 49.1344C37.9501 43.5991 41.2255 39.1152 45.7061 36.6881L44.7535 34.9295C39.7161 37.6583 36.1879 42.6089 33.958 48.4176L35.8252 49.1344ZM49.0365 35.3366C49.8495 35.1075 50.6977 34.936 51.582 34.8272L51.3379 32.8422C50.3541 32.9632 49.4062 33.1545 48.494 33.4116L49.0365 35.3366Z" fill="#170D67"/>
<path d="M78.8684 57.684C79.2911 57.684 79.6263 57.684 79.8655 57.684C83.7241 57.684 83.7241 51.9686 79.8655 51.9686C79.8655 46.0661 74.04 28.343 54.1154 28.343C40.8323 28.343 32.3298 36.2659 27.3052 51.9686C19.0907 52.7072 14.9834 54.6123 14.9834 57.684C14.9834 57.684 36.3268 57.684 52.9983 57.684" stroke="#170D67" stroke-width="2" stroke-linecap="round" stroke-linejoin="round"/>
<path d="M75.5833 56C75.5833 61.2155 71.302 65.4634 65.9958 65.4634C60.6896 65.4634 56.4083 61.2155 56.4083 56C56.4083 50.7846 60.6896 46.5366 65.9958 46.5366C71.302 46.5366 75.5833 50.7846 75.5833 56Z" stroke="#00E4A5" stroke-width="2"/>
<path d="M65.9316 51.0701V57.1142L70.4115 55.0007" stroke="#00E4A5" stroke-width="2" stroke-linecap="round" stroke-linejoin="round"/>
</svg>
