<svg width="40" height="40" viewBox="0 0 40 40" fill="none" xmlns="http://www.w3.org/2000/svg">
<path fill-rule="evenodd" clip-rule="evenodd" d="M10 20C10 25.5228 14.4772 30 20 30C25.5228 30 30 25.5228 30 20C30 14.4772 25.5228 10 20 10C14.4772 10 10 14.4772 10 20ZM28 20C28 24.4183 24.4183 28 20 28C15.5817 28 12 24.4183 12 20C12 15.5817 15.5817 12 20 12C24.4183 12 28 15.5817 28 20Z" fill="#170D67"/>
<path fill-rule="evenodd" clip-rule="evenodd" d="M20 8C20.5523 8 21 7.55228 21 7V2C21 1.44772 20.5523 1 20 1C19.4477 1 19 1.44772 19 2V7C19 7.55228 19.4477 8 20 8ZM20 39C20.5523 39 21 38.5523 21 38V33C21 32.4477 20.5523 32 20 32C19.4477 32 19 32.4477 19 33V38C19 38.5523 19.4477 39 20 39ZM38 19C38.5523 19 39 19.4477 39 20C39 20.5523 38.5523 21 38 21H33C32.4477 21 32 20.5523 32 20C32 19.4477 32.4477 19 33 19H38ZM8 20C8 19.4477 7.55228 19 7 19H2C1.44772 19 1 19.4477 1 20C1 20.5523 1.44772 21 2 21H7C7.55228 21 8 20.5523 8 20Z" fill="#170D67"/>
<path fill-rule="evenodd" clip-rule="evenodd" d="M28.4853 11.5147C28.8758 11.9052 29.509 11.9052 29.8995 11.5147L33.435 7.97917C33.8256 7.58865 33.8256 6.95548 33.435 6.56496C33.0445 6.17443 32.4114 6.17443 32.0208 6.56496L28.4853 10.1005C28.0948 10.491 28.0948 11.1242 28.4853 11.5147ZM6.56499 33.435C6.95551 33.8255 7.58868 33.8255 7.9792 33.435L11.5147 29.8995C11.9053 29.509 11.9053 28.8758 11.5147 28.4853C11.1242 28.0947 10.491 28.0947 10.1005 28.4853L6.56499 32.0208C6.17446 32.4113 6.17446 33.0445 6.56499 33.435ZM33.435 32.0208C33.8256 32.4113 33.8256 33.0445 33.435 33.435C33.0445 33.8255 32.4114 33.8255 32.0208 33.435L28.4853 29.8995C28.0948 29.509 28.0948 28.8758 28.4853 28.4853C28.8758 28.0947 29.509 28.0947 29.8995 28.4853L33.435 32.0208ZM11.5147 11.5147C11.9053 11.1242 11.9053 10.491 11.5147 10.1005L7.9792 6.56496C7.58868 6.17443 6.95551 6.17443 6.56499 6.56496C6.17446 6.95548 6.17446 7.58865 6.56499 7.97917L10.1005 11.5147C10.491 11.9052 11.1242 11.9052 11.5147 11.5147Z" fill="#170D67"/>
</svg>
