<svg width="250" height="100" viewBox="0 0 250 100" fill="none" xmlns="http://www.w3.org/2000/svg">
<g id="Opco=ComEd, Color=Inverse">
<g id="Group 5393">
<g id="Group 6">
<g id="Group 3">
<mask id="mask0_237_1363" style="mask-type:alpha" maskUnits="userSpaceOnUse" x="70" y="19" width="180" height="70">
<path id="Clip 2" fill-rule="evenodd" clip-rule="evenodd" d="M70.2046 19.5527H250V89H70.2046V19.5527Z" fill="white"/>
</mask>
<g mask="url(#mask0_237_1363)">
<path id="Fill 1" fill-rule="evenodd" clip-rule="evenodd" d="M228.356 19.9346V25.2392H227.615V22.1701C227.615 21.8519 227.631 21.5563 227.653 21.2835C227.222 22.2687 226.678 23.2765 225.974 24.3753H225.331C224.62 23.2765 224.076 22.2611 223.629 21.2759C223.66 21.5417 223.675 21.8443 223.675 22.1701V25.2392H222.941V19.9346H223.758C224.272 21.2002 224.878 22.3449 225.656 23.5872C226.428 22.3449 227.018 21.2002 227.532 19.9346H228.356ZM218.705 24.345C219.061 24.4814 219.56 24.633 220.12 24.633C220.8 24.633 221.201 24.3753 221.201 23.8449C221.201 23.2462 220.747 23.0643 219.999 22.8218C219.121 22.5344 218.584 22.1474 218.584 21.2916C218.584 20.3595 219.235 19.8437 220.339 19.8437C220.823 19.8437 221.345 19.9579 221.678 20.0938L221.519 20.7531C221.163 20.6318 220.778 20.5409 220.384 20.5409C219.711 20.5409 219.386 20.791 219.386 21.2689C219.386 21.7837 219.727 21.958 220.384 22.1777C221.292 22.4808 222.002 22.7991 222.002 23.8378C222.002 24.8679 221.186 25.3301 220.15 25.3301C219.515 25.3301 218.932 25.2013 218.554 25.0346L218.705 24.345ZM210.665 52.6769L210.56 52.7486C209.415 53.5312 207.309 54.0177 205.064 54.0177C199.31 54.0177 195.735 50.0635 195.735 43.6991C195.735 36.6491 199.302 32.7666 205.779 32.7666C207.303 32.7666 209.033 33.1475 210.522 33.8114L210.665 33.875V52.6769ZM210.665 31.103L210.341 30.9828C208.86 30.4316 207.185 30.128 205.625 30.128C197.43 30.128 192.538 35.2396 192.538 43.8016C192.538 51.7312 197.357 56.6573 205.114 56.6573C208.456 56.6573 211.519 55.9147 213.76 54.5638V19.5527L210.665 19.729V31.103ZM184.678 41.5843L184.649 41.7909H169.267L169.291 41.5293C169.787 36.0105 172.893 32.7161 177.598 32.7161C179.927 32.7161 181.82 33.5618 183.072 35.1618C184.142 36.5298 184.731 38.4536 184.731 40.5795C184.731 40.9988 184.731 41.2095 184.678 41.5843ZM187.775 41.0907C187.775 34.4312 183.78 30.128 177.598 30.128C174.119 30.128 171.19 31.4097 169.126 33.8351C167.109 36.205 166.043 39.4918 166.043 43.3409C166.043 51.6791 170.897 56.6573 179.028 56.6573C182.119 56.6573 184.929 56.09 187.381 54.9705L186.821 52.4223C184.285 53.4665 181.685 54.0177 179.284 54.0177C173.105 54.0177 169.538 50.5025 169.24 44.1204L169.228 43.8688H187.646C187.733 43.0125 187.775 42.1011 187.775 41.0907ZM155.565 56.284V39.9652C155.565 36.3838 153.983 34.0822 150 34.0822C147.702 34.0822 145.353 34.9001 143.873 35.8721C144.332 37.2028 144.537 38.7881 144.537 40.5275V56.284H139.48V39.9652C139.48 36.3838 137.949 34.0822 133.967 34.0822C132.026 34.0822 130.085 34.5429 128.4 35.4123V56.284H123.242V32.1387C126.408 30.6549 130.289 29.7329 134.17 29.7329C137.285 29.7329 139.735 30.5524 141.472 32.0866C143.771 30.808 146.783 29.7329 150.205 29.7329C157.2 29.7329 160.724 33.5189 160.724 39.607V56.284H155.565ZM106.387 52.5501C111.034 52.5501 113.23 48.9177 113.23 43.2904C113.23 37.7145 111.034 34.0822 106.387 34.0822C101.893 34.0822 99.545 37.7145 99.545 43.2904C99.545 48.9177 101.893 52.5501 106.387 52.5501ZM106.387 56.8978C98.83 56.8978 94.2855 51.4245 94.2855 43.2904C94.2855 35.2077 98.83 29.7329 106.387 29.7329C114.047 29.7329 118.541 35.2077 118.541 43.2904C118.541 51.4245 114.047 56.8978 106.387 56.8978ZM92.3511 31.2687L91.33 35.4123C89.39 34.5934 87.1934 34.0822 85.2021 34.0822C80.1977 34.0822 77.4918 37.7145 77.4918 43.3409C77.4918 49.327 80.3515 52.5501 85.7124 52.5501C87.6019 52.5501 89.6956 52.0383 91.5851 51.1169L92.5039 55.3125C90.7168 56.233 88.1122 56.8978 85.3549 56.8978C76.981 56.8978 72.2318 51.8337 72.2318 43.4434C72.2318 35.2077 76.8282 29.7329 84.8441 29.7329C87.7547 29.7329 90.4616 30.3988 92.3511 31.2687ZM244.713 83.7889C242.918 81.3953 241.646 79.3588 240.646 76.9142H241.934C242.781 78.9845 243.765 80.6143 245.341 82.7699C246.899 80.6309 247.865 78.9845 248.712 76.9142H250C248.966 79.3588 247.729 81.412 245.934 83.7551V88.7959H244.713V83.7889ZM229.308 88.7959V76.9142H230.494C232.562 80.6143 234.596 83.6358 237.086 87.0818C237.052 86.6402 237.034 86.0971 237.034 85.4692V76.9142H238.188V88.7959H237.001C234.409 85.3161 232.274 82.3799 230.41 78.934C230.443 79.5109 230.461 80.1737 230.461 80.835V88.7959H229.308ZM219.411 84.2294H224.053C223.223 81.803 222.376 79.6124 221.732 78.1696C221.088 79.6124 220.241 81.803 219.411 84.2294ZM224.409 85.2989H219.055C218.665 86.4543 218.292 87.6254 217.954 88.7959H216.7C218.021 84.5189 219.427 80.496 221.088 76.9142H222.359C224.019 80.496 225.46 84.4674 226.764 88.7959H225.511C225.171 87.6254 224.799 86.4543 224.409 85.2989ZM210.882 77.9827H209.238V83.4327H210.882C212.966 83.4327 214.355 82.8038 214.355 80.7168C214.355 78.6283 212.966 77.9827 210.882 77.9827ZM208.019 76.9142H210.898C213.763 76.9142 215.61 78.0681 215.61 80.7168C215.61 83.364 213.763 84.5012 210.898 84.5012H209.238V88.7959H208.019V76.9142ZM204.326 76.9142V88.7959H203.175V80.8855C203.175 80.2071 203.208 79.5953 203.225 79.0689C202.141 81.5822 200.785 84.1279 198.972 86.9807H197.921C196.109 84.1279 194.737 81.5484 193.635 79.0522C193.686 79.5786 193.703 80.2071 193.703 80.8855V88.7959H192.551V76.9142H193.821C195.041 79.9019 196.584 82.7533 198.464 85.7748C200.327 82.7533 201.853 79.9019 203.057 76.9142H204.326ZM184.427 87.8967C187.053 87.8967 188.154 85.6561 188.154 82.8548C188.154 80.054 187.053 77.8134 184.427 77.8134C181.783 77.8134 180.716 80.054 180.716 82.8548C180.716 85.6561 181.817 87.8967 184.427 87.8967ZM184.427 89C181.055 89 179.445 86.3007 179.445 82.8548C179.445 79.4094 181.021 76.7101 184.427 76.7101C187.815 76.7101 189.425 79.4094 189.425 82.8548C189.425 86.3007 187.815 89 184.427 89ZM169.44 82.9912C169.44 79.4094 171.135 76.7101 174.727 76.7101C175.726 76.7101 176.727 76.9314 177.624 77.3042L177.319 78.357C176.523 78.0681 175.743 77.8134 174.744 77.8134C171.863 77.8134 170.711 80.1217 170.711 82.9912C170.711 85.9112 172.016 87.8967 174.829 87.8967C175.947 87.8967 176.76 87.5915 177.455 87.2859L177.709 88.3387C177.015 88.6949 175.947 89 174.795 89C171.288 89 169.44 86.6064 169.44 82.9912ZM152.597 88.7959V76.9142H153.782C155.85 80.6143 157.883 83.6358 160.374 87.0818C160.34 86.6402 160.323 86.0971 160.323 85.4692V76.9142H161.475V88.7959H160.289C157.697 85.3161 155.562 82.3799 153.698 78.934C153.732 79.5109 153.749 80.1737 153.749 80.835V88.7959H152.597ZM144.473 87.8967C147.099 87.8967 148.2 85.6561 148.2 82.8548C148.2 80.054 147.099 77.8134 144.473 77.8134C141.83 77.8134 140.762 80.054 140.762 82.8548C140.762 85.6561 141.863 87.8967 144.473 87.8967ZM144.473 89C141.1 89 139.491 86.3007 139.491 82.8548C139.491 79.4094 141.067 76.7101 144.473 76.7101C147.861 76.7101 149.471 79.4094 149.471 82.8548C149.471 86.3007 147.861 89 144.473 89ZM130.995 76.9142H132.214V87.7264H137.84V88.7959H130.995V76.9142ZM128.207 88.7959H121.294V76.9142H128.207V77.9827H122.514V82.1591H127.393V83.2286H122.514V87.7264H128.207V88.7959ZM113.861 83.4327C112.777 84.9089 111.522 86.8443 110.625 88.7959H109.337C110.285 86.6402 111.743 84.5189 113.285 82.5663L109.574 76.9142H110.98L114.217 81.8368C115.505 80.2409 116.606 78.4753 117.233 76.9142H118.504C117.707 78.8829 116.386 80.8184 114.776 82.6856L118.775 88.7959H117.386L113.861 83.4327ZM107.181 88.7959H100.268V76.9142H107.181V77.9827H101.487V82.1591H106.367V83.2286H101.487V87.7264H107.181V88.7959ZM82.8134 88.7959V76.9142H83.9994C86.0669 80.6143 88.1006 83.6358 90.5912 87.0818C90.5574 86.6402 90.5398 86.0971 90.5398 85.4692V76.9142H91.6925V88.7959H90.506C87.914 85.3161 85.779 82.3799 83.9147 78.934C83.9485 79.5109 83.9656 80.1737 83.9656 80.835V88.7959H82.8134ZM72.9155 84.2294H77.5584C76.7278 81.803 75.8807 79.6124 75.2372 78.1696C74.5927 79.6124 73.7456 81.803 72.9155 84.2294ZM77.9149 85.2989H72.56C72.1697 86.4543 71.7976 87.6254 71.4587 88.7959H70.2046C71.5263 84.5189 72.9322 80.496 74.5927 76.9142H75.864C77.5246 80.496 78.9643 84.4674 80.2693 88.7959H79.0162C78.6763 87.6254 78.3042 86.4543 77.9149 85.2989Z" fill="white"/>
</g>
</g>
<path id="Fill 4" fill-rule="evenodd" clip-rule="evenodd" d="M8.29148 50.39C11.7039 51.4787 13.9736 54.2421 15.2307 58.8379C16.1999 62.3808 18.2639 64.7416 21.0419 65.4847C24.4392 66.3936 28.4073 64.8093 32.2156 61.0234C36.692 56.5736 39.8633 56.3493 43.2213 56.1113C45.0275 55.9835 46.8959 55.8517 49.0647 55.0201C51.635 54.035 53.1876 52.6881 53.8114 50.9033C54.9728 47.5791 52.7414 43.3405 50.1484 38.9251C48.5746 36.2455 48.1243 33.6331 48.6412 30.1902C49.3149 25.7066 48.1762 21.6388 45.5959 19.3088C43.2031 17.1481 39.7625 16.5701 35.6451 17.6371C30.7809 18.8981 26.425 16.5782 22.9249 14.7141C20.6244 13.4884 18.6376 12.4311 17.4253 12.9807C16.7562 13.2843 16.2741 14.0957 15.9534 15.4607C13.791 24.6502 11.8693 27.4 9.28035 29.0444C3.28761 32.8511 0.31191 37.4676 0.900897 42.0431C1.38248 45.7786 4.35263 49.1331 8.29148 50.39ZM22.9728 66.5618C22.2416 66.5618 21.5255 66.4699 20.8291 66.284C17.7556 65.4615 15.4844 62.8951 14.4345 59.0561C13.257 54.7524 11.1658 52.1748 8.04086 51.1781C3.80196 49.8252 0.603882 46.1969 0.0824669 42.1487C-0.771262 35.5206 5.20182 30.656 8.83811 28.3463C11.1865 26.8544 13.0614 24.1471 15.1496 15.2708C15.5333 13.6395 16.1662 12.6443 17.0849 12.227C18.6673 11.5096 20.7172 12.6013 23.3127 13.9835C26.6862 15.7805 30.8848 18.017 35.4384 16.8364C40.9954 15.3966 44.3296 17.0521 46.1485 18.6945C48.9356 21.2109 50.1726 25.5545 49.4576 30.3135C48.9709 33.5533 49.3905 36.003 50.8599 38.5058C53.5553 43.0955 55.8689 47.5179 54.5905 51.1766C53.8916 53.1772 52.1317 54.7301 49.3597 55.7926C47.0764 56.6681 45.1461 56.8045 43.2792 56.9363C40.0786 57.1626 37.0555 57.3768 32.797 61.6104C29.5313 64.8568 26.1169 66.5618 22.9728 66.5618Z" fill="url(#paint0_linear_237_1363)"/>
</g>
<path id="Fill 1352" fill-rule="evenodd" clip-rule="evenodd" d="M18.5385 16.1431C17.0288 16.1431 15.9184 16.8246 15.2003 18.8802C12.7127 25.9995 11.1712 29.0968 9.09155 31.1565C5.0468 35.1622 3.21075 39.5998 3.92177 43.6525C4.52841 47.1106 6.89092 50.0231 10.4027 51.6432C13.2175 52.9421 15.3551 55.1963 16.937 58.5351C18.1931 61.1859 20.2823 62.952 22.8198 63.5078C25.9059 64.1822 29.4015 63.048 32.6631 60.3109C36.1971 57.3464 38.9665 56.7442 41.6447 56.1622C43.4273 55.7747 45.1116 55.409 47.0474 54.391C52.9449 51.2906 53.6181 45.7178 49.1649 36.8536C47.9471 34.413 46.7671 31.6976 46.3783 28.3724C45.932 24.5592 44.3002 21.4638 41.7834 19.6562C39.4163 17.9567 36.4396 17.4748 32.9355 18.224C29.2861 19.005 25.9377 17.9992 22.9832 17.1121C21.2384 16.5877 19.7579 16.1431 18.5385 16.1431ZM24.6054 64.5252C23.9398 64.5252 23.2842 64.456 22.6438 64.3156C19.8512 63.7038 17.5593 61.7769 16.1912 58.8898C14.6955 55.7333 12.689 53.6089 10.0572 52.3944C6.35084 50.6849 3.75335 47.4703 3.10889 43.796C2.34946 39.468 4.26821 34.7702 8.51114 30.5685C10.4894 28.6093 11.981 25.5903 14.4212 18.6069C15.9799 14.145 19.3353 15.1524 23.2202 16.3194C26.0799 17.1782 29.3208 18.1523 32.763 17.4152C36.4512 16.6261 39.7365 17.1686 42.2645 18.9838C44.9724 20.9288 46.7247 24.2288 47.1982 28.2764C47.5719 31.4748 48.7191 34.1104 49.9031 36.4828C51.9187 40.4946 52.896 43.7935 52.8909 46.567C52.8844 50.3433 51.0473 53.2225 47.4307 55.1235C45.396 56.193 43.5781 56.5886 41.8197 56.9705C39.1203 57.557 36.5707 58.1112 33.1931 60.9449C30.3949 63.293 27.4112 64.5252 24.6054 64.5252Z" fill="url(#paint1_linear_237_1363)"/>
<path id="Fill 2699" fill-rule="evenodd" clip-rule="evenodd" d="M14.4329 22.3178C13.1692 24.6644 12.2121 26.6625 11.3675 28.4246C10.4895 30.257 9.73112 31.8397 8.89807 33.2412C6.67323 36.9826 5.9027 40.8828 6.66869 44.5197C7.38828 47.9328 9.46587 50.9119 12.5187 52.9074C14.7073 54.3376 16.7546 56.119 18.6043 58.2029C22.2128 62.2677 27.9166 62.8108 33.1338 59.5871C35.3637 58.209 37.297 57.4562 39.1664 56.7287C41.1698 55.9487 43.0624 55.2121 45.0219 53.7743C52.7564 48.0995 49.81 38.6018 48.1837 34.7815C47.3961 32.9178 46.4949 31.1663 45.5408 29.3117C45.0835 28.4226 44.6105 27.5031 44.1561 26.5796C41.2934 20.7573 36.2124 17.9272 30.2176 18.8112C28.0225 19.1361 25.9333 19.0532 23.9122 18.9729C19.7121 18.8062 16.3945 18.6759 14.4329 22.3178ZM26.308 62.4678C23.1397 62.4678 20.169 61.2098 17.987 58.7526C16.1863 56.7237 14.1949 54.9904 12.0679 53.6001C5.18412 49.1008 3.58861 40.5549 8.18856 32.8178C9.00295 31.4482 9.75381 29.8811 10.6232 28.0669C11.4719 26.2957 12.4335 24.2891 13.7063 21.9253C15.9125 17.8286 19.635 17.9762 23.945 18.1464C25.9278 18.2252 27.9781 18.306 30.0971 17.9933C36.4705 17.0506 41.8647 20.0485 44.8969 26.2144C45.3477 27.1313 45.8192 28.0472 46.2746 28.9328C47.1938 30.7192 48.1439 32.5667 48.9437 34.4582C50.6466 38.4588 53.7216 48.4172 45.5101 54.4417C43.4627 55.9437 41.5208 56.6994 39.4654 57.4997C37.6304 58.214 35.7333 58.9526 33.567 60.2909C31.2055 61.7504 28.7002 62.4678 26.308 62.4678Z" fill="url(#paint2_linear_237_1363)"/>
<path id="Fill 4046" fill-rule="evenodd" clip-rule="evenodd" d="M28.3177 19.3904C22.9396 19.3904 17.5767 21.537 13.6308 25.7811C6.09195 33.8905 6.54378 46.6331 14.6383 54.1858C18.4965 57.7858 23.4066 59.5671 28.304 59.5676C33.6821 59.5681 39.045 57.4211 42.9909 53.1769C50.5302 45.0675 50.0784 32.3249 41.9839 24.7723C38.1257 21.1722 33.2151 19.3904 28.3177 19.3904ZM28.304 60.3946C23.2044 60.3946 18.0931 58.5396 14.0756 54.7915C5.64769 46.9276 5.17771 33.6607 13.0267 25.2173C20.8761 16.774 34.1188 16.3031 42.5461 24.167C50.974 32.0309 51.4445 45.2974 43.595 53.7407C39.4872 58.1591 33.9024 60.3946 28.304 60.3946Z" fill="url(#paint3_linear_237_1363)"/>
</g>
</g>
<defs>
<linearGradient id="paint0_linear_237_1363" x1="16.3143" y1="63.8542" x2="43.4521" y2="16.8672" gradientUnits="userSpaceOnUse">
<stop offset="0.17" stop-color="#6E06C1"/>
<stop offset="0.25" stop-color="#5F24BD"/>
<stop offset="0.46" stop-color="#3E68B5"/>
<stop offset="0.64" stop-color="#239DAE"/>
<stop offset="0.8" stop-color="#10C4A9"/>
<stop offset="0.92" stop-color="#04DBA6"/>
<stop offset="1" stop-color="#00E4A5"/>
</linearGradient>
<linearGradient id="paint1_linear_237_1363" x1="17.774" y1="62.0836" x2="42.149" y2="19.547" gradientUnits="userSpaceOnUse">
<stop offset="0.17" stop-color="#6E06C1"/>
<stop offset="0.25" stop-color="#5F24BD"/>
<stop offset="0.46" stop-color="#3E68B5"/>
<stop offset="0.64" stop-color="#239DAE"/>
<stop offset="0.8" stop-color="#10C4A9"/>
<stop offset="0.92" stop-color="#04DBA6"/>
<stop offset="1" stop-color="#00E4A5"/>
</linearGradient>
<linearGradient id="paint2_linear_237_1363" x1="19.0474" y1="60.2523" x2="41.1533" y2="21.6346" gradientUnits="userSpaceOnUse">
<stop offset="0.17" stop-color="#6E06C1"/>
<stop offset="0.25" stop-color="#5F24BD"/>
<stop offset="0.46" stop-color="#3E68B5"/>
<stop offset="0.64" stop-color="#239DAE"/>
<stop offset="0.8" stop-color="#10C4A9"/>
<stop offset="0.92" stop-color="#04DBA6"/>
<stop offset="1" stop-color="#00E4A5"/>
</linearGradient>
<linearGradient id="paint3_linear_237_1363" x1="19.83" y1="58.3188" x2="40.7286" y2="22.4578" gradientUnits="userSpaceOnUse">
<stop offset="0.17" stop-color="#6E06C1"/>
<stop offset="0.25" stop-color="#5F24BD"/>
<stop offset="0.46" stop-color="#3E68B5"/>
<stop offset="0.64" stop-color="#239DAE"/>
<stop offset="0.8" stop-color="#10C4A9"/>
<stop offset="0.92" stop-color="#04DBA6"/>
<stop offset="1" stop-color="#00E4A5"/>
</linearGradient>
</defs>
</svg>
