<svg width="24" height="24" viewBox="0 0 24 24" fill="none" xmlns="http://www.w3.org/2000/svg">
<path fill-rule="evenodd" clip-rule="evenodd" d="M14 4C14.5523 4 15 4.44772 15 5V18C15 18.5523 14.5523 19 14 19H6C5.44772 19 5 18.5523 5 18V5C5 4.44772 5.44772 4 6 4H14ZM7 8C7 7.44772 7.44772 7 8 7C8.55228 7 9 7.44772 9 8V9C9 9.55228 8.55228 10 8 10C7.44772 10 7 9.55228 7 9V8ZM12 7C11.4477 7 11 7.44772 11 8V9C11 9.55228 11.4477 10 12 10C12.5523 10 13 9.55228 13 9V8C13 7.44772 12.5523 7 12 7ZM11 13C11 12.4477 11.4477 12 12 12C12.5523 12 13 12.4477 13 13V14C13 14.5523 12.5523 15 12 15C11.4477 15 11 14.5523 11 14V13ZM8 12C7.44772 12 7 12.4477 7 13V14C7 14.5523 7.44772 15 8 15C8.55228 15 9 14.5523 9 14V13C9 12.4477 8.55228 12 8 12Z" fill="white"/>
<path fill-rule="evenodd" clip-rule="evenodd" d="M19 11C19.5523 11 20 11.4477 20 12V18C20 18.5523 19.5523 19 19 19H17C16.4477 19 16 18.5523 16 18V12C16 11.4477 16.4477 11 17 11H19Z" fill="white"/>
</svg>
