<svg width="11" height="24" viewBox="0 0 11 24" fill="none" xmlns="http://www.w3.org/2000/svg">
<path fill-rule="evenodd" clip-rule="evenodd" d="M2.1687 8.00417C2.1687 6.52507 3.56505 5.64515 5.07977 5.42622V10.9529C3.2487 10.1935 2.1687 9.47803 2.1687 8.00417M9.40491 15.9727C9.40491 17.4507 8.00857 18.3307 6.49489 18.5506V13.0375C8.32492 13.797 9.40491 14.5093 9.40491 15.9727M2.16863 15.9727C2.20948 15.5002 1.8219 15.121 1.41965 15.143C1.04359 15.164 0.712569 15.5327 0.753422 15.9727C0.782753 16.3362 0.873887 17.6634 1.97483 18.6732C2.74267 19.3771 3.82476 19.8485 5.07969 19.9826V22.6024C5.11635 22.9754 5.43585 23.2582 5.80248 23.2498C6.15759 23.2425 6.45928 22.9638 6.49489 22.6024V19.9774C9.00476 19.7155 10.8212 18.0908 10.8212 15.9674C10.8212 13.3591 8.61718 12.3378 6.49489 11.5165V5.42622C8.00857 5.63782 9.40491 6.52507 9.40491 8.00417C9.41644 8.4127 9.76421 8.7301 10.1507 8.70915C10.5111 8.6903 10.8117 8.38442 10.8212 8.00417C10.7897 7.63859 10.6965 6.31556 9.5987 5.30785C8.83087 4.60182 7.74983 4.12729 6.49489 3.99425V1.37335C6.44776 1.01405 6.13664 0.744838 5.77839 0.750075C5.42642 0.754265 5.12578 1.02138 5.07969 1.37335V3.99844C2.56983 4.26032 0.753422 5.88608 0.753422 8.00941C0.753422 10.6314 2.9616 11.66 5.07969 12.4907V18.5506C3.56497 18.338 2.16863 17.4507 2.16863 15.9727" fill="#170D67"/>
<path d="M5.07977 5.42622H5.20477V5.28185L5.06189 5.3025L5.07977 5.42622ZM5.07977 10.9529L5.03188 11.0684L5.20477 11.1401V10.9529H5.07977ZM6.49489 18.5506H6.36989V18.6951L6.51287 18.6743L6.49489 18.5506ZM6.49489 13.0375L6.54281 12.9221L6.36989 12.8503V13.0375H6.49489ZM2.16863 15.9727L2.04363 15.9619V15.9727H2.16863ZM1.41965 15.143L1.41282 15.0182L1.41269 15.0182L1.41965 15.143ZM0.753422 15.9727L0.878026 15.9626L0.877887 15.9611L0.753422 15.9727ZM1.97483 18.6732L1.89034 18.7653L1.89036 18.7653L1.97483 18.6732ZM5.07969 19.9826H5.20469V19.8702L5.09297 19.8583L5.07969 19.9826ZM5.07969 22.6024H4.95409L4.95529 22.6147L5.07969 22.6024ZM5.80248 23.2498L5.7999 23.1248L5.79963 23.1249L5.80248 23.2498ZM6.49489 22.6024L6.61989 22.6148V22.6024H6.49489ZM6.49489 19.9774L6.48192 19.853L6.36989 19.8647V19.9774H6.49489ZM6.49489 11.5165H6.36989V11.6022L6.44978 11.6331L6.49489 11.5165ZM6.49489 5.42622L6.5122 5.30242L6.36989 5.28253V5.42622H6.49489ZM9.40491 8.00417H9.27986L9.27996 8.0077L9.40491 8.00417ZM10.1507 8.70915L10.1442 8.58432L10.144 8.58434L10.1507 8.70915ZM10.8212 8.00417L10.9469 8.00729L10.9457 7.99347L10.8212 8.00417ZM9.5987 5.30785L9.5141 5.39986L9.51418 5.39993L9.5987 5.30785ZM6.49489 3.99425H6.36989V4.1067L6.48172 4.11856L6.49489 3.99425ZM6.49489 1.37335H6.61989V1.36519L6.61883 1.35709L6.49489 1.37335ZM5.77839 0.750075L5.77988 0.875067L5.78022 0.875062L5.77839 0.750075ZM5.07969 1.37335L4.95575 1.35712L4.95469 1.3652V1.37335H5.07969ZM5.07969 3.99844L5.09266 4.12277L5.20469 4.11108V3.99844H5.07969ZM5.07969 12.4907H5.20469V12.4055L5.12533 12.3743L5.07969 12.4907ZM5.07969 18.5506L5.06231 18.6744L5.20469 18.6944V18.5506H5.07969ZM2.2937 8.00417C2.2937 7.30909 2.62006 6.75306 3.13447 6.34011C3.65137 5.92515 4.35652 5.65705 5.09765 5.54993L5.06189 5.3025C4.28829 5.41431 3.53792 5.69564 2.97796 6.14515C2.41552 6.59667 2.0437 7.22015 2.0437 8.00417H2.2937ZM4.95477 5.42622V10.9529H5.20477V5.42622H4.95477ZM5.12766 10.8375C4.21338 10.4583 3.50356 10.0964 3.02212 9.65438C2.5474 9.21854 2.2937 8.70396 2.2937 8.00417H2.0437C2.0437 8.77825 2.33 9.35833 2.85305 9.83854C3.36937 10.3126 4.11509 10.6882 5.03188 11.0684L5.12766 10.8375ZM9.27991 15.9727C9.27991 16.6672 8.95358 17.223 8.43927 17.636C7.92247 18.0509 7.21754 18.3193 6.47692 18.4269L6.51287 18.6743C7.28592 18.562 8.036 18.2804 8.59579 17.8309C9.15807 17.3794 9.52991 16.7562 9.52991 15.9727H9.27991ZM6.61989 18.5506V13.0375H6.36989V18.5506H6.61989ZM6.44698 13.153C7.36081 13.5322 8.07045 13.8933 8.55182 14.3334C9.02646 14.7673 9.27991 15.2784 9.27991 15.9727H9.52991C9.52991 15.2035 9.24337 14.6268 8.7205 14.1489C8.20437 13.677 7.45901 13.3023 6.54281 12.9221L6.44698 13.153ZM2.29316 15.9834C2.34023 15.4391 1.89476 14.9919 1.41282 15.0182L1.42647 15.2679C1.74904 15.2502 2.07873 15.5614 2.04409 15.9619L2.29316 15.9834ZM1.41269 15.0182C0.961801 15.0434 0.58194 15.4779 0.628958 15.9842L0.877887 15.9611C0.843198 15.5875 1.12537 15.2846 1.4266 15.2678L1.41269 15.0182ZM0.628827 15.9827C0.658335 16.3484 0.751072 17.7203 1.89034 18.7653L2.05933 18.5811C0.996703 17.6064 0.90717 16.3239 0.878017 15.9626L0.628827 15.9827ZM1.89036 18.7653C2.68064 19.4898 3.78891 19.9704 5.06641 20.1069L5.09297 19.8583C3.86061 19.7266 2.80469 19.2644 2.05931 18.5811L1.89036 18.7653ZM4.95469 19.9826V22.6024H5.20469V19.9826H4.95469ZM4.95529 22.6147C4.99827 23.0518 5.3725 23.3847 5.80534 23.3748L5.79963 23.1249C5.4992 23.1317 5.23444 22.8989 5.20409 22.5902L4.95529 22.6147ZM5.80506 23.3748C6.22421 23.3661 6.57754 23.0384 6.61929 22.6147L6.3705 22.5902C6.34102 22.8893 6.09098 23.1188 5.7999 23.1248L5.80506 23.3748ZM6.61989 22.6024V19.9774H6.36989V22.6024H6.61989ZM6.50787 20.1017C9.05909 19.8355 10.9462 18.175 10.9462 15.9674H10.6962C10.6962 18.0066 8.95042 19.5955 6.48192 19.853L6.50787 20.1017ZM10.9462 15.9674C10.9462 14.6209 10.3744 13.6801 9.53417 12.976C8.7002 12.2772 7.60046 11.8103 6.54001 11.3999L6.44978 11.6331C7.51161 12.044 8.57501 12.4984 9.3736 13.1676C10.166 13.8316 10.6962 14.7057 10.6962 15.9674H10.9462ZM6.61989 11.5165V5.42622H6.36989V11.5165H6.61989ZM6.47759 5.55001C7.21774 5.65348 7.92245 5.92148 8.43917 6.33727C8.95346 6.75111 9.27991 7.30899 9.27991 8.00417H9.52991C9.52991 7.22025 9.15819 6.59496 8.59589 6.14249C8.03602 5.69198 7.28572 5.41055 6.5122 5.30242L6.47759 5.55001ZM9.27996 8.0077C9.29342 8.4847 9.69899 8.85882 10.1575 8.83397L10.144 8.58434C9.82944 8.60139 9.53945 8.34071 9.52986 8.00065L9.27996 8.0077ZM10.1573 8.83398C10.5843 8.81164 10.9351 8.45136 10.9461 8.00727L10.6962 8.00107C10.6884 8.31748 10.4379 8.56896 10.1442 8.58432L10.1573 8.83398ZM10.9457 7.99347C10.9141 7.62619 10.8192 6.25852 9.68323 5.21576L9.51418 5.39993C10.5738 6.3726 10.6653 7.65098 10.6966 8.01488L10.9457 7.99347ZM9.68331 5.21583C8.89315 4.48927 7.78593 4.00542 6.50807 3.86995L6.48172 4.11856C7.71373 4.24916 8.76859 4.71436 9.5141 5.39986L9.68331 5.21583ZM6.61989 3.99425V1.37335H6.36989V3.99425H6.61989ZM6.61883 1.35709C6.56351 0.935387 6.19876 0.618916 5.77656 0.625088L5.78022 0.875062C6.07452 0.870759 6.33201 1.09271 6.37096 1.38961L6.61883 1.35709ZM5.7769 0.625084C5.3624 0.630019 5.00987 0.943827 4.95575 1.35712L5.20363 1.38958C5.24169 1.09894 5.49045 0.878512 5.77988 0.875066L5.7769 0.625084ZM4.95469 1.37335V3.99844H5.20469V1.37335H4.95469ZM5.06672 3.87412C2.51545 4.14032 0.628422 5.80193 0.628422 8.00941H0.878422C0.878422 5.97023 2.62421 4.38033 5.09266 4.12277L5.06672 3.87412ZM0.628422 8.00941C0.628422 9.36261 1.20111 10.3086 2.04169 11.0173C2.8761 11.7209 3.97579 12.192 5.03405 12.6071L5.12533 12.3743C4.0655 11.9587 3.00206 11.5001 2.20285 10.8262C1.40982 10.1575 0.878422 9.27816 0.878422 8.00941H0.628422ZM4.95469 12.4907V18.5506H5.20469V12.4907H4.95469ZM5.09707 18.4268C4.35635 18.3229 3.65135 18.0546 3.13449 17.6388C2.62004 17.2249 2.29363 16.6673 2.29363 15.9727H2.04363C2.04363 16.7561 2.41538 17.3811 2.97779 17.8336C3.53778 18.2841 4.28831 18.5658 5.06231 18.6744L5.09707 18.4268Z" fill="#170D67"/>
</svg>
