<svg width="24" height="24" viewBox="0 0 24 24" fill="none" xmlns="http://www.w3.org/2000/svg">
<path fill-rule="evenodd" clip-rule="evenodd" d="M2 2.1025C2 1.49361 2.49361 1 3.1025 1H15.4048C15.6881 1 15.9605 1.10905 16.1656 1.30452L21.6582 6.54086C21.8765 6.74892 22 7.0373 22 7.33884V21.8975C22 22.5064 21.5064 23 20.8975 23H3.1025C2.49361 23 2 22.5064 2 21.8975V2.1025Z" stroke="#170D67" stroke-width="2"/>
<path fill-rule="evenodd" clip-rule="evenodd" d="M18.3324 13.6991C18.0876 13.4639 17.5448 13.3393 16.7188 13.3288C16.1596 13.3227 15.4866 13.3708 14.7787 13.4674C14.4617 13.2891 14.1351 13.0949 13.8786 12.8612C13.1888 12.2329 12.6129 11.3608 12.2541 10.4019C12.2775 10.3123 12.2974 10.2336 12.3159 10.1532C12.3159 10.1532 12.7045 8.00066 12.6016 7.27286C12.5875 7.17305 12.5788 7.1441 12.5512 7.06652L12.5175 6.98195C12.4118 6.7442 12.2046 6.49228 11.8797 6.50601L11.6892 6.5001L11.6839 6.5C11.3216 6.5 11.0263 6.68072 10.9488 6.95085C10.7132 7.79807 10.9563 9.06551 11.3969 10.7071L11.2841 10.9745C10.9687 11.7245 10.5733 12.4799 10.2246 13.1463L10.1792 13.2329C9.81226 13.9333 9.4793 14.5279 9.17747 15.0316L8.86583 15.1923C8.84314 15.204 8.30905 15.4795 8.18377 15.5534C7.12103 16.1723 6.41679 16.8748 6.29995 17.4323C6.26276 17.6102 6.29044 17.8379 6.47953 17.9433L6.78094 18.0912C6.91169 18.1551 7.04957 18.1875 7.19083 18.1875C7.94775 18.1875 8.82651 17.2679 10.0371 15.2074C11.4347 14.7636 13.026 14.3948 14.4206 14.1913C15.4835 14.775 16.7906 15.1803 17.6157 15.1803C17.7622 15.1803 17.8884 15.1667 17.991 15.1402C18.1493 15.0994 18.2826 15.0113 18.3639 14.8919C18.524 14.657 18.5565 14.3334 18.513 14.002C18.5001 13.9037 18.4195 13.7821 18.3324 13.6991Z" stroke="#170D67"/>
</svg>
