<svg width="48" height="48" viewBox="0 0 48 48" fill="none" xmlns="http://www.w3.org/2000/svg">
<path fill-rule="evenodd" clip-rule="evenodd" d="M16 5C16 3.89543 16.8954 3 18 3C19.1046 3 20 3.89543 20 5V25.411C19.358 26.8078 19 28.3621 19 30C19 30.683 19.0622 31.3514 19.1814 32H16V5ZM19.4141 33H2C1.44772 33 1 33.4477 1 34C1 34.5523 1.44772 35 2 35H20.1994C19.8755 34.3664 19.6113 33.6973 19.4141 33ZM30 19V13C30 11.8954 29.1046 11 28 11C26.8954 11 26 11.8954 26 13V19.7499C27.2397 19.2657 28.5888 19 30 19ZM6 11C6 9.89543 6.89543 9 8 9C9.10457 9 10 9.89543 10 11V32H6V11Z" fill="#170D67"/>
<circle cx="30" cy="30" r="8" stroke="#170D67" stroke-width="2"/>
<path d="M37 38.1213L39.1213 36L45.1317 42.0104C45.7175 42.5962 45.7175 43.546 45.1317 44.1317C44.5459 44.7175 43.5962 44.7175 43.0104 44.1317L37 38.1213Z" fill="#170D67"/>
</svg>
