<svg width="36" height="36" viewBox="0 0 36 36" fill="none" xmlns="http://www.w3.org/2000/svg">
<path d="M13.6667 3.98291C13.1144 3.98291 12.6667 4.43063 12.6667 4.98291C12.6667 5.53519 13.1144 5.98291 13.6667 5.98291V3.98291ZM23.3333 5.98291C23.8856 5.98291 24.3333 5.53519 24.3333 4.98291C24.3333 4.43063 23.8856 3.98291 23.3333 3.98291V5.98291ZM28.8571 3.98291C28.3049 3.98291 27.8571 4.43063 27.8571 4.98291C27.8571 5.53519 28.3049 5.98291 28.8571 5.98291V3.98291ZM8.14286 5.98291C8.69514 5.98291 9.14286 5.53519 9.14286 4.98291C9.14286 4.43063 8.69514 3.98291 8.14286 3.98291V5.98291ZM13.6667 5.98291H23.3333V3.98291H13.6667V5.98291ZM28.8571 5.98291C30.716 5.98291 32 7.2841 32 9.01389H34C34 6.13448 31.7749 3.98291 28.8571 3.98291V5.98291ZM32 9.01389V29.0022H34V9.01389H32ZM32 29.0022C32 30.7212 30.7271 31.9999 28.8571 31.9999V33.9999C31.7638 33.9999 34 31.8924 34 29.0022H32ZM28.8571 31.9999H8.14286V33.9999H28.8571V31.9999ZM8.14286 31.9999C6.27292 31.9999 5 30.7212 5 29.0022H3C3 31.8924 5.2362 33.9999 8.14286 33.9999V31.9999ZM5 29.0022V9.01389H3V29.0022H5ZM5 9.01389C5 7.2841 6.28405 5.98291 8.14286 5.98291V3.98291C5.22507 3.98291 3 6.13448 3 9.01389H5Z" fill="#170D67"/>
<circle cx="10.5" cy="21.5" r="1.5" fill="#170D67"/>
<circle cx="18.5" cy="21.5" r="1.5" fill="#170D67"/>
<circle cx="26.5" cy="21.5" r="1.5" fill="#170D67"/>
<rect x="10" y="1" width="2" height="7" rx="1" fill="#170D67"/>
<rect x="25" y="1" width="2" height="7" rx="1" fill="#170D67"/>
<path fill-rule="evenodd" clip-rule="evenodd" d="M3 11H33V13H3V11Z" fill="#170D67"/>
</svg>
