<svg width="24" height="24" viewBox="0 0 24 24" fill="none" xmlns="http://www.w3.org/2000/svg">
<path fill-rule="evenodd" clip-rule="evenodd" d="M7 6C7 8.76142 9.23858 11 12 11C14.7614 11 17 8.76142 17 6C17 3.23858 14.7614 1 12 1C9.23858 1 7 3.23858 7 6ZM15 6C15 7.65685 13.6569 9 12 9C10.3431 9 9 7.65685 9 6C9 4.34315 10.3431 3 12 3C13.6569 3 15 4.34315 15 6ZM21 21C21 21.5523 20.5523 22 20 22H4C3.44772 22 3 21.5523 3 21C3 15.6368 6.8291 12 12 12C17.1709 12 21 15.6368 21 21ZM12 14C15.7574 14 18.5204 16.335 18.9436 20H5.05644C5.47962 16.335 8.24264 14 12 14Z" fill="#170D67"/>
</svg>
