<svg width="112" height="112" viewBox="0 0 112 112" fill="none" xmlns="http://www.w3.org/2000/svg">
<path d="M97.9109 45.003H102.97C105.196 45.003 107 46.8024 107 49.0124V76.003M14.0891 45.003H9.02994C6.81369 45.003 5 46.7981 5 49.0124V98.9935C5 101.204 6.80426 103.003 9.02994 103.003H73.5" stroke="#170D67" stroke-width="2" stroke-linecap="round" stroke-linejoin="round"/>
<circle cx="93" cy="93" r="18" stroke="#00E4A5" stroke-width="2"/>
<path fill-rule="evenodd" clip-rule="evenodd" d="M93.5063 95.8345C94.4747 95.8345 95.2735 95.0763 95.3239 94.1093L95.8284 84.4464C95.8978 83.1164 94.8381 82 93.5063 82C92.1746 82 91.1149 83.1164 91.1843 84.4464L91.6888 94.1093C91.7392 95.0763 92.538 95.8345 93.5063 95.8345ZM91.6372 98.8789C91.2124 99.2848 91 99.8843 91 100.677C91 101.442 91.2171 102.034 91.6514 102.454C92.0856 102.874 92.6992 103.084 93.4922 103.084C94.2663 103.084 94.8704 102.87 95.3047 102.44C95.7389 102.011 95.9561 101.423 95.9561 100.677C95.9561 99.9032 95.7413 99.3084 95.3118 98.8931C94.8822 98.4777 94.2757 98.27 93.4922 98.27C92.6803 98.27 92.062 98.473 91.6372 98.8789Z" fill="#00E4A5"/>
<path d="M14 55V12.0691C14 10.3741 15.7913 9 18.0033 9H92.9967C95.2077 9 97 10.3695 97 12.0691V55" stroke="#170D67" stroke-width="2"/>
<path d="M10.5111 52.503L56 85.003" stroke="#170D67" stroke-width="2" stroke-linecap="round"/>
<path d="M101.489 52.503L56 85.003" stroke="#170D67" stroke-width="2" stroke-linecap="round"/>
<rect x="24" y="16.003" width="23" height="2" rx="1" fill="#170D67"/>
<rect x="53" y="39.003" width="34" height="2" rx="1" fill="#170D67"/>
<rect x="53" y="43.003" width="34" height="2" rx="1" fill="#170D67"/>
<rect x="53" y="35.003" width="16" height="2" rx="1" fill="#170D67"/>
<rect x="24" y="20.003" width="23" height="2" rx="1" fill="#170D67"/>
<circle cx="34.5" cy="40.503" r="9.5" stroke="#00E4A5" stroke-width="3" stroke-linecap="round"/>
</svg>
