<svg width="40" height="40" viewBox="0 0 40 40" fill="none" xmlns="http://www.w3.org/2000/svg">
<rect x="11.125" y="20.125" width="5" height="6" rx="1" fill="#170D67"/>
<path d="M3.51288 17.3343C3.07618 17.6724 2.99624 18.3005 3.33433 18.7372C3.67242 19.1739 4.30052 19.2538 4.73723 18.9157L3.51288 17.3343ZM19.6251 6.125L20.2372 5.33428C19.8768 5.05524 19.3733 5.05524 19.0129 5.33428L19.6251 6.125ZM34.5129 18.9157C34.9496 19.2538 35.5777 19.1739 35.9158 18.7372C36.2539 18.3005 36.1739 17.6724 35.7372 17.3343L34.5129 18.9157ZM26.1251 29.125C26.1251 29.6773 26.5728 30.125 27.1251 30.125C27.6773 30.125 28.1251 29.6773 28.1251 29.125H26.1251ZM27.1251 21.125H28.1251C28.1251 20.5727 27.6773 20.125 27.1251 20.125V21.125ZM20.1251 21.125V20.125C19.5728 20.125 19.1251 20.5727 19.1251 21.125H20.1251ZM19.1251 29.125C19.1251 29.6773 19.5728 30.125 20.1251 30.125C20.6773 30.125 21.1251 29.6773 21.1251 29.125H19.1251ZM33.1251 20.125C33.1251 19.5727 32.6773 19.125 32.1251 19.125C31.5728 19.125 31.1251 19.5727 31.1251 20.125H33.1251ZM32.1251 33.125V34.125C32.6773 34.125 33.1251 33.6773 33.1251 33.125H32.1251ZM7.12505 33.125H6.12505C6.12505 33.6773 6.57277 34.125 7.12505 34.125V33.125ZM8.12505 20.125C8.12505 19.5727 7.67734 19.125 7.12505 19.125C6.57277 19.125 6.12505 19.5727 6.12505 20.125H8.12505ZM4.73723 18.9157L20.2372 6.91572L19.0129 5.33428L3.51288 17.3343L4.73723 18.9157ZM19.0129 6.91572L34.5129 18.9157L35.7372 17.3343L20.2372 5.33428L19.0129 6.91572ZM28.1251 29.125V21.125H26.1251V29.125H28.1251ZM27.1251 20.125H20.1251V22.125H27.1251V20.125ZM19.1251 21.125V29.125H21.1251V21.125H19.1251ZM31.1251 20.125V33.125H33.1251V20.125H31.1251ZM32.1251 32.125H7.12505V34.125H32.1251V32.125ZM8.12505 33.125V20.125H6.12505V33.125H8.12505Z" fill="#170D67"/>
</svg>
