<svg width="128" height="128" viewBox="0 0 128 128" fill="none" xmlns="http://www.w3.org/2000/svg">
<path fill-rule="evenodd" clip-rule="evenodd" d="M62.3881 107.944C80.8022 109.315 90.0991 85.0931 79.5988 64.993C75.9751 67.696 74.6216 70.2532 73.1326 73.5319C71.5005 64.439 65.203 52.274 61.4207 49C56.9036 55.4535 44 68.779 44 85.0931C44 98.9059 52.5189 107.21 62.3881 107.944Z" stroke="#00E4A5" stroke-width="2" stroke-linecap="round" stroke-linejoin="round"/>
<path fill-rule="evenodd" clip-rule="evenodd" d="M64.7782 118C38.8276 118 22.0356 95.9428 26.8106 72.3929C32.0184 46.7083 54.7415 23.0522 63.3058 8C72.886 22.2917 91.334 42.5835 97.4819 58.8576C111.504 95.9765 90.7289 118 64.7782 118Z" stroke="#170D67" stroke-width="2" stroke-linecap="round" stroke-linejoin="round"/>
</svg>
