<svg width="24" height="24" viewBox="0 0 24 24" fill="none" xmlns="http://www.w3.org/2000/svg">
<path d="M11.1 3.89723V3.00001C11.1 2.50295 11.5029 2.10001 12 2.10001C12.4971 2.10001 12.9 2.50295 12.9 3.00001V3.85945C13.6525 3.94567 14.3605 4.16408 15.0137 4.47752C15.5318 4.72606 15.9124 4.98009 16.1374 5.16679C16.5199 5.48417 16.5728 6.05156 16.2554 6.4341C15.938 6.81664 15.3706 6.86947 14.9881 6.55209C14.8693 6.45355 14.6088 6.27972 14.2351 6.10039C13.6062 5.79867 12.9139 5.61848 12.1819 5.61848C9.86857 5.61848 8.43669 6.91443 8.55223 8.12066C8.67432 9.39526 9.32353 10.0405 11.1 10.6611V8.00001C11.1 7.50295 11.5029 7.10001 12 7.10001C12.4971 7.10001 12.9 7.50295 12.9 8.00001V11.1998C16.2874 12.1446 17.6025 12.9892 17.7952 15.3518C17.9946 17.7974 15.8163 19.3848 12.8038 19.5947C12.8653 19.7165 12.9 19.8542 12.9 20V21C12.9 21.4971 12.4971 21.9 12 21.9C11.5029 21.9 11.1 21.4971 11.1 21V20C11.1 19.8439 11.1398 19.697 11.2097 19.5691C9.75214 19.4058 8.52523 18.8459 7.52924 18.0073C6.8057 17.398 6.34781 16.7807 6.11588 16.3337C5.88697 15.8925 6.05908 15.3492 6.50029 15.1203C6.9415 14.8914 7.48474 15.0635 7.71365 15.5047C7.7379 15.5515 7.80705 15.664 7.92304 15.8204C8.12646 16.0947 8.3812 16.3715 8.68863 16.6304C9.57133 17.3737 10.6946 17.8185 12.1113 17.8185C14.5646 17.8185 16.109 16.8206 16.0011 15.4981C15.9017 14.2792 15.1891 13.7472 12.9 13.0721V16C12.9 16.4971 12.4971 16.9 12 16.9C11.5029 16.9 11.1 16.4971 11.1 16V12.5552C8.23107 11.6595 6.98584 10.6456 6.76043 8.29229C6.56062 6.20627 8.38173 4.30155 11.1 3.89723Z" fill="#5A626D"/>
</svg>
