<svg width="250" height="100" viewBox="0 0 250 100" fill="none" xmlns="http://www.w3.org/2000/svg">
<g id="Opco=BGE, Color=Inverse">
<g id="Group 13">
<g id="Group 3">
<mask id="mask0_237_1414" style="mask-type:alpha" maskUnits="userSpaceOnUse" x="70" y="19" width="180" height="70">
<path id="Clip 2" fill-rule="evenodd" clip-rule="evenodd" d="M70.2064 19.2979H250V89H70.2064V19.2979Z" fill="white"/>
</mask>
<g mask="url(#mask0_237_1414)">
<path id="Fill 1" fill-rule="evenodd" clip-rule="evenodd" d="M160.991 24.2301V29.5347H160.249V26.4656C160.249 26.1473 160.264 25.8518 160.287 25.579C159.857 26.5641 159.312 27.572 158.608 28.6708H157.966C157.254 27.572 156.71 26.5565 156.264 25.5714C156.294 25.8371 156.309 26.1398 156.309 26.4656V29.5347H155.575V24.2301H156.392C156.906 25.4956 157.512 26.6404 158.291 27.8827C159.062 26.6404 159.652 25.4956 160.166 24.2301H160.991ZM151.339 28.6405C151.694 28.7769 152.194 28.9284 152.753 28.9284C153.435 28.9284 153.836 28.6708 153.836 28.1403C153.836 27.5417 153.382 27.3598 152.633 27.1173C151.755 26.8298 151.218 26.4429 151.218 25.5871C151.218 24.655 151.869 24.1392 152.973 24.1392C153.457 24.1392 153.979 24.2534 154.312 24.3893L154.153 25.0485C153.797 24.9273 153.412 24.8364 153.018 24.8364C152.345 24.8364 152.02 25.0864 152.02 25.5643C152.02 26.0791 152.361 26.2534 153.018 26.4732C153.926 26.7763 154.637 27.0946 154.637 28.1332C154.637 29.1633 153.82 29.6256 152.784 29.6256C152.149 29.6256 151.566 29.4968 151.188 29.33L151.339 28.6405ZM132.629 41.193H145.139C145.19 40.8853 145.19 40.6812 145.19 40.3741C145.19 36.9469 143.403 33.9804 139.471 33.9804C135.488 33.9804 133.088 36.7933 132.629 41.193ZM149.53 55.1071C147.13 56.2326 144.067 56.8985 140.748 56.8985C132.629 56.8985 127.267 51.9354 127.267 43.2906C127.267 35.3095 132.016 29.7337 139.471 29.7337C146.211 29.7337 150.195 34.5932 150.195 41.0905C150.195 42.4211 150.092 43.5467 149.99 44.5177H132.578C133.088 49.992 136.203 52.4987 141.207 52.4987C143.761 52.4987 146.365 51.8849 148.662 50.9124L149.53 55.1071ZM112.588 50.8099C114.631 50.8099 116.213 50.2986 117.49 49.4807V34.9008C116.366 34.4916 114.732 34.0819 113.099 34.0819C108.247 34.0819 105.235 37.305 105.235 42.5742C105.235 47.6893 107.941 50.8099 112.588 50.8099ZM110.852 66.0546C107.175 66.0546 104.928 65.5949 102.324 64.5719L103.396 60.3762C105.643 61.2462 107.839 61.6549 110.545 61.6549C115.09 61.6549 117.49 59.5583 117.49 56.0285V53.8799C115.907 54.6978 114.018 55.2096 111.873 55.2096C104.571 55.2096 99.9749 50.7594 99.9749 42.9834C99.9749 34.7983 105.184 29.7337 113.099 29.7337C116.928 29.7337 120.401 30.7062 122.647 31.7797V55.5678C122.647 62.3712 118.103 66.0546 110.852 66.0546ZM83.4677 52.5493C88.7781 52.5493 91.3827 48.969 91.3827 42.9834C91.3827 37.0999 88.6763 34.0819 83.621 34.0819C81.8338 34.0819 80.1486 34.7472 79.0765 35.4121V51.8329C80.3018 52.3447 81.5787 52.5493 83.4677 52.5493ZM83.621 56.8985C80.2 56.8985 76.2677 56.4377 73.9188 55.1586V19.5535L79.0765 19.2979V30.8593C80.2 30.1949 81.9866 29.7337 84.0294 29.7337C91.5869 29.7337 96.6926 34.3375 96.6926 42.8809C96.6926 51.4757 91.7906 56.8985 83.621 56.8985ZM244.713 83.7889C242.918 81.3953 241.647 79.3589 240.647 76.9142H241.935C242.782 78.9855 243.765 80.6153 245.341 82.771C246.899 80.632 247.865 78.9855 248.712 76.9142H250C248.967 79.3589 247.73 81.413 245.934 83.7551V88.7969H244.713V83.7889ZM229.309 88.7969V76.9142H230.496C232.562 80.6153 234.595 83.6369 237.087 87.0818C237.053 86.6413 237.036 86.0982 237.036 85.4692V76.9142H238.188V88.7969H237.002C234.409 85.3171 232.274 82.3799 230.41 78.934C230.444 79.512 230.461 80.1733 230.461 80.8351V88.7969H229.309ZM219.411 84.2305H224.053C223.223 81.803 222.376 79.6135 221.732 78.1707C221.088 79.6135 220.241 81.803 219.411 84.2305ZM224.41 85.3H219.055C218.666 86.4543 218.293 87.6249 217.954 88.7969H216.7C218.022 84.5189 219.427 80.4961 221.088 76.9142H222.359C224.019 80.4961 225.46 84.4684 226.765 88.7969H225.511C225.173 87.6249 224.799 86.4543 224.41 85.3ZM210.882 77.9837H209.239V83.4328H210.882C212.967 83.4328 214.356 82.8048 214.356 80.7168C214.356 78.6284 212.967 77.9837 210.882 77.9837ZM208.019 76.9142H210.899C213.763 76.9142 215.61 78.0681 215.61 80.7168C215.61 83.3651 213.763 84.5023 210.899 84.5023H209.239V88.7969H208.019V76.9142ZM204.327 76.9142V88.7969H203.175V80.8871C203.175 80.2071 203.209 79.5963 203.226 79.0704C202.142 81.5822 200.786 84.1289 198.972 86.9802H197.923C196.11 84.1289 194.737 81.5484 193.636 79.0532C193.686 79.5797 193.703 80.2071 193.703 80.8871V88.7969H192.551V76.9142H193.822C195.042 79.902 196.583 82.7533 198.465 85.7759C200.328 82.7533 201.853 79.902 203.056 76.9142H204.327ZM184.427 87.8967C187.053 87.8967 188.155 85.6561 188.155 82.8558C188.155 80.055 187.053 77.8135 184.427 77.8135C181.784 77.8135 180.717 80.055 180.717 82.8558C180.717 85.6561 181.818 87.8967 184.427 87.8967ZM184.427 89C181.056 89 179.445 86.3018 179.445 82.8558C179.445 79.4094 181.022 76.7102 184.427 76.7102C187.816 76.7102 189.426 79.4094 189.426 82.8558C189.426 86.3018 187.816 89 184.427 89ZM169.441 82.9907C169.441 79.4094 171.135 76.7102 174.728 76.7102C175.727 76.7102 176.727 76.9314 177.625 77.3043L177.32 78.3571C176.524 78.0681 175.745 77.8135 174.745 77.8135C171.864 77.8135 170.712 80.1227 170.712 82.9907C170.712 85.9107 172.017 87.8967 174.829 87.8967C175.948 87.8967 176.761 87.591 177.456 87.2859L177.71 88.3382C177.015 88.6944 175.948 89 174.796 89C171.288 89 169.441 86.6074 169.441 82.9907ZM152.598 88.7969V76.9142H153.784C155.851 80.6153 157.884 83.6369 160.375 87.0818C160.341 86.6413 160.324 86.0982 160.324 85.4692V76.9142H161.477V88.7969H160.29C157.698 85.3171 155.563 82.3799 153.699 78.934C153.733 79.512 153.75 80.1733 153.75 80.8351V88.7969H152.598ZM144.474 87.8967C147.1 87.8967 148.202 85.6561 148.202 82.8558C148.202 80.055 147.1 77.8135 144.474 77.8135C141.831 77.8135 140.763 80.055 140.763 82.8558C140.763 85.6561 141.865 87.8967 144.474 87.8967ZM144.474 89C141.102 89 139.492 86.3018 139.492 82.8558C139.492 79.4094 141.068 76.7102 144.474 76.7102C147.862 76.7102 149.472 79.4094 149.472 82.8558C149.472 86.3018 147.862 89 144.474 89ZM130.996 76.9142H132.216V87.7274H137.841V88.7969H130.996V76.9142ZM128.208 88.7969H121.295V76.9142H128.208V77.9837H122.515V82.1592H127.395V83.2287H122.515V87.7274H128.208V88.7969ZM113.863 83.4328C112.778 84.9089 111.524 86.8453 110.626 88.7969H109.338C110.287 86.6413 111.745 84.5189 113.286 82.5674L109.576 76.9142H110.982L114.218 81.8369C115.506 80.241 116.607 78.4763 117.234 76.9142H118.505C117.709 78.883 116.387 80.8184 114.777 82.6856L118.776 88.7969H117.387L113.863 83.4328ZM107.182 88.7969H100.269V76.9142H107.182V77.9837H101.489V82.1592H106.369V83.2287H101.489V87.7274H107.182V88.7969ZM82.8151 88.7969V76.9142H84.0017C86.0687 80.6153 88.1019 83.6369 90.593 87.0818C90.5587 86.6413 90.5421 86.0982 90.5421 85.4692V76.9142H91.6943V88.7969H90.5083C87.9158 85.3171 85.7807 82.3799 83.9165 78.934C83.9502 79.512 83.9674 80.1733 83.9674 80.8351V88.7969H82.8151ZM72.9173 84.2305H77.5601C76.7296 81.803 75.8829 79.6135 75.2385 78.1707C74.5945 79.6135 73.7478 81.803 72.9173 84.2305ZM77.9161 85.3H72.5618C72.1715 86.4543 71.7993 87.6249 71.4605 88.7969H70.2064C71.5281 84.5189 72.9345 80.4961 74.5945 76.9142H75.8658C77.5263 80.4961 78.9665 84.4684 80.2711 88.7969H79.0175C78.6781 87.6249 78.3059 86.4543 77.9161 85.3Z" fill="white"/>
</g>
</g>
<g id="Group 6">
<mask id="mask1_237_1414" style="mask-type:alpha" maskUnits="userSpaceOnUse" x="0" y="12" width="55" height="55">
<path id="Clip 5" fill-rule="evenodd" clip-rule="evenodd" d="M0 12H54.9518V66.5613H0V12Z" fill="white"/>
</mask>
<g mask="url(#mask1_237_1414)">
<path id="Fill 4" fill-rule="evenodd" clip-rule="evenodd" d="M18.1821 12.8314C17.9048 12.8314 17.6516 12.8779 17.4252 12.9804C16.756 13.2845 16.274 14.0959 15.9532 15.4604C13.7914 24.6499 11.8692 27.3997 9.28023 29.0446C3.28749 32.8507 0.311788 37.4672 0.901279 42.0427C1.38235 45.7781 4.3525 49.1326 8.29136 50.3895C11.7038 51.4782 13.9735 54.2416 15.2306 58.8374C16.1998 62.3803 18.2638 64.7405 21.0418 65.4837C24.4401 66.393 28.4077 64.8082 32.2149 61.0228C36.6913 56.5726 39.8632 56.3483 43.2211 56.1108C45.0274 55.983 46.8953 55.8507 49.0641 55.0196C51.6344 54.0345 53.187 52.6876 53.8108 50.9028C54.9721 47.5786 52.7408 43.34 50.1478 38.9246C48.5745 36.2451 48.1237 33.6332 48.641 30.1898C49.3147 25.7062 48.1761 21.6384 45.5952 19.3085C43.203 17.1483 39.7618 16.5698 35.645 17.6373C30.7808 18.8978 26.4249 16.5779 22.9248 14.7137C21.0539 13.7175 19.3898 12.8314 18.1821 12.8314ZM22.9727 66.5613C22.2415 66.5613 21.5254 66.4693 20.829 66.2829C17.7555 65.461 15.4843 62.8941 14.4344 59.0556C13.2569 54.7514 11.1657 52.1744 8.04074 51.1776C3.80235 49.8247 0.60376 46.1964 0.0823447 42.1488C-0.771385 35.5201 5.20169 30.6556 8.83849 28.3459C11.1864 26.8546 13.0613 24.1467 15.1494 15.271C15.5332 13.6397 16.1665 12.644 17.0848 12.2272C18.6667 11.5093 20.7171 12.6015 23.3126 13.9837C26.6861 15.7807 30.8847 18.0167 35.4382 16.8366C40.9948 15.3968 44.329 17.0518 46.1479 18.6942C48.935 21.2105 50.1725 25.5542 49.4575 30.3131C48.9703 33.5529 49.3899 36.0031 50.8593 38.5053C53.5546 43.0945 55.8682 47.5175 54.5899 51.1761C53.891 53.1762 52.1311 54.7296 49.3591 55.792C47.0758 56.6675 45.1454 56.804 43.2791 56.9358C40.0785 57.1621 37.0554 57.3758 32.7969 61.6099C29.5312 64.8562 26.1168 66.5613 22.9727 66.5613Z" fill="url(#paint0_linear_237_1414)"/>
</g>
</g>
<path id="Fill 7" fill-rule="evenodd" clip-rule="evenodd" d="M14.8105 18.7436L15.2003 18.8805C12.7127 25.9992 11.1712 29.0965 9.09157 31.1562C5.04682 35.1619 3.21078 39.5995 3.9218 43.6521C4.52894 47.1102 6.89094 50.0226 10.4022 51.6428C13.2175 52.9416 15.3551 55.1958 16.937 58.5341C18.1931 61.1849 20.2823 62.951 22.8198 63.5068C25.9055 64.1822 29.4011 63.047 32.6632 60.3099C36.1966 57.3454 38.9661 56.7437 41.6442 56.1617C43.4268 55.7743 45.1111 55.408 47.047 54.3905C52.9449 51.2897 53.6176 45.7174 49.1644 36.8527C47.9466 34.4126 46.7666 31.6972 46.3778 28.372C45.9315 24.5588 44.2997 21.4635 41.7829 19.6559C39.4159 17.9565 36.4392 17.4745 32.9355 18.2237C29.2866 19.0042 25.9377 17.9989 22.9832 17.1118C19.0781 15.9387 16.4988 15.1643 15.2003 18.8805L14.8105 18.7436ZM24.6054 64.5242C23.9398 64.5242 23.2843 64.455 22.6433 64.3146C19.8507 63.7028 17.5593 61.7765 16.1912 58.8888C14.6955 55.7328 12.689 53.6085 10.0573 52.394C6.35087 50.6839 3.75337 47.4694 3.10891 43.7951C2.34948 39.4671 4.26823 34.7698 8.51116 30.5681C10.4894 28.609 11.9805 25.591 14.4207 18.6067C15.9799 14.1453 19.3348 15.1526 23.2202 16.3196C26.0794 17.178 29.3204 18.1515 32.763 17.4149C36.4508 16.6263 39.7361 17.1689 42.264 18.9835C44.9719 20.9285 46.7242 24.2284 47.1978 28.2761C47.5719 31.4744 48.7186 34.11 49.9027 36.4819C51.9182 40.4942 52.8955 43.7931 52.8905 46.5661C52.8839 50.3429 51.0469 53.2215 47.4302 55.1226C45.3955 56.1926 43.5776 56.5876 41.8192 56.9696C39.1199 57.5561 36.5703 58.1108 33.1932 60.9444C30.395 63.2921 27.4107 64.5242 24.6054 64.5242Z" fill="url(#paint1_linear_237_1414)"/>
<path id="Fill 9" fill-rule="evenodd" clip-rule="evenodd" d="M14.0697 22.1214L14.4328 22.3179C13.1691 24.6645 12.212 26.6621 11.3674 28.4242C10.4894 30.2565 9.731 31.8393 8.89794 33.2407C6.6731 36.9822 5.90258 40.8823 6.66907 44.5192C7.38816 47.9328 9.46575 50.9114 12.5186 52.9069C14.7071 54.3371 16.7545 56.1184 18.6041 58.2023C22.2127 62.2671 27.916 62.8102 33.1337 59.5866C35.3636 58.2084 37.2969 57.4557 39.1663 56.7282C41.1697 55.9482 43.0622 55.2116 45.0218 53.7738C52.7558 48.0995 49.8094 38.6013 48.1831 34.781C47.3954 32.9174 46.4943 31.1654 45.5402 29.3108C45.0829 28.4222 44.6099 27.5027 44.156 26.5797C41.2928 20.7574 36.2132 17.9258 30.217 18.8114C28.0219 19.1357 25.9327 19.0528 23.9121 18.973C19.7115 18.8073 16.3944 18.6755 14.4328 22.3179L14.0697 22.1214ZM26.3079 62.4672C23.1395 62.4672 20.1689 61.2092 17.9869 58.7515C16.1862 56.7231 14.1948 54.9893 12.0678 53.5995C5.18399 49.1003 3.58848 40.5544 8.18844 32.8174C9.00283 31.4478 9.75369 29.8807 10.6236 28.0665C11.4717 26.2958 12.4334 24.2887 13.7067 21.9249C15.9123 17.8288 19.6349 17.9768 23.9449 18.1465C25.9277 18.2248 27.9775 18.3062 30.0965 17.9935C36.4714 17.0523 41.8646 20.0486 44.8963 26.214C45.3471 27.1304 45.8181 28.0463 46.2739 28.9319C47.1932 30.7188 48.1438 32.5663 48.943 34.4577C50.646 38.4584 53.721 48.4167 45.5095 54.4412C43.4621 55.9431 41.5207 56.6989 39.4653 57.4991C37.6302 58.2134 35.7327 58.952 33.5668 60.2903C31.2053 61.7498 28.7001 62.4672 26.3079 62.4672Z" fill="url(#paint2_linear_237_1414)"/>
<path id="Fill 11" fill-rule="evenodd" clip-rule="evenodd" d="M28.3174 19.3905C22.9394 19.3905 17.5765 21.537 13.6311 25.7812C6.09174 33.8905 6.54407 46.6325 14.6381 54.1852C22.7327 61.7383 35.4519 61.2857 42.9907 53.1763C50.5295 45.0669 50.0777 32.3249 41.9832 24.7718C38.1255 21.1723 33.2149 19.3905 28.3174 19.3905ZM28.3038 60.3935C23.2041 60.3935 18.0929 58.5389 14.0758 54.7909C5.64798 46.9271 5.17749 33.6602 13.027 25.2174C20.8759 16.7741 34.1186 16.3032 42.5459 24.1666C50.9738 32.0304 51.4443 45.2968 43.5948 53.7401C39.487 58.1585 33.9022 60.3935 28.3038 60.3935Z" fill="url(#paint3_linear_237_1414)"/>
</g>
</g>
<defs>
<linearGradient id="paint0_linear_237_1414" x1="16.3141" y1="63.8537" x2="43.4515" y2="16.8671" gradientUnits="userSpaceOnUse">
<stop offset="0.17" stop-color="#6E06C1"/>
<stop offset="0.25" stop-color="#5F24BD"/>
<stop offset="0.46" stop-color="#3E68B5"/>
<stop offset="0.64" stop-color="#239DAE"/>
<stop offset="0.8" stop-color="#10C4A9"/>
<stop offset="0.92" stop-color="#04DBA6"/>
<stop offset="1" stop-color="#00E4A5"/>
</linearGradient>
<linearGradient id="paint1_linear_237_1414" x1="17.7739" y1="62.0827" x2="42.1481" y2="19.5468" gradientUnits="userSpaceOnUse">
<stop offset="0.17" stop-color="#6E06C1"/>
<stop offset="0.25" stop-color="#5F24BD"/>
<stop offset="0.46" stop-color="#3E68B5"/>
<stop offset="0.64" stop-color="#239DAE"/>
<stop offset="0.8" stop-color="#10C4A9"/>
<stop offset="0.92" stop-color="#04DBA6"/>
<stop offset="1" stop-color="#00E4A5"/>
</linearGradient>
<linearGradient id="paint2_linear_237_1414" x1="19.0471" y1="60.2517" x2="41.1523" y2="21.6348" gradientUnits="userSpaceOnUse">
<stop offset="0.17" stop-color="#6E06C1"/>
<stop offset="0.25" stop-color="#5F24BD"/>
<stop offset="0.46" stop-color="#3E68B5"/>
<stop offset="0.64" stop-color="#239DAE"/>
<stop offset="0.8" stop-color="#10C4A9"/>
<stop offset="0.92" stop-color="#04DBA6"/>
<stop offset="1" stop-color="#00E4A5"/>
</linearGradient>
<linearGradient id="paint3_linear_237_1414" x1="19.83" y1="58.3177" x2="40.7279" y2="22.4573" gradientUnits="userSpaceOnUse">
<stop offset="0.17" stop-color="#6E06C1"/>
<stop offset="0.25" stop-color="#5F24BD"/>
<stop offset="0.46" stop-color="#3E68B5"/>
<stop offset="0.64" stop-color="#239DAE"/>
<stop offset="0.8" stop-color="#10C4A9"/>
<stop offset="0.92" stop-color="#04DBA6"/>
<stop offset="1" stop-color="#00E4A5"/>
</linearGradient>
</defs>
</svg>
