<svg width="80" height="48" viewBox="0 0 80 48" fill="none" xmlns="http://www.w3.org/2000/svg">
<rect x="2" y="2" width="76" height="44" rx="10" fill="#F7F7F8"/>
<g opacity="0.01">
<rect x="18" y="8" width="44" height="30" fill="white"/>
</g>
<rect x="34.1982" y="13.2267" width="11.607" height="19.5432" fill="#FF5F00"/>
<path fill-rule="evenodd" clip-rule="evenodd" d="M35.3937 23C35.3908 19.187 37.0887 15.5843 39.9983 13.2301C35.0554 9.22554 27.9572 9.80884 23.6921 14.5701C19.427 19.3314 19.427 26.672 23.6921 31.4333C27.9572 36.1946 35.0554 36.7779 39.9983 32.7733C37.0878 30.4183 35.3898 26.8142 35.3937 23Z" fill="#EB001B"/>
<path fill-rule="evenodd" clip-rule="evenodd" d="M58.3763 30.3849V31.1889H58.2952V30.3849H58.1221V30.2186H58.5605V30.3849H58.3763ZM59.2272 30.2186V31.1889H59.1351V30.4542L58.9915 31.0849H58.892L58.7483 30.4542V31.1889H58.6526V30.2186H58.7852L58.9399 30.9117L59.0946 30.2186H59.2272Z" fill="#F79E1B"/>
<path fill-rule="evenodd" clip-rule="evenodd" d="M59.5051 23C59.505 27.7584 56.8694 32.099 52.7177 34.1783C48.5659 36.2577 43.627 35.7108 39.9983 32.7699C42.9066 30.4136 44.6047 26.8115 44.6047 22.9983C44.6047 19.1851 42.9066 15.5829 39.9983 13.2267C43.627 10.2858 48.5659 9.73886 52.7177 11.8182C56.8694 13.8976 59.505 18.2382 59.5051 22.9966V23Z" fill="#F79E1B"/>
</svg>
