<svg width="40" height="40" viewBox="0 0 40 40" fill="none" xmlns="http://www.w3.org/2000/svg">
<path fill-rule="evenodd" clip-rule="evenodd" d="M20.6019 15.6757C20.5145 15.8244 20.4705 15.9854 20.4705 16.1565C20.4705 16.4247 20.5673 16.6552 20.7584 16.8402C20.9491 17.0249 21.1852 17.1185 21.4589 17.1185C21.6349 17.1185 21.7999 17.0765 21.9518 16.993C22.1045 16.9089 22.226 16.791 22.3145 16.6411C22.4028 16.4916 22.4473 16.3293 22.4473 16.1565C22.4473 15.9854 22.4029 15.8236 22.3147 15.6734C22.2263 15.5228 22.1046 15.4037 21.9513 15.3181C21.7986 15.2327 21.6337 15.1897 21.4589 15.1897C21.2804 15.1897 21.1137 15.2337 20.9613 15.3213C20.8096 15.4085 20.6892 15.5272 20.6019 15.6757ZM21.2856 16.3235C21.2383 16.2767 21.2161 16.2236 21.2161 16.1565C21.2161 16.0879 21.2391 16.0331 21.288 15.9847C21.3367 15.9366 21.3911 15.9143 21.4589 15.9143C21.5279 15.9143 21.5826 15.937 21.6312 15.9861C21.681 16.0365 21.7041 16.091 21.7041 16.1565C21.7041 16.2202 21.6816 16.2729 21.6329 16.3216C21.5854 16.3691 21.5301 16.3915 21.4589 16.3915C21.3872 16.3915 21.3322 16.3696 21.2856 16.3235Z" fill="#170D67"/>
<path fill-rule="evenodd" clip-rule="evenodd" d="M20.4108 19.4975L20.2727 19.3623H18.3425L18.8339 18.9578C19.2653 18.5717 19.5684 18.2724 19.7435 18.0586C19.9212 17.8417 20.0534 17.6283 20.1396 17.4181C20.2271 17.2048 20.2708 16.9767 20.2708 16.7348C20.2708 16.451 20.1974 16.1961 20.0507 15.9734C19.9044 15.7514 19.699 15.5788 19.4372 15.4569C19.1788 15.3365 18.883 15.2767 18.5513 15.2767C18.3039 15.2767 18.079 15.3007 17.8765 15.3491C17.6741 15.3974 17.4867 15.4665 17.3146 15.5566C17.1428 15.6466 16.9317 15.7966 16.6789 16.0072L16.6629 16.1972L17.2367 16.862L17.4304 16.879C17.6204 16.7251 17.8015 16.6074 17.9732 16.5255C18.1367 16.4475 18.3039 16.4089 18.4762 16.4089C18.6286 16.4089 18.7434 16.4461 18.8268 16.5185C18.9048 16.5861 18.946 16.695 18.946 16.855C18.946 16.9692 18.9243 17.0791 18.8807 17.1857C18.8358 17.2954 18.7604 17.4179 18.6539 17.5523C18.5443 17.6906 18.3043 17.9457 17.9367 18.314L16.6839 19.5528L16.644 20.3661L16.7822 20.5012H20.2727L20.4108 20.3661V19.4975ZM12.6974 16.4924H14.9447L13.1592 20.3098L13.2848 20.5012H14.3914L14.518 20.4201L16.4067 16.1909L16.4182 15.4887L16.2801 15.3536H12.6974L12.5592 15.4887V16.3573L12.6974 16.4924Z" fill="#170D67"/>
<path d="M34.8957 35.3373C37.2742 32.8368 37.697 29.3396 37.697 27.4627C37.697 25.6539 36.1979 24.1876 34.3487 24.1876H28.4891V17.6375C28.4891 16.7331 27.7396 16 26.815 16C25.8904 16 25.1408 16.7331 25.1408 17.6375V25.0064V26.6405C24.7106 26.304 24.3245 26.036 23.9824 25.8364C22.9519 25.2351 21.7743 25.0107 20.4495 25.1632C19.6844 25.2513 19.0945 25.864 19.0505 26.6163C19.01 27.3091 19.4644 27.9373 20.1458 28.1305C20.8347 28.3258 21.3612 28.4796 21.7254 28.5919C22.1121 28.7111 23.2506 29.6251 25.1408 31.3338V32.6315C25.1408 34.2499 26.9489 35.3373 26.9489 35.3373" stroke="#170D67" stroke-width="2" stroke-linecap="round"/>
<path d="M25.1516 26.3212V30.9883" stroke="#170D67" stroke-width="2" stroke-linecap="square"/>
<path d="M20.3871 33H13.6129C7.19927 33 2 27.8007 2 21.3871V14.6129C2 8.19927 7.19927 3 13.6129 3L20.3871 3C26.8007 3 32 8.19927 32 14.6129V16.5484" stroke="#170D67" stroke-width="2" stroke-linecap="round"/>
</svg>
