<svg width="48" height="48" viewBox="0 0 48 48" fill="none" xmlns="http://www.w3.org/2000/svg">
<path d="M20 7C19.4477 7 19 7.44772 19 8C19 8.55228 19.4477 9 20 9V7ZM30 9C30.5523 9 31 8.55228 31 8C31 7.44772 30.5523 7 30 7V9ZM38 7C37.4477 7 37 7.44772 37 8C37 8.55228 37.4477 9 38 9V7ZM11 9C11.5523 9 12 8.55228 12 8C12 7.44772 11.5523 7 11 7V9ZM20 9H30V7H20V9ZM38 9C40.2091 9 42 10.7909 42 13H44C44 9.68629 41.3137 7 38 7V9ZM42 13V40H44V13H42ZM42 40C42 42.2091 40.2091 44 38 44V46C41.3137 46 44 43.3137 44 40H42ZM38 44H11V46H38V44ZM11 44C8.79086 44 7 42.2091 7 40H5C5 43.3137 7.68629 46 11 46V44ZM7 40V13H5V40H7ZM7 13C7 10.7909 8.79086 9 11 9V7C7.68629 7 5 9.68629 5 13H7Z" fill="#170D67"/>
<path d="M15 32L20 37L34 23" stroke="#170D67" stroke-width="2" stroke-linecap="round" stroke-linejoin="round"/>
<rect x="15.0934" y="3" width="2.02667" height="9.61446" rx="1.01333" fill="#170D67"/>
<rect x="32.3733" y="3" width="2.02667" height="9.61446" rx="1.01333" fill="#170D67"/>
<path fill-rule="evenodd" clip-rule="evenodd" d="M6 16H43V18H6V16Z" fill="#170D67"/>
</svg>
