<svg width="49" height="48" viewBox="0 0 49 48" fill="none" xmlns="http://www.w3.org/2000/svg">
<path fill-rule="evenodd" clip-rule="evenodd" d="M46.5 24C46.5 36.1503 36.6503 46 24.5 46C12.3497 46 2.5 36.1503 2.5 24C2.5 11.8497 12.3497 2 24.5 2C36.6503 2 46.5 11.8497 46.5 24ZM4.5 24C4.5 35.0457 13.4543 44 24.5 44C35.5457 44 44.5 35.0457 44.5 24C44.5 12.9543 35.5457 4 24.5 4C13.4543 4 4.5 12.9543 4.5 24Z" fill="#2DB16E"/>
<path d="M20.2862 29.5913L16.2075 25.5084C15.8171 25.1177 15.184 25.1174 14.7933 25.5077C14.4025 25.898 14.4022 26.5312 14.7925 26.9219L20.2737 32.4087L34.2011 18.713C34.5949 18.3258 34.6003 17.6926 34.213 17.2989C33.8258 16.9051 33.1926 16.8998 32.7989 17.287L20.2862 29.5913Z" fill="#2DB16E"/>
</svg>
